<svg id="Group_2104" data-name="Group 2104" xmlns="http://www.w3.org/2000/svg" width="20" height="15" viewBox="0 0 10 10">
  <path id="Path_37" data-name="Path 37" d="M-383.906,175.163a.419.419,0,0,1,.292.383c0,.1,0,.2,0,.293,0,.032,0,.063,0,.105h.484a1.554,1.554,0,0,1,1.549,1.231,1.387,1.387,0,0,1,.035.309q0,2.075,0,4.15a.389.389,0,0,1-.337.4.389.389,0,0,1-.433-.3.626.626,0,0,1-.01-.145q0-2.012,0-4.023a.78.78,0,0,0-.445-.761.79.79,0,0,0-.289-.075c-.181-.012-.363,0-.555,0,0,.125,0,.248,0,.37a.387.387,0,0,1-.394.405.386.386,0,0,1-.386-.4c0-.123,0-.246,0-.373h-1.779c0,.138,0,.276,0,.415a.384.384,0,0,1-.387.362.385.385,0,0,1-.39-.359c-.005-.1,0-.208,0-.312,0-.032,0-.064,0-.1h-1.759c0,.124,0,.246,0,.369a.387.387,0,0,1-.394.406.386.386,0,0,1-.386-.4c0-.123,0-.246,0-.39a4.58,4.58,0,0,0-.677.046.761.761,0,0,0-.593.8q0,1.294,0,2.588,0,1.694,0,3.388a.846.846,0,0,0,.16.531.81.81,0,0,0,.689.317h6.747a.841.841,0,0,0,.53-.163.807.807,0,0,0,.312-.623.386.386,0,0,1,.414-.385.388.388,0,0,1,.366.413,1.557,1.557,0,0,1-1.334,1.52,1.886,1.886,0,0,1-.262.018h-6.806a1.556,1.556,0,0,1-1.58-1.334.12.12,0,0,0-.018-.033v-6.485a.12.12,0,0,0,.018-.033,1.557,1.557,0,0,1,1.579-1.334h.454v-.106c0-.1,0-.2,0-.293a.419.419,0,0,1,.292-.383h.2a.451.451,0,0,1,.294.51c-.008.089,0,.179,0,.266h1.759c0-.037,0-.068,0-.1,0-.1,0-.2,0-.293a.419.419,0,0,1,.292-.383h.2a.451.451,0,0,1,.294.51c-.008.089,0,.179,0,.266h1.778c0-.037,0-.069,0-.1,0-.1,0-.2,0-.293a.419.419,0,0,1,.292-.383Z" transform="translate(391.543 -175.163)" fill="#555"/>
  <path id="Path_38" data-name="Path 38" d="M-278.4,289.632c-.257,0-.513,0-.77,0a1.336,1.336,0,0,1-1.36-1.355q-.006-.77,0-1.54a1.335,1.335,0,0,1,1.359-1.356q.77-.005,1.54,0a1.334,1.334,0,0,1,1.351,1.346q.007.778,0,1.557a1.335,1.335,0,0,1-1.35,1.347C-277.886,289.634-278.143,289.632-278.4,289.632Zm.777-2.9h-1.56v1.551h1.56Z" transform="translate(284.695 -281.244)" fill="#555"/>
  <path id="Path_39" data-name="Path 39" d="M-349.08,250.786a.664.664,0,0,1,.671.662.664.664,0,0,1-.675.675.664.664,0,0,1-.663-.671A.664.664,0,0,1-349.08,250.786Z" transform="translate(351.673 -247.299)" fill="#555"/>
  <path id="Path_40" data-name="Path 40" d="M-313.787,251.456a.664.664,0,0,1-.666.667.664.664,0,0,1-.671-.679.664.664,0,0,1,.675-.659A.664.664,0,0,1-313.787,251.456Z" transform="translate(318.648 -247.299)" fill="#555"/>
  <path id="Path_41" data-name="Path 41" d="M-279.165,251.455a.664.664,0,0,1-.665.669.664.664,0,0,1-.673-.677.663.663,0,0,1,.673-.66A.664.664,0,0,1-279.165,251.455Z" transform="translate(285.623 -247.299)" fill="#555"/>
  <path id="Path_42" data-name="Path 42" d="M-245.212,250.786a.664.664,0,0,1,.669.664.664.664,0,0,1-.677.674.663.663,0,0,1-.661-.672A.664.664,0,0,1-245.212,250.786Z" transform="translate(252.597 -247.299)" fill="#555"/>
  <path id="Path_43" data-name="Path 43" d="M-349.085,285.408a.664.664,0,0,1,.676.657.664.664,0,0,1-.669.681.664.664,0,0,1-.668-.665A.664.664,0,0,1-349.085,285.408Z" transform="translate(351.673 -280.324)" fill="#555"/>
  <path id="Path_44" data-name="Path 44" d="M-314.464,285.408a.664.664,0,0,1,.677.656.664.664,0,0,1-.669.681.664.664,0,0,1-.669-.665A.663.663,0,0,1-314.464,285.408Z" transform="translate(318.648 -280.324)" fill="#555"/>
  <path id="Path_45" data-name="Path 45" d="M-349.07,320.03a.663.663,0,0,1,.661.672.664.664,0,0,1-.685.665.664.664,0,0,1-.653-.681A.664.664,0,0,1-349.07,320.03Z" transform="translate(351.674 -313.35)" fill="#555"/>
  <path id="Path_46" data-name="Path 46" d="M-314.452,320.03a.664.664,0,0,1,.665.668.664.664,0,0,1-.681.67.664.664,0,0,1-.657-.676A.663.663,0,0,1-314.452,320.03Z" transform="translate(318.648 -313.35)" fill="#555"/>
</svg>
