<svg xmlns="http://www.w3.org/2000/svg" width="63.382" height="95.734" viewBox="0 0 63.382 95.734">
  <g id="Group_2454" data-name="Group 2454" transform="translate(-214.309 -960.133)">
    <path id="Path" d="M52.475.471a.1.1,0,0,0-.136-.055L47.9,1.469A73.825,73.825,0,0,1,18.322,2.3L5.1,0c-.027,0-.055,0-.109.055a.212.212,0,0,0-.027.111l14.474,24.5a2.568,2.568,0,0,1,.382,1.081c.818-.194,1.608-.388,2.426-.527L18.1,11.974c-.027-.028-.027-.028-.027-.055a2.773,2.773,0,0,1,1.8-3.465,2.711,2.711,0,0,1,3.407,1.829l4.5,14.357c.354-.028.736-.028,1.09-.028.518,0,1.036,0,1.554.028a2.873,2.873,0,0,1,.082-.832l2.235-9.063A2.717,2.717,0,1,1,38,16.1l-2.262,9.036c0,.055-.027.083-.027.111.654.139,1.308.277,1.963.444a2.635,2.635,0,0,1,.273-.638L52.5.554C52.5.527,52.5.527,52.475.471Z" transform="translate(217.266 960.133)" fill="#f06424"/>
    <path id="Shape" d="M61.017,45.18A29.224,29.224,0,0,0,38.736,18.652a28.871,28.871,0,0,0-5.29-.806A29.293,29.293,0,0,0,2.365,45.18L0,85.137H63.382ZM36.432,39.871a12.607,12.607,0,0,1,1.32,3.185H40.8a2.275,2.275,0,1,1,0,4.55H37.752a9.612,9.612,0,0,1-2.641,4.731,9.758,9.758,0,0,1-6.4,2.889l8.607,8.121a2.278,2.278,0,0,1-3.142,3.3L21.449,54.657a2.221,2.221,0,0,1,1.571-3.844h5.1A5.316,5.316,0,0,0,31.9,49.2a7.359,7.359,0,0,0,1.07-1.57h-9.95a2.275,2.275,0,1,1,0-4.549h9.95a5.468,5.468,0,0,0-4.85-3.185h-5.1a2.275,2.275,0,1,1,0-4.55H40.8a2.275,2.275,0,1,1,0,4.55v-.023Z" transform="translate(214.309 970.73)" fill="#a0a0a0"/>
    <path id="Path_1396" data-name="Path 1396" d="M3505.945,1226.544s4.377-7.56,15.916-5.969,15.518,3.183,15.916,8.356,1.592.4,1.99,9.55-.8,21.487-1.99,23.874,5.571,6.366-5.969,7.162-16.314,4.377-20.691-2.785-8.754-10.346-8.754-17.906S3505.945,1226.544,3505.945,1226.544Z" transform="translate(-3275 -223)" fill="#a0a0a0"/>
    <path id="Path_1397" data-name="Path 1397" d="M-3639.265,1979.332h-.255c-.9,0-1.8,0-2.705,0a.229.229,0,0,1-.149-.059q-1.416-1.472-2.827-2.948c-.01-.011-.018-.022-.038-.046h5.969c0-.049.006-.087.006-.125q0-2.95,0-5.9a2,2,0,0,0-.5-1.438,2.477,2.477,0,0,0-1.109-.629,2.672,2.672,0,0,0-1.487-.037,3.906,3.906,0,0,0-.494.2c-.129-.243-.281-.5-.407-.772-.2-.432-.4-.865-.575-1.309a1.159,1.159,0,0,1,.16-1.168,2.189,2.189,0,0,1,.8-.621,6.118,6.118,0,0,1,1.935-.642,3.491,3.491,0,0,1,3.512,1.429,6.724,6.724,0,0,1,1.21,2.972,11.266,11.266,0,0,1,.147,1.88c0,2,0,4,0,6v.159h.12c.522,0,1.043,0,1.565,0a.233.233,0,0,1,.151.058q1.444,1.467,2.881,2.94c.013.013.023.027.05.058h-4.766v.131q0,4.242,0,8.485a2.609,2.609,0,0,0,1.163,2.222,2.607,2.607,0,0,0,1.1.412,4.773,4.773,0,0,0,2.149-.084,6.869,6.869,0,0,0,2.4-1.3,12.014,12.014,0,0,0,2.8-3.08,6.834,6.834,0,0,0,.957-2.516c.033-.207.048-.416.073-.641-.137.01-.262.013-.386.028a4.934,4.934,0,0,1-1.7-.107,3.187,3.187,0,0,1-2.524-2.384,5.512,5.512,0,0,1-.141-2.662,3.572,3.572,0,0,1,1.414-2.252,3.467,3.467,0,0,1,1.5-.565,6.145,6.145,0,0,1,1.817-.045,4.4,4.4,0,0,1,2.287.993,7.15,7.15,0,0,1,2.384,3.818,9.006,9.006,0,0,1,.226,2.886,10.861,10.861,0,0,1-1.8,5.165,15.867,15.867,0,0,1-3.76,4.1,10.879,10.879,0,0,1-4.079,1.926,11.6,11.6,0,0,1-2.678.306,5.17,5.17,0,0,1-2.237-.539,9.138,9.138,0,0,1-3.451-2.825,4,4,0,0,1-.655-1.289.9.9,0,0,1-.033-.245q0-4.894,0-9.788Z" transform="translate(3879.278 -954.785)" fill="#fff"/>
  </g>
</svg>
