<svg xmlns="http://www.w3.org/2000/svg" width="89.964" height="50.875" viewBox="0 0 89.964 50.875">
  <path id="Path_1389" data-name="Path 1389" d="M-2667.828,2066.67a13.858,13.858,0,0,0-1.458-.943c-.711-.348-1.373-.5-1.963.367a1.456,1.456,0,0,1-1.9.384,4.64,4.64,0,0,0-1.727-.143c-.89.016-1.735.89-2.992-.015,1.114-.467,2.016-.851,2.924-1.221.183-.075.536-.064.557-.152.325-1.383,1.8-1.735,2.469-2.79a1.562,1.562,0,0,1,2.074-.051c.972,1.128,1.933,2.272,2.995,3.311a1.374,1.374,0,0,0,1.321.146,37.455,37.455,0,0,0,2.964-3.179c.638-.751.233-1.4-.253-2.125-1.271-1.9-2.513-3.833-3.6-5.844a3.068,3.068,0,0,1,1.143-3.628c.207-.115.846.25,1.093.551,1.732,2.114,3.4,4.279,5.113,6.408a12.763,12.763,0,0,0,4.817,3.692,10.577,10.577,0,0,1,6.349,7.405,32.144,32.144,0,0,1,.566,3.295c.173,1.573-.326,2.114-1.891,2.226a5.69,5.69,0,0,0-1.429.129c-2.428.837-3,1.312-2.386,4.272a13.5,13.5,0,0,1,10.318.825,26.679,26.679,0,0,1,3.734,2.621l-1.213.624a11.029,11.029,0,0,1,2.446,10.583c-1.11,3.926-3.661,6.751-7.616,7.579-8.059,1.689-12.61-2.238-14.374-10.022l-.276.138v4.14l-33.484.462V2093.3c-.834-.216-1.252-.231-1.563.72a11.27,11.27,0,0,1-13.558,7.226c-4.2-1.167-6.734-3.992-8.117-8.139-1.681,0-3.357.029-5.032-.008-1.724-.038-1.962-.253-1.972-1.943-.006-1.1-.177-1.727-1.539-1.548-1.091.144-1.538-.815-1.233-2.258a13.575,13.575,0,0,1,4.743-7.8,3.419,3.419,0,0,0,1.286-2.923,1.924,1.924,0,0,0-2-2.2,1.434,1.434,0,0,1-.238-.018c-1.358-.4-3.108-.051-3.855-1.679a5.8,5.8,0,0,1,.35-6.039,12.3,12.3,0,0,1,7.694-4.8c1.079-.249,2.193-.345,3.367-.523-.483-1.408-1.04-2.824-.353-4.363.671-1.5,1.594-1.76,2.709-.55a17.34,17.34,0,0,1,1.772,2.516c1.013,1.593,2.649,2.358,4.2,3.233,1.757.992,2.436,2.095,2.117,3.6a3.186,3.186,0,0,1-.488,1.206,1.954,1.954,0,0,0,.476,3.091c1.811,1.269,3.56.688,5.282-.229a10.8,10.8,0,0,1,1.778-.965,2.91,2.91,0,0,1,1.94-.116,43.576,43.576,0,0,1,3.938,2.6,1.374,1.374,0,0,1,.386.428c.364.619.584,1.634,1.086,1.8a5.707,5.707,0,0,0,3.365.243c2.8-.976,5.485-2.287,8.227-3.436,2.695-1.13,5.383-2.285,8.123-3.3a9.722,9.722,0,0,1,2.691-.2Zm23.29,31.558a2.206,2.206,0,0,0,.683-.153,8.855,8.855,0,0,0,2.479-13.114,22.556,22.556,0,0,0-2.359-2.259l-.272.319c.207.174.407.359.623.522a8.411,8.411,0,0,1,1.082,12.654,28.285,28.285,0,0,1-2.292,1.973,10.4,10.4,0,0,0-1.147.256,8.262,8.262,0,0,1-10.453-4.869,26.95,26.95,0,0,1-.87-4.177,3.577,3.577,0,0,0-.242,1.417,8.863,8.863,0,0,0,7.449,8.382A6.517,6.517,0,0,0-2644.538,2098.228Zm-3.016-11.837c3.814,1.4,3.6,5.22,2.011,6.786a4.128,4.128,0,0,1-5.252.417,3.951,3.951,0,0,1-.936-5.439c.371-.635.027-2.34-.677-2.478a2.209,2.209,0,0,0-1.705.775,6.224,6.224,0,0,0-1.17,5.426,7.271,7.271,0,0,0,6.168,5.542,7.075,7.075,0,0,0,7.1-4.2,6.743,6.743,0,0,0-1.312-7.642,4.614,4.614,0,0,0-3.335-1.809Zm-64.584,6.758a6.925,6.925,0,0,0,7.322,4.31c2.322-.205,4.994-2.285,5.414-4.292-1.52.111-3.033-.33-4.451.732a3.094,3.094,0,0,1-3.822-.033C-2709.067,2092.824-2710.543,2093.3-2712.138,2093.149Zm32.674-14.547c-.3,1.153.39,1.168,1.048,1.163,1.131-.01,1.674-.733,1.622-2-.031-.778-.384-.933-1.118-.74C-2677.814,2078.131-2678.107,2078.883-2679.464,2078.6Zm-.164-4.692c-1.505.025-2.079.777-1.878,2.137.035.24.311.445.476.666.205-.219.425-.427.612-.661.255-.319.459-.681.734-.98a7.486,7.486,0,0,1,.821-.684Zm32.3,19.147c1.276-.131,2.142-1.426,2.028-3.032a2.646,2.646,0,0,0-2.368-2.474C-2645.032,2089.633-2644.943,2091.077-2647.329,2093.057Z" transform="translate(2727.26 -2050.765)" fill="#5e5e5e"/>
</svg>
