<svg xmlns="http://www.w3.org/2000/svg" width="89.892" height="54.367" viewBox="0 0 89.892 54.367">
  <g id="Group_2281" data-name="Group 2281" transform="translate(2607.451 -1877.871)">
    <path id="Path_1388" data-name="Path 1388" d="M-2592.7,1891.938c-4.044-1.936-8.547-1.13-12.8-2.091.517-.03,1.034-.069,1.551-.087s1.04-.034,1.559-.022c5.237.118,10.476.165,15.708.394,2.947.129,5.888.5,8.819.873a41.089,41.089,0,0,0,14.048-.728c1.743-.382,3.527-.573,5.281-.913.655-.127,1.574-.184.982-1.465l3.112-.4c.517,1.356,1.208,1.558,2.306.778a5.641,5.641,0,0,0,.479-.359c2.1-1.841,2.215-1.134.76-3.848-.753-1.405-1.808-1.623-3.173-.778a12.817,12.817,0,0,1-1.1.717,3.532,3.532,0,0,1-.906.177c.033-.322-.057-.756.118-.949.9-.987,1.766-2.1,3.376-1.782a4.81,4.81,0,0,0,.9.008l.108-.289c-.219-.144-.435-.29-.655-.429-.429-.272-1.028-.445-1.249-.834a5.947,5.947,0,0,1-.391-1.784,4.366,4.366,0,0,1,1.781-.205c.424.141.691.809.988,1.268.278.431.4,1.041.773,1.318a10.592,10.592,0,0,1,3.009,4.161c1.265,2.536,2.8,4.942,4.308,7.349.161.256.954.315,1.364.184a19.373,19.373,0,0,1,8.077-.6,16.262,16.262,0,0,1,10.474,5.368,4.346,4.346,0,0,1-1.205.14c-2.294-.539-4.754-.613-6.581-2.478-.321-.327-1.039-.278-1.578-.376a19.5,19.5,0,0,0-8.3.5,7.025,7.025,0,0,0-1.041.482l4.382,8.968a14.43,14.43,0,0,1,10.289-.461,13.512,13.512,0,0,1,8.624,8.277,13.844,13.844,0,0,1-4.321,15.911,13.368,13.368,0,0,1-11.43,2.8c-5.622-1.2-9.372-4.634-10.82-10.081a13.431,13.431,0,0,1,4.305-14.2,1.368,1.368,0,0,0,.406-1.982c-1.218-2.351-2.356-4.743-3.525-7.119-.374-.759-.657-1.182-1.521-.308a18.287,18.287,0,0,0-4.534,7.159c-.285.866-.7,1.483-1.685,1.587-.8.085-.993.65-1.2,1.384q-1.165,4.248-2.565,8.429a1.824,1.824,0,0,1-1.278,1.057c-4.307.148-8.619.183-12.928.259a2.39,2.39,0,0,1-2.235-1.429c-.553-.993-1.192-1.5-2.468-.945a46.68,46.68,0,0,1-4.965,1.673,1.017,1.017,0,0,0-.827,1.216c.292,6.032-2.147,10.595-7.547,13.362a24.14,24.14,0,0,1-4.77,1.389c-.663.178-1.024-.169-1.259-.783-.29-.758-.659-1.486-.994-2.227l-.519.177.722,2.281-2.158-1.2-.392.5,1.383.92-.146.258a7.717,7.717,0,0,0-1.675-.651,10.863,10.863,0,0,1-7.02-4.369,12.934,12.934,0,0,1-2.894-9.929c.7-6.025,4.108-10.1,9.823-11.772a13.4,13.4,0,0,1,14.883,5.05c.168.221.335.444.492.674,1.217,1.778,1.217,1.78,3.257,1.138.381-.12.758-.252,1.133-.39.769-.284,2.028-.406,2.2-.9a9.651,9.651,0,0,0,.072-3.312.812.812,0,0,0-.327-.6c-1.481-.8-2.911-1.967-4.494-2.248a21.241,21.241,0,0,1-8-3.164c-3.454-2.24-7.01-4.322-10.478-6.541a5.637,5.637,0,0,1-1.648-1.788c-.364-.593-.11-1.153.68-1.322,1.84-.393,3.661-.835,5.475.19a4.409,4.409,0,0,0,1.526.222Zm-3.624,29.116a2.725,2.725,0,0,0,4.163.786,11.729,11.729,0,0,1-2.111-.028,13,13,0,0,1-2.076-.736,16.687,16.687,0,0,1-.667-3.01,6.228,6.228,0,0,1,.658-2.05c1.672-.79,3.349-1.3,5.1-.073a2.609,2.609,0,0,0-2.431-1.28,2.63,2.63,0,0,0-2.644,1.374,2.836,2.836,0,0,0-1.256,2.873C-2597.383,1919.719-2597.446,1920.761-2596.32,1921.054Zm60.1-14.419a36.347,36.347,0,0,1,1.6,3.28c.347.922.82.923,1.628.686a6.1,6.1,0,0,1,6.284,1.91,6.178,6.178,0,0,1,1.489,6.343,6.19,6.19,0,0,1-5.6,4.676,6.183,6.183,0,0,1-6.377-3.115,6.466,6.466,0,0,1,.317-7.324c.166-.243.372-.644.28-.845-.643-1.422-1.36-2.812-2.071-4.248a11.477,11.477,0,0,0-2.089,15.96c3.69,4.855,10.933,6.037,15.7,2.562a11.425,11.425,0,0,0,2.84-16.236C-2525.513,1905.583-2532.034,1904.289-2536.22,1906.635Zm-49.007,11.4a23.191,23.191,0,0,1-2.591.692c-.827.126-1.061.622-1.258,1.318a4.857,4.857,0,0,1-6.82,2.962,4.986,4.986,0,0,1-2.038-7.009,4.8,4.8,0,0,1,7.029-1.388,2.822,2.822,0,0,0,3.146.335c.478-.175.959-.341,1.438-.511-1.134-2.909-5.445-5.623-10.1-4.09a8.507,8.507,0,0,0-5.616,10.591,8.5,8.5,0,0,0,9.411,6.22A8.483,8.483,0,0,0-2585.227,1918.035Zm15.44-15.19.266.133c1.487-1.163,2.987-2.309,4.453-3.5a14.9,14.9,0,0,0,1.3-1.338c-.533-.3-1.057-.627-1.6-.909a11.252,11.252,0,0,0-1.106-.454c-1-.387-1.8-.45-1.884.989a6.689,6.689,0,0,1-.424,1.238C-2569.135,1900.282-2569.456,1901.565-2569.787,1902.845Zm36.376,9.663c4.239-.143,6.178,1.207,6.4,4.3a4.444,4.444,0,0,1-4.113,4.691,4.36,4.36,0,0,1-4.4-2.259c-.969-1.622-.488-3.285-.057-4.952-1.65,1.671-1.376,4.5.5,6.414a5.109,5.109,0,0,0,6.924.15,5.128,5.128,0,0,0,.64-7C-2529.079,1911.945-2531.687,1911.276-2533.411,1912.508Zm-49.147-14.632c-1.229-2.622-7.749-5.68-9.489-4.469Zm-7.4,32.35a16.9,16.9,0,0,0-2.2-2.2,1.8,1.8,0,0,0-1.544.22c-.221.136-.1.835-.127,1.28l.328,0,.815-.964.423.15c-.786.848-1.371,1.759-.249,2.534C-2591.284,1932.091-2591.019,1930.523-2589.954,1930.226Z" fill="#5e5e5e"/>
  </g>
</svg>
