<svg xmlns="http://www.w3.org/2000/svg" width="94.473" height="49.628" viewBox="0 0 94.473 49.628">
  <g id="Group_2280" data-name="Group 2280" transform="translate(2727.447 -1880.174)">
    <path id="Path_1384" data-name="Path 1384" d="M-2653.082,1906.014l-1.389.519-4.457-5.511c-3.061.487-2.871,3.12-3.617,5.106q-.957,2.55-1.814,5.139c-.206.628-.152,1.352-.407,1.951-.362.85-.944,1.6-1.349,2.438-.382.788-1.061,1.717-.9,2.428.473,2.131-1.655,5.005-3.677,5.405a15.324,15.324,0,0,1-1.706.4c-1.215.1-2.438.144-3.657.134-2.275-.018-4.55-.132-6.825-.134-4.119,0-8.239.005-12.356.09a4.493,4.493,0,0,1-3.44-1.264,7.236,7.236,0,0,0-2.29-1.064c-.66-.267-.954.15-1.136.7a11.6,11.6,0,0,1-10.761,7.451,11.726,11.726,0,0,1-10.788-7.263,11.554,11.554,0,0,1,5.258-14.436.343.343,0,0,0,.189-.267c-1.648.356-3.485.106-4.737,1.639-1.053,1.289-2.134,2.554-3.17,3.855a8.84,8.84,0,0,0-.706,1.255l-.626-.482a23.853,23.853,0,0,0,1.009-2.349,3.265,3.265,0,0,0,.132-1.69c-.452-1.786-.24-2.2,1.609-2.532l-2.214-2.409a17.988,17.988,0,0,0,2.737-.543,38.441,38.441,0,0,0,6.015-2.537,7.307,7.307,0,0,0,2.226-2.958,2.006,2.006,0,0,1,2.142-1.207c2.71.016,5.423-.165,8.131-.341a2.626,2.626,0,0,1,3.024,1.568c1.824,3.529,4.379,4.724,8.33,3.669,1.95-.521,3.792-1.452,5.746-1.946,2.961-.749,4.845-3.1,7.3-4.589,2.6-1.582,5.178-3.218,7.743-4.865,1.5-.96,2.822-.541,4.068.43a10.856,10.856,0,0,1,1.7,1.66c1.1,1.332,1.223,1.36,2.5.1a10.414,10.414,0,0,0-5.753-5.231,1.691,1.691,0,0,1-2.959.349c-.238-.258-.773-.226-1.152-.376a3.644,3.644,0,0,1-.647-.424c.187-.219.334-.517.572-.641a5.39,5.39,0,0,1,1.636-.654c1.353-.2,1.493-1.016,1.345-2.145a26.592,26.592,0,0,1-.177-2.992,7.385,7.385,0,0,1,.2-1.277c1.05.511,1.308,1.47.882,2.909-.1.343-.274.668-.349,1.015-.366,1.68-.358,1.682,1.337,1.725,1.661.042,2.035.673,1.313,2.15a33.286,33.286,0,0,0,3.679,3.335,4.813,4.813,0,0,1,1.67,1.486c.428.711,2.609.157,3.1-.7a4.124,4.124,0,0,1,4.581-2.218,1.218,1.218,0,0,1,.762.873,14.463,14.463,0,0,1-.27,2.737c-.171.981-.441,1.944-.676,2.951a4.366,4.366,0,0,1-3.931-.92c-.173-.152-.525-.1-.794-.145.011.3-.1.709.055.884.726.823,1.564,1.547,2.28,2.376a7.942,7.942,0,0,1,.873,1.54,3.841,3.841,0,0,0,.265.644c1.428,1.748,2.873,3.483,4.313,5.221Zm-23.173.88-1.385-2.976-.5.3c.16.494.266.871.4,1.236.15.4.329.787.542,1.291l-.459.8,1.415-.676-.913,1.352,1.783-.594.108.283-1.734,1.023.09.2,1.552-.459.1.23-1.43.92.124.233,1.187-.432.14.188-1.2,1.008.138.184.935-.3.1.166-.962.871.141.208,2.011-.982-.142-.242.928.253.061-.184-1.2-.98.143-.191,1.2.431.113-.208-1.433-1,.134-.187,1.508.444.063-.2-1.714-1.063.152-.249,1.659.556a2.444,2.444,0,0,0-1.364-1.084A13.944,13.944,0,0,0-2676.255,1906.894Zm-29.968,14c-1.514-.169-2.788-.959-4.154.606-1.335,1.529-3.931,1.215-5.408-.248a4.251,4.251,0,0,1-.041-5.922,4.218,4.218,0,0,1,5.822-.052c.36.336.771.81,1.192.847a16.763,16.763,0,0,0,2.7-.157,7.069,7.069,0,0,0-7.78-4.963,7.59,7.59,0,0,0-6.3,6.711,7.3,7.3,0,0,0,5.555,7.62A7.032,7.032,0,0,0-2706.223,1920.9Zm24.311-9.844-.129-.319,1.506-.965-.141-.233-2.066.835-.139-.308,1.785-1.031-.147-.278c-.385.156-.767.321-1.157.464-.371.136-.751.25-1.127.374l-.1-.277,2.021-1.113-.152-.292-2.644,1.048-.132-.317,2.424-1.3-.115-.259-2.682,1.077-.151-.338,3.347-1.677-.116-.246-3.547,1.582-1.123-2.359-1.516.95c2.148,1.708,1.987,4.021,2.021,5.827,1.049.591,2.041.846,2.486,1.484.461.66.39,1.69.616,2.907l1.087-1.628c1.561.508,2.36-.81,3.51-1.891l-1.347.248-.082-.192.8-.72-.1-.179-1.433.483-.1-.2,1.073-.975-.151-.148-1.542.672-.164-.3,1.423-.966-.13-.214Zm-23.713-2.331-.218.346a13.328,13.328,0,0,1,4.405,6.813c1.1-.685,2.035-1.18,2.869-1.809a2.247,2.247,0,0,0-.61-3.72C-2701.293,1909.7-2703.473,1909.255-2705.625,1908.722Zm38.308,6.689c.747-2.013,1.455-3.893,2.132-5.785a.655.655,0,0,0-.152-.6c-.829-.413-1.688-.768-2.536-1.142l-.174.36,2.087,1.094-.126.29-1.244-.439-1.143-.4-.1.253,1.78,1.02-.16.3-2.061-.836-.13.271,1.576.965-.138.285-1.95-.757-.1.211,1.456.96-.145.285-1.6-.656-.138.194,1.094.922-.148.2-1.393-.474-.075.195.773.763-.159.162-1.075-.272-.086.249Zm3.608-10.933c.835-1.771.5-2.551-1.647-3.934a3.673,3.673,0,0,0-4.963.932q3.161,1.494,6.294,2.973A1.18,1.18,0,0,0-2663.709,1904.478Zm-9.794-2.18c.939,1.118,1.562,2.209.87,3.663-.025.054.337.292.511.438l.581-2.208-.852-.684.674-.312Zm-39,4.219,3.872.887A3.107,3.107,0,0,0-2712.506,1906.517Zm1.761,13.862c-1.455,1.115-2.9.871-4.351.018A2.7,2.7,0,0,0-2710.745,1920.379Z" fill="#5e5e5e"/>
    <path id="Path_1385" data-name="Path 1385" d="M-2653.095,1906.033c.537.645.705,1.965,2.068,1.116a.557.557,0,0,1,.515.133c.521.65,1.02,1.321,1.482,2.015.063.095-.121.355-.209.588a30.819,30.819,0,0,1,5.008-1.009,8.034,8.034,0,0,1,6.873,3.584,7.2,7.2,0,0,0,.715.715l-.032-.046a7.237,7.237,0,0,0,.217.9,8.825,8.825,0,0,1-.835,8.568c-.3.44-.551.916-.824,1.376l.036-.048c-.46.285-.936.549-1.38.858a8.764,8.764,0,0,1-13.619-5.06,11.452,11.452,0,0,1,.16-4.6,4.667,4.667,0,0,1,1.565-2.252c1.468-1.317,1.566-1.531.462-3.115-.595-.852-1.233-1.675-1.794-2.549a4.918,4.918,0,0,1-.4-1.178Zm9.966,14.32c1.218-.249,1.594-1.215,1.775-2.24a3.06,3.06,0,0,0-1.372-3.205,2.173,2.173,0,0,0-2.481-.225c.161.019.266.041.372.043a2.969,2.969,0,0,1,3,1.9,2.754,2.754,0,0,1-.938,3.212,2.075,2.075,0,0,0-.337.541c-.436,0-.872,0-1.308.007a2.827,2.827,0,0,1-3.019-2.7c-.025-.258-.063-.515-.121-.985a3.179,3.179,0,0,0,1.126,3.566A2.912,2.912,0,0,0-2643.129,1920.353Zm-6.935-7.322a7.082,7.082,0,0,0,.557,9.908,7.386,7.386,0,0,0,9.968-.037,7.325,7.325,0,0,0,.4-10.217c-2.384-2.57-6.42-3.264-8.971-1.237a6.116,6.116,0,0,1,.576.715,2.522,2.522,0,0,0,2.854,1.393,4.048,4.048,0,0,1,4.336,4.533,4.385,4.385,0,0,1-5.055,3.625,4.248,4.248,0,0,1-3.011-5.6,1.438,1.438,0,0,0-.059-1.066A24.673,24.673,0,0,0-2650.064,1913.031Z" fill="#5e5e5e"/>
    <path id="Path_1386" data-name="Path 1386" d="M-2636.643,1913.175c-.42-1.786-1.844-2.712-3.234-3.588a10.667,10.667,0,0,0-5.481-1.278c-1.429-.057-3.405.417-3.908-1.855a2.244,2.244,0,0,1,3.231.042,1.9,1.9,0,0,0,2.593.365c.348-.211.542-.677.948-1.213.841.27,2.072.064,2.893,1.369.437.7,1.514.956,2.213,1.524a11.528,11.528,0,0,1-2.271,19.545,11.446,11.446,0,0,1-15.971-7.375,34.486,34.486,0,0,1-.649-3.986l-2.09.393,1.453-1.655c.594.068,1.118.3,1.42.128.732-.409.127-.869-.136-1.268-.353-.535-.8-1.047-.119-1.609l2.5,1.386a1.656,1.656,0,0,1-.067.6c-1.889,4.588,1.118,10.739,6.852,12a8.92,8.92,0,0,0,8.19-2.256c.124-.112.133-.351.195-.531l-.036.048c.148-.04.354-.03.437-.126a8.95,8.95,0,0,0,2.309-7.811,13.51,13.51,0,0,0-1.3-2.9Z" fill="#5e5e5e"/>
    <path id="Path_1387" data-name="Path 1387" d="M-2653.169,1908.861c.428.591.753,1.091,1.13,1.546.49.592.578,1.1-.11,1.615a1.433,1.433,0,0,1-2.046.056c-.555-.509-.834-1.075-.276-1.75C-2654.074,1909.849-2653.645,1909.4-2653.169,1908.861Z" fill="#5e5e5e"/>
  </g>
</svg>
