<svg xmlns="http://www.w3.org/2000/svg" width="79.02" height="50.793" viewBox="0 0 79.02 50.793">
  <g id="Group_2372" data-name="Group 2372" transform="translate(1066.961 -177.913)">
    <path id="Path_1419" data-name="Path 1419" d="M-1008.7,185.321c-1.3.566-2.47,1.059-3.625,1.581-.733.331-1.359.416-1.75-.481-.464-1.066-.307-1.86.577-2.267,1.8-.828,3.643-1.55,5.421-2.414a5.11,5.11,0,0,0,1.743-1.408c.982-1.264,2.006-2.137,3.793-1.975a13.618,13.618,0,0,0,3.77-.375c1.561-.3,2.5.407,2.376,2.052-.085,1.124-.293,2.239-.455,3.358q-.166,1.154-.359,2.3c-.273,1.622-1.237,2.071-2.711,1.416-1.17-.52-2.416-.869-3.629-1.294l-.163.309c1.2,1.643,2.43,3.264,3.593,4.933a93.114,93.114,0,0,1,9.586,16.461,10.109,10.109,0,0,1,.74,2.74c.143,1.2-.335,1.469-1.448,1.019a22.85,22.85,0,0,0-3.938-1.5c-5.612-1.123-11.388,2.578-11.413,8.926,0,1.018,0,2.036,0,3.132h-41.8a11.029,11.029,0,0,0-.775-6.963,9.445,9.445,0,0,0-14.255-3.262c-.367.278-.713.581-1.079.859-1.037.783-1.614.565-1.706-.736a9.228,9.228,0,0,1,1.656-5.811,21.5,21.5,0,0,1,2.063-2.4c.307-.34.689-.612,1-.952.918-1.012.78-1.7-.444-2.316-.218-.11-.443-.2-.72-.327a6.076,6.076,0,0,1,3.16-3.824c3.44-1.722,6.99-3.353,10.983-3.138,3.1.167,6.2.488,9.292.831a50.531,50.531,0,0,1,6.061.958c3.673.867,5.163,5.949,2.731,8.762a4.885,4.885,0,0,0-1.044,2.559,12.282,12.282,0,0,0,2.621,9.335c1.781,2.19,4.3,2.756,6.938,2.849,1.937.067,3.882-.062,5.822-.137a4.657,4.657,0,0,0,3.855-2.453,22.776,22.776,0,0,0,2.839-7.936,80.127,80.127,0,0,0,.847-21.559C-1008.559,185.934-1008.626,185.7-1008.7,185.321Zm-33.156,14.629c-1.66.195-1.869.491-1.792,2.1.077,1.589.082,3.182.1,4.773.033,2.9.044,5.8.081,8.706.015,1.218.382,1.547,1.6,1.536,1.381-.012,2.761-.012,4.141-.021s1.67-.273,1.651-1.688c-.061-4.423-.14-8.845-.208-13.267-.029-1.875-.026-1.875-1.831-2.263l-.167-1.437h-1.932C-1041.777,198.388-1041.777,198.388-1041.851,199.95Z" transform="translate(-0.085 0)" fill="#5e5e5e"/>
    <path id="Path_1420" data-name="Path 1420" d="M-998.109,223.78a9.006,9.006,0,0,1,8.994-8.964,9.035,9.035,0,0,1,9.086,9.213,9.074,9.074,0,0,1-9.177,8.914A9.013,9.013,0,0,1-998.109,223.78Zm5.233-3.427c-1.672,1.359-1.986,4.435-.657,6.415A5.338,5.338,0,0,0-987,228.745a5.349,5.349,0,0,0,3.087-6.1c-.545-2.263-2.812-4.081-4.317-3.824a.567.567,0,0,0-.009.2c.427,1.234.845,2.47,1.295,3.7.587,1.6.128,2.894-1.242,3.425-1.467.569-2.678-.06-3.278-1.729C-991.939,223.089-992.388,221.759-992.877,220.353Z" transform="translate(-7.913 -4.241)" fill="#5e5e5e"/>
    <path id="Path_1421" data-name="Path 1421" d="M-1058.017,214.836a8.984,8.984,0,0,1,9.13,8.7,9.034,9.034,0,0,1-8.765,9.409,9.078,9.078,0,0,1-9.307-8.777A9,9,0,0,1-1058.017,214.836Zm1.567,4a5.237,5.237,0,0,0-6.215,2.692,5.3,5.3,0,0,0,1.546,6.556,5.3,5.3,0,0,0,6.731-.248c1.618-1.4,2.253-3.932,1.48-5.3-1,.907-2.029,1.865-3.085,2.792a3.893,3.893,0,0,1-1.2.816,2.348,2.348,0,0,1-2.774-.982,2.386,2.386,0,0,1,.337-3.015C-1058.62,221.076-1057.586,220.024-1056.45,218.841Z" transform="translate(0 -4.243)" fill="#5e5e5e"/>
    <path id="Path_1422" data-name="Path 1422" d="M-1033.884,214.137h-6.037c0-2.386.039-4.883-.01-7.379-.062-3.235-.29-3.045,3.109-3.091,3-.041,2.957-.313,2.94,2.916C-1033.894,209.124-1033.884,211.665-1033.884,214.137Zm-2.268-8.85c-1.057-.084-2.007,1.562-2.133,3.468l2.034-.6-1.55,3.976.42.243a3.424,3.424,0,0,0,.672-.878c.294-.884.467-1.808.739-2.7.154-.505.408-.982.712-1.694l-2.484,1.068Z" transform="translate(-3.103 -2.957)" fill="#5e5e5e"/>
    <path id="Path_1423" data-name="Path 1423" d="M-1039.719,220.54h5.934C-1034.494,221.47-1038.667,221.615-1039.719,220.54Z" transform="translate(-3.131 -4.899)" fill="#5e5e5e"/>
    <path id="Path_1424" data-name="Path 1424" d="M-1039.768,217.363v-.726h6.048v.726Z" transform="translate(-3.125 -4.45)" fill="#5e5e5e"/>
    <path id="Path_1425" data-name="Path 1425" d="M-1033.706,218.616v.612h-5.973l-.123-.612Z" transform="translate(-3.121 -4.678)" fill="#5e5e5e"/>
  </g>
</svg>
