<svg xmlns="http://www.w3.org/2000/svg" width="44.013" height="42.122" viewBox="0 0 44.013 42.122">
  <g id="Group_2376" data-name="Group 2376" transform="translate(0 0)">
    <path id="Path_1440" data-name="Path 1440" d="M-1282.222,142.142l-3.033.683v-2.9c0-1.254,0-2.509,0-3.763.008-1.557.6-2.151,2.145-2.152q16.629,0,33.257,0c.136,0,.271-.005.407,0a1.692,1.692,0,0,1,1.777,1.694c.024.269.008.542.008.813q0,18.561,0,37.122c0,2.053-.443,2.49-2.516,2.49h-32.748c-1.818,0-2.33-.523-2.331-2.375,0-1.933.131-3.876-.035-5.794-.179-2.06.9-3.6,1.73-5.441l1.5,3.244c-.02.022-.061.056-.057.065a.952.952,0,0,0,.092.127v6.84h31.007V137.34h-30.994v4.6Z" transform="translate(1291.667 -134.005)" fill="#f06424"/>
    <path id="Path_1441" data-name="Path 1441" d="M-1280.447,157.667c-.737,1.319-.371,2.509-.145,3.741a1.994,1.994,0,0,1-.667,1.457,3.337,3.337,0,0,0-1.161,1.934,1.64,1.64,0,0,1-1.618,1.53,3.034,3.034,0,0,0-2.106,1.046,1.832,1.832,0,0,1-2.132.392,6.1,6.1,0,0,0-2.219-.266,2.162,2.162,0,0,1-2.238-1,3.653,3.653,0,0,0-1.494-1.236,2.139,2.139,0,0,1-1.459-2.171,3.614,3.614,0,0,0-.622-1.834,2.067,2.067,0,0,1-.077-2.436,4.24,4.24,0,0,0,.519-1.979,2.148,2.148,0,0,1,1.254-2.1,4.611,4.611,0,0,0,1.574-1.454,2.045,2.045,0,0,1,2.218-1.006,3.246,3.246,0,0,0,1.817-.289,2.166,2.166,0,0,1,2.681.3,3.941,3.941,0,0,0,1.806.717c.892.143,1.559.449,1.766,1.386a3.461,3.461,0,0,0,1.375,2.033A5.749,5.749,0,0,1-1280.447,157.667Zm-8.248,7.389a5.206,5.206,0,0,0,5.319-5.224,5.3,5.3,0,0,0-5.238-5.348,5.384,5.384,0,0,0-5.359,5.267A5.307,5.307,0,0,0-1288.7,165.056Z" transform="translate(1296.744 -141.845)" fill="#f06424"/>
    <path id="Path_1442" data-name="Path 1442" d="M-1271.423,151.936c7.649,0,15.106,0,22.563,0,.612,0,1.1.226,1.09.919-.014.708-.549.866-1.141.867q-3.307.008-6.613,0c-4.443,0-8.885-.013-13.328.012-.752,0-1.381,0-1.706-.854C-1270.677,152.571-1271.036,152.347-1271.423,151.936Z" transform="translate(1285.501 -141.967)" fill="#f06424"/>
    <path id="Path_1443" data-name="Path 1443" d="M-1265.423,164.657l.327-1.239.257-.211c4.826-.017,9.652-.043,14.478-.048,1.55,0,3.1.05,4.649.077l.313.177c.619.77.323,1.2-.531,1.411a5.771,5.771,0,0,0-.965-.163Q-1256.159,164.649-1265.423,164.657Z" transform="translate(1282.836 -146.95)" fill="#f06424"/>
    <path id="Path_1444" data-name="Path 1444" d="M-1295.52,185.043l2.471-5.164c1.066,1.515,2.465,1.543,4.071,1.132l-2.785,5.825A2.736,2.736,0,0,0-1295.52,185.043Z" transform="translate(1296.2 -154.374)" fill="#f06424"/>
    <path id="Path_1445" data-name="Path 1445" d="M-1277.441,186.876l-2.353-4.946,3.582-2.131,2.452,5.114C-1275.5,184.584-1276.8,184.934-1277.441,186.876Z" transform="translate(1289.218 -154.339)" fill="#f06424"/>
    <path id="Path_1446" data-name="Path 1446" d="M-1240.955,188.56a7.137,7.137,0,0,1-4.036-1.2,6.983,6.983,0,0,0-1.428-.744,1.546,1.546,0,0,0-2.216,1.309c-.076.337-.47.6-.718.9-.214-.369-.623-.746-.607-1.1a2.906,2.906,0,0,1,3.933-2.45,5.837,5.837,0,0,1,1.532.768,6.211,6.211,0,0,0,5.313.879c.559-.132,1.182-.294,1.28.442.033.251-.572.732-.967.861A12.543,12.543,0,0,1-1240.955,188.56Z" transform="translate(1275.97 -156.695)" fill="#f06424"/>
    <path id="Path_1447" data-name="Path 1447" d="M-1268.351,175.68c.307-1.442.307-1.442,1.751-1.442,2.834,0,5.668-.017,8.5.022a1.387,1.387,0,0,1,.981.5c.123.173-.129.615-.213.937Z" transform="translate(1284.136 -151.868)" fill="#f06424"/>
    <path id="Path_1448" data-name="Path 1448" d="M-1265.423,165.853q9.264,0,18.528,0a5.771,5.771,0,0,1,.965.163q-9.548.016-19.1.024C-1265.159,166.043-1265.291,165.919-1265.423,165.853Z" transform="translate(1282.836 -148.145)" fill="#f06424"/>
    <path id="Path_1449" data-name="Path 1449" d="M-1268.351,176.834l11.02.017a2.845,2.845,0,0,1-.738.21q-4.859.022-9.717,0A1.721,1.721,0,0,1-1268.351,176.834Z" transform="translate(1284.136 -153.022)" fill="#f06424"/>
    <path id="Path_1450" data-name="Path 1450" d="M-1279.755,148.479l.207-.2Z" transform="translate(1289.2 -140.342)" fill="#f06424"/>
    <path id="Path_1451" data-name="Path 1451" d="M-1264.578,163.245l-.257.211Z" transform="translate(1282.575 -146.988)" fill="#f06424"/>
    <path id="Path_1452" data-name="Path 1452" d="M-1229.657,163.475l-.313-.177Z" transform="translate(1267.094 -147.012)" fill="#f06424"/>
    <path id="Path_1453" data-name="Path 1453" d="M-1279.48,191.314a.938.938,0,0,1-.092-.127c0-.009.037-.043.057-.065Z" transform="translate(1289.119 -159.366)" fill="#f06424"/>
    <path id="Path_1454" data-name="Path 1454" d="M-1285.017,165.255c.75-.778,1.394-1.529,2.135-2.166.24-.206.737-.112,1.116-.156-.047.357.033.826-.165,1.05a35.017,35.017,0,0,1-2.507,2.525c-.21.194-.733.379-.868.269a14.331,14.331,0,0,1-1.779-1.77.736.736,0,0,1,.164-.7.935.935,0,0,1,.817-.039A7.284,7.284,0,0,1-1285.017,165.255Z" transform="translate(1292.472 -146.85)" fill="#f06424"/>
  </g>
</svg>
