<svg xmlns="http://www.w3.org/2000/svg" width="91.722" height="95.732" viewBox="0 0 91.722 95.732">
  <g id="Group_2457" data-name="Group 2457" transform="translate(-915.026 -960.133)">
    <path id="Path" d="M10.717,78.461v-68H65.635V67.57L76.1,58.927V5.231A5.23,5.23,0,0,0,70.87,0H5.486A5.23,5.23,0,0,0,.257,5.231V83.69A5.23,5.23,0,0,0,5.486,88.92H51.129L43.735,78.461Z" transform="translate(914.769 960.133)" fill="#a0a0a0"/>
    <path id="Path-2" data-name="Path" d="M74.921,35.512a2.616,2.616,0,0,0-3.459-.116L47.472,55.223,31.485,45.631A2.615,2.615,0,0,0,28,49.383L45.329,73.9a2.62,2.62,0,0,0,2.112,1.106h.024a2.605,2.605,0,0,0,2.108-1.069L75.239,38.958A2.621,2.621,0,0,0,74.921,35.512Z" transform="translate(931.007 980.858)" fill="#f06424"/>
    <path id="Path-3" data-name="Path" d="M47.526,11.474H16.139a5.231,5.231,0,0,0,0,10.461H47.524a5.231,5.231,0,0,0,0-10.461Z" transform="translate(921.113 966.967)" fill="#a0a0a0"/>
    <path id="Path-4" data-name="Path" d="M47.526,21.308H16.139a5.231,5.231,0,0,0,0,10.461H47.524a5.231,5.231,0,0,0,0-10.461Z" transform="translate(921.113 972.823)" fill="#a0a0a0"/>
    <path id="Path-5" data-name="Path" d="M47.526,31.143H16.139a5.231,5.231,0,0,0,0,10.461H47.524a5.231,5.231,0,0,0,0-10.461Z" transform="translate(921.113 978.68)" fill="#a0a0a0"/>
  </g>
</svg>
