<svg xmlns="http://www.w3.org/2000/svg" width="60.016" height="95.714" viewBox="0 0 60.016 95.714">
  <g id="Group_2456" data-name="Group 2456" transform="translate(-689.682 -960.133)">
    <path id="Path" d="M57.7,53.259c-1.074-.84-12.289-13.285-15.317-15.044V5.92A5.916,5.916,0,0,0,36.462,0H5.964A5.916,5.916,0,0,0,.044,5.92V62.461a5.916,5.916,0,0,0,5.92,5.92H19.249l-.547-4.65c-.176-.156-.293-.254-.469-.41H12.372a6.006,6.006,0,0,0-7.287-7.307V12a6.7,6.7,0,0,0,1.094.1,6,6,0,0,0,6-6,6.422,6.422,0,0,0-.1-1.055H30.288a6.429,6.429,0,0,0-.1,1.055,5.987,5.987,0,0,0,6,6,6.7,6.7,0,0,0,1.094-.1V54.959h0V67.307c-2.071-1.524-4.376-6.291-4.376-6.291s-1.133-12.68-7.561-12.68a4.433,4.433,0,0,0-.508.019s-4.865.41-.84,14.321l1.8,15.454s2.012,8.382,7.561,14.184v1.719a1.68,1.68,0,0,0,1.68,1.68H53.108a1.671,1.671,0,0,0,1.661-1.485c.645-6.017,3.145-28.388,4.611-31.787a6.417,6.417,0,0,0,.508-1.68C60.219,58.847,60.337,55.33,57.7,53.259Z" transform="translate(689.638 960.133)" fill="#a0a0a0"/>
    <ellipse id="Oval" cx="3.595" cy="3.595" rx="3.595" ry="3.595" transform="translate(707.91 972.227)" fill="#a0a0a0"/>
    <ellipse id="Oval-2" data-name="Oval" cx="8.595" cy="8.595" rx="8.595" ry="8.595" transform="translate(701.91 986.227)" fill="#f06424"/>
    <path id="Shape" d="M5.174,26.535a13.009,13.009,0,0,0,10.14,12.68,9.185,9.185,0,0,1,.567-.938,7.513,7.513,0,0,1,5.392-3.38,9.547,9.547,0,0,1,1.055-.059,10,10,0,0,1,4.708,1.172A12.987,12.987,0,1,0,5.174,26.535Zm14.7-4.8a4.854,4.854,0,0,1,.566,1.274H21.75a.912.912,0,1,1,0,1.82H20.442a3.784,3.784,0,0,1-1.132,1.892,4.322,4.322,0,0,1-2.742,1.156l3.689,3.248A.869.869,0,0,1,20.3,32.4a1.035,1.035,0,0,1-1.386.045l-5.455-4.8a.865.865,0,0,1-.3-.673.924.924,0,0,1,.976-.864h2.186a2.359,2.359,0,0,0,1.62-.646,2.943,2.943,0,0,0,.459-.628H14.129a.912.912,0,1,1,0-1.82h4.264a2.355,2.355,0,0,0-2.079-1.274H14.129a.912.912,0,1,1,0-1.82H21.75a.912.912,0,1,1,0,1.82v-.009Z" transform="translate(692.693 968.199)" fill="#f06424"/>
    <path id="Path_1398" data-name="Path 1398" d="M-3642.88,1969.929h-.1c-.356,0-.712,0-1.069,0a.088.088,0,0,1-.059-.023q-.56-.581-1.117-1.164l-.015-.018h2.358c0-.02,0-.035,0-.049q0-1.165,0-2.33a.79.79,0,0,0-.2-.568.98.98,0,0,0-.438-.249,1.057,1.057,0,0,0-.587-.015,1.532,1.532,0,0,0-.195.079c-.051-.1-.111-.2-.161-.305-.08-.171-.159-.342-.227-.517a.457.457,0,0,1,.063-.461.862.862,0,0,1,.316-.245,2.416,2.416,0,0,1,.764-.254,1.378,1.378,0,0,1,1.387.564,2.652,2.652,0,0,1,.478,1.174,4.347,4.347,0,0,1,.058.743c0,.79,0,1.579,0,2.369v.063h.047c.206,0,.412,0,.618,0a.091.091,0,0,1,.059.023q.571.58,1.138,1.161a.289.289,0,0,1,.02.023h-1.882v.052q0,1.676,0,3.352a1.031,1.031,0,0,0,.459.878,1.031,1.031,0,0,0,.433.163,1.887,1.887,0,0,0,.849-.033,2.711,2.711,0,0,0,.947-.512,4.742,4.742,0,0,0,1.1-1.217,2.7,2.7,0,0,0,.378-.994c.013-.082.019-.164.029-.253-.054,0-.1.005-.153.011a1.948,1.948,0,0,1-.672-.042,1.259,1.259,0,0,1-1-.942,2.181,2.181,0,0,1-.056-1.052,1.41,1.41,0,0,1,.559-.89,1.369,1.369,0,0,1,.592-.223,2.423,2.423,0,0,1,.718-.018,1.741,1.741,0,0,1,.9.392,2.825,2.825,0,0,1,.942,1.508,3.555,3.555,0,0,1,.089,1.14,4.291,4.291,0,0,1-.711,2.04,6.263,6.263,0,0,1-1.485,1.62,4.3,4.3,0,0,1-1.611.761,4.584,4.584,0,0,1-1.058.121,2.041,2.041,0,0,1-.884-.213,3.612,3.612,0,0,1-1.363-1.116,1.579,1.579,0,0,1-.258-.509.359.359,0,0,1-.013-.1q0-1.933,0-3.866Z" transform="translate(4351.867 -975.968)" fill="#fff"/>
  </g>
</svg>
