<svg xmlns="http://www.w3.org/2000/svg" width="55.008" height="40.88" viewBox="0 0 55.008 40.88">
  <g id="Group_2373" data-name="Group 2373" transform="translate(0)">
    <path id="Path_1426" data-name="Path 1426" d="M-1514.3,194.871c-2.178-.1-2.46,2.409-4.551,2.516.609-1.3,1.156-2.522,1.756-3.719.338-.675.577-1.228-.152-1.865a1.31,1.31,0,0,1-.029-1.256c1.251-.87,1.806-2.636,3.6-2.811.2-.019.372-.318.534-.467a36.366,36.366,0,0,1-1.834-3.5c-1-2.527-.228-4.612,2.291-5.572a23.455,23.455,0,0,1,5.442-1.174c3.308-.41,6.66-.5,9.949-1.015,2.167-.336,2.79-1.238,2.7-2.9-1.141,1.067-2.03.282-2.862-.363-.72-.558-2.184-.5-1.76-2.165.086-.338-.957-.918-1.395-1.455a3.707,3.707,0,0,1-.416-1.086,3.062,3.062,0,0,1,1.045.243c.584.393,1.095.894,1.846,1.528l1.275-1.651c-.577-.511-1.231-1.046-1.824-1.641-.165-.166-.153-.509-.222-.771.258-.041.59-.206.762-.1,1,.6,1.729,1.415,3.146,1.572.928.1,1.675,1.863,2.494,2.888.051.064.062.256.02.285-1.466,1.015-.538,2.4-.651,3.654a3.322,3.322,0,0,1-2.8,2.876c-2.552.569-5.156.923-7.753,1.251-2.1.265-4.268.161-6.336.573-4.476.894-5.252,3.139-2.559,6.882.147.2.308.4.566.73,7.246-1.449,14.223-.221,20.993,2.861a21.475,21.475,0,0,0-.595,2.081,3.5,3.5,0,0,0,3.354,4.276c.809.044,1.63-.042,2.43.059,2.779.352,4.546-2.223,3.838-5.148-.409-1.689-.162-3.526-.371-5.277a16.921,16.921,0,0,0-3.28-8,2.606,2.606,0,0,0-.814-.664,8.063,8.063,0,0,0-1.047-.432c.265-.26.515-.538.8-.776.5-.42,1.052-.788,1.539-1.226a1.675,1.675,0,0,0-.446-2.708,1.489,1.489,0,0,1-.648-.837,11.05,11.05,0,0,1-.307-1.948c-.046-.5-.009-1-.009-1.713,2.335,1.384,1.375,4.05,2.547,5.736,3.5-1.411,5.52-.066,5.557,3.766l-1.26.391a3.278,3.278,0,0,0,.2.377c2.131,3,4.285,5.994,6.379,9.025a5.822,5.822,0,0,1,.487,1.678c.921,0,2.03-.072,3.125.02a2.046,2.046,0,0,1,2.06,1.859c.075.453.62.833.961,1.237.537.635,1.084,1.262,1.832,2.132l-2.129.637a35.99,35.99,0,0,1,2.662,4.648c.755,1.873.032,3.692-1.122,5.269a6.658,6.658,0,0,1-7.754,2.193c-3.08-1.23-4.537-4.1-4.034-8.027a2.147,2.147,0,0,0-2.651,1.044,5.145,5.145,0,0,1-4.577,2.492c-3.495.06-7.025.672-10.468.327-2.687-.269-5.107.728-7.689.659a2.029,2.029,0,0,0-1.422.82c-2.422,3.443-6.475,4.32-9.659,2.024-3.118-2.249-3.64-6.358-1.228-9.671C-1514.671,195.421-1514.592,195.3-1514.3,194.871Zm40.451,2.026a4.274,4.274,0,0,0,.2,6,4.269,4.269,0,0,0,6-.059c.059-.053.115-.109.169-.168,1.019-1.149,1.623-2.4.921-3.946l-1.337-2.248a4.085,4.085,0,0,0-5.478.005Zm-29.125,3.99-.049-.619a17.31,17.31,0,0,0-7.156-3.314c-.784-.117-1.752,1-2.636,1.554.455.586.8,1.523,1.383,1.7a41.479,41.479,0,0,0,6.166,1.317A6.246,6.246,0,0,0-1502.978,200.886Zm-10.853-1.915c-1.021,2.849,2.555,6.011,4.975,4.877l-1.461-.216-.146-1.564-1.088,1.01-1.433-.914.9-1.325-1.437-.219Z" transform="translate(1518.855 -165.609)" fill="#f06424"/>
    <path id="Path_1427" data-name="Path 1427" d="M-1494.189,217.574c.225-.149.677-.69,1.177-.737a58.69,58.69,0,0,1,6.355-.321c.92.012,1.825.686,2.753.731a39.91,39.91,0,0,0,5.445-.124c2.053-.181,5.377,1.272,6.12,3.153a4.248,4.248,0,0,1-.4,2.812c-.112.272-1.262.288-1.873.147a43.555,43.555,0,0,1-4.2-1.262A26.462,26.462,0,0,0-1491.5,220.6C-1493.575,220.91-1494.2,220.212-1494.189,217.574Z" transform="translate(1501.695 -201.021)" fill="#f06424"/>
    <path id="Path_1428" data-name="Path 1428" d="M-1366.152,271.9q-.08.088-.169.168l-1.932-.29c-.03.291-.076.72-.12,1.142h-1.66c-.037-.537-.069-1.01-.117-1.7l-1.206,1.273-1.328-1.154,1.1-1.4h-1.6V268.21l1.185-.09-.516-1.986.467-.42,1.655.708c.035-.425.069-.847.1-1.286h1.792V266.5l1.927-.789,1.337,2.247V269.8l-1.307.138Z" transform="translate(1417.515 -234.847)" fill="#f06424"/>
    <path id="Path_1429" data-name="Path 1429" d="M-1495.123,273.18c1.237-1.177,2.392-1.243,3.61-.245C-1492.581,274.366-1493.343,274.438-1495.123,273.18Z" transform="translate(1502.345 -239.787)" fill="#f06424"/>
  </g>
</svg>
