<svg xmlns="http://www.w3.org/2000/svg" width="95.601" height="95.623" viewBox="0 0 95.601 95.623">
  <g id="Group_2455" data-name="Group 2455" transform="translate(-435.2 -960.133)">
    <path id="Path" d="M32.335,21.321c2.7,0,4.9-2.735,4.9-6.1s-2.2-6.1-4.9-6.1-4.9,2.735-4.9,6.1S29.632,21.321,32.335,21.321Z" transform="translate(451.472 965.568)" fill="#a0a0a0"/>
    <path id="Shape" d="M20.428,41.136l0,.069a7.578,7.578,0,0,0,4.353,7.21l.037.018a11.109,11.109,0,0,1,5.027,4.841l.02.036a8.061,8.061,0,0,0,7.589,4.2l.068,0q.321-.017.641-.017a11.581,11.581,0,0,1,6.21,1.8,8.352,8.352,0,0,0,8.855,0,11.583,11.583,0,0,1,6.851-1.781l.067,0a8.054,8.054,0,0,0,7.588-4.2l.015-.028a11.129,11.129,0,0,1,5.039-4.855l.029-.014a7.575,7.575,0,0,0,4.354-7.21l0-.066a10.786,10.786,0,0,1,1.879-6.692,7.369,7.369,0,0,0,0-8.334,10.793,10.793,0,0,1-1.881-6.692l0-.068a7.58,7.58,0,0,0-4.353-7.211l-.032-.015a11.118,11.118,0,0,1-5.032-4.843l-.024-.047a8.056,8.056,0,0,0-7.584-4.191l-.069,0A11.6,11.6,0,0,1,53.221,1.27a8.356,8.356,0,0,0-8.855,0,11.6,11.6,0,0,1-6.851,1.781l-.066,0a8.059,8.059,0,0,0-7.588,4.2l-.018.036a11.129,11.129,0,0,1-5.038,4.848l-.033.016a7.574,7.574,0,0,0-4.349,7.207l0,.066a10.8,10.8,0,0,1-1.879,6.693,7.369,7.369,0,0,0,0,8.335A10.8,10.8,0,0,1,20.428,41.136ZM67.472,39.9c0,5.224-3.714,9.473-8.279,9.473s-8.278-4.249-8.278-9.473,3.713-9.473,8.278-9.473,8.279,4.249,8.279,9.474ZM58.789,11.08a1.689,1.689,0,1,1,2.865,1.789L38.8,49.479a1.688,1.688,0,1,1-2.864-1.788Zm-20.394.1c4.565,0,8.278,4.25,8.278,9.473s-3.713,9.474-8.278,9.474-8.279-4.25-8.279-9.474S33.831,11.185,38.4,11.185Z" transform="translate(445.412 960.133)" fill="#a0a0a0"/>
    <path id="Path-2" data-name="Path" d="M40.468,27.283c0,3.363,2.2,6.1,4.9,6.1s4.9-2.735,4.9-6.1-2.2-6.1-4.9-6.1-4.9,2.734-4.9,6.1Z" transform="translate(459.236 972.75)" fill="#a0a0a0"/>
    <path id="Path-3" data-name="Path" d="M82.732,46.355l-.04.02-15.668,7.4a12.193,12.193,0,0,1,.217,2.636,1.687,1.687,0,0,1-1.686,1.641h-.049l-22.931-.631a1.689,1.689,0,0,1,.092-3.376l21.082.58A8.7,8.7,0,0,0,55.42,47.4l-13.95-.384a18.389,18.389,0,0,1-7.906-2.041l-1.419-.736a21.446,21.446,0,0,0-21.892,1.233L9.7,65.762l2.4-1.283a10.427,10.427,0,0,1,7.773-.851l23.675,6.646a22.121,22.121,0,0,0,13.55-1.515l32.8-21.217a6.133,6.133,0,0,0-7.159-1.188Z" transform="translate(440.909 985.032)" fill="#a0a0a0"/>
    <path id="Path-4" data-name="Path" d="M.041,70.3.872,40.106l11.923.328-.831,30.195Z" transform="translate(435.159 984.018)" fill="#f06424"/>
  </g>
</svg>
