<svg xmlns="http://www.w3.org/2000/svg" width="54.725" height="41.403" viewBox="0 0 54.725 41.403">
  <g id="Group_2374" data-name="Group 2374" transform="translate(0)">
    <path id="Path_1430" data-name="Path 1430" d="M-945.257,197.092c.327-1.736.655-3.474,1.006-5.336a26.143,26.143,0,0,0,3.28,1.049,9.29,9.29,0,0,0,7.1-1.561c1.846-1.231,4.119-2.867,6.062-2.7,4.561.4,9.239,1.248,12.884,4.817-.773,1.2-1.689,1.781-3.121,1.3s-2.92-.886-4.363-1.379c-.325-.111-.764-.407-.826-.688-.44-2.007-1.582-1.342-3.109-.7h3.181a20.651,20.651,0,0,1-2.014,1.973c-1.983,1.405-4.01,2.748-6.024,4.107a6.957,6.957,0,0,1-7.248.74C-940.489,197.826-942.84,197.639-945.257,197.092Z" transform="translate(945.257 -188.534)" fill="#f06424"/>
    <path id="Path_1431" data-name="Path 1431" d="M-904.483,233.963l1.047,2.979a47.428,47.428,0,0,1-18.19.057l.812-2.591-10.65-.566c.043-2.657,1.471-4.258,4.3-5.153,4.05-1.279,8.226-.2,9.956,2.109l9.433.792Z" transform="translate(938.466 -208.036)" fill="#f06424"/>
    <path id="Path_1432" data-name="Path 1432" d="M-865.7,243.844l.419,5.264c-5.8-1.526-8.976,2-12.176,5.787a6.447,6.447,0,0,1-3.962,1.828c-3.563.38-7.2.885-10.693-.549-.447-.183-.908-.334-1.358-.509-.194-.076-.381-.173-.5-.227a2.819,2.819,0,0,1,3.1-2.213c1.388.044,2.777.1,4.158.231a1.371,1.371,0,0,1,.94.547c.792,1.345,1.626.832,2.76.046l-2.452.34a13.991,13.991,0,0,1,1.138-2.149q2.489-3.075,5.088-6.061a6.555,6.555,0,0,1,5.9-2.384C-870.868,244.016-868.376,243.844-865.7,243.844Z" transform="translate(920.001 -215.727)" fill="#f06424"/>
    <path id="Path_1433" data-name="Path 1433" d="M-881.5,234l-3.287-2.375a5.1,5.1,0,0,1,.826-1.5c3.028-2.639,9.24-2.544,12.142.246a18.514,18.514,0,0,1,2.094,3.17C-873.974,234.259-877.709,234.669-881.5,234Z" transform="translate(915.484 -208.071)" fill="#f06424"/>
    <path id="Path_1434" data-name="Path 1434" d="M-894.068,218.657c.034,2.537-1.617,4.446-3.893,4.5a4.1,4.1,0,0,1-4.134-4.27c-.066-2.615,1.658-4.6,4.005-4.616C-895.81,214.259-894.1,216.121-894.068,218.657Z" transform="translate(924.006 -201.207)" fill="#f06424"/>
    <path id="Path_1435" data-name="Path 1435" d="M-871.443,216.442a3.518,3.518,0,0,1-3.451,3.632,3.607,3.607,0,0,1-3.218-3.688,3.53,3.53,0,0,1,3.386-3.7A3.44,3.44,0,0,1-871.443,216.442Z" transform="translate(912.196 -200.425)" fill="#f06424"/>
    <path id="Path_1436" data-name="Path 1436" d="M-919.546,212.686a3.583,3.583,0,0,1,3.262,3.877,3.592,3.592,0,0,1-3.445,3.518,3.525,3.525,0,0,1-3.207-3.909A3.4,3.4,0,0,1-919.546,212.686Z" transform="translate(934.269 -200.425)" fill="#f06424"/>
  </g>
</svg>
