<svg xmlns="http://www.w3.org/2000/svg" width="44.386" height="45.92" viewBox="0 0 44.386 45.92">
  <g id="Group_2375" data-name="Group 2375" transform="translate(0)">
    <path id="Path_1437" data-name="Path 1437" d="M-632.372,252.9c.685-.207,1.342-.393,1.99-.6a13.867,13.867,0,0,1,6-.836,9.1,9.1,0,0,1,3.5,1.326c1.438.835,2.89,1.646,4.324,2.488.425.249.678.093,1-.2,1.167-1.049,2.318-2.13,3.574-3.064a4.428,4.428,0,0,1,3.407-.88,1.62,1.62,0,0,1,.776.268,1.353,1.353,0,0,0,1.368.2,3.04,3.04,0,0,1,3.225.763c.113.124.4.121.61.118a4.3,4.3,0,0,1,3.482,1.114,1.44,1.44,0,0,0,1.476.509,3.363,3.363,0,0,1,1.317.1,1.985,1.985,0,0,1,1.236,2.989,7.563,7.563,0,0,1-2.631,2.505q-2.927,1.86-5.932,3.6a58.36,58.36,0,0,1-8.816,4.309,12.561,12.561,0,0,1-5.57,1.013,18.231,18.231,0,0,1-6.38-1.96c-1.178-.578-2.328-1.225-3.539-1.722a13.886,13.886,0,0,0-4.39-.865c-.057.061-.078.073-.08.088-.251,1.588-.357,1.677-1.984,1.677-1.129,0-2.259.006-3.388,0a1.212,1.212,0,0,1-1.374-1.361q-.007-5.777,0-11.553a1.2,1.2,0,0,1,1.34-1.336c1.241-.007,2.481,0,3.722,0C-632.971,251.569-632.726,251.748-632.372,252.9Zm-.059,9.508a.927.927,0,0,0,.178.071c.275.039.551.073.826.105a15.394,15.394,0,0,1,5.864,1.732c1.093.617,2.245,1.136,3.392,1.649a11.356,11.356,0,0,0,9.411.113,72.926,72.926,0,0,0,8.926-4.467c2.181-1.283,4.289-2.691,6.407-4.078a3.941,3.941,0,0,0,.944-1c.3-.418.188-.75-.315-.877a2.633,2.633,0,0,0-1.092-.041,13.583,13.583,0,0,0-1.929.5,74.7,74.7,0,0,0-9.243,4.184c-.25.126-.286.251-.206.521a2.208,2.208,0,0,1-2.577,3.011,14.422,14.422,0,0,1-2.316-.554c-2.112-.679-4.192-1.463-6.319-2.084a37.24,37.24,0,0,0-3.757-.7.764.764,0,0,1-.719-.877.769.769,0,0,1,.946-.635c1.666.325,3.353.586,4.982,1.048,2.079.589,4.1,1.365,6.164,2.027a5.764,5.764,0,0,0,1.524.251.619.619,0,0,0,.632-.932,2.711,2.711,0,0,0-.669-1,21.646,21.646,0,0,0-2.8-2.159c-2.478-1.469-5.219-2.454-7.594-4.132a6.681,6.681,0,0,0-5.47-.982c-1.586.349-3.135.862-4.709,1.27a.578.578,0,0,0-.518.68c.019,2.3.008,4.591.01,6.887C-632.462,262.091-632.441,262.254-632.431,262.411Zm32.2-7.854c-.322-.152-.525-.268-.742-.346a3.477,3.477,0,0,0-3,.285c-1.991,1.133-3.954,2.316-5.924,3.486-.326.193-.63.422-.941.631.274.519.561.6,1.058.343,1.862-.949,3.738-1.874,5.632-2.755C-602.914,255.625-601.635,255.14-600.234,254.556Zm-4.588-1.415c-.173-.074-.26-.148-.326-.133a6.357,6.357,0,0,0-1.948.5c-1.843,1.163-3.612,2.443-5.408,3.682-.036.024-.044.089-.062.126.271.4.528.2.808.029q2.991-1.861,5.992-3.707C-605.489,253.474-605.192,253.337-604.822,253.141Zm-9.593,3.031.06.206a2.558,2.558,0,0,0,.652-.231c1.526-1.074,3.04-2.166,4.555-3.256a1.25,1.25,0,0,0,.174-.2C-610.408,252.4-612.581,254.1-614.415,256.172Z" transform="translate(639.174 -222.72)" fill="#f06424"/>
    <path id="Path_1438" data-name="Path 1438" d="M-601.894,189.339a14.3,14.3,0,0,1-14.267-14.385,14.3,14.3,0,0,1,14.5-14.223,14.315,14.315,0,0,1,14.1,14.459A14.321,14.321,0,0,1-601.894,189.339Zm-11.112-14.3a11.171,11.171,0,0,0,11.08,11.164,11.153,11.153,0,0,0,11.207-11.152A11.109,11.109,0,0,0-601.8,163.889,11.122,11.122,0,0,0-613.006,175.043Z" transform="translate(623.384 -160.73)" fill="#f06424"/>
    <path id="Path_1439" data-name="Path 1439" d="M-594.34,176.982c-.309-.143-.5-.216-.671-.313a1.05,1.05,0,0,1-.494-1.278,1,1,0,0,1,1.262-.615c.525.172,1.021.437,1.547.605a1.046,1.046,0,0,0,.684-.049,7.568,7.568,0,0,0,.781-.523,1.026,1.026,0,0,1,1.425.245,1.016,1.016,0,0,1-.223,1.43c-.122.1-.246.208-.343.29.869.91,1.7,1.795,2.559,2.657a.487.487,0,0,0,.456.013c.426-.258.821-.568,1.237-.845a1.031,1.031,0,0,1,1.511.236,1.031,1.031,0,0,1-.321,1.457c-.473.352-.961.683-1.449,1.027l1.721,3.6c.159-.094.322-.2.5-.29a1.017,1.017,0,0,1,1.325.334.909.909,0,0,1-.173,1.332,1.938,1.938,0,0,0-1.046,2.45,2.25,2.25,0,0,1,0,.609,1.028,1.028,0,0,1-1.081.97,1.055,1.055,0,0,1-.987-1c-.011-.2,0-.4,0-.776l-1.75,1.223a13.259,13.259,0,0,1,.877,1.283,2,2,0,0,1,.324,1.121,1.124,1.124,0,0,1-.725.712,1.2,1.2,0,0,1-.959-.31,15.172,15.172,0,0,1-1.24-1.589l-1.693,1.2c.329.132.532.207.729.3a1.008,1.008,0,0,1,.585,1.28.956.956,0,0,1-1.18.662,7.111,7.111,0,0,1-1.647-.635.752.752,0,0,0-.9.06c-.247.16-.474.352-.727.5a1,1,0,0,1-1.372-.244,1.029,1.029,0,0,1,.224-1.434c.109-.1.225-.185.306-.251l-2.926-2.762c-.27.19-.731.522-1.2.843a1.058,1.058,0,0,1-1.57-.146c-.383-.523-.241-1.1.388-1.56.36-.261.739-.495,1.083-.773.114-.092.147-.285.209-.435.008-.021-.036-.061-.052-.094l-1.625-3.245c-.146.084-.312.191-.487.279a.991.991,0,0,1-1.288-.288.982.982,0,0,1,.1-1.354,5.349,5.349,0,0,1,.846-.625.659.659,0,0,0,.325-.743,11.17,11.17,0,0,1-.086-1.437,1.066,1.066,0,0,1,1.032-1.139,1.063,1.063,0,0,1,1.038,1.081c.011.142.026.284.052.555l1.7-1.188c-.335-.48-.647-.93-.961-1.379-.445-.636-.4-1.24.134-1.607a1.072,1.072,0,0,1,1.537.375c.328.443.638.9.994,1.4Zm-1.915,11.292a12.585,12.585,0,0,0,2.728,2.632.546.546,0,0,0,.478-.059c.661-.438,1.3-.91,1.955-1.359.227-.155.281-.3.105-.539-.625-.869-1.226-1.755-1.858-2.619-.075-.1-.347-.2-.427-.142C-594.265,186.858-595.237,187.555-596.255,188.274Zm7.015-7.49c-1-.905-1.9-1.738-2.828-2.545-.086-.075-.35-.035-.477.042-.395.238-.764.517-1.143.782-1.157.81-1.158.81-.344,1.966.485.688.973,1.374,1.481,2.091Zm-7.3.3c-.818.578-1.591,1.109-2.34,1.671a.512.512,0,0,0-.108.47q.636,1.529,1.337,3.029a.455.455,0,0,0,.413.15c.99-.667,1.961-1.361,2.985-2.081Zm7.47,6.983c.818-.577,1.606-1.118,2.368-1.691a.543.543,0,0,0,.064-.483q-.4-1.09-.862-2.156c-.172-.394-.4-.761-.631-1.181l-3.221,2.273Z" transform="translate(614.333 -170.265)" fill="#f06424"/>
  </g>
</svg>
