<svg xmlns="http://www.w3.org/2000/svg" width="85.771" height="63.569" viewBox="0 0 85.771 63.569">
  <path id="Path_1391" data-name="Path 1391" d="M-2428.531,2129.138c-.795-2.02-1.581-4.016-2.366-6.013l.409-.226c1.339,1.644,2.768,3.225,3.994,4.95,1.624,2.287,3.087,4.688,4.629,7.033a2.407,2.407,0,0,0,.624.7,4.156,4.156,0,0,1,1.7,3.833c0,.311-.569.808-.947.891a29.478,29.478,0,0,1-3.2.368c.356.319.559.524.784.7a42.849,42.849,0,0,1,9.867,9.92c1.441,2.171,2.461,4.477,1.978,7.173-.145.81.371.8.888.929,3.7.947,6.991,2.576,9.324,5.748a3.587,3.587,0,0,1,.327.49c.123.243.216.5.365.858l-2.151.888a10.36,10.36,0,0,1,3.661,7.22,9.773,9.773,0,0,1-2.675,7.547,9.621,9.621,0,0,1-11.177,2.373c-5.237-2.293-6.833-6.646-5.888-12.218-1.346,0-2.576-.025-3.8.021a.918.918,0,0,0-.676.457c-1.545,3.769-4.757,4.42-8.3,4.533a71.511,71.511,0,0,0-8.124.426c-4.411.649-8.761,1.7-13.166,2.4-2.789.444-5.633.529-8.444.853a2.113,2.113,0,0,0-1.4.775,10.1,10.1,0,0,1-10.855,4.411c-1.4-.356-2.859-.549-3.628-2.129-.233-.478-1.109-.622-1.648-.982a3.1,3.1,0,0,1-.584-.728c.925-1.067.856-1.163-.374-1.621a1.925,1.925,0,0,1-1-1.135,10.223,10.223,0,0,1,.928-8.313.815.815,0,0,0,.072-.543c-1.513,1.571-2.46,3.739-4.584,4.584l-.417-.381c.693-1.077,1.418-2.135,2.065-3.239.307-.525,1.064-1.138-.089-1.708-.144-.072,0-1.106.265-1.527.336-.527.6-.794-.122-1.2-.217-.122-.31-.688-.262-1.022.62-4.286,2.674-7.523,6.883-9.074,1.139-.42,1.636-.963,1.355-2.278-.405-1.888-.912-3.785-.408-5.779a4.426,4.426,0,0,0-.307-1.988c-.235-.9.009-1.3.982-1.445a23.106,23.106,0,0,1,8.91.613c2.691.667,5.326,1.573,7.961,2.446a20.879,20.879,0,0,0,9.109.764c2.593-.3,5.2-.464,7.682.555,1.926.79,3.557,1.944,4.062,4.162a2.258,2.258,0,0,1-2.128,3.022,7.194,7.194,0,0,0-6.56,7.1c-.078,2.3,1.379,3.865,4.1,4.362,2.859.522,5.783.7,8.682.992,1.543.156,2.544-.911,3.424-1.881a30.7,30.7,0,0,0,6.377-9.955,5.753,5.753,0,0,0,.127-3.615c-1.544-4.329-3.311-8.58-5.052-12.837a4.767,4.767,0,0,0-1.207-1.44c-.157-.151-.5-.114-.761-.15-.39-.054-.782-.1-1.173-.146a4.931,4.931,0,0,1,.442-1.272c.27-.394,1.024-.668,1.025-1a25.006,25.006,0,0,0-.38-3.564c-.02-.14-.262-.305-.433-.359a1.714,1.714,0,0,1-1.219-2.336c.269-1.2.856-1.934,2.188-1.831C-2428.769,2129.312-2428.67,2129.212-2428.531,2129.138Zm21.715,48.385a4.226,4.226,0,0,0-1,.083,2.485,2.485,0,0,1-3.267-2.834c.037-.2.113-.383.169-.574.041-.139.08-.278.12-.416l-.385-.061a7.665,7.665,0,0,0-.243,1.841c.244,2.224,2.256,3.056,4.574,1.943a3,3,0,0,0,.748-3.4,2.486,2.486,0,0,0-2.175-1.589.69.69,0,0,0,.311.348c1.962,1.071,2.265,2.149,1.16,4.036C-2406.9,2177.055-2406.816,2177.312-2406.816,2177.523Zm2.735,4.2a4.587,4.587,0,0,0-.858.271,7.683,7.683,0,0,1-11.356-6.776,20.568,20.568,0,0,1,.673-3.591l2.609-2.912a4.148,4.148,0,0,0-2.583,2.934,4.833,4.833,0,0,0-.717,1.075,8.015,8.015,0,0,0,7.115,10.554c1.859.072,3.7-.065,5.091-1.579.154-.024.353,0,.455-.081a7.967,7.967,0,0,0,2.112-10.16c-.252-.456-.587-.867-.883-1.3l-.249.188a4.834,4.834,0,0,0,.273.5,7.792,7.792,0,0,1-.331,9.33C-2403.17,2180.7-2403.63,2181.2-2404.081,2181.721Zm-8.181-11.537a6.2,6.2,0,0,0-1.848,8.362,6.389,6.389,0,0,0,8.558,2.264,6.286,6.286,0,0,0,2.577-8.371c-1.491-2.867-4.837-4.32-7.077-3.143.517.83.367,2.136,1.712,2.344a3.709,3.709,0,0,1,3.248,3.137,3.676,3.676,0,0,1-2.215,3.841,3.66,3.66,0,0,1-4.012-.961,3.762,3.762,0,0,1-.278-4.534,2.051,2.051,0,0,0,.114-1.4A7.533,7.533,0,0,0-2412.262,2170.184Zm-54.077,10.493c-1.462-.149-2.768-.242-4.062-.426s-2.588-.447-3.877-.7c-1.231-.239-1.562-.743-1.519-1.972.072-2.043,1.281-3.331,2.782-4.479a1.2,1.2,0,0,0,.48-.915c-.055-.274-.475-.538-.792-.682a1.646,1.646,0,0,0-2.089.549,6.218,6.218,0,0,0,0,8.71A6.064,6.064,0,0,0-2466.339,2180.677Zm38.725-49.459-.506-.037a21.854,21.854,0,0,0-.43,3.533c.073,2.093.452,2.172,2.4,1.271a.888.888,0,0,0,.32-.806C-2426.383,2133.841-2427.011,2132.535-2427.614,2131.218Zm-46.58,52.367c2.852,1.412,6.559,1.129,7.313-.563C-2469.289,2184.4-2471.723,2184.222-2474.194,2183.585Zm-4.2-9.8a6.06,6.06,0,0,0,0,5.189Zm67.84-6.227,5.129.376C-2407.23,2166.945-2408.9,2167.323-2410.553,2167.555Z" transform="translate(2484.394 -2122.899)" fill="#5e5e5e"/>
</svg>
