<svg xmlns="http://www.w3.org/2000/svg" width="61.338" height="66.054" viewBox="0 0 61.338 66.054">
  <g id="Group_2273" data-name="Group 2273" transform="translate(1922.482 -214.019)">
    <path id="Path_1378" data-name="Path 1378" d="M-1748.525,255.275l-2.42,2.737-6.716-5.873c.25-.286.488-.559.728-.832.517-.587,1.032-1.177,1.556-1.758a.262.262,0,0,0,.016-.4,21.754,21.754,0,0,1-3.853-8.739,21.9,21.9,0,0,1-.336-6.32,21.878,21.878,0,0,1,1.732-6.8,21.925,21.925,0,0,1,7.972-9.558,21.232,21.232,0,0,1,8.371-3.374,25.63,25.63,0,0,1,3.45-.326,20.947,20.947,0,0,1,10.723,2.5,21.8,21.8,0,0,1,10.556,12.179,20.2,20.2,0,0,1,1.1,4.774,21.672,21.672,0,0,1-5.661,17.522,21.449,21.449,0,0,1-11.819,6.706,21.624,21.624,0,0,1-5.815.4,21.99,21.99,0,0,1-9.491-2.808A.765.765,0,0,0-1748.525,255.275Zm10.968.487a19.681,19.681,0,0,0,19.674-19.45,19.673,19.673,0,0,0-20.227-19.9,19.653,19.653,0,0,0-19.125,19.607A19.662,19.662,0,0,0-1737.557,255.763Z" transform="translate(-145.646 0)" fill="#f06424"/>
    <path id="Path_1379" data-name="Path 1379" d="M-1904.555,588.475l6.716,5.875-1.281,1.455q-3.467,3.935-6.933,7.87c-2.843,3.223-5.7,6.437-8.526,9.673a4.422,4.422,0,0,1-3.413,1.645,4.368,4.368,0,0,1-4.308-3.26,4.373,4.373,0,0,1,.976-4.232c1.746-2,3.513-3.978,5.269-5.969q1.764-2,3.52-4.005,3.687-4.187,7.377-8.372C-1904.964,588.933-1904.766,588.712-1904.555,588.475Z" transform="translate(0 -334.92)" fill="#f06424"/>
    <path id="Path_1380" data-name="Path 1380" d="M-1716.229,274.188c.2-5.821,2.43-10.617,7.28-14.022a15.874,15.874,0,0,1,12.313-2.557,33.37,33.37,0,0,0-5.386,1.5,21.9,21.9,0,0,0-8.236,5.307,23.833,23.833,0,0,0-4.023,5.741C-1714.958,271.49-1715.582,272.845-1716.229,274.188Z" transform="translate(-184.476 -38.665)" fill="#f06424"/>
  </g>
</svg>
