<svg xmlns="http://www.w3.org/2000/svg" width="69.135" height="69.14" viewBox="0 0 69.135 69.14">
  <g id="Group_2274" data-name="Group 2274" transform="translate(3815.006 163.07)">
    <path id="Path_1381" data-name="Path 1381" d="M-3779.059-128.369c-.875-.423-1.668-.8-2.454-1.189-1.69-.837-1.689-.839-1.69-2.742,0-.841,0-1.681,0-2.572-.784-.125-1.559-.224-2.324-.374a15.458,15.458,0,0,0-5.335.3,68.209,68.209,0,0,1-7.919.923,11.28,11.28,0,0,1-6.817-2.016c-.994-.671-1.972-1.366-2.978-2.019a8.684,8.684,0,0,0-4.721-1.421,1.557,1.557,0,0,1-1.708-1.728q0-6.665,0-13.329a1.423,1.423,0,0,1,1.589-1.619c.814-.013,1.629.025,2.441-.014a13.218,13.218,0,0,0,4.267-1.074c3.833-1.536,7.642-3.13,11.465-4.691.866-.353,1.747-.671,2.625-.993a2.022,2.022,0,0,1,1.5,0c1.807.74,3.655,1.4,5.4,2.257,2.941,1.444,5.816,3.021,8.722,4.537a3.628,3.628,0,0,1,1.448,1.373q3.5,5.758,7.015,11.508a3.672,3.672,0,0,1,.477,2.664.618.618,0,0,0,.21.613c1.329,1.344,1.24.948,1.247,3.024.006,1.807-.021,3.615,0,5.422a1.61,1.61,0,0,1-1.01,1.636,25.8,25.8,0,0,1-2.49,1.2c-.61.208-.674.518-.67,1.055.022,2.787,0,5.574.022,8.361a2.069,2.069,0,0,1-.72,1.756,12.056,12.056,0,0,0-.967.964,1.612,1.612,0,0,1-1.218.519q-1.262,0-2.525,0a1.613,1.613,0,0,1-1.182-.507q-.6-.6-1.2-1.2a1.749,1.749,0,0,1-.5-1.312q.007-4.3,0-8.61Zm-1.364-5.973c0,.723,0,1.4.006,2.072a.3.3,0,0,0,.139.228,4.87,4.87,0,0,0,2.3.8c1.178-.069,1.708.514,1.708,1.707q0,4.843,0,9.687c0,.712.333,1.036,1.056,1.031.221,0,.442,0,.662,0a.912.912,0,0,0,1.034-1.015q0-4.885,0-9.77a2.656,2.656,0,0,1,.032-.535,1.419,1.419,0,0,1,1.443-1.122,4.486,4.486,0,0,0,1.136-.105,12.3,12.3,0,0,0,1.266-.6.408.408,0,0,0,.27-.443c-.01-1.628,0-3.257-.016-4.885a.806.806,0,0,0-.2-.5c-.5-.533-1.024-1.043-1.546-1.556a.543.543,0,0,0-.3-.184c-1-.014-2-.008-2.939-.008.037.686.061,1.33.118,1.97a.494.494,0,0,0,.25.3,2.031,2.031,0,0,1,1.151,2.069,2.009,2.009,0,0,1-1.373,1.75,2.042,2.042,0,0,1-2.257-.6.584.584,0,0,0-.407-.122c-.546.023-1.094.125-1.637.1C-3779.138-134.109-3779.746-134.244-3780.423-134.342Zm5.593-7.981.018-.1a3.41,3.41,0,0,0-.274-.239,27.3,27.3,0,0,0-5.319-2.986,1.88,1.88,0,0,1-.671-.495c-.506-.582-.965-1.205-1.468-1.79a1.554,1.554,0,0,0-.613-.452c-1.826-.651-3.66-1.282-5.495-1.908a4.785,4.785,0,0,0-2.309-.275c-1.212.185-1.941.838-1.917,1.884a2.68,2.68,0,0,0,.745,1.836,5.158,5.158,0,0,0,3.884,1.53,27.088,27.088,0,0,1,5.352.348,17.207,17.207,0,0,1,5.454,2.392,1.245,1.245,0,0,0,.512.245C-3776.231-142.307-3775.531-142.324-3774.831-142.324Z" fill="#f06424"/>
    <path id="Path_1382" data-name="Path 1382" d="M-3669.183,401.716c1.573,0,3.147.042,4.719-.01a32.068,32.068,0,0,0,6.793-1.137c.467-.118.934-.24,1.393-.383.48-.149.706-.512.587-.893a.721.721,0,0,0-.977-.423,41.633,41.633,0,0,1-6.5,1.358,14.1,14.1,0,0,1-1.566.122c-2.9.012-5.8.026-8.695,0a11.88,11.88,0,0,1-4.383-.712,3.108,3.108,0,0,1-2.18-2.389,3.887,3.887,0,0,1,2.282-4.419,8.787,8.787,0,0,1,3.16-.742c1.155-.083,2.313-.124,3.471-.162a27.81,27.81,0,0,0,9.677-2.107c1.426-.582,2.862-1.156,4.333-1.6a11.368,11.368,0,0,1,7.04.215c2.164.726,4.282,1.591,6.41,2.423,1.333.521,2.647,1.092,3.969,1.642a1.411,1.411,0,0,1,.9,1.991q-2.13,6.232-4.267,12.462a1.4,1.4,0,0,1-2.191.773,8.586,8.586,0,0,0-7.936-.917q-5.069,1.826-10.155,3.606c-.752.264-1.531.451-2.292.691a5.454,5.454,0,0,1-3.6-.339c-3.428-1.246-6.87-2.461-10.255-3.814-5.024-2.008-10.007-4.119-15-6.2a10.369,10.369,0,0,1-1.782-.95,4.244,4.244,0,0,1-1.783-4.458,4.179,4.179,0,0,1,3.251-3.513,4.92,4.92,0,0,1,3.01.149c2.49.8,4.965,1.642,7.445,2.472.9.3,1.8.6,2.694.926.11.04.258.229.242.325-.467,2.856,1.224,4.7,3.594,5.438a17.983,17.983,0,0,0,5.112.613c1.159.019,2.318,0,3.478,0Z" transform="translate(-107.247 -505.209)" fill="#f06424"/>
    <path id="Path_1383" data-name="Path 1383" d="M-3622.482,396a5.207,5.207,0,0,1,3.376-2.092,5.36,5.36,0,0,1,2.813.229c2.583.863,5.15,1.774,7.723,2.668a1.54,1.54,0,0,1,.174.1,5.6,5.6,0,0,0-3.177,2.778Z" transform="translate(-176.581 -510.767)" fill="#f06424"/>
  </g>
</svg>
