<svg xmlns="http://www.w3.org/2000/svg" width="81.364" height="95.547" viewBox="0 0 81.364 95.547">
  <g id="Group_2458" data-name="Group 2458" transform="translate(-1159.318 -960.133)">
    <path id="Shape" d="M32.292,18.65a18.2,18.2,0,1,0,18.2,18.2A18.225,18.225,0,0,0,32.292,18.65ZM43.1,33.426,30.058,46.468a2.8,2.8,0,0,1-3.965,0L21.11,41.484a2.8,2.8,0,1,1,3.964-3.964l3,3,11.061-11.06A2.8,2.8,0,1,1,43.1,33.426Z" transform="translate(1167.708 971.054)" fill="#f06424"/>
    <path id="Shape-2" data-name="Shape" d="M81.269,26.041l0-.074c-.042-.918-.069-1.889-.086-2.969a10.126,10.126,0,0,0-9.535-9.92C60.659,12.464,52.161,8.882,44.9,1.8l-.062-.059a6.115,6.115,0,0,0-8.31,0l-.062.059C29.2,8.882,20.706,12.464,9.721,13.078A10.126,10.126,0,0,0,.186,23C.17,24.072.141,25.043.1,25.967l0,.173c-.214,11.2-.479,25.143,4.185,37.8a48.114,48.114,0,0,0,11.543,17.98c5.8,5.663,13.4,10.158,22.589,13.361a7.013,7.013,0,0,0,.926.252,6.839,6.839,0,0,0,2.688,0,7,7,0,0,0,.929-.254c9.176-3.209,16.768-7.707,22.565-13.369A48.183,48.183,0,0,0,77.065,63.924C81.746,51.232,81.482,37.264,81.269,26.041ZM40.681,71.7A23.812,23.812,0,1,1,64.493,47.892,23.838,23.838,0,0,1,40.681,71.7Z" transform="translate(1159.318 960.016)" fill="#a0a0a0"/>
  </g>
</svg>
