<svg xmlns="http://www.w3.org/2000/svg" width="89.934" height="51.261" viewBox="0 0 89.934 51.261">
  <path id="Path_1390" data-name="Path 1390" d="M-2579.344,2174.463a14.369,14.369,0,0,1-3.293,6.686c-3.871,4.193-8.6,5.791-14.153,4.4a13.43,13.43,0,0,1-10.181-10.017,13.816,13.816,0,0,1,2.592-12.533,22.38,22.38,0,0,0,1.765-3.262c-1.789-.764-1.786-.763-1.257-2.385.158-.486.294-.98.464-1.55a5.064,5.064,0,0,0,1.071.611c.289.082.831.069.928-.1.677-1.162,1.528-.674,2.38-.341a.279.279,0,0,1,.1.07,6.264,6.264,0,0,0,6.537,1.621c2.225-.618,3.651.84,5.418,1.326,3.906,1.076,7.73,2.446,11.612,3.613a6.048,6.048,0,0,0,2.034-.122,7.149,7.149,0,0,0-1.018-1.738,55.939,55.939,0,0,0-11.47-7.8,4.442,4.442,0,0,1-1.267-.859c-2.153-2.534-5.177-3.613-8.05-4.97-1.145-.54-2.185-1.3-3.289-1.931a1.7,1.7,0,0,0-.8-.18,4.011,4.011,0,0,1-3.042-1.4,29.012,29.012,0,0,1-2.671-3.025c.719.032,1.436.083,2.155.089.391,0,1.025.066,1.135-.13.761-1.363,1.819-.713,2.837-.55,3.021.486,6.039,1,9.074,1.374.761.095,1.315.271,1.622.94a26.646,26.646,0,0,1,1.165,2.847,1.73,1.73,0,0,0,1.324,1.32c1.441.417,2.777,1.226,4.228,1.571,2.859.68,5.751,1.268,8.659,1.669,1.67.23,1.909-.193,2.5-1.74a27.247,27.247,0,0,1,1.976-4.293,5.229,5.229,0,0,1,4.364-2.578,20.921,20.921,0,0,1,13.856,3.862c1.375,1.02,2.31,2.306,1.746,4.182-.18.6.059.969.7.909,1.5-.141,2.991-.328,4.487-.495l.238-.434a11.9,11.9,0,0,0-1.163-1.3c-.719-.607-.986.219-1.424.523-.555.387-1.133.741-1.731,1.128-.552-1.232.314-1.7.77-2.349a2.522,2.522,0,0,0,.549-1.114,2.517,2.517,0,0,1,2.9-2.027c.852.264,1.753.364,2.617.593a4.936,4.936,0,0,1,.979.513,5.017,5.017,0,0,1-.748.641c-.479.275-1,.484-1.619.779.552.683,1.013,1.306,1.539,1.868a.766.766,0,0,0,.716.119,12.276,12.276,0,0,0,1.881-1.221,1,1,0,0,0,.306-.882c-.577-1.055-.242-1.915.637-2.918-2.963-1.152-6.4-1.623-7.013-5.915a29.089,29.089,0,0,1,3.33-2.044,2.064,2.064,0,0,1,1.825.356,91.334,91.334,0,0,1,12.2,13.334c1.225,1.7.949,3.657.242,5.49a1.923,1.923,0,0,1-1.4.845,7.235,7.235,0,0,0-5.287,3.1c3.169.168,6.173.343,8.974,2.208l-1.553.259c4.073,2.207,6.638,5.237,7.485,9.525a13.29,13.29,0,0,1-2.951,11.5c-3.8,4.633-11.288,5.936-16.524,2.976-5.6-3.165-9.163-10.334-5.357-18.385-2.659.776-3.3.891-3.1,3.754.167,2.378.728,4.728,1.1,7.093.1.617.137,1.242.22,2.024-.808,0-1.476,0-2.143,0q-12.237-.042-24.474-.09c-2.5-.013-4.768-.488-5.935-3.113a3.293,3.293,0,0,0-1-1C-2578.386,2175.087-2578.8,2174.84-2579.344,2174.463Zm-17.009-.419c-.709-2.207-.687-4.209,1.859-5.589a2.793,2.793,0,0,0-2.551,2.021,3.164,3.164,0,0,0,.717,3.546,3.413,3.413,0,0,0,3.306,1.886,3.827,3.827,0,0,0,3.4-3.119,6.98,6.98,0,0,0-.569.7,3.148,3.148,0,0,1-3.561,1.729A13.138,13.138,0,0,1-2596.353,2174.044Zm76.378-.7a10.945,10.945,0,0,0-8.246-10.691,1.248,1.248,0,0,0-1.485,1.461c.146.658.4,1.3.491,1.961a2.241,2.241,0,0,0,1.361,1.805,5.855,5.855,0,0,1,3.037,3.914,6.466,6.466,0,0,1-2.7,6.876,6.448,6.448,0,0,1-7.27-.4,6.217,6.217,0,0,1-.3-9.694,1.385,1.385,0,0,0,.472-1.029,8.3,8.3,0,0,0-.841-2.221c-.56-1-1.492-1.444-2.461-.52a11.794,11.794,0,0,0-3.824,6.8,11.047,11.047,0,0,0,9.479,12.665C-2525.582,2185.063-2519.749,2179.622-2519.975,2173.345Zm-79.089-8.154a8.684,8.684,0,0,0-2.059,10.924,8.943,8.943,0,0,0,11.181,4.038c3.451-1.415,5.9-5.225,5.348-8.3-1.511.579-3.69-.258-4.163,2.287a1.888,1.888,0,0,1-.41.719,5.087,5.087,0,0,1-6.3,1.637,4.937,4.937,0,0,1-2.669-6.082,23.9,23.9,0,0,1,1.9-3.184C-2597.091,2166.612-2598.082,2165.9-2599.064,2165.191Zm56.212-9.47a12.837,12.837,0,0,0-6.123,2.353c-.539.369-1.207,1.075-1.2,1.622.018,1.995.9,3.768,1.888,5.756A35.544,35.544,0,0,0-2542.852,2155.721Zm9.184,13.9a4.257,4.257,0,0,0-2.022,4.921,4.926,4.926,0,0,0,5.953,3.54,4.858,4.858,0,0,0,3.7-5.157c-.139-1.7-1.222-3.285-2.293-3.328,2.244,2.925,2.376,4.948.447,6.838a4.395,4.395,0,0,1-5.864.225C-2535.643,2175.141-2535.652,2172.927-2533.668,2169.621Zm-45.6,1.673,1.151,1.187.274-.256C-2577.913,2171.557-2577.613,2170.58-2579.267,2171.294Z" transform="translate(2607.499 -2135.424)" fill="#5e5e5e"/>
</svg>
