<svg xmlns="http://www.w3.org/2000/svg" width="89.722" height="51.863" viewBox="0 0 89.722 51.863">
  <path id="Path_1392" data-name="Path 1392" d="M-2540.594,2059.266l.808,1.2a2.4,2.4,0,0,1,.643-.384c3.2-.569,3.532-.505,3.563,2.606a36,36,0,0,1-.281,3.7c-.123,1.313-.722,1.769-2,1.475-.64-.147-1.255-.41-2.109-.7,1.292,2.393,2.387,4.622,3.7,6.716a2.087,2.087,0,0,0,2.192.812,15.269,15.269,0,0,1,7.687.185c.478.156,1.1.162,1.04,1-.014.2.593.443.917.664.386.264.774.525,1.161.787l-.172.267-1.322-.665-.253.372,3.022,3.206.406-.331-1.5-2.235c3.193,1.039,6.058,6.464,5.466,11.391a12.83,12.83,0,0,1-12.615,11.385,12.871,12.871,0,0,1-12.918-11.127h-.923c-.563-5.462,1.216-9.837,5.7-12.98a1.527,1.527,0,0,0,.716-1.813c-.636-1.515-1.508-2.929-2.253-4.32-1.253.086-2.359,1.57-3.492-.352-.92,1.828-1.744,3.433-2.519,5.06a.731.731,0,0,0,.228.68c.943.414.625,1.068.361,1.688-1.771,4.163-3.588,8.308-5.308,12.492a6.119,6.119,0,0,0-.282,2.449c.024.807-.275,1.221-1.032,1.3-1.907.2-3.815.421-5.728.548-1.614.106-1.854-.156-2-1.928-.808.043-1.625.13-2.441.124-3.188-.02-6.381.029-9.561-.147a43.378,43.378,0,0,1-4.992-.908c-.734-.129-1.484-.171-2.254-.256a13.86,13.86,0,0,1-5.675,8.644c-5.8,4.016-14.62,2.164-18.185-3.915a12.9,12.9,0,0,1,5.027-18.33,12.408,12.408,0,0,1,10.612-.616c1.311.493,1.261.524,1.419-.931.043-.39.4-.746.776-1.4a34.479,34.479,0,0,0-3.984-.91c-3.826-.423-7.485.077-10.709,2.4a4.347,4.347,0,0,0-.945.875,3.87,3.87,0,0,1-3.884,1.747c-.2-.03-.4.006-.6-.022-.731-.1-1.46-.218-2.19-.328.339-.723.623-1.479,1.031-2.161.488-.813,1.1-1.551,1.627-2.341.8-1.194.34-2.262-1.108-2.319-1-.039-1.025-.563-.959-1.233.072-.718-.063-1.656,1.087-1.638a31.155,31.155,0,0,1,3.345.209,1.774,1.774,0,0,1,.917.648,2.264,2.264,0,0,0,3.933-.61,4.289,4.289,0,0,1,4.746-3.161c2.745.152,5.493.368,8.219.72,1.229.158,2.388.941,3.612,1.041,2.9.237,5.82.284,8.733.309a4.666,4.666,0,0,0,3.514-1.531c4.306-4.576,9.613-5.565,15.544-4.349,1.853.38,3.715.72,5.409,1.046a22.808,22.808,0,0,0,.3-2.522c0-.384-.267-1.094-.434-1.1a5.6,5.6,0,0,0-2.263.282c-.63.256-2.99.612-3.614.247-.082-.049-.108-.194-.165-.3.837-.714,1.7-1.373,2.45-2.143a1.246,1.246,0,0,0,.047-1.124,7.706,7.706,0,0,0-1.051-1.334l2.14-.48c.209-.649-.289-1.456-.82-2.216-.1-.143-.559-.139-.8-.052s-.417.356-.609.558c-.586.617-1.258.915-2.007.347a1.526,1.526,0,0,1-.285-2.16,2.286,2.286,0,0,1,1.691-.927c1.568.1,3.388,2.265,3.478,3.866a2.353,2.353,0,0,0,.049.713,1.073,1.073,0,0,0,.486.591c.128.048.374-.26.584-.377a4.026,4.026,0,0,1,1.279-.6c.155-.021.468.578.584.935a9.273,9.273,0,0,0,.674,2.308,3.143,3.143,0,0,0,1.792.946c.253.063.749-.409.967-.746.34-.524.494-1.165.8-1.712.336-.59.4-1.613,1.5-1.255a2.083,2.083,0,0,1,1.249,2.631A20.254,20.254,0,0,1-2540.594,2059.266Zm13.328,31.68c-.152.041-.341.039-.449.132a4.255,4.255,0,0,1-5.889-.476,4.4,4.4,0,0,1,.51-5.91,2.588,2.588,0,0,0,.381-.586c-.278.023-.417-.009-.493.046a4.675,4.675,0,0,0-.076,7.475c1.913,1.469,4.992,1.179,6.115-.577.077-.017.177-.01.228-.056a4.621,4.621,0,0,0,.933-4.845c-.792-1.741-2.857-3.188-4.363-3.019-.179.02-.333.263-.667.543.473.058.666.092.861.1a3.952,3.952,0,0,1,3.812,3.133C-2525.922,2088.453-2526.661,2089.67-2527.266,2090.946Zm-8.422-12.094c-4.739,2.413-6.66,9.163-4.144,13.845a10.582,10.582,0,0,0,13.755,4.811,10.389,10.389,0,0,0,5.6-13.149c-1.2-3.368-3.475-5.9-7.124-6.614a25.169,25.169,0,0,0-5.432-.08c-.684.018-.847.446-.463,1.085.49.817.849,1.717,1.381,2.5a1.548,1.548,0,0,0,1.12.6,6.082,6.082,0,0,1,6.407,4.31,6.13,6.13,0,0,1-1.645,6.13,5.9,5.9,0,0,1-6.215,1.271,6.04,6.04,0,0,1-1.654-10.505,1.044,1.044,0,0,0,.251-.954C-2534.392,2081.017-2535.039,2079.976-2535.688,2078.852Zm-64.184,10.332c-.211,4.191,3.6,8,7.916,8.071,4.008.069,7.938-3.159,7.923-6.578-.731-.112-1.479-.2-2.214-.348a1.1,1.1,0,0,0-1.389.753,4.527,4.527,0,0,1-4.373,2.707c-1.979-.2-3.7-1.2-4.118-3.111-.365-1.66-1.3-1.51-2.389-1.549C-2598.948,2089.113-2599.381,2089.162-2599.872,2089.184Zm25.234-4.924a5.073,5.073,0,0,0-.573-1.075q-2.727-2.958-5.5-5.871c-.79-.834-1.579-1.208-2.278.121-.087.166-.27.373-.43.393-1.4.181-.784.688-.2,1.185a13.183,13.183,0,0,1,3.969,5.51,1.236,1.236,0,0,0,1.037.553C-2577.367,2084.9-2576.133,2084.58-2574.638,2084.26Zm-14.317-2.726c-3.1-1.572-7.9.151-9.157,2.658a14.447,14.447,0,0,0,7.045.223.334.334,0,0,0,.187-.139C-2590.251,2083.386-2589.627,2082.492-2588.955,2081.534Zm4.751,4.964a7.278,7.278,0,0,0-3.031-4.15l-2.016,2.8C-2587.754,2086.432-2585.9,2086.063-2584.2,2086.5Zm18.205-4.274c2.551.362,3.858-.211,5.075-2.734-.566-.074-1.1-.158-1.644-.214C-2564.951,2079.03-2565.772,2079.739-2566,2082.224Zm-7.535,6.765a4.437,4.437,0,0,0-.036-1.512c-.148-.319-.654-.745-.911-.69a12.771,12.771,0,0,0-2.122.819l-.008.3Zm-21.526.382c-.409,1.913,1.416,3.1,2.764,3.346a3.44,3.44,0,0,0,3.844-2.741c-1.008,1.424-2,2.508-3.588,2.329A3.4,3.4,0,0,1-2595.06,2089.371Z" transform="translate(2607.27 -2050.143)" fill="#5e5e5e"/>
</svg>
