<svg xmlns="http://www.w3.org/2000/svg" width="96.892" height="71.086" viewBox="0 0 96.892 71.086">
  <g id="Group_2317" data-name="Group 2317" transform="translate(1118.899 -106.247)">
    <path id="Path_1403" data-name="Path 1403" d="M-1025,129.5c.8-.282,1.536-.532,2.264-.8.169-.063.444-.181.45-.288.05-.8.75-.972,1.226-1.367.6-.5,1.192-1.019,1.758-1.561a1.423,1.423,0,0,0,.372-.666,6.619,6.619,0,0,1,1.45-2.875c.319-.369.3-1.028.453-1.622-.148.062-.223.09-.295.124-1.213.578-1.366.513-2.318-.4a9.237,9.237,0,0,1-2.654-4.605,7.8,7.8,0,0,1,.442-4.965.788.788,0,0,0,.072-.573,1.271,1.271,0,0,1,.41-1.707,7.429,7.429,0,0,1,4.154-1.854,9.864,9.864,0,0,1,5.213.743c.4.164.591.378.527.811a1.847,1.847,0,0,0,.616,1.631c1.407,1.508,1.321,3.29.746,5.121-.131.416-.224.844-.362,1.374a14.164,14.164,0,0,1,6.312.513,22.764,22.764,0,0,1,5.721,2.677c.385-.572.826-.547,1.476-.412a4.779,4.779,0,0,0,2.163-.3c.8-.231,1.527-.689,2.326-.9a3.355,3.355,0,0,1,1.827-.044c1.871.644,3.7,1.42,5.54,2.146l-.027.282-4.041,1.341a1.52,1.52,0,0,0,1.517,1.2c1.151.082,2.309.072,3.464.1.251.006.5,0,.838,0a28.012,28.012,0,0,1-1.594,6.338,3.884,3.884,0,0,1-1.39,1.469c-1.1.737-2.283,1.338-3.413,2.027a.879.879,0,0,0-.4.59c-.053,2.451-1.417,3.93-3.516,4.919a19.443,19.443,0,0,0-2.454,1.347,22.951,22.951,0,0,1-9.007,3.376c-1.2.2-2.421.3-3.635.409a.637.637,0,0,0-.6.42,8.8,8.8,0,0,1-.949,1.256c.291.621.6,1.322.953,2,.069.135.293.19.445.282l.149-.169-1.033-2.186c.106-.128.249-.228.288-.359.3-1.012,1.088-.971,1.922-1A22.093,22.093,0,0,0-997.54,140.6a34.239,34.239,0,0,1,5.155-2.865,1.725,1.725,0,0,0,.769-.564,3.956,3.956,0,0,1,2.075-1.145,12.807,12.807,0,0,0,3.235-1.469,8.614,8.614,0,0,0,1.671-2.387c.073-.114,0-.329-.026-.5a11.346,11.346,0,0,1-.174-1.2c-.023-.764.23-1.079.977-1.149,2.323-.218,4.647-.433,6.975-.595,3.354-.234,6.711-.42,10.066-.626.14-.008.281,0,.421,0l.091.174c-.3.186-.595.4-.912.554-.951.475-1.914.929-2.869,1.4-.374.182-.658.417-.415.83-2.036,1.318-4.041,2.588-6.017,3.9a10.606,10.606,0,0,0-3.366,3.368,17.9,17.9,0,0,1-4.3,4.471c-.348.283-.7.558-1.068.848l1.416,2.9a22.474,22.474,0,0,1,12.284-.278l-14.29,8.3c-2.258-1.4-4.634-2.843-6.982-4.333a2.723,2.723,0,0,0-1.875-.469,2.641,2.641,0,0,1-.768.029A2.887,2.887,0,0,0-998.355,151a24.678,24.678,0,0,1-1.982,1.908c.653.584,1.173,1.091,1.745,1.53a.768.768,0,0,0,.673-.051,4.987,4.987,0,0,0,1.067-.819,2.875,2.875,0,0,1,2.9-.762l-1.018,2.941a3.653,3.653,0,0,0,.722-.206,4.785,4.785,0,0,1,4.73-.012,1.2,1.2,0,0,0,.812.048,5.366,5.366,0,0,0-5.418-.54l.875-2.539c-2.008-.607-3.544.174-4.849,1.649l-1.5-1.341c.88-.851,1.722-1.666,2.565-2.48.046-.044.1-.117.15-.115,1.06.027,2.12.062,3.18.1l7.538,4.665a8.21,8.21,0,0,0-2.466,3.2,10.52,10.52,0,0,0-.4,7.762,8.067,8.067,0,0,1,.411,1.679,1.9,1.9,0,0,1-1.774,2.3,5.007,5.007,0,0,1-.769.037q-16.707-.005-33.414-.015c-.214,0-.429.006-.642,0-.885-.045-1.326-.447-1.262-1.34a12.749,12.749,0,0,1,.433-2.522,7.9,7.9,0,0,0-1.258-7.057,49.823,49.823,0,0,0-5.445-6.486c-2.884-2.9-5.811-5.753-8.721-8.624-.122-.12-.266-.217-.392-.332-.734-.669-1.458-1.314-2.538-.6a1.662,1.662,0,0,1-.814.137c-1.757.059-2.22-.108-2.442-2.217a4.918,4.918,0,0,1,.454-2.428c3.258-7.159,7.9-13.148,14.821-17.141a18.716,18.716,0,0,1,2.163-.97,1.662,1.662,0,0,1,2.054.443c1.091,1.4,2.086,2.866,3.1,4.322a1.209,1.209,0,0,1,.071.624C-1025,127.016-1025,128.3-1025,129.5Zm52.185.445c-.169.025-.339.043-.507.076-3.35.664-6.7,1.347-10.052,1.977a1.359,1.359,0,0,0-1.17.959,3.222,3.222,0,0,0,.4-.048q5.464-1.372,10.925-2.755a1.88,1.88,0,0,0,.4-.221,1.218,1.218,0,0,0,.373.028c1.183-.29,2.367-.581,3.542-.9a3.375,3.375,0,0,0,.7-.383l-.064-.19c-.92.2-1.857.348-2.755.62A13.134,13.134,0,0,0-972.818,129.947Zm-54.863,4.645-.246.07c.118.563.211,1.133.365,1.687a9.124,9.124,0,0,0,.431,1c.191.462.2.945-.306,1.143-.144.057-.527-.351-.724-.6a14.709,14.709,0,0,0-.848-1.271.843.843,0,0,0-1.506.443c-.088.453-.313.78-.8.761s-.591-.413-.61-.827c0-.1-.018-.206-.027-.309l-.2.089a8.384,8.384,0,0,1-.467-.91c-.1-.253-.043-.574-.17-.8a.693.693,0,0,1,.274-1.081c-.556-.5-.35-.931.094-1.2a7.492,7.492,0,0,1,1.623-.706,4.388,4.388,0,0,1,1.048-.082l.047-.156c-.158-.075-.319-.218-.473-.212a4.371,4.371,0,0,0-1.071.167c-.939.282-1.879.568-2.8.913a13.907,13.907,0,0,0-2.694,1.18,8.919,8.919,0,0,0-2.262,2.036,2.518,2.518,0,0,0,.824,4.075,13.731,13.731,0,0,0,3.4,1.264c.825.207,1.686.184,2.258.969a1.539,1.539,0,0,0,.6.366,8.314,8.314,0,0,0,4.2.647c.375-.024.449-.231.446-.555-.009-1.007-.031-2.015.01-3.02a2.341,2.341,0,0,1,2.3-2.39c.191.016.385-.019.577-.019,4.733.012,9.467.033,14.2.027a1.7,1.7,0,0,0,.93-.312c1.023-.741,2.01-1.53,3.015-2.3a6.8,6.8,0,0,1,3.645-1.61c.275-.247.407-.452.583-.505.356-.107.418-.219.192-.534-.126-.176-.274-.542-.2-.622.381-.4.17-.881.248-1.315a1.224,1.224,0,0,0-.745-1.412c-.159-.081-.31-.177-.482-.275,2.832-.123,5.549-.029,7.3,2.7-.5,0-.988-.012-1.476,0a11.257,11.257,0,0,0-2.1.121c-.785.177-1.526.573-2.306-.005-.259.581-.1.786.443.784,1.885-.009,3.77.01,5.654-.012a2.881,2.881,0,0,1,1.739.454,2.771,2.771,0,0,0,2.927.235c-1.428-1.425-1.415-1.956.147-3.181a3.377,3.377,0,0,0,1.272-3.372c-.255-1.682-.657-3.342-1.013-5.1a11.476,11.476,0,0,0-1.589.3c-1.8.6-3.591,1.26-5.389,1.881-2.105.727-4.218,1.151-6.366.124-.157-.075-.4.024-.6.043,2.058,1.174,4.149.848,6.336.244l-.546,1.012a5.306,5.306,0,0,0,.713-.134c1.916-.672,3.84-1.324,5.735-2.052a.715.715,0,0,1,1.035.327,7.79,7.79,0,0,1,1.067,4.486,2.668,2.668,0,0,1-1.171,2.246,5.7,5.7,0,0,0-.828.709,1.361,1.361,0,0,0-.158,1.865c.1.154.222.295.371.49a2.283,2.283,0,0,1-2.124-.547c-.865-.7-1.685-1.455-2.516-2.2a6.031,6.031,0,0,0-3.671-1.66c-.62-.041-1.239-.1-1.86-.111-3.881-.078-7.443-.912-10.02-4.146-.1-.127-.317-.161-.479-.239l-.07.129,1.08,1.233c-1.327,1.411-2.6,2.8-3.91,4.152a13.637,13.637,0,0,1-5.079,3.291c-.816.309-1.656.551-2.535.839.285.838-.244,1.218-.913,1.476-.709.273-1.435.5-2.157.753.246.483,1.08.548,1.1,1.263l-1.78.49Zm12.857,15.227.655,1.585a3.181,3.181,0,0,1,2.105-1.818l-.462,1.926.819-.5v1.7l1.037-.645c-.011.239-.008.367-.024.492a3.311,3.311,0,0,0,.758,2.843,3.562,3.562,0,0,1,.372,4.416,35.928,35.928,0,0,1-2.139,3.029c-.125.173-.278.325-.509.593.963-.535,1.763-1.02,2.6-1.432.741-.365.9-.264,1.151.509.055.169.131.33.222.557.424-.368.758-.7,1.135-.978.859-.632,1.71-1.283,2.623-1.827a1.727,1.727,0,0,1,1.284-.179,1.548,1.548,0,0,0,1.8-.6c.27-.33.169-.962.249-1.57l-1.625.767c-.282-.755-.281-.754.276-1.156.156-.112.312-.227.46-.349.582-.48.62-.812.111-1.374a4.936,4.936,0,0,0-.659-.5c-.589-.459-1.214-.88-1.754-1.391a9.535,9.535,0,0,1-2.387-4.678c-.481-1.759-1.418-2.2-3.147-1.642-.511.165-.929.362-.607,1.122A7.288,7.288,0,0,0-1014.823,149.819Zm-11.488-24.724.077-.219c-.215-.107-.435-.311-.646-.3a20.021,20.021,0,0,0-3.5.242,38.855,38.855,0,0,0-3.993,1.3,9.547,9.547,0,0,1,5.872-4.874,1.275,1.275,0,0,0-1.483-.528,8.477,8.477,0,0,0-1.942.805c-1.717,1.158-3.44,2.325-5.039,3.636-1.246,1.02-2.311,2.261-3.484,3.432a1.827,1.827,0,0,0,2.2.288c1.071-.481,2.121-1.016,3.146-1.59C-1032.368,125.754-1029.561,124.565-1026.311,125.1Zm11.573-6.19c-.305.259-.552.493-.822.694a2.333,2.333,0,0,0-1.108,1.773,2.865,2.865,0,0,1-.514,1.008,9.049,9.049,0,0,0-.85,1.538,4.806,4.806,0,0,1-1.5,2.408c-.5.4-1.056.726-1.569,1.108-.2.146-.5.368-.486.537.049.679-.4.808-.873.87a4.282,4.282,0,0,0-2.474,1.272l.453.706c.775-.505,1.47-1.005,2.211-1.423a3.111,3.111,0,0,1,1.313-.424,1.68,1.68,0,0,0,1.179-.52c.812-.788,1.673-1.526,2.477-2.321a3.235,3.235,0,0,0,.907-1.2,4.355,4.355,0,0,1,2.075-2.572,5.788,5.788,0,0,0,.964-.933c-.623-.162-1.268-.033-1.364-.776A14.278,14.278,0,0,1-1014.738,118.906Zm-5.905-.577,5.98-4.011a1.022,1.022,0,0,0,.263-.18c.121-.161.3-.342.3-.517a2.378,2.378,0,0,0-2.386-2.265,14.384,14.384,0,0,0-5.2,1.731.939.939,0,0,0-.384.709A8.675,8.675,0,0,0-1020.643,118.329Zm-16.522,25.269-.122.224c1.143.861,2.265,1.753,3.433,2.578a40.75,40.75,0,0,0,6.951,4.233,4.485,4.485,0,0,0,2.877.343c1.794-.406,3.6-.769,5.4-1.156.781-.169,1.559-.355,2.338-.533-1.679-.127-3.338-.144-5-.113a2.128,2.128,0,0,0-1,.3,4.72,4.72,0,0,1-3.311.7,12.283,12.283,0,0,1-4.947-2.035c-1.55-1.066-3.005-2.269-4.537-3.362A22.359,22.359,0,0,0-1037.165,143.6Zm44.612,4.7c.542.449.995.869,1.5,1.218a.8.8,0,0,0,.689.045c1.262-.667,2.5-1.375,3.765-2.079l-1.606-1.754Zm-7.079-15.307-.062-.252a13.367,13.367,0,0,0-1.775.607q-6.335,3.179-12.643,6.41a3.709,3.709,0,0,0-.687.47,3.7,3.7,0,0,0-1.361,4.287c.5,1.43,1.159,2.8,1.771,4.189.053.12.28.162.426.241l.117-.171c-.131-.265-.268-.527-.392-.8-.457-.989-.976-1.956-1.35-2.976-.854-2.329-.239-3.927,1.952-5.088,3.382-1.793,6.808-3.5,10.169-5.333a5.973,5.973,0,0,1,4.513-.576,2.375,2.375,0,0,0,.659-.024l.007-.241-2.43-.36Zm-43.543,3.047c-.942.491-1.889.974-2.824,1.479a.973.973,0,0,0-.4.4,5.885,5.885,0,0,0-.645,3.539c.124.737.578,1.241,1.195,1.233a15.854,15.854,0,0,0,2.006-.272c-.7-1.232-1.522-1.07-2.493-.407C-1045.97,139.534-1044.5,137.853-1043.175,136.038ZM-1015,152.356c-.388-.425-.612-.227-.852.042-1.522,1.709-3.043,3.42-4.585,5.111a.666.666,0,0,0-.122.845c.426.956.846,1.917,1.215,2.9a.79.79,0,0,0,1.087.561c1.143-.275,2.291-.531,3.445-.747a1.867,1.867,0,0,1,.968.105c.721.279,1.416.625,2.122.945l.079-.169c-.722-.332-1.459-.635-2.16-1.006a2.136,2.136,0,0,0-1.651-.178c-1.068.282-2.158.483-3.263.723-.448-1.043-.9-2.034-1.288-3.047a.8.8,0,0,1,.167-.657c.676-.8,1.389-1.57,2.088-2.351Zm29.181-32.342.068-.268c-1.822-.692-3.617-1.473-5.476-2.041-1.082-.331-2.041.388-2.982.868a.431.431,0,0,0,.274.067A14.831,14.831,0,0,1-986.448,120C-986.282,120.091-986.029,120.015-985.817,120.015Zm-35.664-10.376c2.831-3.417,6.05-3.149,9.469-1.236.119-.924.12-.927-.7-1.218-.3-.107-.608-.207-.918-.287a8.116,8.116,0,0,0-7.023,1.262C-1021.114,108.486-1021.6,108.844-1021.481,109.638Zm-6.82,25.352a2.19,2.19,0,0,0-1.543-2.513c-.2-.035-.573-.008-.59.06a3.521,3.521,0,0,0-.182,1.378c.082.477.317,1.007.932,1.067C-1029.224,135.026-1028.757,134.99-1028.3,134.99Zm15.673-26.22c1.657,1.9,1.823,4.053,1.644,6.315a4.911,4.911,0,0,0,.61-4.059A2.829,2.829,0,0,0-1012.628,108.77Zm-9.318,4.05c.345-.349.733-.553.787-.824a5.566,5.566,0,0,1,3.672-4.13c.417-.177.85-.314,1.368-.5C-1019,107.111-1021.685,109.593-1021.946,112.821Zm38.025,21.9.15.14,10.343-4c-3.42,1.071-6.8,2.252-10.172,3.452C-983.739,134.362-983.816,134.58-983.921,134.719Zm-45.348-2.568,3.975-2.025c-.126-.07-.393-.336-.544-.282a31.794,31.794,0,0,0-3.182,1.29A.643.643,0,0,0-1029.27,132.151Zm-6.141-1.952a6.24,6.24,0,0,0-6.111,4.745c.494-.006.544.01.74-.635a5.007,5.007,0,0,1,3.746-3.59C-1036.487,130.574-1035.952,130.375-1035.411,130.2Zm15-11.427,1.131,1.2.121-.115C-1019.586,118.878-1019.948,118.522-1020.415,118.773Zm2.793,1.64-.039-.239c-.411.183-.912-.319-1.286.143l.029.247Z" transform="translate(-62.062)" fill="#f06424"/>
    <path id="Path_1404" data-name="Path 1404" d="M-1103.771,447.072a15.147,15.147,0,0,1-14.439-10.628,15.173,15.173,0,0,1,5.838-16.962,3.415,3.415,0,0,0,.536-.688,1.56,1.56,0,0,1,.361-.349,16.354,16.354,0,0,1,9.228-2.451.958.958,0,0,1,.607.275c3.435,3.643,6.871,7.285,10.268,10.962a25.1,25.1,0,0,1,1.553,2.2,6.307,6.307,0,0,1,.97,5.237A15.2,15.2,0,0,1-1103.771,447.072Zm-.949-24.933c-3.772-.019-7.687,3.393-8.671,7.421a9.923,9.923,0,0,0,5.16,11.238,9.945,9.945,0,0,0,12.026-2.413,9.77,9.77,0,0,0,.992-11.381l-3.172,1.1a6.643,6.643,0,0,1-2.364,9.667,6.556,6.556,0,0,1-8.813-2.805,6.278,6.278,0,0,1-.443-4.979,6.5,6.5,0,0,1,4.415-4.359Zm-3.691-2.248c-.792-.2-1.445-.41-2.114-.515a1.582,1.582,0,0,0-1,.17,14.7,14.7,0,0,0-3.917,21.278c1.328,1.773,3.168,1.935,5.05,2.256-4.29-2.93-6.567-6.923-6.161-12.14S-1113.268,422.132-1108.411,419.89Zm3.206,7.989a4.091,4.091,0,0,0-3.049,4.183,4.479,4.479,0,0,0,3.39,4.241,4.484,4.484,0,0,0,5.005-2.113,4.028,4.028,0,0,0-.4-4.806,1.409,1.409,0,0,0,.092.717,3.947,3.947,0,0,1-.263,4.088,3.8,3.8,0,0,1-3.628,1.756,3.99,3.99,0,0,1-3.635-3.114,4.056,4.056,0,0,1,2.044-4.455A2.147,2.147,0,0,0-1105.2,427.879Zm-2.191-8.469-.027.106c.56.187,1.129.351,1.677.568a2.016,2.016,0,0,1,1.468,1.472.5.5,0,0,0,.273.307c.708.283,1.427.542,2.155.814.079-.134.135-.223.184-.315.729-1.372.736-1.381-.419-2.393a1.756,1.756,0,0,0-.89-.534C-1104.446,419.38-1105.921,419.411-1107.4,419.411Z" transform="translate(0 -269.93)" fill="#f06424"/>
    <path id="Path_1405" data-name="Path 1405" d="M-578.539,437.344l-8.379-5.187c.637-.425,1.18-.828,1.76-1.169q5.563-3.265,11.149-6.492a1.325,1.325,0,0,1,.9-.074,15.312,15.312,0,0,1,11.5,15.357,15.332,15.332,0,0,1-12.338,14.5A15.326,15.326,0,0,1-589.99,447.3a.727.727,0,0,1-.025-.956,2.823,2.823,0,0,0,.2-2.356,34.147,34.147,0,0,1-.714-3.384,9.7,9.7,0,0,1,2.083-7.151c.065-.085.133-.168.205-.247.7-.776.761-.784,1.634-.245,2.4,1.486,4.8,2.978,7.214,4.45a2.906,2.906,0,0,0,.779.213Zm-8.2,1.184a9.683,9.683,0,0,0,6.028,9.905,9.941,9.941,0,0,0,12.4-4.258,9.941,9.941,0,0,0-2.636-12.84,9.766,9.766,0,0,0-12.084.173c.76.663,1.532,1.306,2.266,1.99a.692.692,0,0,0,.937.115,6.087,6.087,0,0,1,6.665.545,5.988,5.988,0,0,1,2.5,6.026,6.3,6.3,0,0,1-6.086,5.428,6.4,6.4,0,0,1-6.4-5c-.044-.174-.112-.417-.242-.482C-584.493,439.58-585.612,439.063-586.743,438.527Zm17.985,10.863c1.074-.4,2.164-.77,3.215-1.225a2.4,2.4,0,0,0,1.049-.844,14.532,14.532,0,0,0,1.061-14.215,14.369,14.369,0,0,0-6.176-6.768c-.1.126-.186.22-.259.323-.283.4-.562.8-.869,1.233a12.77,12.77,0,0,1,6.642,10.2A13.038,13.038,0,0,1-568.758,449.39Zm-11.514-7.851a3.956,3.956,0,0,0,5.456,1.351,4.224,4.224,0,0,0,1.519-5.753c-1.07-1.837-3.541-2.657-5.188-1.623a1.772,1.772,0,0,0,.83.078,3.748,3.748,0,0,1,4.095,2.064,3.729,3.729,0,0,1-1.055,4.513,3.744,3.744,0,0,1-4.586.052C-579.539,441.968-579.914,441.765-580.272,441.539Z" transform="translate(-460.408 -277.242)" fill="#f06424"/>
    <path id="Path_1406" data-name="Path 1406" d="M-978.129,314.69a9.476,9.476,0,0,1,.33,1.912.935.935,0,0,0,.76,1.049c.239.08.468.189.771.313.124-1.84.228-3.647,1.766-4.908a8.072,8.072,0,0,0,.217,3.645c.029.164.216.3.328.449s.261.273.3.431c.106.454.291.814.8.882a1.085,1.085,0,0,0,1.159-.632,7.426,7.426,0,0,0,.337-.853,1.042,1.042,0,0,1,1.028.589q.543.82,1.08,1.645a.337.337,0,0,1,.058.171c0,1.214,0,2.427,0,3.72-1.813-.071-3.508-.036-4.722-1.562a1.372,1.372,0,0,0-.733-.3c-1.1-.255-2.2-.487-3.3-.735a1.684,1.684,0,0,1-.353-.151c-2.413-1.177-2.737-3.023-.866-4.969.25-.259.537-.482.806-.722Z" transform="translate(-120.716 -180.229)" fill="#f06424"/>
    <path id="Path_1407" data-name="Path 1407" d="M-839.7,154.465a1.257,1.257,0,0,1-.136-.187c-1.06-2.455-.835-3.008,1.885-4.393l-1.257-.442,3.18-.94a4.733,4.733,0,0,1,.008,3.42.452.452,0,0,1-.17.186C-837.355,152.894-838.523,153.676-839.7,154.465Z" transform="translate(-242.683 -36.825)" fill="#f06424"/>
  </g>
</svg>
