<svg version="1.2" baseProfile="tiny-ps" xmlns="http://www.w3.org/2000/svg" viewBox="0 0 8 10" width="8" height="10">
	<title>cart page – 1</title>
	<style>
		tspan { white-space:pre }
		.shp0 { fill: #ffffff } 
	</style>
	<g id="cart page – 1">
		<g id="Group 2553">
			<g id="Group 2545">
				<path id="padlock" fill-rule="evenodd" class="shp0" d="M8 4.69L8 9.06C8 9.58 7.58 10 7.06 10L1.44 10C0.92 10 0.5 9.58 0.5 9.06L0.5 4.69C0.5 4.17 0.92 3.75 1.44 3.75L1.75 3.75L1.75 2.5C1.75 1.12 2.87 0 4.25 0C5.63 0 6.75 1.12 6.75 2.5L6.75 3.75L7.06 3.75C7.58 3.75 8 4.17 8 4.69ZM2.58 3.75L5.92 3.75L5.92 2.5C5.92 1.58 5.17 0.83 4.25 0.83C3.33 0.83 2.58 1.58 2.58 2.5L2.58 3.75ZM5.08 6.25C5.08 5.79 4.71 5.42 4.25 5.42C3.79 5.42 3.42 5.79 3.42 6.25C3.42 6.56 3.59 6.82 3.83 6.97L3.83 7.92C3.83 8.15 4.02 8.33 4.25 8.33C4.48 8.33 4.67 8.15 4.67 7.92L4.67 6.97C4.91 6.82 5.08 6.56 5.08 6.25Z" />
			</g>
		</g>
	</g>
</svg>