<svg xmlns="http://www.w3.org/2000/svg" width="66.275" height="60.118" viewBox="0 0 66.275 60.118">
  <g id="automobile" transform="translate(-9 -32.058)">
    <path id="Path_1285" data-name="Path 1285" d="M20.77,45.38l-2.188,3.885c-1.058,0-3.408,0-4.707,0A4.412,4.412,0,0,0,9.462,51.98,9.59,9.59,0,0,0,9,54.3a.918.918,0,0,0,.259.685.93.93,0,0,0,.68.282h0l3.258.006a6.2,6.2,0,0,0-2.334,4.977.978.978,0,0,0,.007.121L12.38,72.333a3.563,3.563,0,0,0,2.928,3.416v3.829a2.277,2.277,0,0,0,2.245,2.271h3.933a2.306,2.306,0,0,0,2.278-2.271v-3.77H57.4a10.32,10.32,0,0,0,2.966,16.264.969.969,0,0,0,.929-.042.956.956,0,0,0,.46-.8V86.343l3.2-2.139,3.284,2.3-.02,4.725a.938.938,0,0,0,1.356.846,10.341,10.341,0,0,0-.435-18.694V50.85a10.334,10.334,0,0,0,.433-18.686A.949.949,0,0,0,68.194,33V37.89L65,40.029l-3.284-2.3L61.732,33a.938.938,0,0,0-1.356-.846,10.244,10.244,0,0,0-5.616,7.639,6.041,6.041,0,0,0-.949-.094H28.029C25.126,39.7,22.549,41.729,20.77,45.38Zm-9.749,8.03a7.566,7.566,0,0,1,.224-.834,2.631,2.631,0,0,1,2.631-1.43c.957,0,2.486,0,3.647,0L16.252,53.4ZM21.886,79.577a.428.428,0,0,1-.4.392H17.554a.4.4,0,0,1-.366-.392V75.808h4.7Zm-5.971-5.649a1.656,1.656,0,0,1-1.651-1.655.968.968,0,0,0-.008-.12L12.744,60.2a3.9,3.9,0,0,1,3.425-4.12.963.963,0,0,0,.16-.007H60.677v5.375a3.624,3.624,0,0,0,0,6.915v5.017a6.433,6.433,0,0,0-.964.545ZM48.4,54.2a4.428,4.428,0,0,1,8.725,0Zm12.282,9.348v2.727a1.74,1.74,0,0,1,0-2.727Zm-.835-28.863-.008,3.528a.941.941,0,0,0,.4.773l4.221,2.952a.94.94,0,0,0,1.06.012l4.151-2.774a.926.926,0,0,0,.4-.782v-3.7a8.241,8.241,0,0,1,3.341,6.727,8.518,8.518,0,0,1-5.523,7.924.964.964,0,0,0-.637.88V74.013a.971.971,0,0,0,.644.88,8.51,8.51,0,0,1,5.513,7.924,8.4,8.4,0,0,1-3.325,6.734l.016-3.528a.937.937,0,0,0-.4-.773L65.485,82.3a.938.938,0,0,0-1.059-.012l-4.15,2.774a.926.926,0,0,0-.4.782v3.7a8.241,8.241,0,0,1-3.341-6.727,8.5,8.5,0,0,1,3.9-7.13.888.888,0,0,0,.1-.069,8.032,8.032,0,0,1,1.441-.725.909.909,0,0,0,.576-.88V50.221a.91.91,0,0,0-.577-.88,8.462,8.462,0,0,1-2.137-14.658Zm-5.234,7a10.567,10.567,0,0,0,6.069,9.168V54.2H59.019a6.307,6.307,0,0,0-12.522,0H17.938l4.483-7.922c.01-.017.019-.042.027-.059.838-1.729,2.678-4.636,5.581-4.636H53.812a3.773,3.773,0,0,1,.8.1Z" fill="#fff"/>
    <path id="Path_1286" data-name="Path 1286" d="M66.035,249.8a3.624,3.624,0,1,0,3.624,3.624,3.624,3.624,0,0,0-3.624-3.624Zm0,5.369a1.745,1.745,0,1,1,1.745-1.745,1.745,1.745,0,0,1-1.745,1.745Z" transform="translate(-46.242 -188.52)" fill="#fff"/>
    <path id="Path_1287" data-name="Path 1287" d="M147.323,247.847h24.863a.978.978,0,0,0,.89-1.283l-.857-2.5A4.781,4.781,0,0,0,167.9,241H151.536a4.714,4.714,0,0,0-4.287,3.079l-.82,2.5a.981.981,0,0,0,.133.863A.959.959,0,0,0,147.323,247.847Zm1.713-3.156a2.886,2.886,0,0,1,2.5-1.811H167.9a2.945,2.945,0,0,1,2.534,1.812l.435,1.275H148.618Z" transform="translate(-118.943 -180.898)" fill="#fff"/>
    <path id="Path_1288" data-name="Path 1288" d="M159.212,302H128.547a.94.94,0,1,0,0,1.879h30.665a.94.94,0,1,0,0-1.879Z" transform="translate(-102.687 -233.709)" fill="#fff"/>
  </g>
</svg>
