<svg xmlns="http://www.w3.org/2000/svg" width="61.19" height="42.47" viewBox="0 0 61.19 42.47">
  <g id="Group_2100" data-name="Group 2100" transform="translate(1 1.234)">
    <path id="Path_1340" data-name="Path 1340" d="M-1351.551,689.3c1.714-2.9,3.865-3.692,6.825-3.607,7.215.207,14.44.068,22.067.068,0-6.991.008-13.665,0-20.34-.009-6.782-.016-6.777-6.773-6.693-1.9.024-3.8,0-5.812,0-.381-2.628.289-3.826,2.91-3.75,4.245.123,8.5.033,13.084.033.063,1.33.19,2.458.153,3.581-.078,2.41-.328,4.7,3.254,4.887.754.04,1.938,1.963,2.011,3.078.25,3.819.056,7.666.1,11.5.044,3.6-2.991,2.893-5.372,3.767,0,1.568-.062,3.246.017,4.918.091,1.938-.762,2.595-2.666,2.582C-1331.551,689.272-1341.352,689.3-1351.551,689.3Z" transform="translate(1372.898 -652.383)" fill="none" stroke="#f06424" stroke-width="2"/>
    <path id="Path_1341" data-name="Path 1341" d="M-1345.63,667.022h6.991l-21.385,23.845-.607-.376,7.935-18.464-7.227-.387,19.536-20.718.643.332Z" transform="translate(1376.168 -650.921)" fill="none" stroke="#f06424" stroke-width="2"/>
    <path id="Path_1342" data-name="Path 1342" d="M-1355.592,655.361c-1.644,2.772-3.546,3.876-6.633,3.705-5.622-.312-11.273-.187-16.908-.058-.863.02-2.433,1.027-2.444,1.6-.161,8.271-.11,16.546-.11,25.228h12.05c-.468,2.755-1.55,3.812-4.151,3.619-3.588-.266-7.21-.067-11.127-.067v-34.03Z" transform="translate(1384.914 -652.52)" fill="none" stroke="#f06424" stroke-width="2"/>
  </g>
</svg>
