<svg xmlns="http://www.w3.org/2000/svg" width="65.818" height="47.708" viewBox="0 0 65.818 47.708">
  <g id="honesty" transform="translate(0 -70.297)">
    <path id="Path_1283" data-name="Path 1283" d="M53.388,189.119,48.1,194.4c-.069-.084-.142-.165-.22-.243l-6.825-6.825a.966.966,0,0,0-1.366,1.366l6.825,6.825a1.5,1.5,0,1,1-2.128,2.128L40.6,193.862a.966.966,0,0,0-1.366,1.366l3.792,3.792h0a1.5,1.5,0,0,1-2.128,2.127L37.1,197.356a.966.966,0,0,0-1.366,1.366l3.792,3.792a1.5,1.5,0,1,1-2.128,2.128l-3.792-3.792a.966.966,0,1,0-1.366,1.366l3.792,3.792a1.5,1.5,0,1,1-2.128,2.128l-2.457-2.457a3.4,3.4,0,0,0-.51-4.148l-.058-.058a3.39,3.39,0,0,0-2.741-.976,3.391,3.391,0,0,0-2.572-3.063,3.4,3.4,0,0,0-4.637-4.285,3.393,3.393,0,0,0-5.667-1.476l-.4.4-.29-.29a2.457,2.457,0,0,1-.724-1.749v-2.52a.966.966,0,0,0-.283-.683l-4.124-4.124,1.16-1.16a.966.966,0,0,0-1.366-1.366l-1.553,1.554a.752.752,0,0,1-1.063,0L1.65,176.761a.966.966,0,0,0-1.366,1.366L5.255,183.1a2.675,2.675,0,0,0,1.9.785,2.7,2.7,0,0,0,.654-.083l4.113,4.112v2.119a4.377,4.377,0,0,0,1.29,3.115l.291.291-.323.323a3.394,3.394,0,0,0,2.4,5.8h.041c0,.014,0,.028,0,.043a3.4,3.4,0,0,0,3.4,3.4h.043a3.389,3.389,0,0,0,3.393,3.435h.043a3.385,3.385,0,0,0,.992,2.444l.058.058a3.4,3.4,0,0,0,4.8,0l1.812-1.812,2.385,2.385a3.434,3.434,0,0,0,5.864-2.489h.06a3.433,3.433,0,0,0,3.434-3.5h.06a3.434,3.434,0,0,0,3.437-3.435c0-.02,0-.04,0-.06h.059a3.43,3.43,0,0,0,3.427-3.666l5.875-5.875a.966.966,0,0,0-1.367-1.366ZM14.542,197.2a1.463,1.463,0,0,1,0-2.07l2.088-2.088a1.463,1.463,0,1,1,2.07,2.07L16.612,197.2a1.465,1.465,0,0,1-2.07,0Zm4.471,3.865a1.463,1.463,0,0,1-1.035-2.5l2.088-2.088,1.3-1.3a1.463,1.463,0,0,1,2.069,2.07l-3.386,3.386a1.454,1.454,0,0,1-1.035.429Zm2.4,3.007a1.465,1.465,0,0,1,0-2.07l2.3-2.3a1.463,1.463,0,0,1,2.07,2.069l-2.305,2.305A1.465,1.465,0,0,1,21.414,204.069Zm5.564,3.494a1.463,1.463,0,0,1-2.069,0l-.058-.058a1.465,1.465,0,0,1,0-2.07l2.3-2.3,0,0,.289-.289a1.465,1.465,0,0,1,2.07,0l.058.058a1.465,1.465,0,0,1,0,2.07Z" transform="translate(0 -92.504)" fill="#f06424"/>
    <path id="Path_1284" data-name="Path 1284" d="M145.784,88.328a.966.966,0,0,0-1.366,0l-3.62,3.62a.132.132,0,0,1-.183,0l-12.8-12.226a.131.131,0,0,1,0-.187l7.591-7.591a.966.966,0,0,0-1.366-1.366l-7.591,7.591a2.059,2.059,0,0,0-.179,2.71l-3.474,3.407-3.273-1.826a2.885,2.885,0,0,0-1.4-.365h-9.3l-.708-.708a6.513,6.513,0,0,0-2.3-1.49l-2.575-.981-1.19-1.19a2.686,2.686,0,0,0-.4-3.272L97.765,70.58A.966.966,0,0,0,96.4,71.946l3.877,3.877a.752.752,0,0,1,0,1.063L92.4,84.764a.966.966,0,0,0,1.366,1.366l6.975-6.975,1.276,1.276a.967.967,0,0,0,.339.22l2.768,1.054a4.592,4.592,0,0,1,1.586,1.016c-.059.049-.116.1-.171.155l-3.674,3.674a3.86,3.86,0,0,0,5.181,5.712l2.781-2.286h2.9l3.309,3.309a.966.966,0,0,0,1.366-1.366l-2.391-2.391a.965.965,0,0,0-.814-1.485h-4.713a.966.966,0,0,0-.614.22l-3.048,2.506a1.928,1.928,0,0,1-2.588-2.853l3.674-3.674a.723.723,0,0,1,.515-.213h9.7a.949.949,0,0,1,.461.12l3.62,2.019a1.409,1.409,0,0,0,1.663-.223l3.784-3.711,10.418,9.952L136.548,93.7a.966.966,0,0,0,1.366,1.366l1.56-1.56a2.073,2.073,0,0,0,2.689-.2l3.62-3.62a.966.966,0,0,0,0-1.366Z" transform="translate(-80.249)" fill="#f06424"/>
  </g>
</svg>
