<svg xmlns="http://www.w3.org/2000/svg" width="65.356" height="62.705" viewBox="0 0 65.356 62.705">
  <g id="invoice" transform="translate(-10 -19.931)">
    <path id="Path_1289" data-name="Path 1289" d="M149.042,219.594h10.635a.8.8,0,1,0,0-1.594H149.042a.8.8,0,1,0,0,1.594Z" transform="translate(-119.882 -171.759)" fill="#f06424"/>
    <path id="Path_1290" data-name="Path 1290" d="M248.272,213.446H252.4a2.723,2.723,0,0,0,0-5.446h-3.381a.79.79,0,0,0-.783.638l-.746,3.857a.8.8,0,0,0,.783.952Zm1.4-3.852H252.4a1.129,1.129,0,0,1,0,2.258h-3.161Z" transform="translate(-205.931 -163.087)" fill="#f06424"/>
    <path id="Path_1291" data-name="Path 1291" d="M91.148,212.493l-.746-3.854A.791.791,0,0,0,89.62,208H86.239a2.723,2.723,0,1,0,0,5.446h4.127a.8.8,0,0,0,.783-.953Zm-4.909-.641a1.129,1.129,0,0,1,0-2.258h2.723l.438,2.258Z" transform="translate(-63.751 -163.088)" fill="#f06424"/>
    <path id="Path_1292" data-name="Path 1292" d="M87.345,152.651l.019,2.707a1.949,1.949,0,0,0,.574,1.373,1.928,1.928,0,0,0,1.351.569H89.3l3.058-.05a1.916,1.916,0,0,0,1.912-1.925l-.02-2.673h.037a1.157,1.157,0,0,0,1.1-1.157v-2.682a1.174,1.174,0,0,0-.8-1.057v-5.669a3.1,3.1,0,0,0-2.654-3.058L89.782,133.1a3.216,3.216,0,0,0-3.026-2.1H67.693a3.21,3.21,0,0,0-3.023,2.1l-2.127,5.935a3.059,3.059,0,0,0-2.614,3.05v5.669a1.141,1.141,0,0,0-.93,1.057v2.682a1.2,1.2,0,0,0,1.159,1.157h.024l.019,2.736a1.929,1.929,0,0,0,1.924,1.913h.014l3.057-.05a1.916,1.916,0,0,0,1.912-1.925l-.019-2.673Zm5.005,3.019-3.058.036h0a.337.337,0,0,1-.233-.126.292.292,0,0,1-.1-.219l-.019-2.71h3.72l.019,2.67A.345.345,0,0,1,92.35,155.671ZM66.169,133.632a1.6,1.6,0,0,1,1.524-1.039H86.756a1.6,1.6,0,0,1,1.524,1.039l1.949,5.337H64.22Zm-4.645,8.454a1.469,1.469,0,0,1,1.434-1.523H91.492A1.535,1.535,0,0,1,93,142.086v5.65H84.078l-1.363-2.37a.818.818,0,0,0-.689-.419H71.831a.818.818,0,0,0-.689.419l-1.363,2.37H61.524Zm20.711,5.65H71.622l.668-1.2h9.278Zm-17.048,7.934-3.057.036h0a.333.333,0,0,1-.332-.33l-.018-2.725H65.5l.019,2.67A.345.345,0,0,1,65.187,155.671Zm-4.593-4.613v-1.727H93.8v1.727Z" transform="translate(-42.491 -96.316)" fill="#f06424"/>
    <path id="Path_1293" data-name="Path 1293" d="M37.8,121.714a.8.8,0,0,0-.8.8v12.353a.8.8,0,1,0,1.594,0V122.511A.8.8,0,0,0,37.8,121.714Z" transform="translate(-23.414 -88.263)" fill="#f06424"/>
    <path id="Path_1294" data-name="Path 1294" d="M37.8,97.827a.8.8,0,0,0-.8.8v.658a.8.8,0,1,0,1.594,0v-.658A.8.8,0,0,0,37.8,97.827Z" transform="translate(-23.414 -67.549)" fill="#f06424"/>
    <path id="Path_1295" data-name="Path 1295" d="M76.868,350.345a1.174,1.174,0,0,1,1.173,1.173.8.8,0,0,0,1.6,0,2.86,2.86,0,0,0-1.962-2.648v-.4a.8.8,0,1,0-1.594,0v.4a2.71,2.71,0,0,0-1.978,2.648,2.767,2.767,0,0,0,2.763,2.767,1.172,1.172,0,1,1,.012,2.345h-.029a1.174,1.174,0,0,1-1.159-1.172.793.793,0,1,0-1.586,0,2.71,2.71,0,0,0,1.977,2.648v.493a.8.8,0,0,0,1.594,0v-.493a2.86,2.86,0,0,0,1.962-2.648,2.773,2.773,0,0,0-2.771-2.767,1.173,1.173,0,1,1,0-2.345Z" transform="translate(-55.593 -284.204)" fill="#f06424"/>
    <path id="Path_1296" data-name="Path 1296" d="M153.893,355H135.578a.8.8,0,1,0,0,1.594h18.315a.8.8,0,1,0,0-1.594Z" transform="translate(-108.206 -290.562)" fill="#f06424"/>
    <path id="Path_1297" data-name="Path 1297" d="M147.162,416H135.578a.8.8,0,0,0,0,1.594h11.584a.8.8,0,0,0,0-1.594Z" transform="translate(-108.206 -343.459)" fill="#f06424"/>
    <path id="Path_1298" data-name="Path 1298" d="M68.462,55.3l-9.049,5.931V28.569a5.209,5.209,0,0,0-5.177-5.175H48.654V20.728a.8.8,0,0,0-1.594,0v2.666H39.621V20.728a.8.8,0,1,0-1.594,0v2.666H30.589V20.728a.8.8,0,1,0-1.594,0v2.666H21.423V20.728a.8.8,0,1,0-1.594,0v2.666H15.141A5.179,5.179,0,0,0,10,28.569V77.513a5.135,5.135,0,0,0,5.141,5.124h39.1a5.166,5.166,0,0,0,5.177-5.124V71.867l13.941-9.142A4.446,4.446,0,0,0,68.462,55.3Zm-.1,1.969,1.129,1.715L47.488,73.41,46.359,71.7ZM47.81,76.8l-4.545.119,2.062-3.89Zm.03-49.319a1.6,1.6,0,1,1-1.608,1.6,1.6,1.6,0,0,1,1.608-1.6Zm-9.053,0a1.6,1.6,0,1,1-1.608,1.6,1.6,1.6,0,0,1,1.608-1.6Zm-9.053,0a1.6,1.6,0,1,1-1.608,1.6,1.6,1.6,0,0,1,1.608-1.6Zm-9.053,0a1.6,1.6,0,1,1-1.608,1.6,1.6,1.6,0,0,1,1.608-1.6ZM57.819,77.513a3.57,3.57,0,0,1-3.583,3.53h-39.1a3.539,3.539,0,0,1-3.547-3.53V28.569a3.583,3.583,0,0,1,3.547-3.581h4.689v1a3.205,3.205,0,1,0,4.019,3.1,3.136,3.136,0,0,0-2.425-3.1v-1h7.571v1a3.144,3.144,0,0,0-2.434,3.1,3.206,3.206,0,1,0,6.411,0,3.245,3.245,0,0,0-2.383-3.1v-1h7.439v1a3.135,3.135,0,0,0-2.424,3.1,3.2,3.2,0,1,0,6.409,0,3.252,3.252,0,0,0-2.391-3.1v-1H47.06v1a3.126,3.126,0,0,0-2.414,3.1,3.2,3.2,0,1,0,6.406,0,3.259,3.259,0,0,0-2.4-3.1v-1h5.583a3.614,3.614,0,0,1,3.583,3.581V62.277L46.351,69.794a.8.8,0,0,0-.664-1.238H27.372a.8.8,0,0,0,0,1.594H45.687a.791.791,0,0,0,.141-.013l-1.011.662a.8.8,0,0,0-.267.293h0l-3.332,6.284a.8.8,0,0,0,.7,1.17h.038l7.359-.192h0a.766.766,0,0,0,.4-.129l8.1-5.312Zm-8.327-1.057-1.129-1.715L70.37,60.315,71.5,62.03ZM73.7,59.589a2.822,2.822,0,0,1-.887,1.538l-3.095-4.7a2.86,2.86,0,0,1,3.572,1.024A2.824,2.824,0,0,1,73.7,59.589Z" fill="#f06424"/>
  </g>
</svg>
