<svg xmlns="http://www.w3.org/2000/svg" width="53.998" height="54" viewBox="0 0 53.998 54">
  <g id="Group_2088" data-name="Group 2088" transform="translate(2 2)">
    <g id="Path_1331" data-name="Path 1331" transform="translate(1629.808 -650.921)" fill="none" stroke-linecap="round" stroke-linejoin="round">
      <path d="M-1613.766,684.05a20.224,20.224,0,0,0,3.312.557q14.021.063,28.042-.009c1.655-.01,2.688.107,2.6,2.229-.08,1.886-.4,2.86-2.617,2.848-11.271-.063-22.544.009-33.816.051a1.854,1.854,0,0,1-2.138-1.8c-1.159-6.643-2.394-13.272-3.647-19.9-.609-3.217-1.387-6.4-1.95-9.628-.281-1.613-.922-2.395-2.648-2.151a24.932,24.932,0,0,1-3.139.022,30.7,30.7,0,0,1,.072-4.24c.061-.428.951-1.024,1.485-1.048,2.42-.109,4.849-.026,7.275-.044,1.369-.01,1.607.812,1.654,1.952.166,3.981.187,3.978,4.182,3.978,10.917,0,21.835.049,32.752-.04,2-.016,2.589.64,2.529,2.565-.118,3.778-.1,7.564-.005,11.344a2.553,2.553,0,0,1-2.107,2.934q-14.586,4.118-29.143,8.339a23.423,23.423,0,0,0-2.777,1.194Z" stroke="none"/>
      <path d="M -1616.26611328125 689.7252197265625 C -1616.260131835938 689.7252197265625 -1616.25390625 689.7251586914063 -1616.247802734375 689.7251586914063 C -1608.158081054688 689.6953125 -1600.06884765625 689.649658203125 -1591.9794921875 689.649658203125 C -1588.796997070313 689.649658203125 -1585.614135742188 689.65673828125 -1582.431640625 689.6746215820313 C -1582.41796875 689.6746826171875 -1582.404418945313 689.6747436523438 -1582.390869140625 689.6747436523438 C -1580.21142578125 689.6747436523438 -1579.894287109375 688.70068359375 -1579.814697265625 686.82666015625 C -1579.72802734375 684.774169921875 -1580.692016601563 684.5975341796875 -1582.253784179688 684.5975341796875 C -1582.306030273438 684.5975341796875 -1582.359008789063 684.5977783203125 -1582.41259765625 684.5980834960938 C -1587.131591796875 684.6275024414063 -1591.850219726563 684.6402587890625 -1596.569458007813 684.6402587890625 C -1601.197631835938 684.6402587890625 -1605.826416015625 684.6279907226563 -1610.45458984375 684.6070556640625 C -1611.558837890625 684.6019287109375 -1612.66259765625 684.2442016601563 -1613.766357421875 684.0503540039063 L -1613.85400390625 683.2000122070313 C -1612.93017578125 682.7962646484375 -1612.037353515625 682.2837524414063 -1611.0771484375 682.0060424804688 C -1601.37060546875 679.1990356445313 -1591.65771484375 676.4131469726563 -1581.933837890625 673.6675415039063 C -1580.363037109375 673.22412109375 -1579.787841796875 672.3571166992188 -1579.826904296875 670.7338256835938 C -1579.91845703125 666.9542236328125 -1579.940185546875 663.1682739257813 -1579.82177734375 659.3899536132813 C -1579.76220703125 657.4873657226563 -1580.33544921875 656.8245239257813 -1582.279907226563 656.8245239257813 C -1582.303100585938 656.8245239257813 -1582.326782226563 656.8246459960938 -1582.350341796875 656.8248291015625 C -1587.545043945313 656.8668823242188 -1592.7392578125 656.8778686523438 -1597.93408203125 656.8778686523438 C -1603.656616210938 656.8778686523438 -1609.379760742188 656.864501953125 -1615.102294921875 656.864501953125 C -1619.09765625 656.864501953125 -1619.11865234375 656.8670654296875 -1619.284423828125 652.8865356445313 C -1619.33154296875 651.7533569335938 -1619.56689453125 650.9342651367188 -1620.913330078125 650.9342651367188 C -1620.921630859375 650.9342651367188 -1620.930053710938 650.934326171875 -1620.9384765625 650.9343872070313 C -1621.191650390625 650.936279296875 -1621.444458007813 650.93701171875 -1621.697631835938 650.93701171875 C -1622.861206054688 650.93701171875 -1624.025512695313 650.9208374023438 -1625.188720703125 650.9208374023438 C -1626.19775390625 650.9208374023438 -1627.206420898438 650.9330444335938 -1628.21337890625 650.978515625 C -1628.7470703125 651.0028686523438 -1629.6376953125 651.5985107421875 -1629.698486328125 652.0265502929688 C -1629.8916015625 653.3792114257813 -1629.770263671875 654.7766723632813 -1629.770263671875 656.266845703125 C -1628.964233398438 656.266845703125 -1628.296264648438 656.3078002929688 -1627.688110351563 656.3078002929688 C -1627.319580078125 656.3078002929688 -1626.972900390625 656.292724609375 -1626.631103515625 656.2444458007813 C -1626.423217773438 656.2150268554688 -1626.231201171875 656.200439453125 -1626.053466796875 656.200439453125 C -1624.756469726563 656.200439453125 -1624.23095703125 656.9762573242188 -1623.9833984375 658.3949584960938 C -1623.420166015625 661.6192016601563 -1622.642333984375 664.8056640625 -1622.033203125 668.0228271484375 C -1620.77978515625 674.6484375 -1619.544677734375 681.2778930664063 -1618.385986328125 687.9207763671875 C -1618.151733398438 689.2618408203125 -1617.521362304688 689.7252197265625 -1616.26611328125 689.7252197265625 M -1616.26611328125 691.7251586914063 L -1616.26611328125 691.7251586914063 C -1618.546508789063 691.7252197265625 -1619.960815429688 690.5286865234375 -1620.356201171875 688.264892578125 C -1621.573608398438 681.2853393554688 -1622.880493164063 674.3036499023438 -1623.998291015625 668.3945922851563 C -1624.262329101563 667.0006103515625 -1624.56591796875 665.5775756835938 -1624.859497070313 664.2013549804688 C -1625.2392578125 662.4209594726563 -1625.631958007813 660.5800170898438 -1625.95361328125 658.7391357421875 C -1626.000122070313 658.472412109375 -1626.04833984375 658.3031616210938 -1626.084716796875 658.2008056640625 C -1626.16162109375 658.2025756835938 -1626.2509765625 658.2105712890625 -1626.350708007813 658.2246704101563 C -1626.752197265625 658.2814331054688 -1627.177001953125 658.3078002929688 -1627.688110351563 658.3078002929688 C -1628.000732421875 658.3078002929688 -1628.312622070313 658.2984619140625 -1628.642822265625 658.28857421875 C -1628.999755859375 658.2778930664063 -1629.368896484375 658.266845703125 -1629.770263671875 658.266845703125 C -1630.874877929688 658.266845703125 -1631.770263671875 657.3713989257813 -1631.770263671875 656.266845703125 C -1631.770263671875 655.8690185546875 -1631.77978515625 655.46337890625 -1631.788940429688 655.071044921875 C -1631.814208984375 653.992919921875 -1631.84033203125 652.8781127929688 -1631.678466796875 651.743896484375 C -1631.447387695313 650.1171875 -1629.5576171875 649.0377807617188 -1628.304565429688 648.9805908203125 C -1627.40185546875 648.9398193359375 -1626.412109375 648.9208374023438 -1625.188720703125 648.9208374023438 C -1624.600219726563 648.9208374023438 -1624.005126953125 648.9249877929688 -1623.429565429688 648.928955078125 C -1622.860717773438 648.9329223632813 -1622.272583007813 648.93701171875 -1621.697631835938 648.93701171875 C -1621.449340820313 648.93701171875 -1621.201538085938 648.936279296875 -1620.953247070313 648.9344482421875 L -1620.913330078125 648.934326171875 C -1619.263671875 648.934326171875 -1618.392456054688 649.714599609375 -1617.9521484375 650.369140625 C -1617.418579101563 651.1624145507813 -1617.31591796875 652.0867919921875 -1617.2861328125 652.8035278320313 C -1617.2568359375 653.5072021484375 -1617.222045898438 654.3438110351563 -1617.157104492188 654.8206787109375 C -1616.6845703125 654.864501953125 -1615.85888671875 654.864501953125 -1615.109985351563 654.864501953125 L -1615.102294921875 654.864501953125 C -1612.239868164063 654.864501953125 -1609.329956054688 654.867919921875 -1606.515869140625 654.8712158203125 C -1603.702880859375 654.8744506835938 -1600.794189453125 654.8778686523438 -1597.93408203125 654.8778686523438 C -1591.695922851563 654.8778686523438 -1586.894653320313 654.8615112304688 -1582.366577148438 654.8248901367188 C -1582.337524414063 654.8246459960938 -1582.308349609375 654.8245239257813 -1582.279907226563 654.8245239257813 C -1581.302856445313 654.8245239257813 -1579.88720703125 654.9450073242188 -1578.877685546875 655.9866943359375 C -1577.867431640625 657.0289916992188 -1577.791748046875 658.4639282226563 -1577.82275390625 659.4525756835938 C -1577.927856445313 662.8053588867188 -1577.929321289063 666.4796142578125 -1577.827514648438 670.6853637695313 C -1577.765625 673.2566528320313 -1578.96435546875 674.907470703125 -1581.390502929688 675.5923461914063 C -1588.945190429688 677.7254638671875 -1597.036987304688 680.0366821289063 -1606.009887695313 682.6243896484375 C -1602.737182617188 682.635009765625 -1599.619262695313 682.6402587890625 -1596.569580078125 682.6402587890625 C -1591.602661132813 682.6402587890625 -1586.975952148438 682.62646484375 -1582.425048828125 682.59814453125 C -1582.3671875 682.5977783203125 -1582.31005859375 682.5975341796875 -1582.253784179688 682.5975341796875 C -1581.359619140625 682.5975341796875 -1579.863037109375 682.5975341796875 -1578.7998046875 683.7066650390625 C -1578.078857421875 684.458740234375 -1577.757202148438 685.5068969726563 -1577.816528320313 686.9110717773438 C -1577.861206054688 687.9646606445313 -1577.9716796875 689.1710815429688 -1578.720703125 690.1605834960938 C -1579.866943359375 691.6747436523438 -1581.7666015625 691.6747436523438 -1582.390869140625 691.6747436523438 L -1582.44189453125 691.674560546875 C -1585.426879882813 691.6578369140625 -1588.54638671875 691.649658203125 -1591.9794921875 691.649658203125 C -1597.981323242188 691.649658203125 -1604.085815429688 691.6752319335938 -1609.9892578125 691.7000122070313 C -1612.072998046875 691.708740234375 -1614.156616210938 691.7174682617188 -1616.240478515625 691.7251586914063 L -1616.26611328125 691.7251586914063 L -1616.26611328125 691.7251586914063 Z" stroke="none" fill="#f06424"/>
    </g>
    <g id="Path_1332" data-name="Path 1332" transform="translate(1625.138 -673.032)" fill="none" stroke-linecap="round" stroke-linejoin="round">
      <path d="M-1611.475,723.021a5.361,5.361,0,0,1-5.365-5.416,5.574,5.574,0,0,1,5.149-5.291,5.438,5.438,0,0,1,5.648,5.418A5.182,5.182,0,0,1-1611.475,723.021Z" stroke="none"/>
      <path d="M -1611.433471679688 723.0206909179688 C -1608.324096679688 723.0206909179688 -1606.041015625 720.7842407226563 -1606.04296875 717.732177734375 C -1606.0439453125 714.6609497070313 -1608.4775390625 712.3267211914063 -1611.69140625 712.31396484375 C -1611.696655273438 712.31396484375 -1611.701538085938 712.31396484375 -1611.706787109375 712.31396484375 C -1614.290649414063 712.31396484375 -1616.800659179688 714.8985595703125 -1616.840087890625 717.6048583984375 C -1616.88330078125 720.5762939453125 -1614.48046875 723.0013427734375 -1611.474609375 723.0205688476563 C -1611.460815429688 723.0206298828125 -1611.447143554688 723.0206909179688 -1611.433471679688 723.0206909179688 M -1611.433471679688 725.0206909179688 L -1611.487670898438 725.0205078125 C -1613.490356445313 725.0076904296875 -1615.359985351563 724.2179565429688 -1616.751708984375 722.7967529296875 C -1618.126831054688 721.392578125 -1618.868408203125 719.5383911132813 -1618.83984375 717.5758056640625 C -1618.784423828125 713.775146484375 -1615.384521484375 710.31396484375 -1611.706787109375 710.31396484375 L -1611.683715820313 710.31396484375 C -1609.613525390625 710.3222045898438 -1607.693725585938 711.07470703125 -1606.27783203125 712.4328002929688 C -1604.837280273438 713.8146362304688 -1604.043579101563 715.6964111328125 -1604.04296875 717.7315673828125 C -1604.041748046875 719.7487182617188 -1604.797485351563 721.6018676757813 -1606.171142578125 722.9489135742188 C -1607.533447265625 724.284912109375 -1609.40234375 725.0206909179688 -1611.433471679688 725.0206909179688 Z" stroke="none" fill="#f06424"/>
    </g>
    <g id="Path_1333" data-name="Path 1333" transform="translate(1609.325 -673.084)" fill="none" stroke-linecap="round" stroke-linejoin="round">
      <path d="M-1567.514,723.084a5.151,5.151,0,0,1-5.42-5.327,5.2,5.2,0,0,1,5.276-5.3,5.233,5.233,0,0,1,5.432,5.142A5.233,5.233,0,0,1-1567.514,723.084Z" stroke="none"/>
      <path d="M -1567.5693359375 723.0840454101563 C -1567.551147460938 723.0840454101563 -1567.53271484375 723.0839233398438 -1567.514404296875 723.0838012695313 C -1564.44384765625 723.0582275390625 -1562.1787109375 720.7105712890625 -1562.22607421875 717.6028442382813 C -1562.269775390625 714.7073974609375 -1564.609130859375 712.4594116210938 -1567.552490234375 712.4594116210938 C -1567.58740234375 712.4594116210938 -1567.622802734375 712.4597778320313 -1567.657836914063 712.4603881835938 C -1570.69775390625 712.5160522460938 -1572.924926757813 714.7523803710938 -1572.93408203125 717.757080078125 C -1572.943481445313 720.8576049804688 -1570.696044921875 723.0840454101563 -1567.5693359375 723.0840454101563 M -1567.5693359375 725.0840454101563 C -1569.628051757813 725.0840454101563 -1571.507934570313 724.3356323242188 -1572.862670898438 722.9767456054688 C -1574.20458984375 721.630859375 -1574.940185546875 719.7749633789063 -1574.93408203125 717.7510375976563 C -1574.927978515625 715.7672729492188 -1574.187744140625 713.9349365234375 -1572.849487304688 712.5914306640625 C -1571.517211914063 711.25390625 -1569.6865234375 710.4971923828125 -1567.694458007813 710.4607543945313 C -1567.647094726563 710.4598388671875 -1567.599487304688 710.4594116210938 -1567.552490234375 710.4594116210938 C -1563.504516601563 710.4594116210938 -1560.286499023438 713.5839233398438 -1560.226318359375 717.5726928710938 C -1560.195068359375 719.6243286132813 -1560.928588867188 721.5230102539063 -1562.291748046875 722.9187622070313 C -1563.639038085938 724.298095703125 -1565.487915039063 725.0670166015625 -1567.497802734375 725.083740234375 C -1567.521728515625 725.0839233398438 -1567.545654296875 725.0840454101563 -1567.5693359375 725.0840454101563 Z" stroke="none" fill="#f06424"/>
    </g>
  </g>
</svg>
