<svg xmlns="http://www.w3.org/2000/svg" width="55.104" height="52.153" viewBox="0 0 55.104 52.153">
  <g id="Group_2087" data-name="Group 2087" transform="translate(2 2)">
    <g id="Path_1327" data-name="Path 1327" transform="translate(1884.408 -667.132)" fill="none" stroke-linecap="round" stroke-linejoin="round">
      <path d="M-1873.269,695.961c-1.086,4.746.107,5.524,3.391,6.948a27.787,27.787,0,0,0,21.686.12c3.739-1.445,4.314-2.835,3.444-7.094,1.678.674,3.069,1.221,4.449,1.793,1.751.725,3.533,1.387,5.227,2.226,2.24,1.109,2.39,2.533.229,3.784-4.575,2.648-9.27,5.089-13.922,7.6-1.527.825-3.082,1.6-4.611,2.421a11.134,11.134,0,0,1-11.472-.138c-5.3-2.977-10.7-5.766-16.059-8.637a7.943,7.943,0,0,1-1.844-1.05c-.69-.671-1.608-1.5-1.657-2.309-.036-.6,1.047-1.516,1.824-1.863C-1879.656,698.456-1876.65,697.323-1873.269,695.961Z" stroke="none"/>
      <path d="M -1844.748413085938 695.9340209960938 C -1843.878173828125 700.19287109375 -1844.453369140625 701.583251953125 -1848.192138671875 703.0280151367188 C -1851.813598632813 704.4278564453125 -1855.47314453125 705.171142578125 -1859.124145507813 705.171142578125 C -1862.732666015625 705.171142578125 -1866.332885742188 704.4448852539063 -1869.878540039063 702.9083862304688 C -1873.162109375 701.4853515625 -1874.35546875 700.707275390625 -1873.26904296875 695.9608764648438 C -1876.650024414063 697.3231201171875 -1879.656005859375 698.456298828125 -1882.583374023438 699.7654418945313 C -1883.360107421875 700.1122436523438 -1884.443969726563 701.03173828125 -1884.407470703125 701.628662109375 C -1884.358154296875 702.4368286132813 -1883.440673828125 703.2660522460938 -1882.750366210938 703.937255859375 C -1882.259521484375 704.41455078125 -1881.532470703125 704.6513061523438 -1880.906372070313 704.9872436523438 C -1875.548828125 707.8582763671875 -1870.145874023438 710.6473388671875 -1864.847412109375 713.6239013671875 C -1862.874633789063 714.7317504882813 -1860.930419921875 715.284912109375 -1858.986694335938 715.284912109375 C -1857.123657226563 715.284912109375 -1855.26123046875 714.7766723632813 -1853.37548828125 713.761474609375 C -1851.846923828125 712.9386596679688 -1850.291381835938 712.1657104492188 -1848.764770507813 711.34033203125 C -1844.112426757813 708.8263549804688 -1839.417724609375 706.3853149414063 -1834.842895507813 703.7369995117188 C -1832.68212890625 702.486083984375 -1832.831909179688 701.0623779296875 -1835.072021484375 699.9529418945313 C -1836.766235351563 699.1140747070313 -1838.548828125 698.4518432617188 -1840.299438476563 697.7268676757813 C -1841.6796875 697.155517578125 -1843.07080078125 696.6083984375 -1844.748413085938 695.9340209960938 M -1844.748168945313 693.9340209960938 C -1844.496704101563 693.9340209960938 -1844.24365234375 693.9813842773438 -1844.00244140625 694.078369140625 C -1843.48583984375 694.2860107421875 -1842.996459960938 694.4815673828125 -1842.526245117188 694.6694946289063 C -1841.484252929688 695.0859375 -1840.5 695.4793090820313 -1839.534545898438 695.8789672851563 C -1839.083374023438 696.0657958984375 -1838.618041992188 696.253173828125 -1838.168090820313 696.4343872070313 C -1836.857666015625 696.9622192382813 -1835.502685546875 697.5079956054688 -1834.1845703125 698.1605834960938 C -1831.864868164063 699.3095092773438 -1831.338623046875 700.7594604492188 -1831.305786132813 701.7734985351563 C -1831.273315429688 702.7705688476563 -1831.686889648438 704.2208862304688 -1833.8408203125 705.4678955078125 C -1837.253173828125 707.4431762695313 -1840.774658203125 709.3272705078125 -1844.18017578125 711.1492919921875 C -1845.372680664063 711.7872924804688 -1846.605834960938 712.447021484375 -1847.81396484375 713.099853515625 C -1848.613159179688 713.531982421875 -1849.426147460938 713.953125 -1850.21240234375 714.3603515625 C -1850.942749023438 714.7386474609375 -1851.697998046875 715.1298217773438 -1852.427490234375 715.5225219726563 C -1854.599731445313 716.6919555664063 -1856.806518554688 717.284912109375 -1858.986694335938 717.284912109375 C -1861.260131835938 717.284912109375 -1863.5615234375 716.639892578125 -1865.826782226563 715.3677368164063 C -1869.49365234375 713.3076782226563 -1873.284057617188 711.29931640625 -1876.94970703125 709.3569946289063 C -1878.556762695313 708.5054321289063 -1880.218627929688 707.6248779296875 -1881.85107421875 706.7500610351563 C -1881.98779296875 706.6766967773438 -1882.151245117188 706.6002807617188 -1882.32421875 706.5193481445313 C -1882.873291015625 706.2625122070313 -1883.556640625 705.9429321289063 -1884.144653320313 705.3711547851563 C -1884.19140625 705.32568359375 -1884.239135742188 705.2794799804688 -1884.287719726563 705.2326049804688 C -1885.141357421875 704.4078979492188 -1886.310546875 703.2783813476563 -1886.40380859375 701.75048828125 C -1886.524291992188 699.7784423828125 -1884.275512695313 698.3306274414063 -1883.398803710938 697.939208984375 C -1881.252075195313 696.9791870117188 -1879.071166992188 696.114990234375 -1876.762329101563 695.2000732421875 C -1875.874877929688 694.8484497070313 -1874.957153320313 694.4848022460938 -1874.016479492188 694.1057739257813 C -1873.77490234375 694.0084228515625 -1873.521118164063 693.9608764648438 -1873.269287109375 693.9608764648438 C -1872.80126953125 693.9608154296875 -1872.339233398438 694.1251220703125 -1871.970825195313 694.439453125 C -1871.404296875 694.9229125976563 -1871.1533203125 695.6810913085938 -1871.319458007813 696.4071044921875 C -1871.7080078125 698.1044921875 -1871.766235351563 699.1990356445313 -1871.492553710938 699.6603393554688 C -1871.220458984375 700.118896484375 -1870.197631835938 700.59033203125 -1869.083251953125 701.0733032226563 C -1865.870971679688 702.46533203125 -1862.520263671875 703.171142578125 -1859.124145507813 703.171142578125 C -1855.796875 703.171142578125 -1852.361450195313 702.495361328125 -1848.913208007813 701.1625366210938 C -1847.090087890625 700.4580078125 -1846.691040039063 699.9790649414063 -1846.549438476563 699.6801147460938 C -1846.220581054688 698.9859619140625 -1846.482421875 697.438232421875 -1846.707885742188 696.3344116210938 C -1846.855346679688 695.6132202148438 -1846.594604492188 694.869384765625 -1846.029296875 694.3980102539063 C -1845.66357421875 694.0930786132813 -1845.208618164063 693.9340209960938 -1844.748168945313 693.9340209960938 Z" stroke="none" fill="#f06424"/>
    </g>
    <g id="Path_1328" data-name="Path 1328" transform="translate(1876.691 -660.572)" fill="none" stroke-linecap="round" stroke-linejoin="round">
      <path d="M-1860.532,677.752c6.321,3.61,12.3,3.51,18.594-.033a57.773,57.773,0,0,1,2.289,7.168,3.467,3.467,0,0,1-1.649,2.753,21.329,21.329,0,0,1-19.164.463c-2.664-1.174-2.962-2.233-2.065-4.9C-1861.924,681.417-1861.233,679.66-1860.532,677.752Z" stroke="none"/>
      <path d="M -1841.937255859375 677.718994140625 C -1845.112670898438 679.507080078125 -1848.208740234375 680.418212890625 -1851.309692382813 680.418212890625 C -1854.35302734375 680.418212890625 -1857.401000976563 679.5403442382813 -1860.53173828125 677.7522583007813 C -1861.233154296875 679.6596069335938 -1861.923583984375 681.4166259765625 -1862.525634765625 683.203125 C -1863.42333984375 685.8693237304688 -1863.12451171875 686.9282836914063 -1860.4609375 688.1024780273438 C -1857.389526367188 689.45654296875 -1854.3056640625 690.1495361328125 -1851.23681640625 690.1495361328125 C -1847.893310546875 690.1495361328125 -1844.567749023438 689.3267211914063 -1841.29736328125 687.6398315429688 C -1840.455322265625 687.2059936523438 -1839.4912109375 685.692138671875 -1839.64794921875 684.8865356445313 C -1840.1201171875 682.4653930664063 -1841.119384765625 680.1478881835938 -1841.937255859375 677.718994140625 M -1841.937133789063 675.718994140625 C -1841.694946289063 675.718994140625 -1841.451904296875 675.7630004882813 -1841.220458984375 675.8518676757813 C -1840.6640625 676.0654296875 -1840.232055664063 676.5159912109375 -1840.041870117188 677.0807495117188 C -1839.818481445313 677.7439575195313 -1839.574096679688 678.4183349609375 -1839.337646484375 679.070556640625 C -1838.706420898438 680.81201171875 -1838.0537109375 682.6127319335938 -1837.684936523438 684.5037231445313 C -1837.333862304688 686.3082885742188 -1838.84619140625 688.6267700195313 -1840.38134765625 689.417724609375 C -1843.895385742188 691.2302856445313 -1847.547973632813 692.1495361328125 -1851.23681640625 692.1495361328125 C -1854.55615234375 692.1495361328125 -1857.930908203125 691.4036254882813 -1861.267700195313 689.9324951171875 C -1862.608276367188 689.341552734375 -1864.06298828125 688.5250244140625 -1864.687866210938 686.9497680664063 C -1865.262817382813 685.5001831054688 -1864.8994140625 683.9856567382813 -1864.421020507813 682.56494140625 C -1863.996826171875 681.305908203125 -1863.541015625 680.091064453125 -1863.058349609375 678.8048706054688 C -1862.846069335938 678.2389526367188 -1862.62646484375 677.65380859375 -1862.408813476563 677.0619506835938 C -1862.205810546875 676.5097045898438 -1861.769775390625 676.074951171875 -1861.217041015625 675.8733520507813 C -1860.994995117188 675.7922973632813 -1860.762939453125 675.7522583007813 -1860.531860351563 675.7522583007813 C -1860.187744140625 675.7522583007813 -1859.845458984375 675.8410034179688 -1859.539794921875 676.0155639648438 C -1856.709106445313 677.6322631835938 -1854.01708984375 678.418212890625 -1851.309692382813 678.418212890625 C -1848.581420898438 678.418212890625 -1845.836669921875 677.6194458007813 -1842.918579101563 675.9762573242188 C -1842.615478515625 675.8056030273438 -1842.276977539063 675.718994140625 -1841.937133789063 675.718994140625 Z" stroke="none" fill="#f06424"/>
    </g>
    <g id="Path_1329" data-name="Path 1329" transform="translate(1873.32 -650.921)" fill="none" stroke-linecap="round" stroke-linejoin="round">
      <path d="M-1847.142,662.319c-.784,0-.863,0-.942,0-5.63-.1-6.462-1.246-4.732-6.512,1.472-4.483,2.995-5.562,6.67-4.519a3.281,3.281,0,0,1,1.948,1.468,33.91,33.91,0,0,1,2.3,6.417c.148.655-.818,1.985-1.58,2.328A14.811,14.811,0,0,1-1847.142,662.319Z" stroke="none"/>
      <path d="M -1847.978759765625 662.319091796875 C -1847.873779296875 662.319091796875 -1847.664306640625 662.3185424804688 -1847.141723632813 662.3185424804688 C -1846.362426757813 662.164306640625 -1844.8037109375 662.0965576171875 -1843.482543945313 661.5007934570313 C -1842.72119140625 661.1578369140625 -1841.754272460938 659.82763671875 -1841.902709960938 659.173095703125 C -1842.40185546875 656.9694213867188 -1843.26123046875 654.8253173828125 -1844.198486328125 652.7559814453125 C -1844.497924804688 652.0963134765625 -1845.4013671875 651.4993896484375 -1846.146118164063 651.2882080078125 C -1846.9912109375 651.0484008789063 -1847.721923828125 650.9207763671875 -1848.364868164063 650.9207763671875 C -1850.518310546875 650.9207763671875 -1851.68212890625 652.3541870117188 -1852.816040039063 655.8068237304688 C -1854.54541015625 661.07275390625 -1853.713623046875 662.2174682617188 -1848.083740234375 662.3185424804688 C -1848.057495117188 662.3189697265625 -1848.03125 662.319091796875 -1847.978759765625 662.319091796875 M -1847.978759765625 664.319091796875 C -1848.047607421875 664.319091796875 -1848.08203125 664.31884765625 -1848.116455078125 664.3182983398438 C -1849.80322265625 664.2879638671875 -1850.978393554688 664.1708374023438 -1851.93017578125 663.9384155273438 C -1853.269409179688 663.611328125 -1854.224975585938 663.0236206054688 -1854.8515625 662.1417236328125 C -1855.473266601563 661.2669067382813 -1855.714111328125 660.1841430664063 -1855.587890625 658.8316040039063 C -1855.498413085938 657.8712158203125 -1855.2294921875 656.745849609375 -1854.716186523438 655.1828002929688 C -1854.02734375 653.08544921875 -1853.333984375 651.7153930664063 -1852.467895507813 650.7406616210938 C -1851.394897460938 649.5330810546875 -1850.014526367188 648.9207763671875 -1848.364868164063 648.9207763671875 C -1847.555908203125 648.9207763671875 -1846.651489257813 649.0658569335938 -1845.60009765625 649.3641967773438 C -1844.424438476563 649.6975708007813 -1842.971557617188 650.6201171875 -1842.377319335938 651.9293212890625 C -1841.55322265625 653.7489624023438 -1840.533447265625 656.1650390625 -1839.9521484375 658.7312622070313 C -1839.700927734375 659.8388061523438 -1840.225708007813 660.9007568359375 -1840.710083007813 661.5965576171875 C -1840.968994140625 661.9684448242188 -1841.677368164063 662.8812255859375 -1842.6611328125 663.3243408203125 C -1843.91015625 663.8875732421875 -1845.25341796875 664.069091796875 -1846.142333984375 664.189208984375 C -1846.385131835938 664.2219848632813 -1846.614624023438 664.2529907226563 -1846.75341796875 664.280517578125 C -1846.88134765625 664.3057861328125 -1847.011352539063 664.3185424804688 -1847.141723632813 664.3185424804688 C -1847.501342773438 664.3185424804688 -1847.712036132813 664.3187866210938 -1847.842529296875 664.3189697265625 L -1847.978759765625 664.319091796875 Z" stroke="none" fill="#f06424"/>
    </g>
  </g>
</svg>
