<svg xmlns="http://www.w3.org/2000/svg" width="51.726" height="53.384" viewBox="0 0 51.726 53.384">
  <g id="Group_2086" data-name="Group 2086" transform="translate(2 2)">
    <g id="Path_1325" data-name="Path 1325" transform="translate(1997.683 -650.92)" fill="none" stroke-linecap="round" stroke-linejoin="round">
      <path d="M-1965.977,681.839c-8.5-.1-15-6.923-14.912-15.644a15.2,15.2,0,0,1,15.651-15.273,15.38,15.38,0,0,1,15.28,15.427C-1950.032,675.342-1956.861,681.946-1965.977,681.839Zm9.951-8.2a11.939,11.939,0,0,0,1.984-10.966,11.7,11.7,0,0,0-10.235-8.113c-5.447-.3-9.842,2.135-12.043,6.683-2,4.128-1.166,10.254,1.834,13.517,2.78,3.024,8.854,4.7,12.562,3.06,3.866-1.706,4.348-5.389,4.49-9.1a3.328,3.328,0,0,1,.112-.551l.428.008C-1956.637,669.78-1956.383,671.385-1956.026,673.635Z" stroke="none"/>
      <path d="M -1965.758911132813 681.8401489257813 C -1956.753173828125 681.8401489257813 -1950.031616210938 675.2698974609375 -1949.9580078125 666.3480834960938 C -1949.888427734375 657.9193725585938 -1956.719970703125 651.0217895507813 -1965.237670898438 650.92138671875 C -1965.305053710938 650.9205932617188 -1965.37158203125 650.9202270507813 -1965.438598632813 650.9202270507813 C -1974.09814453125 650.9202270507813 -1980.800170898438 657.52587890625 -1980.888305664063 666.1945190429688 C -1980.976684570313 674.916259765625 -1974.473388671875 681.739013671875 -1965.976684570313 681.8388671875 C -1965.90380859375 681.8397216796875 -1965.83154296875 681.8401489257813 -1965.758911132813 681.8401489257813 M -1965.179443359375 654.5302124023438 C -1964.881958007813 654.5302124023438 -1964.580810546875 654.5386352539063 -1964.276611328125 654.5556640625 C -1959.761840820313 654.8078002929688 -1955.404541015625 658.1375732421875 -1954.041625976563 662.6689453125 C -1952.93212890625 666.357666015625 -1953.395385742188 669.8992309570313 -1956.02587890625 673.6347045898438 C -1956.3828125 671.385009765625 -1956.637451171875 669.7802124023438 -1956.892700195313 668.1754760742188 L -1957.320922851563 668.1671752929688 C -1957.35986328125 668.3501586914063 -1957.426391601563 668.533203125 -1957.433349609375 668.7181396484375 C -1957.574829101563 672.4266357421875 -1958.057373046875 676.109619140625 -1961.923217773438 677.8154296875 C -1962.919189453125 678.2547607421875 -1964.0859375 678.4554443359375 -1965.313598632813 678.4554443359375 C -1968.656372070313 678.4554443359375 -1972.451416015625 676.9673461914063 -1974.484741210938 674.7556762695313 C -1977.484985351563 671.4931030273438 -1978.316284179688 665.3671875 -1976.319213867188 661.2388916015625 C -1974.24169921875 656.9442138671875 -1970.2080078125 654.5302124023438 -1965.179443359375 654.5302124023438 M -1965.758911132813 683.8401489257813 C -1965.83935546875 683.8401489257813 -1965.919311523438 683.8396606445313 -1966 683.8387451171875 C -1970.653076171875 683.7840576171875 -1974.950073242188 681.9341430664063 -1978.099609375 678.6298217773438 C -1981.235595703125 675.3397216796875 -1982.936279296875 670.9161987304688 -1982.88818359375 666.1742553710938 C -1982.840209960938 661.4527587890625 -1981.027221679688 657.087890625 -1977.783203125 653.8837280273438 C -1974.542724609375 650.6829223632813 -1970.15869140625 648.9202270507813 -1965.438598632813 648.9202270507813 C -1965.36376953125 648.9202270507813 -1965.289428710938 648.920654296875 -1965.214233398438 648.9215087890625 C -1962.866088867188 648.94921875 -1960.591918945313 649.4306030273438 -1958.454833984375 650.3524169921875 C -1956.39013671875 651.2431030273438 -1954.540161132813 652.50537109375 -1952.956665039063 654.1041870117188 C -1951.37158203125 655.7044677734375 -1950.131958007813 657.5625610351563 -1949.272094726563 659.6268310546875 C -1948.380859375 661.7661743164063 -1947.938842773438 664.0330810546875 -1947.958129882813 666.3646240234375 C -1947.998046875 671.2130737304688 -1949.827514648438 675.6537475585938 -1953.109375 678.8685302734375 C -1956.382202148438 682.0745239257813 -1960.874633789063 683.8401489257813 -1965.758911132813 683.8401489257813 Z M -1965.179443359375 656.5302124023438 C -1969.46142578125 656.5302124023438 -1972.778198242188 658.51171875 -1974.518798828125 662.10986328125 C -1976.149047851563 665.4798583984375 -1975.445190429688 670.7565307617188 -1973.012573242188 673.4019165039063 C -1971.385864257813 675.1713256835938 -1968.148071289063 676.4554443359375 -1965.313598632813 676.4554443359375 C -1964.320678710938 676.4554443359375 -1963.427368164063 676.29296875 -1962.730346679688 675.9855346679688 C -1960.149658203125 674.8468017578125 -1959.580078125 672.5260620117188 -1959.431884765625 668.6419067382813 C -1959.4189453125 668.2985229492188 -1959.346557617188 668.0203857421875 -1959.298706054688 667.8363037109375 C -1959.290893554688 667.8063354492188 -1959.2802734375 667.7652587890625 -1959.277099609375 667.7507934570313 C -1959.078491210938 666.8279418945313 -1958.261596679688 666.1671752929688 -1957.321166992188 666.1671752929688 C -1957.30810546875 666.1671752929688 -1957.295166015625 666.1672973632813 -1957.2822265625 666.1675415039063 L -1956.853881835938 666.1758422851563 C -1956.323486328125 666.1861572265625 -1955.8388671875 666.4037475585938 -1955.484008789063 666.7557373046875 C -1955.429931640625 665.6244506835938 -1955.589721679688 664.4656982421875 -1955.956909179688 663.2449951171875 C -1957.059692382813 659.578369140625 -1960.605590820313 656.7637939453125 -1964.38818359375 656.5525512695313 C -1964.653442382813 656.5377197265625 -1964.919677734375 656.5302124023438 -1965.179443359375 656.5302124023438 Z" stroke="none" fill="#f06424"/>
    </g>
    <g id="Path_1326" data-name="Path 1326" transform="translate(2007.137 -667.753)" fill="none" stroke-linecap="round" stroke-linejoin="round">
      <path d="M-2007.137,713.228c5.782-5.336,11.239-10.476,16.875-15.411.557-.488,2.209.275,4.058.569l-17.27,18.75Z" stroke="none"/>
      <path d="M -2003.473876953125 717.1370849609375 C -1997.904052734375 711.0892333984375 -1992.417236328125 705.13232421875 -1986.204345703125 698.386962890625 C -1987.624633789063 698.160888671875 -1988.928466796875 697.6585693359375 -1989.709228515625 697.6585693359375 C -1989.944946289063 697.6585693359375 -1990.133056640625 697.7044067382813 -1990.26220703125 697.8175048828125 C -1995.89794921875 702.752685546875 -2001.354736328125 707.891845703125 -2007.136962890625 713.228271484375 C -2005.78955078125 714.666015625 -2004.733154296875 715.7933349609375 -2003.473876953125 717.1370849609375 M -2003.473876953125 719.1370849609375 C -2004.026733398438 719.1370849609375 -2004.555053710938 718.9082641601563 -2004.933227539063 718.5046997070313 L -2006.214599609375 717.1373901367188 L -2008.596313476563 714.5958862304688 C -2008.960815429688 714.2069091796875 -2009.155029296875 713.6885375976563 -2009.135620117188 713.15576171875 C -2009.116333007813 712.623046875 -2008.885131835938 712.1200561523438 -2008.493408203125 711.758544921875 C -2007.22216796875 710.5853881835938 -2005.950317382813 709.4064331054688 -2004.72021484375 708.2662963867188 C -2000.23388671875 704.1080322265625 -1995.996337890625 700.1803588867188 -1991.579833984375 696.3128662109375 C -1991.084228515625 695.8787841796875 -1990.454833984375 695.6585693359375 -1989.709228515625 695.6585693359375 C -1989.030151367188 695.6585693359375 -1988.335815429688 695.8370971679688 -1987.53173828125 696.0438232421875 C -1986.996215820313 696.1815185546875 -1986.442504882813 696.3239135742188 -1985.890014648438 696.4118041992188 C -1985.162109375 696.5276489257813 -1984.556884765625 697.0344848632813 -1984.315063476563 697.730712890625 C -1984.0732421875 698.4269409179688 -1984.23388671875 699.1997680664063 -1984.733276367188 699.741943359375 L -1987.635620117188 702.8930053710938 C -1992.687255859375 708.3776245117188 -1997.315673828125 713.402587890625 -2002.002685546875 718.491943359375 C -2002.37939453125 718.9009399414063 -2002.9091796875 719.1346435546875 -2003.465209960938 719.1370849609375 C -2003.468017578125 719.1370849609375 -2003.471069335938 719.1370849609375 -2003.473876953125 719.1370849609375 Z" stroke="none" fill="#f06424"/>
    </g>
  </g>
</svg>
