<svg xmlns="http://www.w3.org/2000/svg" width="52.586" height="53.279" viewBox="0 0 52.586 53.279">
  <g id="Path_1334" data-name="Path 1334" transform="translate(1504.602 -648.921)" fill="none" stroke-linecap="round" stroke-linejoin="round">
    <path d="M-1468.8,700.2c-1.387-1.133-2.124-1.654-2.767-2.272-4.1-3.936-9.026-4.059-13.013-.088-1.336,1.331-2.682,1.969-4.142.841a5,5,0,0,1-1.8-3.129c-.4-4.583-3.322-8.09-7.877-8.678-1.8-.232-3.168-.483-3.96-2.44-.851-2.1.735-2.855,1.688-3.995,3.285-3.927,3.07-8.17-.34-12.1-.8-.923-1.438-2.757-1.048-3.732a4.6,4.6,0,0,1,3.31-2.13c5.286-.607,7.846-3.33,8.143-8.754a3.556,3.556,0,0,1,1.888-2.6,4.185,4.185,0,0,1,3.51.427c5.144,4.334,8.763,4.3,14.058-.112.765-.637,2.51-.559,3.6-.2a3.317,3.317,0,0,1,1.809,2.366c.532,6,3.013,8.6,9.037,9.553a3.862,3.862,0,0,1,2.536,2.215,3.853,3.853,0,0,1-.786,3.218c-4.117,4.433-4.166,8.129-.13,12.565.689.756,1.327,2.376.969,3.074a4.952,4.952,0,0,1-3.056,2.389c-5.438.973-7.938,3.741-8.683,9.369C-1466.036,697.366-1467.608,698.563-1468.8,700.2Zm-20.417-25.568c-.035,6.443,4.645,11.415,10.766,11.435a10.9,10.9,0,0,0,11.317-11.222,10.763,10.763,0,0,0-11.119-11.035A10.676,10.676,0,0,0-1489.218,674.632Z" stroke="none"/>
    <path d="M -1468.801025390625 700.2001342773438 C -1467.607788085938 698.562744140625 -1466.03564453125 697.3662109375 -1465.853271484375 695.986083984375 C -1465.109008789063 690.3580322265625 -1462.608764648438 687.5900268554688 -1457.170532226563 686.6168212890625 C -1456.006103515625 686.408203125 -1454.66162109375 685.29296875 -1454.114624023438 684.2282104492188 C -1453.756958007813 683.5308227539063 -1454.395385742188 681.9107055664063 -1455.083984375 681.1543579101563 C -1459.120239257813 676.7183837890625 -1459.070922851563 673.0225830078125 -1454.9541015625 668.5896606445313 C -1454.271484375 667.8544921875 -1453.867065429688 666.2817993164063 -1454.16845703125 665.3718872070313 C -1454.480712890625 664.4306640625 -1455.726440429688 663.3115844726563 -1456.7041015625 663.1567993164063 C -1462.728271484375 662.2034301757813 -1465.20947265625 659.6043090820313 -1465.741333007813 653.6038208007813 C -1465.818115234375 652.733642578125 -1466.749633789063 651.5057983398438 -1467.55078125 651.23828125 C -1468.061889648438 651.0680541992188 -1468.718383789063 650.96044921875 -1469.35009765625 650.96044921875 C -1470.06201171875 650.96044921875 -1470.742553710938 651.0971069335938 -1471.148071289063 651.4347534179688 C -1473.818359375 653.658203125 -1476.06201171875 654.76953125 -1478.290161132813 654.76953125 C -1480.480712890625 654.76953125 -1482.65625 653.6950073242188 -1485.2060546875 651.5466918945313 C -1485.704956054688 651.1265258789063 -1486.579711914063 650.9208374023438 -1487.411987304688 650.9208374023438 C -1487.886352539063 650.9208374023438 -1488.34716796875 650.9877319335938 -1488.71630859375 651.1199340820313 C -1489.57373046875 651.4270629882813 -1490.552734375 652.7809448242188 -1490.604614257813 653.7196655273438 C -1490.902099609375 659.1436157226563 -1493.462036132813 661.8668212890625 -1498.747924804688 662.473388671875 C -1499.970092773438 662.613525390625 -1501.651489257813 663.5880126953125 -1502.057739257813 664.6034545898438 C -1502.447509765625 665.5785522460938 -1501.810302734375 667.412353515625 -1501.009887695313 668.335693359375 C -1497.599975585938 672.2701416015625 -1497.385009765625 676.5130004882813 -1500.670043945313 680.4403686523438 C -1501.623413085938 681.5798950195313 -1503.20947265625 682.3336791992188 -1502.358520507813 684.4348754882813 C -1501.56640625 686.3921508789063 -1500.19970703125 686.64306640625 -1498.398559570313 686.8746948242188 C -1493.842895507813 687.4620971679688 -1490.924560546875 690.9690551757813 -1490.521362304688 695.55224609375 C -1490.423461914063 696.6605224609375 -1489.617919921875 697.9894409179688 -1488.723388671875 698.68115234375 C -1488.200073242188 699.0855712890625 -1487.691528320313 699.2631225585938 -1487.192626953125 699.2630615234375 C -1486.300048828125 699.2630004882813 -1485.438720703125 698.6945190429688 -1484.581665039063 697.8403930664063 C -1482.614501953125 695.8807983398438 -1480.4189453125 694.9182739257813 -1478.206298828125 694.9182739257813 C -1475.934448242188 694.9182739257813 -1473.64453125 695.9338989257813 -1471.568359375 697.9280395507813 C -1470.924682617188 698.546142578125 -1470.188354492188 699.067626953125 -1468.801025390625 700.2001342773438 M -1478.305541992188 663.8099365234375 C -1478.288940429688 663.8099365234375 -1478.271484375 663.8099975585938 -1478.254760742188 663.81005859375 C -1471.828247070313 663.8363037109375 -1467.1162109375 668.512939453125 -1467.135620117188 674.8455200195313 C -1467.155883789063 681.3504028320313 -1471.897705078125 686.0682373046875 -1478.406372070313 686.06787109375 C -1478.421508789063 686.06787109375 -1478.437377929688 686.06787109375 -1478.452514648438 686.0678100585938 C -1484.57275390625 686.0473022460938 -1489.253173828125 681.07568359375 -1489.218139648438 674.6324462890625 C -1489.18408203125 668.4629516601563 -1484.487426757813 663.8099365234375 -1478.305541992188 663.8099365234375 M -1468.801025390625 702.2001342773438 C -1469.259399414063 702.2001342773438 -1469.706787109375 702.0425415039063 -1470.065795898438 701.7494506835938 C -1470.55419921875 701.3507690429688 -1470.958374023438 701.0308837890625 -1471.31494140625 700.7486572265625 C -1471.987182617188 700.2166137695313 -1472.473022460938 699.8322143554688 -1472.95361328125 699.37060546875 C -1474.6240234375 697.7662353515625 -1476.440307617188 696.9182739257813 -1478.206298828125 696.9182739257813 C -1479.94189453125 696.9182739257813 -1481.612060546875 697.7052612304688 -1483.170166015625 699.2573852539063 C -1484.524291992188 700.6067504882813 -1485.840087890625 701.262939453125 -1487.192504882813 701.2630615234375 C -1488.161743164063 701.2631225585938 -1489.088256835938 700.9268798828125 -1489.946411132813 700.2636108398438 C -1491.315795898438 699.2047729492188 -1492.371215820313 697.33984375 -1492.513549804688 695.7282104492188 C -1492.847290039063 691.935791015625 -1495.2001953125 689.3036499023438 -1498.654296875 688.8582763671875 C -1499.698608398438 688.7239990234375 -1500.71484375 688.5638427734375 -1501.65869140625 688.0870971679688 C -1502.825317382813 687.4977416992188 -1503.66064453125 686.5485229492188 -1504.21240234375 685.1851806640625 C -1504.722534179688 683.925537109375 -1504.731689453125 682.7352294921875 -1504.239135742188 681.6478881835938 C -1503.849487304688 680.7876586914063 -1503.227294921875 680.1825561523438 -1502.727294921875 679.6962890625 C -1502.5283203125 679.5027465820313 -1502.34033203125 679.3199462890625 -1502.203979492188 679.1570434570313 C -1499.584594726563 676.0255126953125 -1499.688354492188 672.9142456054688 -1502.521240234375 669.6455688476563 C -1503.100219726563 668.9777221679688 -1503.600708007813 668.038330078125 -1503.894287109375 667.0684814453125 C -1504.150390625 666.2225341796875 -1504.36181640625 664.9794311523438 -1503.914916992188 663.8611450195313 C -1503.187377929688 662.0428466796875 -1500.784790039063 660.69384765625 -1498.975708007813 660.4863891601563 C -1496.797119140625 660.2363891601563 -1495.257202148438 659.599365234375 -1494.268310546875 658.5390014648438 C -1493.27001953125 657.4685668945313 -1492.724853515625 655.8563232421875 -1492.6015625 653.610107421875 C -1492.504760742188 651.8582153320313 -1491.00439453125 649.8151245117188 -1489.390747070313 649.237060546875 C -1488.81298828125 649.0301513671875 -1488.128784179688 648.9208374023438 -1487.411987304688 648.9208374023438 C -1486.752685546875 648.9208374023438 -1485.092407226563 649.027587890625 -1483.917724609375 650.0169067382813 C -1481.688720703125 651.8949584960938 -1479.900634765625 652.76953125 -1478.290161132813 652.76953125 C -1476.6435546875 652.76953125 -1474.78076171875 651.8569946289063 -1472.427856445313 649.8978271484375 C -1471.691284179688 649.2845458984375 -1470.627075195313 648.96044921875 -1469.35009765625 648.96044921875 C -1468.5185546875 648.96044921875 -1467.655029296875 649.0955200195313 -1466.918701171875 649.3407592773438 C -1465.88818359375 649.6848754882813 -1465.13916015625 650.5167846679688 -1464.7841796875 650.9821166992188 C -1464.438232421875 651.4357299804688 -1463.843627929688 652.356689453125 -1463.7490234375 653.4280395507813 C -1463.519287109375 656.020751953125 -1462.90966796875 657.7588500976563 -1461.830810546875 658.8970947265625 C -1460.747802734375 660.0396728515625 -1459.019409179688 660.7655029296875 -1456.391479492188 661.181396484375 C -1455.260131835938 661.3605346679688 -1454.322387695313 662.065185546875 -1453.864013671875 662.4692993164063 C -1453.420654296875 662.8601684570313 -1452.624145507813 663.6752319335938 -1452.270141601563 664.7421264648438 C -1451.745483398438 666.3261108398438 -1452.292236328125 668.6621704101563 -1453.488525390625 669.9505004882813 C -1455.2138671875 671.8084106445313 -1456.060424804688 673.4249877929688 -1456.076538085938 674.8928833007813 C -1456.092651367188 676.354736328125 -1455.2841796875 677.962646484375 -1453.604736328125 679.808349609375 C -1452.571899414063 680.9428100585938 -1451.453735351563 683.4225463867188 -1452.335083007813 685.1409301757813 C -1453.078002929688 686.5872192382813 -1454.856079101563 688.2340087890625 -1456.81787109375 688.58544921875 C -1461.3271484375 689.3924560546875 -1463.238525390625 691.46923828125 -1463.870483398438 696.248291015625 C -1464.072509765625 697.7764282226563 -1465.081176757813 698.9171752929688 -1466.056640625 700.0203247070313 C -1466.444213867188 700.4586791992188 -1466.844970703125 700.9119262695313 -1467.184692382813 701.3780517578125 C -1467.50830078125 701.8220825195313 -1468.000366210938 702.1134643554688 -1468.545288085938 702.1837158203125 C -1468.630615234375 702.1947021484375 -1468.716064453125 702.2001342773438 -1468.801025390625 702.2001342773438 Z M -1478.305541992188 665.8099365234375 C -1483.358764648438 665.8099365234375 -1487.190307617188 669.6075439453125 -1487.218139648438 674.6434936523438 C -1487.232788085938 677.333984375 -1486.278686523438 679.786376953125 -1484.53173828125 681.548828125 C -1482.92919921875 683.1654663085938 -1480.767944335938 684.06005859375 -1478.44580078125 684.0678100585938 L -1478.406372070313 684.06787109375 C -1472.964721679688 684.0681762695313 -1469.152465820313 680.2732543945313 -1469.135620117188 674.8392944335938 C -1469.11962890625 669.6290893554688 -1472.958251953125 665.8317260742188 -1478.262939453125 665.81005859375 L -1478.305541992188 665.8099365234375 Z" stroke="none" fill="#f06424"/>
  </g>
</svg>
