<?xml version="1.0" encoding="utf-8"?>
<!-- Generator: Adobe Illustrator 17.1.0, SVG Export Plug-In . SVG Version: 6.00 Build 0)  -->
<!DOCTYPE svg PUBLIC "-//W3C//DTD SVG 1.1//EN" "http://www.w3.org/Graphics/SVG/1.1/DTD/svg11.dtd">
<svg version="1.1" id="Layer_1" xmlns="http://www.w3.org/2000/svg" xmlns:xlink="http://www.w3.org/1999/xlink" x="0px" y="0px" viewBox="-10 -10 70 70"  >
<path stroke="#f5f4f0" stroke-width="1" d="M17,7.2c3.4,0,6.8,0,10.2,0c2.6,0,4.4,1.7,4.4,4.3c0,4,0,8,0,12.1c0,2.6-1.7,4.3-4.4,4.3c-6.8,0-13.6,0-20.4,0
	c-2.6,0-4.4-1.7-4.4-4.3c0-4,0-8,0-12.1c0-2.6,1.7-4.3,4.4-4.3C10.2,7.2,13.6,7.2,17,7.2z M4.2,10c0.2,0.2,0.4,0.3,0.5,0.4
	c3.4,2.6,6.9,5.2,10.3,7.8c1.4,1.1,2.5,1.1,3.9,0c3.4-2.6,6.9-5.2,10.3-7.8c0.2-0.1,0.3-0.3,0.5-0.4c-0.6-1-1.5-1.4-2.6-1.4
	c-6.6,0-13.2,0-19.8,0c-0.3,0-0.7,0-1,0C5.4,8.7,4.7,9.2,4.2,10z M4.4,25.3c0.6,0.8,1.4,1.2,2.4,1.2c6.8,0,13.6,0,20.5,0
	c0.2,0,0.4,0,0.6,0c0.7-0.1,1.4-0.5,1.8-1.1c-2.7-2.4-5.4-4.8-8.1-7.2c-0.7,0.5-1.3,1-1.9,1.4c-1.7,1.3-3.6,1.3-5.3,0
	c-0.6-0.5-1.3-0.9-1.9-1.4C9.7,20.5,7.1,22.9,4.4,25.3z M3.9,11.7c0,4.1,0,8.1,0,12.1c2.5-2.2,4.9-4.4,7.4-6.6
	C8.8,15.3,6.4,13.5,3.9,11.7z M30.1,11.6c-2.5,1.9-4.9,3.7-7.4,5.6c2.5,2.2,4.9,4.3,7.4,6.6C30.1,19.7,30.1,15.7,30.1,11.6z" transform="translate(7 5)" fill="#f5f4f0"/>
</svg>
