<svg id="XMLID_386_" xmlns="http://www.w3.org/2000/svg" width="61.992" height="59.507" viewBox="0 0 61.992 59.507">
  <path id="XMLID_389_" d="M61.873,42.879a24.438,24.438,0,0,0-19-21.429V18.374a4.117,4.117,0,0,0-.994-8.112H33.158a4.117,4.117,0,0,0-.994,8.112v3.085A24.312,24.312,0,0,0,20.24,28.017a24.576,24.576,0,0,0-2.056,2.333c-.03,0-.061,0-.092,0H9.465a1.211,1.211,0,1,0,0,2.422h7.073a24.273,24.273,0,0,0-2.148,4.654H1.211a1.211,1.211,0,0,0,0,2.422H13.7a24.618,24.618,0,0,0-.6,4.654H7.749a1.211,1.211,0,0,0,0,2.422h5.393a24.582,24.582,0,0,0,.756,4.654H6.054a1.211,1.211,0,1,0,0,2.422h8.617A24.455,24.455,0,0,0,35.117,69.651q1.2.118,2.4.118a24.517,24.517,0,0,0,13.348-3.945A1.211,1.211,0,0,0,49.543,63.8a22.036,22.036,0,1,1,6.49-6.5,1.211,1.211,0,1,0,2.031,1.319A24.536,24.536,0,0,0,61.873,42.879Zm-30.41-28.5a1.7,1.7,0,0,1,1.7-1.7h8.718a1.7,1.7,0,0,1,0,3.39H33.158A1.7,1.7,0,0,1,31.463,14.379Zm3.123,6.663V18.5h5.862v2.542A24.671,24.671,0,0,0,34.586,21.042Z" transform="translate(0 -10.262)" fill="#f06424"/>
  <path id="XMLID_391_" d="M436.981,425.5a1.211,1.211,0,1,0,.856.355A1.217,1.217,0,0,0,436.981,425.5Z" transform="translate(-383.007 -375.223)" fill="#f06424"/>
  <path id="XMLID_394_" d="M173.655,144.609a18.783,18.783,0,1,0,18.783,18.783A18.8,18.8,0,0,0,173.655,144.609Zm0,35.145a16.361,16.361,0,1,1,16.361-16.361A16.38,16.38,0,0,1,173.655,179.754Z" transform="translate(-136.12 -128.342)" fill="#f06424"/>
  <path id="XMLID_397_" d="M271.108,219.766l-6,6a3.753,3.753,0,0,0-3.324,0l-2.684-2.684a1.211,1.211,0,0,0-1.712,1.712l2.684,2.684a3.762,3.762,0,1,0,6.749,0l5.821-5.821h0l.176-.176a1.211,1.211,0,0,0-1.712-1.712Zm-7.659,10.712a1.341,1.341,0,1,1,1.341-1.341A1.342,1.342,0,0,1,263.449,230.478Z" transform="translate(-225.914 -194.087)" fill="#f06424"/>
  <path id="XMLID_398_" d="M399.988,289.86h-1.122a1.211,1.211,0,1,0,0,2.422h1.122a1.211,1.211,0,1,0,0-2.422Z" transform="translate(-349.507 -256.006)" fill="#f06424"/>
  <path id="XMLID_399_" d="M195.414,289.616h-1.122a1.211,1.211,0,1,0,0,2.422h1.122a1.211,1.211,0,1,0,0-2.422Z" transform="translate(-169.704 -255.792)" fill="#f06424"/>
  <path id="XMLID_400_" d="M301.334,186.362a1.211,1.211,0,0,0,1.211-1.211V184.03a1.211,1.211,0,1,0-2.422,0v1.122A1.211,1.211,0,0,0,301.334,186.362Z" transform="translate(-263.784 -161.926)" fill="#f06424"/>
  <path id="XMLID_424_" d="M301.09,387.393a1.211,1.211,0,0,0-1.211,1.211v1.122a1.211,1.211,0,1,0,2.422,0V388.6A1.211,1.211,0,0,0,301.09,387.393Z" transform="translate(-263.569 -341.73)" fill="#f06424"/>
  <path id="XMLID_425_" d="M1.211,351.44a1.211,1.211,0,1,0,.856,2.067,1.211,1.211,0,0,0-.856-2.067Z" transform="translate(0 -310.13)" fill="#f06424"/>
</svg>
