<svg id="Group_2004" data-name="Group 2004" xmlns="http://www.w3.org/2000/svg" width="46" height="62.262" viewBox="0 0 46 62.262">
  <g id="Group_2003" data-name="Group 2003" transform="translate(0)">
    <path id="Path_1281" data-name="Path 1281" d="M71.08,0a23.026,23.026,0,0,0-23,23,26.536,26.536,0,0,0,1.951,8.855,37.091,37.091,0,0,0,2.659,4.972l15.77,23.894a3,3,0,0,0,5.241,0l15.771-23.9a36.937,36.937,0,0,0,2.659-4.972A26.53,26.53,0,0,0,94.08,23,23.026,23.026,0,0,0,71.08,0ZM89.636,30.805a33.986,33.986,0,0,1-2.423,4.532l-15.771,23.9c-.311.472-.41.472-.721,0l-15.771-23.9A34,34,0,0,1,52.526,30.8a24.088,24.088,0,0,1-1.74-7.8,20.294,20.294,0,1,1,40.588,0A24.107,24.107,0,0,1,89.636,30.805Z" transform="translate(-48.08)" fill="#f06424"/>
    <path id="Path_1282" data-name="Path 1282" d="M124.256,64.008a12.176,12.176,0,1,0,12.176,12.176A12.19,12.19,0,0,0,124.256,64.008Zm0,21.647a9.471,9.471,0,1,1,9.471-9.471A9.482,9.482,0,0,1,124.256,85.655Z" transform="translate(-101.256 -53.183)" fill="#f06424"/>
  </g>
</svg>
