<svg id="Слой_1" data-name="Слой 1" xmlns="http://www.w3.org/2000/svg" viewBox="0 0 1248 1225.41"><defs><style>.cls-1{fill:#dcddde;}.cls-2{fill:none;stroke:#000;stroke-miterlimit:10;stroke-width:4px;}</style></defs><circle class="cls-1" cx="620.79" cy="622.85" r="495.65"/><path d="M943.11,784.62c-.13-.93-.27-1.86-.42-2.78-.3-2-.62-4-.83-6q-1.53-13.77-3-27.53c-1.3-12-2.65-24.37-4-36.55-4.93-44.12-26.54-79.71-66.05-108.8-29.08-21.41-61.94-39.34-100.44-54.81-17.87-7.18-28.26-3.2-37.06,14.2-9.22,18.23-20.1,33.33-33.27,46.18-30.58,29.84-72.31,38-111.61,21.72-18.44-7.62-33.27-20.84-47.6-33.64-32.32-28.85-74.71-45-119.37-45.61S332,565.6,299,593.63c-36.13,30.67-59.23,72.8-65.06,118.62s6,92.39,33.36,131.06a181.32,181.32,0,0,0,69,58.5c8,3.94,17.07,3.87,24.18-.2A22.94,22.94,0,0,0,371.89,883c.81-10.76-4.38-19.14-15-24.23a132.82,132.82,0,0,1-44.48-35.15c-39.13-46.84-43.06-110.71-10-162.73,23.25-36.6,63.65-59.78,108.07-62,45-2.24,86.44,16.29,113.59,50.87,26.45,33.68,36.2,76.31,26.75,117C541.4,807.22,514,841,475.6,859.5c-7.39,3.55-15.25,6-23.56,8.62-3.4,1.07-6.91,2.16-10.42,3.36v-2.25c-.73.38-1.48.73-2.23,1v4.32l1.48-.52c4-1.38,8-2.63,11.83-3.84,8.4-2.63,16.32-5.11,23.86-8.74,39-18.76,66.86-53.11,76.42-94.26s-.3-84.61-27.17-118.83a133.31,133.31,0,0,0-52.55-40.48,142.28,142.28,0,0,0-124.43,6.23,133.5,133.5,0,0,0-48.31,45.56c-16.39,25.81-24.11,55-22.31,84.56a138.56,138.56,0,0,0,32.49,80.8,135,135,0,0,0,45.23,35.72c9.86,4.73,14.49,12.15,13.74,22.06a20.7,20.7,0,0,1-10.3,16.82c-6.56,3.76-14.61,3.8-22.09.13A179.16,179.16,0,0,1,269.09,842c-55.44-78.42-42-184.48,31.32-246.71,67.12-57,171.19-55.67,236.91,3,14.47,12.92,29.44,26.27,48.23,34,40.16,16.58,82.78,8.29,114-22.19,13.35-13,24.37-28.31,33.7-46.76,8.36-16.51,17.32-19.95,34.25-13.15,38.33,15.41,71,33.25,100,54.54,39,28.7,60.3,63.78,65.16,107.26,1.36,12.17,2.71,24.56,4,36.54q1.5,13.77,3,27.53c.23,2,.55,4.08.85,6.06.14.89.28,1.79.41,2.68V906.59c-5.28,8.06-12.94,11.83-24.06,11.83h-.08c-74.71-.13-150.68-.14-224.14-.14-40.7,0-129.58,0-170.28,0a53.25,53.25,0,0,1-7.37-.44,10.68,10.68,0,0,1,.06,2.26,57.26,57.26,0,0,0,7.31.41c40.7,0,129.58,0,170.28,0,73.46,0,149.42,0,224.13.14h.09c12.08,0,20.38-4.17,26.11-13.12l.18-.28V784.78Z"/><path d="M658.62,517.75a24.83,24.83,0,0,0-13.16,14.16c-.24.7-.44,1.41-.61,2.13a10.45,10.45,0,0,1,2.12.67c.16-.7.36-1.39.59-2.08a22.63,22.63,0,0,1,12-12.87c27.49-13.1,47.67-29.46,61.69-50,32.07-47,38.09-95.88,17.92-145.22-16.19-39.59-47.69-63-93.63-69.59-29.59-4.24-55.59-1.24-79.5,9.18-31.4,13.69-52.83,38.84-63.7,74.76-13.85,45.76-5.42,91.33,25.79,139.3,16.1,24.76,37.81,46.91,64.5,65.85C603.56,551.76,615,559.15,626,566.3c5.75,3.73,11.7,7.59,17.51,11.44s9.67,9.55,10.63,15.87c.72-.18,1.44-.38,2.15-.58-1.11-6.85-5.19-12.91-11.55-17.14-5.82-3.86-11.77-7.72-17.53-11.45-11-7.14-22.42-14.52-33.29-22.24C567.47,523.43,546,501.48,530,477c-30.82-47.39-39.17-92.35-25.52-137.45,10.67-35.26,31.69-59.94,62.46-73.36,23.52-10.25,49.13-13.2,78.3-9,45.1,6.47,76,29.43,91.88,68.23,19.88,48.6,13.92,96.76-17.7,143.13C705.64,488.71,685.75,504.83,658.62,517.75Z"/><line class="cls-2" x1="335.9" y1="732.71" x2="484.42" y2="732.71"/><line class="cls-2" x1="410.16" y1="806.97" x2="410.16" y2="658.45"/></svg>