<svg xmlns="http://www.w3.org/2000/svg" width="36.731" height="33.537" viewBox="0 0 36.731 33.537">
  <path id="ic_add_a_photo_24px" d="M4.791,5.791V1H7.985V5.791h4.791V8.985H7.985v4.791H4.791V8.985H0V5.791Zm4.791,9.582V10.582h4.791V5.791H25.552l2.922,3.194h5.062a3.2,3.2,0,0,1,3.194,3.194V31.343a3.2,3.2,0,0,1-3.194,3.194H7.985a3.2,3.2,0,0,1-3.194-3.194V15.373ZM20.761,29.746a7.985,7.985,0,1,0-7.985-7.985A7.988,7.988,0,0,0,20.761,29.746Zm-5.11-7.985a5.11,5.11,0,1,0,5.11-5.11,5.1,5.1,0,0,0-5.11,5.11Z" transform="translate(0 -1)" fill="#a6a6a6"/>
</svg>
