<svg version="1.2" baseProfile="tiny-ps" xmlns="http://www.w3.org/2000/svg" viewBox="0 0 32 27" width="32" height="27">
	<title>Car Services</title>
	<style>
		tspan { white-space:pre }
		.shp0 { fill: #f06424 } 
	</style>
	<g id="Car Services">
		<g id="Group 2437">
			<path id="Path 1456" fill-rule="evenodd" class="shp0" d="M1.53 23.07L1.53 9.03L30.15 9.03L30.15 23.07L1.53 23.07ZM23.84 19.22C25.62 19.21 27.01 17.79 27 16C26.99 14.27 25.54 12.86 23.79 12.88C22.05 12.9 20.67 14.33 20.68 16.1C20.68 17.81 22.12 19.23 23.84 19.22ZM7.89 19.22C9.6 19.22 11.02 17.79 11.02 16.07C11.02 14.3 9.61 12.88 7.87 12.88C6.12 12.88 4.69 14.3 4.69 16.03C4.69 17.82 6.1 19.21 7.89 19.22ZM14.01 20.48L14.05 20.5C15.5 18.86 16.96 17.23 18.47 15.54L16.02 15.54L18.2 11.54C18.12 11.52 18.07 11.5 18.01 11.5C17.25 11.51 16.48 11.51 15.72 11.53C15.64 11.53 15.54 11.63 15.5 11.71C14.78 13.24 14.07 14.77 13.35 16.3C13.32 16.37 13.3 16.45 13.25 16.56L15.44 16.56L14.01 20.48Z" />
			<path id="Path 1457" fill-rule="evenodd" class="shp0" d="M0 8.52L0 5.64L1.51 5.64L1.51 4.37L2.71 4.37L2.71 2.27L5.59 2.27L5.59 4.36L6.8 4.36L6.8 5.62L9.18 5.62C9.18 5.51 9.18 5.42 9.18 5.34C9.18 4.21 9.18 3.08 9.18 1.96C9.17 1.11 9.66 0.62 10.5 0.62C14.07 0.62 17.64 0.62 21.21 0.62C22.01 0.62 22.51 1.14 22.51 1.94C22.5 3.09 22.51 4.24 22.51 5.39C22.51 5.46 22.52 5.54 22.52 5.62L24.89 5.62L24.89 4.38L26.09 4.38L26.09 2.27L28.97 2.27L28.97 4.36L30.17 4.36L30.17 5.63L31.69 5.63L31.69 8.52L0 8.52ZM10.5 5.62L21.19 5.62C21.19 5.52 21.19 5.43 21.19 5.34C21.19 4.57 21.16 3.79 21.19 3.02C21.22 2.34 20.74 1.92 20.1 1.92C17.25 1.93 14.41 1.92 11.56 1.92C10.87 1.92 10.48 2.31 10.48 3.01C10.48 3.8 10.49 4.59 10.49 5.38C10.49 5.46 10.5 5.54 10.5 5.62Z" />
			<path id="Path 1458" class="shp0" d="M0 26.49L0 23.63L31.69 23.63L31.69 26.49L0 26.49Z" />
			<path id="Path 1459" class="shp0" d="M23.82 16.43C23.2 16.43 22.59 16.43 21.97 16.43C21.67 16.43 21.51 16.29 21.51 16.04C21.52 15.8 21.67 15.68 21.97 15.68C23.21 15.67 24.45 15.67 25.69 15.67C26.01 15.67 26.16 15.8 26.16 16.05C26.16 16.3 26 16.43 25.69 16.43C25.07 16.43 24.44 16.43 23.82 16.43Z" />
			<path id="Path 1460" class="shp0" d="M7.47 15.67C7.47 15.33 7.47 15.02 7.47 14.71C7.47 14.53 7.46 14.35 7.47 14.17C7.48 13.89 7.63 13.72 7.86 13.72C8.08 13.72 8.23 13.89 8.24 14.17C8.24 14.57 8.24 14.97 8.24 15.38C8.24 15.47 8.24 15.55 8.24 15.68C8.76 15.68 9.26 15.68 9.76 15.67C9.98 15.67 10.13 15.76 10.17 15.98C10.22 16.23 10.06 16.42 9.78 16.42C9.28 16.43 8.78 16.43 8.24 16.43C8.24 16.59 8.24 16.74 8.24 16.9C8.24 17.24 8.24 17.59 8.24 17.93C8.24 18.21 8.09 18.38 7.85 18.38C7.63 18.38 7.47 18.21 7.47 17.93C7.46 17.52 7.47 17.11 7.47 16.7C7.47 16.62 7.47 16.54 7.47 16.43C6.95 16.43 6.45 16.42 5.95 16.43C5.73 16.43 5.58 16.34 5.54 16.12C5.48 15.87 5.65 15.68 5.93 15.68C6.31 15.67 6.7 15.67 7.09 15.67C7.2 15.67 7.31 15.67 7.47 15.67Z" />
		</g>
	</g>
</svg>