<svg version="1.2" baseProfile="tiny-ps" xmlns="http://www.w3.org/2000/svg" viewBox="0 0 35 35" width="35" height="35">
	<title>Car Services</title>
	<style>
		tspan { white-space:pre }
		.shp0 { fill: #f06424 } 
	</style>
	<g id="Car Services">
		<g id="Group 2439">
			<g id="Group 2393">
				<path id="Path 1468" fill-rule="evenodd" class="shp0" d="M30.65 11.6C30.75 10.41 31.56 10.44 32.31 10.61C33.02 10.76 34.03 10.96 33.91 11.87C33.72 13.37 32.25 13.05 31 13.42C33.71 16.17 34.75 19.34 33.65 23.05C30.81 21.25 27.49 21.6 24.95 24.21C23.67 25.53 22.27 25.21 20.91 24.93C19.87 24.72 18.97 24.55 17.94 24.95C17.34 25.18 16.6 25.1 15.92 25.11C14.63 25.13 13.34 25.11 12.06 25.11C11.86 26.87 11.15 27.58 9.71 27.59C8.16 27.59 7.45 26.9 7.25 25.15C6.58 25.11 6.24 24.8 6.16 24.03C6.03 22.79 5.61 21.56 5.53 20.32C5.4 18.3 6.11 16.49 7.34 14.9C7.71 14.43 8.08 13.95 8.49 13.4C7.76 13.24 7.1 13.18 6.54 12.92C6.16 12.75 5.7 12.28 5.69 11.94C5.68 11.58 6.11 11.09 6.47 10.88C7.61 10.22 8.53 10.49 9.1 11.67C9.33 11.36 9.55 11.13 9.68 10.86C9.88 10.46 10.03 10.04 10.15 9.62C10.96 6.82 12.82 5.44 15.72 5.48C18.83 5.52 21.94 5.53 25.05 5.64C26.87 5.7 28.21 6.59 28.88 8.36C29.18 9.15 29.52 9.94 29.86 10.72C30 11.03 30.2 11.32 30.37 11.61L30.65 11.6ZM10.02 12.75L29.65 12.75C28.89 11.04 28.25 9.44 27.45 7.92C27.24 7.5 26.54 7.11 26.05 7.1C21.93 7.03 17.81 7.06 13.68 7.05C12.83 7.05 12.24 7.46 11.91 8.21C11.28 9.67 10.69 11.15 10.02 12.75ZM10.13 20.99C10.3 20.99 10.49 21.05 10.64 20.98C11.17 20.76 11.92 20.64 12.15 20.23C12.52 19.55 12.03 18.92 11.35 18.59C10.34 18.1 9.33 17.58 8.27 17.24C7.12 16.87 6.5 17.55 6.75 18.74C7.1 20.34 8.03 20.96 10.13 20.99ZM29.25 21.03C29.68 20.99 30.09 20.95 30.49 20.89C31.9 20.71 32.7 19.92 32.87 18.53C32.97 17.68 32.5 16.94 31.81 17.18C30.38 17.67 28.96 18.27 27.69 19.08C26.9 19.58 27.29 20.63 28.26 20.88C28.59 20.97 28.93 20.99 29.25 21.03ZM14.56 19.01C14.39 19.83 14.67 20.08 15.28 20.07C16.41 20.06 17.53 20.06 18.66 20.06C20.54 20.06 22.41 20.08 24.29 20.04C24.56 20.03 24.83 19.69 25.1 19.5C24.83 19.33 24.57 19.04 24.29 19.03C23.17 18.98 22.04 19.01 20.92 19.01C18.81 19.01 16.7 19.01 14.56 19.01ZM24.65 21.1L14.91 21.1C14.77 21.79 14.99 22.06 15.63 22.06C18.39 22.04 21.16 22.05 23.92 22.06C24.6 22.06 24.85 21.77 24.65 21.1Z" />
				<path id="Path 1469" fill-rule="evenodd" class="shp0" d="M21.57 0.33C19.5 0.51 17.41 0.55 15.37 0.88C11.36 1.54 8.16 3.68 5.6 6.78C2.94 10.02 1.59 13.79 1.77 17.96C2.03 23.73 4.4 28.47 9.63 31.24C13.86 33.49 17.05 33.34 20.89 29.66C22.52 28.1 23.98 26.37 25.58 24.79C27.14 23.25 29.05 22.53 31.26 22.84C32.54 23.02 33.39 23.89 33.5 25.02C33.62 26.13 33.02 27.12 31.82 27.54C30.92 27.85 29.97 28.13 29.04 28.16C26.54 28.23 24.42 29.17 22.4 30.55C20.56 31.8 18.69 32.97 16.42 33.36C14.22 33.73 12.09 33.4 10.12 32.52C-0.69 27.68 -2.84 14.62 3.67 6.41C6.63 2.68 10.64 0.61 15.36 0.13C17.4 -0.07 19.49 0.1 21.55 0.1L21.57 0.33ZM32.69 24.93C32.51 23.58 31.2 22.88 30.1 23.51C30.95 23.97 31.85 24.47 32.69 24.93Z" />
				<path id="Path 1470" fill-rule="evenodd" class="shp0" d="M13.87 34.31C17.89 34.56 21.15 32.73 24.42 30.75C25.52 30.08 26.97 29.81 28.29 29.72C28.99 29.68 29.92 30.26 30.42 30.83C30.79 31.26 30.88 32.25 30.64 32.78C30.39 33.3 29.61 33.64 28.99 33.89C28.62 34.04 28.1 33.93 27.68 33.82C25.36 33.22 23.11 33.48 20.83 34.11C18.56 34.73 16.23 35.04 13.87 34.31ZM27.83 30.63C29.04 30.8 29.87 31.28 29.79 32.8C30.39 32.04 30.26 31.41 29.86 30.89C29.33 30.22 28.59 30.25 27.83 30.63Z" />
				<path id="Path 1471" class="shp0" d="M20.98 26.36C21.48 27.28 21.14 28.15 20.58 28.83C18.99 30.8 16.95 31.94 14.29 31.83C16.6 31.08 16.94 29.04 17.47 27.13C17.62 27.36 17.77 27.58 17.93 27.8C17.96 27.86 17.98 27.92 18.02 27.98C18.02 27.99 18.1 27.98 18.11 27.96C18.45 26.93 19.12 26.39 20.25 26.5C20.28 26.5 20.34 26.3 20.38 26.2L20.74 25.97C20.79 26.01 20.82 26.06 20.83 26.13C20.88 26.2 20.93 26.28 20.98 26.36Z" />
				<path id="Path 1472" class="shp0" d="M17.93 27.8C17.77 27.58 17.62 27.36 17.47 27.13C18.04 25.42 19.16 25.02 20.74 25.97C20.62 26.04 20.5 26.12 20.38 26.2C18.78 25.63 17.96 26.16 17.93 27.8Z" />
				<path id="Path 1473" class="shp0" d="M20.98 26.36C20.93 26.28 20.88 26.2 20.83 26.13C20.88 26.2 20.93 26.28 20.98 26.36Z" />
				<path id="Path 1474" class="shp0" d="M32.69 24.93C31.85 24.47 30.95 23.97 30.1 23.51C31.2 22.88 32.51 23.58 32.69 24.93Z" />
				<path id="Path 1475" class="shp0" d="M27.83 30.63C28.59 30.25 29.33 30.22 29.86 30.89C30.26 31.41 30.39 32.04 29.79 32.8C29.87 31.28 29.04 30.8 27.83 30.63Z" />
				<path id="Path 1476" class="shp0" d="M17.93 27.8C17.96 26.16 18.78 25.63 20.38 26.2C20.34 26.3 20.28 26.5 20.25 26.5C19.12 26.39 18.45 26.93 18.11 27.96C18.1 27.98 18.02 27.99 18.02 27.98C17.98 27.92 17.96 27.86 17.93 27.8Z" />
			</g>
		</g>
	</g>
</svg>