<svg version="1.2" baseProfile="tiny-ps" xmlns="http://www.w3.org/2000/svg" viewBox="0 0 21 38" width="21" height="38">
	<title>Car Services</title>
	<style>
		tspan { white-space:pre }
		.shp0 { fill: #f06424 } 
	</style>
	<g id="Car Services">
		<g id="Group 2438">
			<path id="Path 1466" fill-rule="evenodd" class="shp0" d="M20.71 25.32C20.71 28.3 20.65 31.27 20.73 34.25C20.79 36.78 19.85 38.07 17.13 38C12.93 37.89 8.72 37.88 4.52 37.99C1.89 38.05 0.71 36.88 0.71 34.35C0.72 28.3 0.7 22.24 0.78 16.19C0.79 15.21 1.29 14.25 1.55 13.27C2.04 11.43 2.9 9.59 2.91 7.75C2.93 5 4.03 4.23 6.62 4.22C16.06 4.16 20.61 8.5 20.72 17.93C20.74 20.4 20.72 22.86 20.72 25.32L20.71 25.32ZM4.47 26.99C4.65 36.04 2.72 34.79 13.61 34.86C14.02 34.87 14.57 34.96 14.81 34.74C15.5 34.13 16.48 33.45 16.62 32.66C18.3 23.61 16.79 21.07 8.17 18.04C5.61 17.14 4.59 17.82 4.48 20.61C4.41 22.45 4.47 24.29 4.47 26.99Z" />
			<path id="Path 1467" class="shp0" d="M4.1 2.65C3.2 0.12 5.03 0.14 6.31 0.27C7.93 0.43 9.5 1.06 11.08 1.5C10.24 3.92 8.21 2.43 6.75 2.76C5.9 2.94 4.97 2.7 4.1 2.65Z" />
		</g>
	</g>
</svg>