<svg version="1.2" baseProfile="tiny-ps" xmlns="http://www.w3.org/2000/svg" viewBox="0 0 77 31" width="77" height="31">
	<title>Home page – Final</title>
	<style>
		tspan { white-space:pre }
		.shp0 { fill: #ffffff } 
	</style>
	<g id="Home page – Final">
		<g id="Group 1141" style="opacity: 0.42">
			<g id="car (1)">
				<g id="Group 1074">
					<g id="Group 1073">
						<path id="Path 833" class="shp0" d="M0.35 16.7L2.74 13.11C2.83 12.98 2.97 12.88 3.13 12.85L20.76 9.39C22.04 8.47 32.97 0.87 43.95 0.87C54.34 0.87 60.7 2.82 61.91 3.23L65.31 2.1C65.63 1.99 65.96 2.16 66.07 2.48C66.17 2.79 66 3.13 65.69 3.23L62.1 4.43C61.97 4.47 61.83 4.47 61.7 4.43C61.64 4.4 55.07 2.07 43.95 2.07C32.91 2.07 21.47 10.35 21.35 10.43C21.28 10.48 21.2 10.52 21.12 10.54L3.6 13.98L1.45 17.21L1.45 23.62C1.45 23.62 1.46 24.08 2.16 24.23C3.08 24.41 7.21 24.69 9.27 24.81C9.6 24.83 9.85 25.12 9.83 25.45C9.81 25.77 9.54 26.01 9.23 26.01C9.22 26.01 9.21 26.01 9.19 26.01C8.95 25.99 3.15 25.65 1.93 25.4C0.6 25.13 0.25 24.12 0.25 23.62L0.25 17.03C0.25 16.91 0.28 16.8 0.35 16.7Z" />
					</g>
				</g>
				<g id="Group 1076">
					<g id="Group 1075">
						<path id="Path 834" class="shp0" d="M64.94 4.84C65.07 4.53 65.42 4.38 65.72 4.5C71.75 6.92 75.35 10.47 75.5 10.62C75.61 10.73 75.67 10.89 75.67 11.05L75.67 14.5L76.81 16.76C76.85 16.85 76.87 16.94 76.87 17.03L76.87 23.02C76.87 23.18 76.8 24.02 75.34 24.75C74.09 25.37 69.67 25.94 69.16 26.01C69.14 26.01 69.11 26.01 69.09 26.01C68.79 26.01 68.53 25.79 68.5 25.49C68.46 25.16 68.69 24.86 69.02 24.82C70.32 24.65 73.9 24.13 74.81 23.68C75.56 23.3 75.67 22.98 75.67 23.01L75.67 17.17L74.54 14.91C74.5 14.82 74.48 14.73 74.48 14.64L74.48 11.3C73.7 10.58 70.35 7.65 65.28 5.62C64.97 5.49 64.82 5.14 64.94 4.84Z" />
					</g>
				</g>
				<g id="Group 1078">
					<g id="Group 1077">
						<path id="Path 835" class="shp0" d="M23.6 24.81L54.72 24.81C55.05 24.81 55.32 25.08 55.32 25.41C55.32 25.74 55.05 26.01 54.72 26.01L23.6 26.01C23.26 26.01 23 25.74 23 25.41C23 25.08 23.26 24.81 23.6 24.81Z" />
					</g>
				</g>
				<g id="Group 1080">
					<g id="Group 1079">
						<path id="Path 836" class="shp0" d="M37.96 12.84L40.36 12.84C40.69 12.84 40.96 13.11 40.96 13.44C40.96 13.77 40.69 14.04 40.36 14.04L37.96 14.04C37.63 14.04 37.36 13.77 37.36 13.44C37.36 13.11 37.63 12.84 37.96 12.84Z" />
					</g>
				</g>
				<g id="Group 1082">
					<g id="Group 1081">
						<path id="Path 837" class="shp0" d="M51.13 12.84L53.53 12.84C53.86 12.84 54.12 13.11 54.12 13.44C54.12 13.77 53.86 14.04 53.53 14.04L51.13 14.04C50.8 14.04 50.53 13.77 50.53 13.44C50.53 13.11 50.8 12.84 51.13 12.84Z" />
					</g>
				</g>
				<g id="Group 1084">
					<g id="Group 1083">
						<path id="Path 838" class="shp0" d="M23.6 9.25L52.33 9.25C57.85 9.25 60.08 4.97 60.17 4.79C60.32 4.5 60.68 4.38 60.98 4.53C61.27 4.67 61.39 5.03 61.25 5.33C61.14 5.54 58.61 10.45 52.33 10.45L23.6 10.45C23.26 10.45 23 10.18 23 9.85C23 9.52 23.26 9.25 23.6 9.25Z" />
					</g>
				</g>
				<g id="Group 1086">
					<g id="Group 1085">
						<path id="Path 839" class="shp0" d="M65.5 2.07C65.83 2.07 66.1 2.33 66.1 2.67L66.1 3.86C66.1 4.19 65.83 4.46 65.5 4.46C65.17 4.46 64.9 4.19 64.9 3.86L64.9 2.67C64.9 2.33 65.17 2.07 65.5 2.07Z" />
					</g>
				</g>
				<g id="Group 1088">
					<g id="Group 1087">
						<path id="Path 840" class="shp0" d="M72.68 18.83L76.27 18.83C76.6 18.83 76.87 19.1 76.87 19.43C76.87 19.76 76.6 20.02 76.27 20.02L72.68 20.02C72.35 20.02 72.08 19.76 72.08 19.43C72.08 19.1 72.35 18.83 72.68 18.83Z" />
					</g>
				</g>
				<g id="Group 1090">
					<g id="Group 1089">
						<path id="Path 841" class="shp0" d="M68.53 12.02C68.66 11.71 69.01 11.56 69.31 11.69L75.3 14.08C75.61 14.2 75.75 14.55 75.63 14.86C75.54 15.09 75.31 15.24 75.08 15.24C75 15.24 74.93 15.22 74.85 15.19L68.87 12.8C68.56 12.68 68.41 12.33 68.53 12.02Z" />
					</g>
				</g>
				<g id="Group 1092">
					<g id="Group 1091">
						<path id="Path 842" class="shp0" d="M68.97 11.66L74.96 10.46C75.29 10.39 75.6 10.6 75.66 10.93C75.73 11.25 75.52 11.57 75.19 11.63L69.21 12.83C69.17 12.84 69.13 12.84 69.09 12.84C68.81 12.84 68.56 12.65 68.5 12.36C68.44 12.04 68.65 11.72 68.97 11.66Z" />
					</g>
				</g>
				<g id="Group 1094">
					<g id="Group 1093">
						<path id="Path 843" class="shp0" d="M43.36 8.53L44.56 2.55C44.62 2.22 44.93 2.01 45.26 2.08C45.59 2.14 45.8 2.46 45.73 2.78L44.54 8.77C44.48 9.05 44.23 9.25 43.95 9.25C43.91 9.25 43.87 9.25 43.83 9.24C43.51 9.17 43.3 8.86 43.36 8.53Z" />
					</g>
				</g>
				<g id="Group 1096">
					<g id="Group 1095">
						<path id="Path 844" class="shp0" d="M0.75 16.44L7.93 15.24C8.26 15.19 8.57 15.41 8.62 15.74C8.68 16.06 8.46 16.37 8.13 16.42L0.95 17.62C0.91 17.63 0.88 17.63 0.85 17.63C0.56 17.63 0.31 17.42 0.26 17.13C0.2 16.8 0.42 16.5 0.75 16.44Z" />
					</g>
				</g>
				<g id="Group 1098">
					<g id="Group 1097">
						<path id="Path 845" class="shp0" d="M7.76 15.3L10.16 14.1C10.45 13.96 10.81 14.07 10.96 14.37C11.11 14.67 10.99 15.02 10.69 15.17L8.3 16.37C8.21 16.41 8.12 16.43 8.03 16.43C7.81 16.43 7.6 16.31 7.5 16.1C7.35 15.81 7.47 15.45 7.76 15.3Z" />
					</g>
				</g>
				<g id="Group 1100">
					<g id="Group 1099">
						<path id="Path 846" class="shp0" d="M4.84 14.04L10.43 14.04C10.76 14.04 11.03 14.31 11.03 14.64C11.03 14.97 10.76 15.24 10.43 15.24L4.84 15.24C4.51 15.24 4.24 14.97 4.24 14.64C4.24 14.31 4.51 14.04 4.84 14.04Z" />
					</g>
				</g>
				<g id="Group 1102">
					<g id="Group 1101">
						<path id="Path 847" class="shp0" d="M16.38 23.62L16.39 23.62C16.72 23.62 16.98 23.88 16.98 24.22C16.98 24.55 16.71 24.81 16.38 24.81C16.05 24.81 15.78 24.55 15.78 24.22C15.78 23.88 16.05 23.62 16.38 23.62Z" />
					</g>
				</g>
				<g id="Group 1104">
					<g id="Group 1103">
						<path id="Path 848" fill-rule="evenodd" class="shp0" d="M16.41 17.63C20.04 17.63 23 20.58 23 24.22C23 27.85 20.04 30.8 16.41 30.8C12.78 30.8 9.83 27.85 9.83 24.22C9.83 20.58 12.78 17.63 16.41 17.63ZM16.41 29.6C19.38 29.6 21.8 27.19 21.8 24.22C21.8 21.24 19.38 18.83 16.41 18.83C13.44 18.83 11.03 21.24 11.03 24.22C11.03 27.19 13.44 29.6 16.41 29.6Z" />
					</g>
				</g>
				<g id="Group 1106">
					<g id="Group 1105">
						<path id="Path 849" class="shp0" d="M16.41 20.02C16.74 20.02 17.01 20.29 17.01 20.62L17.01 21.82C17.01 22.15 16.74 22.42 16.41 22.42C16.08 22.42 15.81 22.15 15.81 21.82L15.81 20.62C15.81 20.29 16.08 20.02 16.41 20.02Z" />
					</g>
				</g>
				<g id="Group 1108">
					<g id="Group 1107">
						<path id="Path 850" class="shp0" d="M16.41 26.01C16.74 26.01 17.01 26.28 17.01 26.61L17.01 27.81C17.01 28.14 16.74 28.41 16.41 28.41C16.08 28.41 15.81 28.14 15.81 27.81L15.81 26.61C15.81 26.28 16.08 26.01 16.41 26.01Z" />
					</g>
				</g>
				<g id="Group 1110">
					<g id="Group 1109">
						<path id="Path 851" class="shp0" d="M18.81 23.62L20 23.62C20.33 23.62 20.6 23.88 20.6 24.22C20.6 24.55 20.33 24.81 20 24.81L18.81 24.81C18.48 24.81 18.21 24.55 18.21 24.22C18.21 23.88 18.48 23.62 18.81 23.62Z" />
					</g>
				</g>
				<g id="Group 1112">
					<g id="Group 1111">
						<path id="Path 852" class="shp0" d="M12.82 23.62L14.02 23.62C14.35 23.62 14.62 23.88 14.62 24.22C14.62 24.55 14.35 24.81 14.02 24.81L12.82 24.81C12.49 24.81 12.22 24.55 12.22 24.22C12.22 23.88 12.49 23.62 12.82 23.62Z" />
					</g>
				</g>
				<g id="Group 1114">
					<g id="Group 1113">
						<path id="Path 853" class="shp0" d="M17.68 22.1L18.53 21.25C18.76 21.02 19.14 21.02 19.38 21.25C19.61 21.49 19.61 21.87 19.38 22.1L18.53 22.95C18.41 23.06 18.26 23.12 18.11 23.12C17.95 23.12 17.8 23.06 17.68 22.95C17.45 22.71 17.45 22.33 17.68 22.1Z" />
					</g>
				</g>
				<g id="Group 1116">
					<g id="Group 1115">
						<path id="Path 854" class="shp0" d="M13.45 26.33L14.3 25.48C14.53 25.25 14.91 25.25 15.14 25.48C15.38 25.72 15.38 26.1 15.14 26.33L14.3 27.18C14.18 27.29 14.03 27.35 13.87 27.35C13.72 27.35 13.57 27.29 13.45 27.18C13.22 26.94 13.22 26.56 13.45 26.33Z" />
					</g>
				</g>
				<g id="Group 1118">
					<g id="Group 1117">
						<path id="Path 855" class="shp0" d="M17.68 25.48C17.92 25.25 18.29 25.25 18.53 25.48L19.38 26.33C19.61 26.56 19.61 26.94 19.38 27.18C19.26 27.29 19.11 27.35 18.95 27.35C18.8 27.35 18.65 27.29 18.53 27.18L17.68 26.33C17.45 26.1 17.45 25.72 17.68 25.48Z" />
					</g>
				</g>
				<g id="Group 1120">
					<g id="Group 1119">
						<path id="Path 856" class="shp0" d="M13.45 21.25C13.68 21.02 14.06 21.02 14.3 21.25L15.14 22.1C15.38 22.33 15.38 22.71 15.14 22.95C15.03 23.06 14.87 23.12 14.72 23.12C14.57 23.12 14.41 23.06 14.3 22.95L13.45 22.1C13.22 21.87 13.22 21.49 13.45 21.25Z" />
					</g>
				</g>
				<g id="Group 1122">
					<g id="Group 1121">
						<path id="Path 857" class="shp0" d="M61.87 23.62L61.88 23.62C62.21 23.62 62.48 23.88 62.48 24.22C62.48 24.55 62.2 24.81 61.87 24.81C61.54 24.81 61.27 24.55 61.27 24.22C61.27 23.88 61.54 23.62 61.87 23.62Z" />
					</g>
				</g>
				<g id="Group 1124">
					<g id="Group 1123">
						<path id="Path 858" fill-rule="evenodd" class="shp0" d="M61.91 17.63C65.54 17.63 68.49 20.58 68.49 24.22C68.49 27.85 65.54 30.8 61.91 30.8C58.28 30.8 55.32 27.85 55.32 24.22C55.32 20.58 58.28 17.63 61.91 17.63ZM61.91 29.6C64.88 29.6 67.29 27.19 67.29 24.22C67.29 21.24 64.88 18.83 61.91 18.83C58.94 18.83 56.52 21.24 56.52 24.22C56.52 27.19 58.94 29.6 61.91 29.6Z" />
					</g>
				</g>
				<g id="Group 1126">
					<g id="Group 1125">
						<path id="Path 859" class="shp0" d="M61.91 20.02C62.24 20.02 62.51 20.29 62.51 20.62L62.51 21.82C62.51 22.15 62.24 22.42 61.91 22.42C61.58 22.42 61.31 22.15 61.31 21.82L61.31 20.62C61.31 20.29 61.58 20.02 61.91 20.02Z" />
					</g>
				</g>
				<g id="Group 1128">
					<g id="Group 1127">
						<path id="Path 860" class="shp0" d="M61.91 26.01C62.24 26.01 62.51 26.28 62.51 26.61L62.51 27.81C62.51 28.14 62.24 28.41 61.91 28.41C61.58 28.41 61.31 28.14 61.31 27.81L61.31 26.61C61.31 26.28 61.58 26.01 61.91 26.01Z" />
					</g>
				</g>
				<g id="Group 1130">
					<g id="Group 1129">
						<path id="Path 861" class="shp0" d="M64.3 23.62L65.5 23.62C65.83 23.62 66.1 23.88 66.1 24.22C66.1 24.55 65.83 24.81 65.5 24.81L64.3 24.81C63.97 24.81 63.7 24.55 63.7 24.22C63.7 23.88 63.97 23.62 64.3 23.62Z" />
					</g>
				</g>
				<g id="Group 1132">
					<g id="Group 1131">
						<path id="Path 862" class="shp0" d="M58.32 23.62L59.51 23.62C59.84 23.62 60.11 23.88 60.11 24.22C60.11 24.55 59.84 24.81 59.51 24.81L58.32 24.81C57.98 24.81 57.72 24.55 57.72 24.22C57.72 23.88 57.98 23.62 58.32 23.62Z" />
					</g>
				</g>
				<g id="Group 1134">
					<g id="Group 1133">
						<path id="Path 863" class="shp0" d="M63.18 22.1L64.02 21.25C64.26 21.02 64.64 21.02 64.87 21.25C65.1 21.49 65.1 21.87 64.87 22.1L64.02 22.95C63.91 23.06 63.75 23.12 63.6 23.12C63.45 23.12 63.29 23.06 63.18 22.95C62.94 22.71 62.94 22.33 63.18 22.1Z" />
					</g>
				</g>
				<g id="Group 1136">
					<g id="Group 1135">
						<path id="Path 864" class="shp0" d="M58.94 26.33L59.79 25.48C60.02 25.25 60.4 25.25 60.64 25.48C60.87 25.72 60.87 26.1 60.64 26.33L59.79 27.18C59.67 27.29 59.52 27.35 59.37 27.35C59.21 27.35 59.06 27.29 58.94 27.18C58.71 26.94 58.71 26.56 58.94 26.33Z" />
					</g>
				</g>
				<g id="Group 1138">
					<g id="Group 1137">
						<path id="Path 865" class="shp0" d="M63.18 25.48C63.41 25.25 63.79 25.25 64.02 25.48L64.87 26.33C65.1 26.56 65.1 26.94 64.87 27.18C64.75 27.29 64.6 27.35 64.45 27.35C64.29 27.35 64.14 27.29 64.02 27.18L63.18 26.33C62.94 26.1 62.94 25.72 63.18 25.48Z" />
					</g>
				</g>
				<g id="Group 1140">
					<g id="Group 1139">
						<path id="Path 866" class="shp0" d="M58.94 21.25C59.18 21.02 59.56 21.02 59.79 21.25L60.64 22.1C60.87 22.33 60.87 22.71 60.64 22.95C60.52 23.06 60.37 23.12 60.21 23.12C60.06 23.12 59.91 23.06 59.79 22.95L58.94 22.1C58.71 21.87 58.71 21.49 58.94 21.25Z" />
					</g>
				</g>
			</g>
		</g>
	</g>
</svg>