<svg version="1.2" baseProfile="tiny-ps" xmlns="http://www.w3.org/2000/svg" viewBox="0 0 35 37" width="35" height="37">
	<title>Car Services</title>
	<style>
		tspan { white-space:pre }
		.shp0 { fill: none;stroke: #f06424;stroke-width: 1.5 } 
	</style>
	<g id="Car Services">
		<g id="Group 2422">
			<g id="Group 2209">
				<path id="Path 1369" fill-rule="evenodd" class="shp0" d="M4.13 2.5C4.4 2.5 4.61 2.5 4.82 2.5C10.93 2.5 17.04 2.5 23.15 2.5C24.23 2.5 25.07 2.95 25.55 3.92C25.72 4.27 25.82 4.68 25.82 5.06C25.84 9.88 25.83 14.69 25.83 19.51C25.83 19.58 25.82 19.66 25.82 19.73C25.38 19.77 24.97 19.78 24.55 19.84C21.88 20.27 19.91 21.69 18.65 24.09C18.53 24.33 18.4 24.41 18.13 24.41C15.01 24.4 11.88 24.41 8.76 24.41C8.72 24.41 8.68 24.41 8.65 24.41C8.45 24.41 8.33 24.5 8.31 24.69C8.29 24.86 8.43 24.98 8.64 25.02C8.99 25.08 9.37 25.11 9.7 25.24C10.96 25.73 11.67 27.09 11.41 28.41C11.14 29.75 9.97 30.71 8.62 30.71C7.13 30.71 5.91 29.59 5.78 28.11C5.77 27.93 5.76 27.75 5.76 27.57C5.76 21.28 5.76 14.99 5.76 8.7C5.76 8.02 5.82 7.33 5.79 6.65C5.72 5.33 5.36 4.1 4.57 3.02C4.51 2.93 4.43 2.85 4.36 2.76C4.3 2.69 4.23 2.62 4.13 2.5ZM16.5 11.04C15.31 11.04 14.11 11.04 12.92 11.04C12.55 11.04 12.41 11.12 12.4 11.33C12.4 11.55 12.55 11.65 12.92 11.65C15.32 11.65 17.73 11.65 20.13 11.65C20.22 11.65 20.33 11.67 20.38 11.62C20.48 11.55 20.59 11.43 20.59 11.33C20.58 11.23 20.46 11.12 20.36 11.05C20.3 11.01 20.2 11.04 20.11 11.04C18.91 11.04 17.71 11.04 16.5 11.04ZM16.48 14.18C17.7 14.18 18.93 14.18 20.16 14.18C20.22 14.18 20.3 14.2 20.34 14.17C20.44 14.09 20.56 14 20.59 13.89C20.63 13.75 20.52 13.62 20.36 13.59C20.27 13.58 20.18 13.57 20.09 13.57C17.69 13.57 15.29 13.57 12.89 13.57C12.8 13.57 12.69 13.55 12.62 13.6C12.53 13.67 12.41 13.8 12.42 13.89C12.42 13.99 12.55 14.09 12.64 14.17C12.69 14.2 12.78 14.18 12.85 14.18C14.06 14.18 15.27 14.18 16.48 14.18ZM16.51 16.73C17.71 16.73 18.91 16.73 20.11 16.73C20.19 16.73 20.27 16.73 20.35 16.71C20.51 16.68 20.63 16.56 20.59 16.41C20.57 16.3 20.43 16.21 20.33 16.12C20.3 16.1 20.23 16.12 20.18 16.12C17.74 16.12 15.3 16.12 12.87 16.12C12.8 16.12 12.73 16.11 12.66 16.12C12.5 16.15 12.38 16.26 12.41 16.41C12.44 16.52 12.55 16.62 12.65 16.71C12.68 16.74 12.77 16.72 12.83 16.72C14.05 16.73 15.28 16.73 16.51 16.73Z" />
				<path id="Path 1370" fill-rule="evenodd" class="shp0" d="M25.65 20.37C29.61 20.37 32.85 23.62 32.85 27.57C32.85 31.57 29.63 34.8 25.65 34.8C21.66 34.8 18.42 31.58 18.42 27.62C18.42 23.59 21.63 20.38 25.65 20.37ZM25.11 28.73C25.04 28.63 24.98 28.56 24.93 28.49C24.52 27.92 24.12 27.35 23.71 26.78C23.57 26.59 23.39 26.55 23.24 26.66C23.09 26.77 23.08 26.94 23.22 27.14C23.75 27.88 24.28 28.63 24.81 29.37C25.01 29.65 25.22 29.64 25.42 29.36C25.77 28.85 26.12 28.34 26.48 27.83C26.99 27.09 27.51 26.35 28.02 25.61C28.18 25.38 28.11 25.1 27.87 25.09C27.75 25.09 27.59 25.18 27.51 25.28C26.88 26.17 26.27 27.06 25.65 27.95C25.48 28.21 25.3 28.46 25.11 28.73Z" />
				<path id="Path 1371" class="shp0" d="M10.61 25.03L18.24 25.03C17.6 26.95 17.67 28.82 18.45 30.69L10.62 30.69C11.56 29.96 12.06 29.04 12.07 27.88C12.07 26.72 11.57 25.79 10.61 25.03Z" />
				<path id="Path 1372" class="shp0" d="M5.15 8.19L2.06 8.19C2.05 8.17 2.04 8.16 2.04 8.14C2.07 6.72 2.07 5.31 2.12 3.89C2.14 3.46 2.31 3.05 2.66 2.76C3 2.48 3.15 2.48 3.48 2.76C4.26 3.42 4.68 4.29 4.95 5.24C5.23 6.21 5.23 7.18 5.15 8.19Z" />
			</g>
		</g>
	</g>
</svg>