<svg version="1.2" baseProfile="tiny-ps" xmlns="http://www.w3.org/2000/svg" viewBox="0 0 35 34" width="35" height="34">
	<title>Car Services</title>
	<style>
		tspan { white-space:pre }
		.shp0 { fill: #f06424 } 
	</style>
	<g id="Car Services">
		<g id="Group 2440">
			<g id="Group 2418">
				<g id="Group 2397">
					<g id="Group 2391">
						<path id="Path 1461" class="shp0" d="M18.23 16.66C19.86 17.61 21.37 18.51 22.9 19.37C23.08 19.47 23.39 19.4 23.61 19.33C24.24 19.11 24.85 18.84 25.46 18.6C25.96 18.4 26.49 18.2 26.75 18.88C27 19.51 26.52 19.73 26.04 19.92C25.66 20.07 25.28 20.22 24.75 20.44C25.11 20.67 25.46 20.78 25.62 21.02C25.8 21.29 25.95 21.72 25.86 21.99C25.8 22.17 25.24 22.29 24.96 22.24C24.58 22.16 24.25 21.87 23.79 21.62C23.79 22.07 23.81 22.4 23.79 22.72C23.76 23.17 23.6 23.54 23.07 23.55C22.55 23.55 22.37 23.21 22.33 22.75C22.32 22.68 22.31 22.6 22.33 22.52C22.65 21.07 21.93 20.3 20.67 19.73C19.67 19.29 18.77 18.65 17.68 18.01C17.68 19.15 17.66 20.15 17.7 21.15C17.7 21.34 17.91 21.54 18.06 21.7C18.88 22.51 19.71 23.31 20.54 24.11C20.94 24.5 21.39 24.92 20.85 25.45C20.3 26 19.89 25.5 19.51 25.12C18.95 24.58 18.38 24.03 17.67 23.34C17.67 24.35 17.66 25.16 17.68 25.96C17.69 26.47 17.6 26.94 17 26.96C16.33 26.99 16.25 26.49 16.25 25.96C16.26 25.2 16.25 24.44 16.09 23.57C15.52 24.16 14.95 24.74 14.38 25.33C14.03 25.69 13.64 25.86 13.25 25.45C12.87 25.06 13.02 24.66 13.36 24.3C14.18 23.46 15.03 22.64 15.81 21.76C16.05 21.49 16.21 21.06 16.23 20.69C16.29 19.81 16.25 18.93 16.25 17.85C14.85 18.71 13.58 19.46 12.35 20.25C12.21 20.33 12.17 20.65 12.16 20.86C12.14 21.5 12.15 22.14 12.15 22.78C12.14 23.27 11.89 23.63 11.41 23.51C11.14 23.44 10.84 23.06 10.77 22.76C10.66 22.33 10.74 21.85 10.74 21.22C10.17 21.55 9.7 21.82 9.23 22.1C8.78 22.37 8.31 22.54 7.98 21.96C7.68 21.42 8.06 21.12 8.49 20.87C8.88 20.63 9.26 20.39 9.76 20.08C9.12 19.82 8.6 19.58 8.06 19.4C7.51 19.22 7.18 18.89 7.42 18.32C7.66 17.76 8.15 17.89 8.61 18.06C9.51 18.4 10.46 19.07 11.32 18.97C12.25 18.87 13.1 18.05 13.98 17.53C14.42 17.28 14.85 17 15.39 16.67C14.05 15.88 12.79 15.13 11.51 14.41C11.35 14.32 11.07 14.41 10.86 14.47C10.03 14.72 9.21 14.99 8.39 15.27C7.92 15.43 7.56 15.35 7.4 14.87C7.24 14.4 7.47 14.08 7.92 13.92C8.45 13.74 8.98 13.56 9.68 13.33C9.26 13.08 8.95 12.93 8.68 12.72C8.18 12.34 7.1 12.19 7.67 11.28C8.21 10.4 8.87 11.24 9.44 11.51C9.84 11.7 10.22 11.94 10.74 12.23C10.74 11.6 10.66 11.08 10.77 10.6C10.84 10.32 11.22 10.1 11.45 9.86C11.69 10.11 12.07 10.34 12.12 10.62C12.22 11.27 12.12 11.95 12.17 12.61C12.19 12.84 12.33 13.16 12.52 13.28C13.69 14.01 14.89 14.69 16.24 15.49C16.13 14.11 16.68 12.83 15.49 11.76C14.72 11.06 14.07 10.22 13.36 9.45C13.01 9.06 12.86 8.63 13.29 8.24C13.71 7.88 14.09 8.09 14.42 8.45C14.96 9.06 15.51 9.66 16.25 10.24C16.25 9.5 16.25 8.76 16.25 8.02C16.25 7.68 16.17 7.32 16.28 7.03C16.4 6.72 16.67 6.32 16.93 6.27C17.38 6.19 17.67 6.53 17.67 7.03C17.67 8.13 17.67 9.23 17.67 10.55C18.28 9.95 18.75 9.48 19.22 9.01C19.42 8.81 19.59 8.52 19.82 8.43C20.13 8.31 20.5 8.36 20.85 8.34C20.84 8.7 20.98 9.19 20.8 9.4C20.06 10.28 19.26 11.12 18.41 11.89C17.82 12.42 17.57 12.99 17.66 13.77C17.71 14.22 17.67 14.67 17.67 15.29C19.02 14.47 20.26 13.73 21.48 12.96C21.6 12.88 21.64 12.61 21.65 12.42C21.67 11.91 21.67 11.4 21.66 10.89C21.64 10.36 21.71 9.86 22.38 9.87C23.06 9.89 23.08 10.41 23.07 10.93C23.07 11.23 23.07 11.53 23.07 11.98C23.58 11.69 24 11.47 24.4 11.22C24.86 10.93 25.37 10.68 25.72 11.28C26.07 11.88 25.59 12.21 25.12 12.48C24.81 12.65 24.52 12.84 24.07 13.12C24.83 13.4 25.45 13.63 26.08 13.86C26.54 14.03 26.96 14.25 26.77 14.84C26.56 15.48 26.07 15.4 25.57 15.22C24.73 14.91 23.9 14.57 23.04 14.33C22.7 14.23 22.23 14.26 21.92 14.43C20.7 15.11 19.53 15.87 18.23 16.66Z" />
						<path id="Path 1462" class="shp0" d="M3.76 27.68L1.96 29.79L1.38 21.63C3.5 23.42 5.48 25.1 7.6 26.89L5.19 27.13C6.35 28.55 7.69 29.59 9.17 30.44C12.3 32.23 15.66 32.86 19.22 32.42C19.73 32.36 20.26 32.3 20.33 33C20.39 33.65 19.91 33.78 19.38 33.84C13.28 34.5 8.16 32.62 4.04 28.04C3.96 27.94 3.89 27.84 3.76 27.68Z" />
						<path id="Path 1463" class="shp0" d="M6.79 4.14L4.81 2.32L12.99 2.05L7.48 8.07L7.35 5.77L7.14 5.63C6.21 6.65 5.18 7.61 4.36 8.72C2.54 11.18 1.59 13.99 1.54 17.07C1.53 17.61 1.43 18.12 0.81 18.11C0.1 18.11 0.09 17.53 0.1 16.99C0.28 12 2.33 7.93 6.13 4.73C6.31 4.58 6.49 4.44 6.67 4.29C6.69 4.27 6.7 4.25 6.79 4.14Z" />
						<path id="Path 1464" class="shp0" d="M28.04 30L30.21 31.78L22.08 32.51C23.85 30.34 25.47 28.34 27.22 26.19L27.5 28.64C29.53 26.81 30.99 24.76 31.76 22.3C32.2 20.88 32.33 19.36 32.6 17.89C32.62 17.81 32.61 17.73 32.61 17.66C32.63 17.15 32.77 16.7 33.37 16.72C33.98 16.73 34.1 17.18 34.08 17.69C34 20.05 33.49 22.3 32.46 24.42C31.54 26.33 30.31 28.01 28.74 29.45C28.54 29.63 28.31 29.79 28.04 30Z" />
						<path id="Path 1465" class="shp0" d="M29.85 6.4L31.49 4.25C31.83 6.99 32.16 9.54 32.51 12.35L26.01 7.44L28.51 7.08C27.75 6.43 27.15 5.86 26.5 5.37C23.95 3.47 21.08 2.45 17.89 2.31C17.66 2.3 17.43 2.29 17.2 2.28C16.74 2.26 16.39 2.06 16.38 1.56C16.38 1.02 16.76 0.77 17.25 0.83C18.59 0.97 19.95 1.05 21.27 1.35C24.46 2.08 27.18 3.7 29.46 6.06C29.57 6.16 29.68 6.25 29.85 6.4Z" />
					</g>
				</g>
			</g>
		</g>
	</g>
</svg>