<svg version="1.2" baseProfile="tiny-ps" xmlns="http://www.w3.org/2000/svg" viewBox="0 0 34 27" width="34" height="27">
	<title>Car Services</title>
	<style>
		tspan { white-space:pre }
		.shp0 { fill: #f06424 } 
	</style>
	<g id="Car Services">
		<g id="Group 2421">
			<g id="Group 2405">
				<g id="Group 2402">
					<g id="Group 2398">
						<path id="Path 1480" fill-rule="evenodd" class="shp0" d="M16.99 25.7C10.35 25.7 4.94 20.14 4.94 13.3C4.94 6.47 10.35 0.91 16.99 0.91C23.64 0.91 29.04 6.47 29.04 13.3C29.04 20.14 23.64 25.7 16.99 25.7ZM16.99 1.88C10.87 1.88 5.88 7 5.88 13.3C5.88 19.61 10.87 24.73 16.99 24.73C23.12 24.73 28.1 19.61 28.1 13.3C28.1 7 23.12 1.88 16.99 1.88Z" />
						<path id="Path 1481" fill-rule="evenodd" class="shp0" d="M16.99 26.17C10.09 26.17 4.48 20.4 4.48 13.3C4.48 6.21 10.09 0.44 16.99 0.44C23.89 0.44 29.51 6.21 29.51 13.3C29.51 20.4 23.89 26.17 16.99 26.17ZM16.99 1.37C10.6 1.37 5.41 6.73 5.41 13.3C5.41 19.88 10.6 25.23 16.99 25.23C23.38 25.23 28.58 19.88 28.58 13.3C28.58 6.73 23.38 1.37 16.99 1.37ZM16.99 25.2C10.61 25.2 5.42 19.86 5.42 13.3C5.42 6.75 10.61 1.41 16.99 1.41C23.38 1.41 28.57 6.75 28.57 13.3C28.57 19.86 23.38 25.2 16.99 25.2ZM16.99 2.34C11.12 2.34 6.35 7.26 6.35 13.3C6.35 19.35 11.12 24.27 16.99 24.27C22.86 24.27 27.64 19.35 27.64 13.3C27.64 7.26 22.86 2.34 16.99 2.34Z" />
					</g>
					<g id="Group 2401">
						<g id="Group 2399">
							<path id="Rectangle 935" class="shp0" d="M16.52 7.64L17.46 7.64L17.46 15.14L16.52 15.14L16.52 7.64Z" />
							<path id="Path 1482" fill-rule="evenodd" class="shp0" d="M17.93 15.6L16.06 15.6L16.06 7.18L17.93 7.18L17.93 15.6ZM16.99 14.67L17 14.67L16.99 8.11L16.99 14.67Z" />
						</g>
						<g id="Group 2400">
							<path id="Ellipse 39" class="shp0" d="M16.99 20.01C16.44 20.01 16 19.55 16 18.98C16 18.41 16.44 17.96 16.99 17.96C17.54 17.96 17.99 18.41 17.99 18.98C17.99 19.55 17.54 20.01 16.99 20.01Z" />
							<path id="Path 1483" fill-rule="evenodd" class="shp0" d="M16.99 20.47C16.19 20.47 15.53 19.8 15.53 18.98C15.53 18.16 16.19 17.49 16.99 17.49C17.8 17.49 18.46 18.16 18.46 18.98C18.46 19.8 17.8 20.47 16.99 20.47ZM16.99 18.42C16.7 18.42 16.46 18.67 16.46 18.98C16.46 19.29 16.7 19.54 16.99 19.54C17.29 19.54 17.52 19.29 17.52 18.98C17.52 18.67 17.29 18.42 16.99 18.42Z" />
						</g>
					</g>
				</g>
				<g id="Group 2403">
					<path id="Path 1484" class="shp0" d="M5.82 26C-0.42 19.15 -0.08 12.72 1.3 8.53C2.79 4.01 5.72 1.16 5.84 1.04L6.49 1.74C6.02 2.2 -4.81 12.93 6.51 25.34L5.82 26Z" />
					<path id="Path 1485" fill-rule="evenodd" class="shp0" d="M5.8 26.67L5.48 26.32C-0.92 19.3 -0.57 12.69 0.86 8.38C2.39 3.75 5.39 0.83 5.52 0.7L5.87 0.37L7.14 1.77L6.81 2.08C6.36 2.52 -4.17 12.94 6.85 25.03L7.16 25.36L5.8 26.67ZM3.14 21.57C3.83 22.8 4.72 24.05 5.85 25.33L5.86 25.32C4.74 24.05 3.84 22.79 3.14 21.57ZM5.83 1.72C5.47 2.12 4.84 2.84 4.16 3.84C4.85 2.85 5.48 2.13 5.85 1.73L5.83 1.72Z" />
				</g>
				<g id="Group 2404">
					<path id="Path 1486" class="shp0" d="M28.16 26L27.48 25.34C32.24 20.12 33.69 14.57 31.79 8.84C30.38 4.55 27.53 1.77 27.5 1.74L28.14 1.04C28.27 1.16 31.19 4.01 32.68 8.53C34.07 12.72 34.41 19.15 28.16 26Z" />
					<path id="Path 1487" fill-rule="evenodd" class="shp0" d="M28.18 26.67L26.83 25.36L27.13 25.03C31.77 19.94 33.19 14.55 31.35 8.99C29.98 4.85 27.29 2.19 27.17 2.08L26.85 1.76L28.12 0.37L28.46 0.7C28.59 0.83 31.59 3.75 33.13 8.38C34.55 12.69 34.91 19.3 28.51 26.32L28.18 26.67ZM28.12 25.32L28.14 25.33C29.24 24.08 30.11 22.85 30.81 21.64C30.08 22.88 29.19 24.11 28.12 25.32ZM28.14 1.74C28.94 2.61 31.06 5.14 32.24 8.7C32.48 9.43 32.67 10.15 32.8 10.88C32.66 10.09 32.47 9.35 32.24 8.68C31.06 5.1 28.97 2.6 28.15 1.72L28.14 1.74Z" />
				</g>
			</g>
		</g>
	</g>
</svg>