<svg version="1.2" baseProfile="tiny-ps" xmlns="http://www.w3.org/2000/svg" viewBox="0 0 91 104" width="91" height="104">
	<title>Car Services</title>
	<style>
		tspan { white-space:pre }
		.shp0 { fill: none;stroke: #f06424;stroke-width: 2 } 
		.shp1 { fill: #f06424 } 
	</style>
	<g id="Car Services">
		<g id="Group 2450">
			<g id="Group 2446">
				<g id="Group 2428">
					<g id="Group 2381">
						<path id="Path 1409" class="shp0" d="M45.49 2.5L3 26.88L3 76.61L45.49 101.32L88.64 76.61L88.64 27.86L45.49 2.5Z" />
						<g id="Group 2327">
							<path id="Path 1364" fill-rule="evenodd" class="shp1" d="M45.92 61.81C45.45 62.71 45.02 63.54 44.58 64.37C43.76 65.94 42.92 67.51 42.11 69.1C41.95 69.41 41.77 69.54 41.4 69.54C37.43 69.52 33.46 69.53 29.49 69.53C29.27 69.53 29.06 69.53 28.8 69.53C28.8 70.42 28.8 71.24 28.8 72.07C28.79 73.39 27.92 74.28 26.6 74.28C24.36 74.29 22.13 74.28 19.89 74.28C18.44 74.28 17.6 73.44 17.6 71.98C17.6 68.48 17.6 64.97 17.61 61.47C17.61 61.06 17.58 60.65 17.63 60.25C17.67 59.94 17.73 59.58 17.91 59.33C18.16 58.97 18.2 58.6 18.2 58.19C18.19 57.24 18.22 56.28 18.19 55.33C18.12 53.73 18.74 52.34 19.5 51C19.81 50.43 20.17 49.88 20.55 49.27C19.83 49.19 19.13 49.15 18.45 49.04C17.4 48.88 16.35 48.73 15.32 48.48C14.42 48.26 14.13 47.67 14.34 46.77C14.54 45.89 15.06 45.23 15.86 44.86C17.55 44.06 19.28 44.1 20.99 44.8C21.71 45.1 21.88 45.57 21.74 46.52C21.69 46.8 21.73 47.1 21.73 47.4L21.94 47.45C22.45 46.82 23.04 46.24 23.45 45.54C24.94 42.96 26.4 40.36 27.82 37.74C28.2 37.05 28.71 36.68 29.45 36.58C31.03 36.36 32.6 36.07 34.18 35.95C36.31 35.78 38.46 35.73 40.6 35.64C40.77 35.63 40.94 35.64 41.13 35.64C41.59 37.28 42.38 38.71 43.61 39.88C45.03 41.23 46.72 42.07 48.67 42.3C49.14 42.35 49.41 42.52 49.63 42.95C50.59 44.8 51.59 46.64 52.56 48.49C52.67 48.7 52.67 48.99 52.65 49.23C52.59 50.03 52.49 50.83 52.4 51.71C52.32 51.71 52.12 51.71 51.93 51.71C47.22 51.71 42.52 51.7 37.81 51.72C37.32 51.72 36.78 51.85 36.34 52.06C35.62 52.4 35.27 53.05 35.27 53.85C35.26 55.78 35.25 57.7 35.27 59.62C35.27 60.87 36.23 61.8 37.48 61.81C40.09 61.81 42.7 61.81 45.31 61.81C45.48 61.81 45.65 61.81 45.92 61.81ZM27.33 58.52C28.55 58.52 29.77 58.53 30.99 58.52C31.96 58.52 32.57 57.92 32.59 56.95C32.6 55.81 32.6 54.67 32.59 53.53C32.58 52.59 31.96 51.97 31.02 51.97C28.55 51.96 26.08 51.96 23.61 51.97C22.68 51.98 22.06 52.61 22.06 53.54C22.05 54.67 22.05 55.79 22.06 56.92C22.06 57.91 22.67 58.51 23.67 58.52C24.89 58.53 26.11 58.52 27.33 58.52ZM27.67 63.59C28.98 63.59 30.3 63.59 31.61 63.58C31.77 63.58 31.95 63.55 32.09 63.47C32.52 63.22 32.68 62.82 32.55 62.35C32.44 61.96 32.07 61.7 31.58 61.7C28.99 61.7 26.39 61.7 23.8 61.7C23.13 61.7 22.7 62.08 22.71 62.65C22.72 63.21 23.17 63.58 23.83 63.59C25.11 63.59 26.39 63.59 27.67 63.59Z" />
							<path id="Path 1365" fill-rule="evenodd" class="shp1" d="M41.35 73.31C41.44 73 41.51 72.43 41.76 71.94C44.09 67.45 46.43 62.97 48.8 58.5C49.38 57.4 50.35 56.76 51.61 56.64C52.04 56.6 52.26 56.42 52.44 56.05C52.91 55.11 53.4 54.19 53.89 53.27C54.02 53.03 54.05 52.84 53.92 52.58C53.28 51.25 53.31 49.92 53.98 48.61C54.28 48.03 54.58 47.45 54.89 46.87C55.23 46.24 55.75 46.08 56.39 46.41C59.39 47.98 62.39 49.56 65.39 51.13C66.05 51.48 66.21 51.99 65.88 52.65C65.56 53.28 65.24 53.91 64.9 54.52C64.23 55.68 63.24 56.41 61.91 56.65C61.5 56.72 61.27 56.91 61.09 57.28C60.62 58.23 60.12 59.17 59.62 60.1C59.5 60.32 59.49 60.47 59.62 60.69C60.33 61.9 60.37 63.15 59.72 64.4C57.43 68.77 55.14 73.14 52.84 77.5C51.81 79.47 49.67 80.15 47.69 79.14C46.25 78.41 44.81 77.65 43.38 76.88C42.07 76.17 41.44 75.03 41.35 73.31ZM57.85 62.99C57.8 62.34 57.39 61.8 56.81 61.64C56.14 61.46 55.52 61.75 55.17 62.41C54.01 64.64 52.84 66.86 51.67 69.09C50.55 71.23 49.42 73.37 48.31 75.52C47.87 76.36 48.25 77.24 49.12 77.51C49.79 77.72 50.41 77.4 50.82 76.62C53.08 72.33 55.33 68.03 57.58 63.73C57.7 63.5 57.76 63.24 57.85 62.99ZM53.14 60.67C53.14 59.91 52.72 59.35 52.15 59.2C51.49 59.03 50.87 59.3 50.53 59.94C48.25 64.29 45.96 68.64 43.68 72.99C43.27 73.79 43.49 74.6 44.2 74.96C44.93 75.34 45.7 75.06 46.12 74.26C48.39 69.93 50.66 65.61 52.92 61.28C53.04 61.05 53.09 60.79 53.14 60.67Z" />
							<path id="Path 1366" class="shp1" d="M64.86 56.32C65.63 57.75 66.4 59.19 67.17 60.64C67.6 61.45 68.04 62.26 68.46 63.08C68.57 63.29 68.69 63.4 68.95 63.41C72.86 63.59 75.96 66.28 76.61 70.14C77.05 72.75 76.26 75.03 74.45 77.07C74.33 76.7 74.22 76.4 74.13 76.1C73.42 73.84 72.7 71.58 72.01 69.31C71.92 69 71.78 68.9 71.47 68.87C70.31 68.76 69.15 68.62 67.98 68.5C67.85 68.49 67.67 68.55 67.56 68.64C66.64 69.43 65.71 70.23 64.81 71.05C64.71 71.14 64.68 71.41 64.73 71.56C65.48 74.01 66.25 76.45 67.01 78.89C67.05 79.02 67.08 79.15 67.13 79.33C65.59 79.03 64.31 78.37 63.21 77.36C59.98 74.37 59.74 69.37 62.67 66.1C62.88 65.86 62.91 65.69 62.75 65.42C62.43 64.88 62.15 64.32 61.86 63.77C61.49 63.07 61.05 62.39 61.05 61.56C61.06 61.5 61.03 61.43 61 61.38C60.49 60.57 60.86 59.89 61.23 59.15C61.69 58.24 62.15 57.5 63.26 57.26C63.82 57.14 64.3 56.67 64.86 56.32Z" />
							<path id="Path 1367" class="shp1" d="M51.43 25.44C54.12 26.06 56.08 27.5 57.17 29.93C58.67 33.25 58.03 36.28 55.64 39.03C56.42 40.49 57.21 41.98 58 43.46C58.39 44.19 58.76 44.93 59.18 45.64C59.41 46.03 59.41 46.33 59.06 46.68C58.38 46.32 57.67 45.95 56.98 45.58C55.69 44.91 54.61 45.24 53.93 46.54C53.73 46.91 53.54 47.27 53.31 47.71C53.03 47.2 52.78 46.75 52.54 46.3C51.73 44.77 50.9 43.25 50.1 41.71C49.97 41.45 49.8 41.38 49.52 41.37C45.08 41.17 41.65 37.42 41.85 32.97C41.93 31.07 42.83 29.01 44.14 27.76C44.23 28.05 44.32 28.32 44.4 28.59C45.11 30.86 45.84 33.14 46.54 35.42C46.64 35.77 46.81 35.9 47.18 35.93C48.22 36.01 49.26 36.13 50.3 36.26C50.65 36.31 50.92 36.26 51.19 36.01C52.01 35.26 52.85 34.54 53.7 33.82C53.92 33.64 53.94 33.48 53.85 33.23C53.07 30.77 52.31 28.32 51.54 25.86C51.51 25.76 51.49 25.65 51.43 25.44Z" />
							<path id="Path 1368" class="shp1" d="M62.82 48.42C61.91 47.94 61.03 47.48 60.1 46.99C60.46 46.31 60.8 45.65 61.14 44.99C63.15 41.17 65.16 37.34 67.17 33.51C67.3 33.26 67.47 33.04 67.29 32.7C67.19 32.52 67.32 32.22 67.36 31.97C67.42 31.5 67.52 31.02 67.57 30.54C67.62 30.05 67.83 29.67 68.17 29.32C69.16 28.27 70.12 27.2 71.08 26.13C71.32 25.87 71.52 25.8 71.84 25.99C72.38 26.3 72.93 26.59 73.49 26.88C73.74 27.01 73.82 27.16 73.75 27.44C73.38 29.03 73.03 30.63 72.66 32.23C72.63 32.34 72.57 32.47 72.49 32.55C71.88 33.14 71.35 33.87 70.64 34.26C69.97 34.62 69.79 35.19 69.51 35.73C67.31 39.88 65.13 44.04 62.95 48.2C62.92 48.26 62.89 48.31 62.82 48.42Z" />
						</g>
					</g>
				</g>
			</g>
		</g>
	</g>
</svg>