<svg xmlns="http://www.w3.org/2000/svg" width="157.001" height="144" viewBox="0 0 157.001 144">
  <g id="picture" transform="translate(-45.519 -189.181)">
    <g id="Group_2352" data-name="Group 2352" transform="translate(45.519 189.181)">
      <g id="Group_2351" data-name="Group 2351" transform="translate(0 0)">
        <path id="Path_1419" data-name="Path 1419" d="M176.795,223.933,91.7,189.181,65.853,252.462l-1.725,4.252,4.282,1.756,1.725-4.282L94.228,195.22l70.336,28.713h-68.8v93.905L51.527,299.754l10.259-25.14-2.125-.862,2.125.862,1.356-3.3-4.252-1.756-1.355,3.327L45.519,302.28l50.249,20.55v10.351H202.52V258.655H197.9V328.56h-97.51V228.555H197.9v16.237h4.622V223.933Z" transform="translate(-45.519 -189.181)" fill="#a6a6a6"/>
        <path id="Path_1420" data-name="Path 1420" d="M536.392,383.208h4.622v4.621h-4.622Z" transform="translate(-384.012 -322.977)" fill="#a6a6a6"/>
        <path id="Path_1421" data-name="Path 1421" d="M0,0H4.622V4.622H0Z" transform="translate(21.103 73.59) rotate(112.206)" fill="#a6a6a6"/>
        <path id="Path_1422" data-name="Path 1422" d="M252.25,429.884h78.9V350.952h-78.9Zm31.456-4.621,20.857-37.8,5.453,11h-9.643v4.622H312.3l11.029,22.213h-39.62Zm42.824-69.689v65.715l-21.782-43.81-26.342,47.785H261.523l20.888-37.895,4.776,9.273,4.1-2.126-8.75-17.006-25.663,46.675V355.574Z" transform="translate(-188.075 -300.734)" fill="#a6a6a6"/>
        <path id="Path_1423" data-name="Path 1423" d="M430.933,394.3a8.873,8.873,0,1,0-8.873-8.873A8.875,8.875,0,0,0,430.933,394.3Zm0-13.124a4.252,4.252,0,1,1-4.252,4.252A4.26,4.26,0,0,1,430.933,381.18Z" transform="translate(-305.172 -318.391)" fill="#a6a6a6"/>
      </g>
    </g>
  </g>
</svg>
