<svg version="1.2" baseProfile="tiny-ps" xmlns="http://www.w3.org/2000/svg" viewBox="0 0 90 104" width="90" height="104">
	<title>Car Services</title>
	<style>
		tspan { white-space:pre }
		.shp0 { fill: none;stroke: #f06424;stroke-width: 2 } 
		.shp1 { fill: #f06424 } 
	</style>
	<g id="Car Services">
		<g id="Group 2448">
			<g id="Group 2445">
				<path id="Path 1408" class="shp0" d="M44.49 2.5L2 26.88L2 76.61L44.49 101.32L87.64 76.61L87.64 27.86L44.49 2.5Z" />
				<g id="Group 2443">
					<path id="Path 1526" fill-rule="evenodd" class="shp1" d="M50.11 19.07C51.26 20.78 52.39 22.37 53.4 24.04C53.97 24.99 54.65 25.48 55.8 25.54C57.52 25.62 59.23 25.92 60.95 26.01C61.9 26.07 62.23 26.5 62.17 27.37C62.06 29.04 62.05 30.73 61.77 32.37C61.59 33.36 61.91 33.88 62.59 34.44C64.22 35.77 65.8 37.15 67.48 38.58C66.21 40.01 65.06 41.36 63.84 42.63C62.91 43.61 62.48 44.67 62.83 46.01C63.18 47.39 63.5 48.79 63.85 50.17C64.08 51.09 63.99 51.73 62.84 51.94C61.2 52.23 59.59 52.73 57.95 53.04C56.9 53.24 56.26 53.77 55.84 54.74C55.03 56.57 54.13 58.36 53.24 60.25C51.08 59.43 49.1 58.63 47.08 57.96C46.48 57.76 45.65 57.73 45.1 57.99C43.46 58.77 41.87 59.67 40.32 60.63C39.45 61.16 38.9 60.96 38.41 60.2C37.51 58.79 36.6 57.39 35.75 55.95C35.14 54.93 34.16 54.82 33.16 54.73C31.63 54.6 30.1 54.5 28.58 54.35C27.6 54.26 26.86 54.09 27.18 52.68C27.51 51.25 27.42 49.73 27.58 48.25C27.7 47.15 27.36 46.35 26.46 45.66C25.25 44.73 24.21 43.57 22.95 42.71C21.75 41.88 22.08 41.27 22.86 40.44C23.98 39.26 25.08 38.05 26.11 36.79C26.43 36.4 26.7 35.75 26.63 35.28C26.33 33.54 25.96 31.8 25.46 30.11C25.14 29.05 25.43 28.59 26.45 28.37C28.13 28 29.79 27.51 31.48 27.2C32.49 27.01 33.05 26.5 33.44 25.58C34.07 24.08 34.81 22.63 35.47 21.15C35.84 20.33 36.32 20.12 37.18 20.47C38.81 21.15 40.45 21.83 42.14 22.33C42.83 22.53 43.77 22.5 44.41 22.19C46.3 21.29 48.1 20.19 50.11 19.07ZM44.54 26.97C42.87 27.34 41.15 27.56 39.54 28.11C31.59 30.81 28.46 40.45 33.23 47.34C37.22 53.11 45.42 54.86 51.7 51.28C57.27 48.11 59.68 41.82 57.61 35.88C55.81 30.69 50.57 27.2 44.54 26.97Z" />
					<path id="Path 1527" class="shp1" d="M31.63 60.52C34.33 58.59 34.33 58.59 36.16 61.32C36.75 62.19 37.35 63.06 37.9 63.95C38.43 64.82 39.06 64.98 39.95 64.48C41.65 63.5 43.34 62.51 45.1 61.65C45.65 61.39 46.46 61.33 47.04 61.52C48.94 62.13 50.82 62.85 52.66 63.64C53.67 64.08 54.19 63.71 54.59 62.86C55.01 61.95 55.36 61 55.83 60.12C56.01 59.78 56.47 59.6 56.79 59.34C57.06 59.72 57.55 60.1 57.55 60.48C57.61 63.94 57.59 67.41 57.59 70.87C57.59 75.38 57.59 79.9 57.59 84.75C56.01 83.53 54.63 82.49 53.27 81.41C50.72 79.38 48.18 77.35 45.66 75.29C44.9 74.68 44.24 74.67 43.48 75.28C40.07 78.07 36.64 80.83 33.2 83.59C32.72 83.97 32.18 84.28 31.66 84.62C31.65 76.59 31.64 68.56 31.63 60.52Z" />
					<path id="Path 1528" class="shp1" d="M31.63 60.52C31.64 68.56 31.65 76.59 31.66 84.62C31.55 84.12 31.34 83.63 31.34 83.13C31.31 76.1 31.32 69.06 31.33 62.03C31.34 61.53 31.52 61.02 31.63 60.52Z" />
					<path id="Path 1529" fill-rule="evenodd" class="shp1" d="M44.7 29.86C49.95 29.55 55.68 34.02 55.62 40.28C55.57 45.94 50.64 50.49 44.59 50.48C38.54 50.47 33.6 45.78 33.67 40.03C33.74 34.27 39.04 29.54 44.7 29.86ZM39.2 39.48C38.77 39.78 38.16 39.98 38.01 40.36C37.85 40.79 37.91 41.54 38.2 41.88C39.46 43.38 40.81 44.82 42.22 46.18C42.42 46.38 43.3 46.21 43.59 45.93C44.63 44.94 45.55 43.83 46.51 42.76C48.09 41.02 49.68 39.29 51.24 37.53C51.82 36.88 52.46 36.13 51.66 35.28C50.82 34.4 49.93 34.75 49.13 35.46C49.06 35.52 48.99 35.59 48.92 35.66C47.35 37.14 45.8 38.64 44.21 40.11C42.49 41.7 43.05 41.84 40.96 40.44C40.45 40.1 39.88 39.85 39.2 39.48Z" />
				</g>
			</g>
		</g>
	</g>
</svg>