<svg version="1.2" baseProfile="tiny-ps" xmlns="http://www.w3.org/2000/svg" viewBox="0 0 91 104" width="91" height="104">
	<title>Car Services</title>
	<style>
		tspan { white-space:pre }
		.shp0 { fill: none;stroke: #f06424;stroke-width: 2 } 
		.shp1 { fill: #f06424 } 
	</style>
	<g id="Car Services">
		<g id="Group 2449">
			<g id="Group 2447">
				<path id="Path 1410" class="shp0" d="M45.49 2.5L3 26.88L3 76.61L45.49 101.32L88.64 76.61L88.64 27.86L45.49 2.5Z" />
				<g id="Group 2444">
					<path id="Path 1530" class="shp1" d="M56.22 36.78L24.94 36.78L24.94 72.53L45.4 72.53C45.74 74.06 46.07 75.52 46.41 77.02C46.31 77.02 46.16 77.02 46.02 77.02C38.74 77.01 31.47 77.01 24.19 77.01C21.95 77.01 20.43 75.5 20.43 73.25C20.43 59.05 20.43 44.84 20.43 30.63C20.43 29.27 20.94 28.15 22.04 27.35C22.38 27.1 22.88 26.94 23.31 26.93C25.5 26.89 27.7 26.92 29.89 26.92L30.36 26.92C30.21 27.87 30.26 28.76 30.65 29.59C31.42 31.26 32.73 32.23 34.56 32.26C38.55 32.32 42.55 32.31 46.55 32.27C49.12 32.24 51.11 29.89 50.82 27.33C50.81 27.21 50.8 27.09 50.78 26.94C50.93 26.93 51.06 26.92 51.19 26.92C52.93 26.92 54.67 26.91 56.42 26.92C57.36 26.92 58.26 27.12 59.06 27.62C60.09 28.26 60.67 29.18 60.68 30.39C60.71 32.51 60.7 34.62 60.7 36.74C60.7 43.44 60.7 50.13 60.7 56.82C60.7 56.98 60.7 57.15 60.7 57.24C59.19 57.39 57.73 57.54 56.22 57.68L56.22 36.78Z" />
					<path id="Path 1531" fill-rule="evenodd" class="shp1" d="M71.43 71.66C71.42 78.07 66.22 83.28 59.83 83.28C53.31 83.27 48.16 78.09 48.16 71.54C48.17 65.16 53.41 60.01 59.9 60.02C66.25 60.02 71.43 65.25 71.43 71.66ZM58.69 73.67C57.61 72.8 56.58 71.97 55.54 71.16C54.72 70.52 53.63 70.66 53.03 71.44C52.41 72.24 52.53 73.3 53.34 73.95C54.81 75.14 56.28 76.32 57.77 77.49C58.55 78.11 59.56 78.05 60.22 77.31C62.63 74.62 65.02 71.93 67.4 69.23C67.78 68.8 67.92 68.29 67.8 67.73C67.65 67.03 67.23 66.55 66.54 66.36C65.81 66.15 65.19 66.37 64.69 66.93C63.58 68.17 62.47 69.42 61.36 70.67C60.48 71.66 59.6 72.64 58.69 73.67Z" />
					<path id="Path 1532" fill-rule="evenodd" class="shp1" d="M40.54 30.49C38.63 30.49 36.72 30.5 34.81 30.49C33.21 30.49 32.05 29.34 32.06 27.78C32.07 26.25 33.25 25.13 34.83 25.13C35.22 25.13 35.61 25.13 36 25.13C36.87 25.11 37.4 24.58 37.43 23.69C37.47 22.38 38.24 21.26 39.44 20.85C40.73 20.41 41.89 20.65 42.85 21.63C43.39 22.17 43.66 22.84 43.69 23.6C43.74 24.66 44.22 25.12 45.3 25.13C45.86 25.14 46.44 25.1 46.99 25.21C48.34 25.47 49.19 26.72 49.05 28.13C48.91 29.45 47.79 30.48 46.44 30.49C44.47 30.5 42.51 30.49 40.54 30.49ZM41.9 23.77C41.89 23.04 41.28 22.44 40.55 22.45C39.82 22.45 39.22 23.06 39.22 23.8C39.23 24.53 39.84 25.13 40.57 25.12C41.3 25.11 41.9 24.5 41.9 23.77Z" />
					<path id="Path 1533" class="shp1" d="M44.8 45.15C42.52 45.15 40.24 45.15 37.95 45.15C37.04 45.15 36.77 44.87 36.76 43.95C36.76 43.8 36.76 43.65 36.76 43.5C36.77 42.79 37.09 42.46 37.81 42.46C42.47 42.46 47.14 42.46 51.81 42.46C52.55 42.46 52.86 42.79 52.87 43.53C52.9 45 52.74 45.15 51.28 45.15C49.12 45.15 46.96 45.15 44.8 45.15Z" />
					<path id="Path 1534" class="shp1" d="M44.54 51.49C46.87 51.49 49.19 51.48 51.51 51.49C52.25 51.49 52.57 51.83 52.56 52.56C52.56 52.77 52.57 52.97 52.56 53.18C52.55 53.83 52.21 54.18 51.56 54.18C48.42 54.18 45.28 54.18 42.14 54.18C40.64 54.18 39.14 54.18 37.64 54.18C36.79 54.18 36.48 53.88 36.45 53.03C36.45 52.86 36.45 52.68 36.45 52.5C36.47 51.82 36.8 51.49 37.48 51.49C39.84 51.48 42.19 51.49 44.54 51.49Z" />
					<path id="Path 1535" class="shp1" d="M42.33 64.05C40.76 64.05 39.18 64.06 37.6 64.05C36.85 64.05 36.54 63.74 36.53 63C36.52 61.5 36.66 61.36 38.15 61.36C41.05 61.36 43.95 61.36 46.86 61.36C47.72 61.36 48.17 61.82 48.17 62.67C48.17 62.81 48.17 62.94 48.17 63.08C48.15 63.73 47.82 64.05 47.16 64.05C45.55 64.06 43.94 64.05 42.33 64.05Z" />
					<path id="Path 1536" class="shp1" d="M30.84 63.1C31.66 62.18 32.47 61.27 33.28 60.36C33.41 60.21 33.53 60.06 33.67 59.94C33.99 59.67 34.43 59.68 34.74 59.93C35.04 60.19 35.12 60.63 34.91 60.99C34.84 61.11 34.73 61.22 34.64 61.34C33.66 62.44 32.68 63.54 31.7 64.64C31.18 65.22 30.81 65.25 30.21 64.77C29.63 64.31 29.05 63.84 28.47 63.38C27.99 63 27.89 62.49 28.21 62.1C28.53 61.71 29.03 61.7 29.51 62.09C29.91 62.4 30.3 62.72 30.7 63.03C30.72 63.05 30.75 63.06 30.84 63.1Z" />
					<path id="Path 1537" class="shp1" d="M31.04 43.85C31.97 42.82 32.85 41.81 33.75 40.82C34.08 40.44 34.5 40.36 34.86 40.59C35.34 40.87 35.39 41.45 34.98 41.93C34.08 42.95 33.18 43.95 32.28 44.97C31.26 46.1 31.21 46.11 30.01 45.16C29.55 44.79 29.08 44.42 28.62 44.04C28.2 43.69 28.13 43.21 28.44 42.83C28.74 42.47 29.23 42.43 29.64 42.74C30.1 43.09 30.55 43.46 31.04 43.85Z" />
					<path id="Path 1538" class="shp1" d="M30.74 53.53C31.54 52.64 32.31 51.78 33.08 50.91C33.22 50.75 33.37 50.57 33.53 50.42C33.87 50.08 34.36 50.06 34.69 50.36C35.02 50.67 35.06 51.15 34.74 51.52C34.01 52.37 33.26 53.2 32.52 54.03C32.19 54.41 31.86 54.79 31.52 55.16C31.12 55.59 30.71 55.63 30.26 55.27C29.61 54.77 28.97 54.25 28.34 53.74C27.91 53.38 27.83 52.9 28.13 52.52C28.42 52.14 28.92 52.1 29.36 52.43C29.82 52.78 30.26 53.15 30.74 53.53Z" />
				</g>
			</g>
		</g>
	</g>
</svg>