<svg xmlns="http://www.w3.org/2000/svg" width="17.115" height="12" viewBox="0 0 17.115 12">
  <path id="youtube-play" d="M17.114,154.336h-.029c0-.168,0-.334,0-.5s-.017-.329-.029-.493c-.015-.2-.036-.407-.055-.611a5.523,5.523,0,0,0-.063-.609c-.062-.3-.139-.6-.228-.887a1.957,1.957,0,0,0-.382-.719,2.238,2.238,0,0,0-1.513-.768c-.317-.033-.637-.053-.955-.072-.293-.019-.585-.033-.88-.043q-.662-.026-1.325-.044c-.433-.012-.866-.024-1.3-.027-.849-.005-1.7-.014-2.547-.007s-1.72.029-2.581.046c-.363.007-.726.019-1.089.029q-.172.005-.344.015c-.377.022-.753.039-1.128.072a5.045,5.045,0,0,0-.753.1,2.02,2.02,0,0,0-1.273.9,3.183,3.183,0,0,0-.411,1.13c-.06.324-.1.652-.13.981s-.053.666-.072,1c-.017.272-.029.544-.029.816q0,1.158.014,2.317c0,.193.015.387.029.579.021.276.045.551.068.825.017.2.029.409.062.611a5.064,5.064,0,0,0,.272,1.013,1.956,1.956,0,0,0,1.27,1.212,5.271,5.271,0,0,0,1.2.2c.325.031.652.041.979.056.269.012.539.022.81.029q.634.018,1.268.029c.392.007.784.015,1.176.019.688.007,1.378.019,2.064.014.863-.007,1.725-.029,2.588-.046.354-.007.707-.019,1.061-.029.116,0,.234-.009.351-.015.389-.022.777-.041,1.164-.072a5.437,5.437,0,0,0,.727-.087,2.048,2.048,0,0,0,1.571-1.328A5.44,5.44,0,0,0,17,158.426c.024-.3.053-.6.068-.9.021-.383.039-.768.043-1.152.01-.679.005-1.361.005-2.042ZM6.788,157.773v-4.8c1.542.8,3.076,1.6,4.623,2.41l-4.623,2.394Z" transform="translate(0 -149.551)"/>
</svg>
