<svg id="Group_49" data-name="Group 49" xmlns="http://www.w3.org/2000/svg" width="59.293" height="43.287" viewBox="0 0 59.293 43.287">
  <g id="Group_38" data-name="Group 38">
    <path id="Path_22" data-name="Path 22" d="M163.712,750.83a4.353,4.353,0,0,0,.9.189q6.206.02,12.414,0a4.052,4.052,0,0,0,.8-.163h.446a6.306,6.306,0,0,0,1.02.164q11.789.015,23.58,0a6.506,6.506,0,0,0,1.023-.16l1.722,0a3.208,3.208,0,0,0,.7.163q5.288.015,10.576,0a2.954,2.954,0,0,0,.694-.179,2.557,2.557,0,0,0,1.729-2.747c-.069-1.813,0-3.631-.032-5.447a2.087,2.087,0,0,0-.305-1.306,3.028,3.028,0,0,1-.7-2.564c.161-3.161,0-6.22-2.58-8.567-.092-.085.094-.643.291-.837s.591-.207.881-.338c1.761-.793,2.006-2.549.351-3.524a11.923,11.923,0,0,0-3.4-.975c-.188-.042-.464.276-.688.445-.178.134-.336.293-.5.442a2.772,2.772,0,0,1-.437-.631c-.5-1.446-.844-2.957-1.476-4.339a23.11,23.11,0,0,0-2.535-4.394c-1.465-1.921-3.679-2.563-5.988-2.878a5.37,5.37,0,0,0-1.005-.189q-10.109-.018-20.223,0a5.529,5.529,0,0,0-1.01.182c-4.876.1-7.807,2.756-9.365,7.178-.53,1.506-.992,3.037-1.507,4.547a2.1,2.1,0,0,1-.418.54c-.161-.151-.321-.308-.49-.452-.188-.163-.373-.43-.578-.452a4.866,4.866,0,0,0-3.863,1.179,1.778,1.778,0,0,0,.15,2.979,4.1,4.1,0,0,0,1.243.572c.829.247.856.606.28,1.179a6.715,6.715,0,0,0-2.133,3.856,43.422,43.422,0,0,0-.235,4.67,3.132,3.132,0,0,1-.641,2.276,2.288,2.288,0,0,0-.379,1.393c-.041,1.849.019,3.7-.029,5.549A2.484,2.484,0,0,0,163.712,750.83Zm53.92,1.048c-.292-.135-.581-.385-.875-.388q-5.116-.042-10.234-.006a3.289,3.289,0,0,0-.928.3.224.224,0,0,1-.166,0l-.088-.179-.167.186c-.354,1.764.1,3.088,2.152,2.875.119.066.239.188.36.188q3.917.018,7.833,0c.12,0,.241-.122.361-.188.722.012,1.346-.21,1.54-.958A12.625,12.625,0,0,0,217.632,751.878Zm-53.5-.091c-1.132,0-.581.668-.455,1.164.2.838.333,1.7,1.521,1.688q4.733-.033,9.467,0a1.32,1.32,0,0,0,1.434-1.132,15.106,15.106,0,0,0,.21-1.572l-.1-.323-.1.158-.411,0c-.06-.079-.122-.226-.183-.227q-5.125-.053-10.249-.068a2.084,2.084,0,0,0-.712.3Zm.076-21.656c-.251-.173-.39-.27-.533-.367-2.241-1.513-2.291-3.857.044-5.2a8.535,8.535,0,0,1,3.625-1,1.4,1.4,0,0,0,1.543-1.152,31.727,31.727,0,0,1,1.666-4.382c1.788-3.613,4.666-5.695,8.8-5.711,7.692-.028,15.389-.1,23.078.031,4.378.076,7.112,2.711,8.762,6.577a37.478,37.478,0,0,1,1.3,3.722,1.053,1.053,0,0,0,1.293.886,5.537,5.537,0,0,1,4.51,1.534,2.747,2.747,0,0,1-.511,4.592c-.233.151-.458.311-.785.534,2.312,2.48,2.351,5.5,2.3,8.564a8.106,8.106,0,0,0,.5,1.984,9.279,9.279,0,0,1,.456,1.94c.063,1.886.021,3.775.022,5.662a3.5,3.5,0,0,1-1.223,2.839,1.684,1.684,0,0,0-.392.9c-.113.553-.1,1.139-.241,1.683a2.034,2.034,0,0,1-2.3,1.755c-3.1,0-6.2-.091-9.295.032a2.337,2.337,0,0,1-2.673-2.473c-.079-1.12-.5-1.3-1.5-1.3q-12.023.057-24.044,0c-.953,0-1.366.183-1.46,1.243-.129,1.462-.574,2.608-2.836,2.517-2.881-.116-5.771-.026-8.656-.026-2.009,0-2.783-.635-2.946-2.639a3.569,3.569,0,0,0-.882-2.24,4.17,4.17,0,0,1-.772-2.351c-.109-1.881-.056-3.773-.019-5.661a2.793,2.793,0,0,1,.329-1.537c.857-1.143.682-2.416.65-3.671a10.269,10.269,0,0,1,1.158-5.676C163.486,731.238,163.824,730.74,164.21,730.131Z" transform="translate(-161 -712.28)" fill="#f06424"/>
    <path id="Path_23" data-name="Path 23" d="M198.4,738.593a6.507,6.507,0,0,1-1.023.16q-11.789.013-23.58,0a6.263,6.263,0,0,1-1.019-.164l-.021-.079,25.657,0Z" transform="translate(-155.501 -700.013)" fill="#f06424"/>
    <path id="Path_24" data-name="Path 24" d="M203.421,739.39q-5.383-.009-10.767-.022c-.423,0-.847-.047-1.27-.072a3.287,3.287,0,0,1,.928-.3q5.119-.031,10.234.006C202.84,739.006,203.131,739.255,203.421,739.39Z" transform="translate(-146.789 -699.792)" fill="#f06424"/>
    <path id="Path_25" data-name="Path 25" d="M196.155,712.957l-22.237-.007a5.534,5.534,0,0,1,1.01-.182q10.112-.018,20.223,0A5.355,5.355,0,0,1,196.155,712.957Z" transform="translate(-154.958 -712.056)" fill="#f06424"/>
    <path id="Path_26" data-name="Path 26" d="M174.565,739.285l-11.144,0a2.085,2.085,0,0,1,.712-.3c3.415,0,6.832.032,10.247.068C174.443,739.059,174.5,739.206,174.565,739.285Z" transform="translate(-159.868 -699.788)" fill="#f06424"/>
    <path id="Path_27" data-name="Path 27" d="M162.848,738.546l14.115.026a3.99,3.99,0,0,1-.8.163q-6.206.018-12.412,0A4.354,4.354,0,0,1,162.848,738.546Z" transform="translate(-160.136 -699.996)" fill="#f06424"/>
    <path id="Path_28" data-name="Path 28" d="M191.4,738.569l11.973-.016a2.972,2.972,0,0,1-.694.179q-5.288.015-10.576,0A3.207,3.207,0,0,1,191.4,738.569Z" transform="translate(-146.782 -699.992)" fill="#f06424"/>
    <path id="Path_29" data-name="Path 29" d="M192.564,741.161h8.552c-.119.066-.239.186-.36.188q-3.916.015-7.833,0C192.8,741.349,192.683,741.227,192.564,741.161Z" transform="translate(-146.238 -698.773)" fill="#f06424"/>
    <path id="Path_30" data-name="Path 30" d="M163.358,739.2c-.151.387-.3.776-.455,1.164C162.777,739.866,162.226,739.2,163.358,739.2Z" transform="translate(-160.224 -699.691)" fill="#f06424"/>
    <path id="Path_31" data-name="Path 31" d="M171.494,739.4l-.2-.164c.034-.053.068-.106.1-.158Z" transform="translate(-156.186 -699.746)" fill="#f06424"/>
    <path id="Path_32" data-name="Path 32" d="M191.352,739.254l-.254.009c.054-.063.11-.125.167-.188Z" transform="translate(-146.924 -699.748)" fill="#f06424"/>
    <path id="Path_33" data-name="Path 33" d="M188.784,721.685c-6.864,0-13.729.013-20.592-.013a11.607,11.607,0,0,1-2.554-.359c-.26-.06-.44-.465-.656-.712a2.678,2.678,0,0,1,.9-.272c1.211.087,2.416.348,3.622.349q19.233.042,38.462,0c1.246,0,2.492-.267,3.743-.355a2.542,2.542,0,0,1,.879.288c-.182.225-.327.6-.549.649a11.459,11.459,0,0,1-2.544.407C202.591,721.7,195.688,721.685,188.784,721.685Z" transform="translate(-159.137 -708.518)" fill="#f06424"/>
    <path id="Path_34" data-name="Path 34" d="M173.139,737.418c-.953-.691-1.512-2.267-.926-3.18a2.143,2.143,0,0,1,1.572-.749c5.26-.056,10.523-.032,15.785-.032q3.681,0,7.36,0c.9,0,1.848-.1,2.04,1.148a2.484,2.484,0,0,1-1.456,2.935l-.452-.051c.006-.066.007-.132.007-.2l0-.439c0-.06,0-.119.006-.178,1.148-.368,1.18-1.143.776-2.094h-24.7c-.166,1.786.018,2,1.688,2.1,0,.057,0,.113.007.169Z" transform="translate(-155.867 -702.378)" fill="#f06424"/>
    <path id="Path_35" data-name="Path 35" d="M191.3,730.786l.235.27c2.869,0,5.742-.06,8.608.029,1.134.035,1.629-.385,1.738-1.431a11.5,11.5,0,0,0,.092-1.165,1.165,1.165,0,0,0-1.237-1.3,14.485,14.485,0,0,0-8.574,2.363C191.774,729.809,191.583,730.368,191.3,730.786Zm5.08,1.17q-2.237,0-4.478,0a1.327,1.327,0,0,1-1.234-2.146,4.31,4.31,0,0,1,1.434-1.384,16.518,16.518,0,0,1,8.331-2.247c1.83-.018,2.723,1.086,2.52,2.9-.01.106-.028.211-.047.316-.433,2.514-.5,2.567-3.006,2.564Q198.139,731.951,196.381,731.956Z" transform="translate(-147.256 -705.78)" fill="#f06424"/>
    <path id="Path_36" data-name="Path 36" d="M174.884,731.055c.235-1.161-.591-1.546-1.268-1.926a15.354,15.354,0,0,0-7.133-1.959c-1.794-.059-2.269.467-2,2.216a3.473,3.473,0,0,0,.311,1.123,1.032,1.032,0,0,0,.687.522C168.61,731.067,171.739,731.055,174.884,731.055Zm-4.887.9c-1.635,0-3.27-.021-4.9.013a.965.965,0,0,1-1.1-.759,13.679,13.679,0,0,1-.377-1.318c-.514-2.833.38-3.913,3.224-3.7a15.817,15.817,0,0,1,7.641,2.367,4,4,0,0,1,1.434,1.868c.346.95-.213,1.516-1.23,1.521C173.123,731.962,171.56,731.956,170,731.958Z" transform="translate(-159.84 -705.783)" fill="#f06424"/>
    <path id="Path_37" data-name="Path 37" d="M168.541,734.476v-.015a5.467,5.467,0,0,0-1.591.038c-.382.122-.659.578-.982.886.3.292.584.8.913.834a16.908,16.908,0,0,0,3.3-.007,1.187,1.187,0,0,0,.79-.869c-.006-.3-.489-.729-.841-.832A5.869,5.869,0,0,0,168.541,734.476Zm0-1.027c.533,0,1.067-.026,1.6,0a1.939,1.939,0,0,1,1.927,1.883,1.916,1.916,0,0,1-1.873,1.932c-1.135.051-2.273.054-3.408,0a1.824,1.824,0,0,1-1.791-1.876,1.851,1.851,0,0,1,1.845-1.936C167.4,733.418,167.971,733.449,168.539,733.449Z" transform="translate(-159.133 -702.385)" fill="#f06424"/>
    <path id="Path_38" data-name="Path 38" d="M196.115,736.261v-.015a7.8,7.8,0,0,0,1.789-.04,1.155,1.155,0,0,0,.731-.834,1.126,1.126,0,0,0-.718-.843,21.782,21.782,0,0,0-3.487-.016c-.289.023-.779.546-.753.793a1.3,1.3,0,0,0,.756.913A6.1,6.1,0,0,0,196.115,736.261Zm-.023,1.016c-.567,0-1.137.043-1.7-.009a1.928,1.928,0,0,1-1.792-1.9,1.894,1.894,0,0,1,1.794-1.892,32.882,32.882,0,0,1,3.508-.012,1.854,1.854,0,0,1,1.77,1.9,1.883,1.883,0,0,1-1.773,1.909c-.6.051-1.2.009-1.807.009Z" transform="translate(-146.221 -702.391)" fill="#f06424"/>
    <path id="Path_39" data-name="Path 39" d="M196.694,735.769c0,.145,0,.292,0,.437q-10.607,0-21.215,0a5.8,5.8,0,0,0-1.014.175l-1.308.066-.392-.112,1.7-.575Z" transform="translate(-155.496 -701.298)" fill="#f06424"/>
    <path id="Path_40" data-name="Path 40" d="M173.923,735.648l22.237,0c0,.059,0,.117-.006.178l-22.224-.007C173.926,735.76,173.923,735.7,173.923,735.648Z" transform="translate(-154.956 -701.352)" fill="#f06424"/>
    <path id="Path_41" data-name="Path 41" d="M196.15,736.264l-22.224-.022a5.827,5.827,0,0,1,1.014-.175q10.609-.011,21.217,0A1.773,1.773,0,0,1,196.15,736.264Z" transform="translate(-154.955 -701.157)" fill="#f06424"/>
  </g>
</svg>
