<svg xmlns="http://www.w3.org/2000/svg" width="20.3" height="18.045" viewBox="0 0 20.3 18.045">
  <path id="ic_directions_car_24px" d="M20.954,6.139A1.685,1.685,0,0,0,19.353,5H6.947a1.7,1.7,0,0,0-1.6,1.139L3,12.895v9.022a1.131,1.131,0,0,0,1.128,1.128H5.256a1.131,1.131,0,0,0,1.128-1.128V20.789H19.917v1.128a1.131,1.131,0,0,0,1.128,1.128h1.128A1.131,1.131,0,0,0,23.3,21.917V12.895ZM6.947,17.406a1.692,1.692,0,1,1,1.692-1.692A1.689,1.689,0,0,1,6.947,17.406Zm12.406,0a1.692,1.692,0,1,1,1.692-1.692A1.689,1.689,0,0,1,19.353,17.406Zm-14.1-5.639L6.947,6.692H19.353l1.692,5.075Z" transform="translate(-3 -5)"/>
</svg>
