<svg xmlns="http://www.w3.org/2000/svg" width="60.553" height="52.784" viewBox="0 0 60.553 52.784">
  <g id="Group_108" data-name="Group 108" transform="translate(1.13 1.675)">
    <g id="Group_107" data-name="Group 107">
      <g id="Group_106" data-name="Group 106">
        <path id="Path_291" data-name="Path 291" d="M164.892,391.973c0,1.074.01,2.1,0,3.118-.017,1.4-.573,1.963-1.958,1.969q-3.689.017-7.378,0c-1.449-.008-1.995-.531-2-2q-.027-8.415.007-16.831a3.166,3.166,0,0,1,.384-1.349c.763-1.507,1.575-2.989,2.4-4.546-.225-.084-.394-.148-.563-.21-.738-.27-1.487-.51-2.211-.814-1.153-.484-1.292-.873-.767-1.982.173-.366.378-.716.567-1.074a2.492,2.492,0,0,1,2.259-1.376c1.692-.083,3.381-.222,5.073-.3a1.523,1.523,0,0,0,1.194-.62c1.667-1.964,3.375-3.893,5.084-5.82a3.479,3.479,0,0,1,2.844-1.164c8.285.051,16.57.034,24.856.014a2.1,2.1,0,0,1,1.678.625c1.924,2.116,3.842,4.239,5.731,6.387a1.408,1.408,0,0,0,1.07.572c1.692.086,3.381.239,5.073.3A2.735,2.735,0,0,1,210.7,368.4c1.18,2.1,1.073,2.445-1.2,3.276-.6.219-1.206.408-1.93.652.694,1.421,1.39,2.768,2.008,4.149a4.96,4.96,0,0,1,.522,1.89c.051,5.443.044,10.886.052,16.329,0,.167-.013.334-.021.5-.072,1.408-.528,1.857-1.958,1.863q-3.689.016-7.378,0c-1.442-.005-2-.562-2.013-1.984-.009-1.021,0-2.041,0-3.1Zm36.081-19.683a14.057,14.057,0,0,0-.553-1.793,20.99,20.99,0,0,0-5.219-6.735,2.693,2.693,0,0,0-1.9-.658q-11.417.027-22.834,0a2.5,2.5,0,0,0-1.762.641,20.065,20.065,0,0,0-5.33,7.339,8.46,8.46,0,0,0-.291,1.206Zm-5.608,10.491c.878,0,1.684.026,2.488-.005,2.266-.087,4.532-.181,6.8-.3a1.943,1.943,0,0,0,2.132-1.959,23.057,23.057,0,0,0-.035-2.9c-.348,0-.539-.016-.726,0-2.136.214-4.273.412-6.4.66a20.44,20.44,0,0,0-2.8.509,1.67,1.67,0,0,0-1.418,1.266A22.2,22.2,0,0,0,195.365,382.78Zm-38.12-5.229c-.048.93-.144,1.736-.118,2.538.051,1.621.793,2.325,2.4,2.4,1.739.08,3.477.193,5.217.248,1.256.04,2.513.008,3.855.008,0-.688-.031-1.446.009-2.2a1.447,1.447,0,0,0-.778-1.419,3.917,3.917,0,0,0-1.245-.506c-1.218-.214-2.446-.385-3.676-.52C161.067,377.9,159.218,377.739,157.245,377.551Z" transform="translate(-152.505 -346.46)" fill="none" stroke="#e24700" stroke-miterlimit="10" stroke-width="1"/>
        <path id="Path_292" data-name="Path 292" d="M158.746,313.611c-.647-1.268-1.207-2.426-1.828-3.549a2.154,2.154,0,0,0-.822-.818c-1.153-.615-2.341-1.167-3.634-1.8,1.254-.622,2.426-1.166,3.558-1.784a2.467,2.467,0,0,0,.919-.9c.62-1.1,1.166-2.235,1.808-3.487.527,1.034,1.055,1.952,1.472,2.918a3.136,3.136,0,0,0,1.8,1.785c.989.4,1.926.931,3.017,1.469-1.2.589-2.282,1.154-3.393,1.653a2.3,2.3,0,0,0-1.218,1.21C159.922,311.377,159.354,312.421,158.746,313.611Z" transform="translate(-152.462 -300.424)" fill="none" stroke="#e24700" stroke-miterlimit="10" stroke-width="1"/>
        <path id="Path_293" data-name="Path 293" d="M227.593,304.975a5.544,5.544,0,0,0-4.013-3.9,5.556,5.556,0,0,0,3.957-3.971,5.545,5.545,0,0,0,4.036,3.892A5.751,5.751,0,0,0,227.593,304.975Z" transform="translate(-209.202 -297.101)" fill="none" stroke="#e24700" stroke-miterlimit="10" stroke-width="1"/>
      </g>
    </g>
  </g>
</svg>
