<svg id="Group_40" data-name="Group 40" xmlns="http://www.w3.org/2000/svg" width="33.882" height="33.878" viewBox="0 0 33.882 33.878">
  <path id="Path_44" data-name="Path 44" d="M687.711,719.7a78.57,78.57,0,0,0-9.885.689.577.577,0,0,0-.553.375,12.137,12.137,0,0,0-1.107,7.07c.037.259.118.358.392.485a14.682,14.682,0,0,1,8.044,8.894.5.5,0,0,0,.427.4,12.517,12.517,0,0,0,5.812,0,.5.5,0,0,0,.434-.393,14.642,14.642,0,0,1,8.081-8.914c.295-.133.346-.228.345-.426a4.374,4.374,0,0,1,.055-.616c.018-.127.036-.255.045-.383a11.744,11.744,0,0,0-1.329-6.329.35.35,0,0,0-.192-.124A77.508,77.508,0,0,0,687.711,719.7Zm.229,18.814a13.216,13.216,0,0,1-3.039-.357,1.049,1.049,0,0,1-.827-.763,14.142,14.142,0,0,0-7.749-8.568,1.074,1.074,0,0,1-.711-.914,12.847,12.847,0,0,1,1.154-7.386,1.125,1.125,0,0,1,.982-.69,79.156,79.156,0,0,1,9.958-.694h0a78.15,78.15,0,0,1,10.646.734.881.881,0,0,1,.609.419,12.289,12.289,0,0,1,1.39,6.626c-.009.141-.029.281-.048.421a3.781,3.781,0,0,0-.049.536.963.963,0,0,1-.673.937A14.1,14.1,0,0,0,691.8,737.4a1.049,1.049,0,0,1-.833.756A13.172,13.172,0,0,1,687.94,738.513Z" transform="translate(-671 -709.122)" fill="#006478"/>
  <path id="Path_45" data-name="Path 45" d="M687.948,709.68c-.174,0-.348,0-.524.008a16.248,16.248,0,0,0-14.08,9.03,78.874,78.874,0,0,1,29.2,0A16.386,16.386,0,0,0,687.948,709.68Zm15.533,9.787-.517-.1a78.33,78.33,0,0,0-30.032,0l-.505.1.194-.477a16.84,16.84,0,0,1,30.653,0Z" transform="translate(-671 -709.122)" fill="#006478"/>
  <path id="Path_46" data-name="Path 46" d="M703.955,729.474a12.473,12.473,0,0,0-11.069,12.2,16.441,16.441,0,0,0,11.069-12.2ZM692.32,742.436l0-.378A12.958,12.958,0,0,1,695.807,733a12.788,12.788,0,0,1,8.471-4.125l.373-.037-.072.368a16.665,16.665,0,0,1-3.793,7.874,16.849,16.849,0,0,1-8.1,5.244Z" transform="translate(-671 -709.122)" fill="#006478"/>
  <path id="Path_47" data-name="Path 47" d="M671.949,729.485A16.269,16.269,0,0,0,683,741.65a12.4,12.4,0,0,0-4.167-9.085A12.052,12.052,0,0,0,671.949,729.485Zm11.619,12.9-.357-.1a16.8,16.8,0,0,1-11.876-13.076l-.057-.353.356.03a12.636,12.636,0,0,1,7.569,3.258,12.992,12.992,0,0,1,4.361,9.868Z" transform="translate(-671 -709.122)" fill="#006478"/>
  <path id="Path_48" data-name="Path 48" d="M671.592,727.042l2.141.316a14.613,14.613,0,0,1,.9-6.453l-.079.018a5.97,5.97,0,0,1-1.178.187c-.921.02-1.319.415-1.472,1.456A19.755,19.755,0,0,0,671.592,727.042Zm2.771.973-3.285-.485-.022-.216a19.5,19.5,0,0,1,.3-4.808c.132-.9.477-1.92,2.015-1.954a5.579,5.579,0,0,0,1.067-.174c.191-.043.388-.087.6-.127l.5-.094-.191.473a14.168,14.168,0,0,0-1.018,7.026Z" transform="translate(-671 -709.122)" fill="#006478"/>
  <path id="Path_49" data-name="Path 49" d="M701.234,720.893a14.653,14.653,0,0,1,.911,6.469l2.137-.321c.016-.147.033-.285.036-.422a17.577,17.577,0,0,0-.554-4.831c-.095-.379-.2-.488-.535-.532-.569-.076-1.126-.189-1.715-.307Zm.282,7.127.039-.36a14.2,14.2,0,0,0-1.024-7.034l-.192-.474.5.1c.268.051.527.1.782.155.58.117,1.128.227,1.678.3a1.088,1.088,0,0,1,1,.949,18.358,18.358,0,0,1,.571,4.982c0,.163-.022.321-.041.474-.007.068-.016.136-.022.2l-.021.216Z" transform="translate(-671 -709.122)" fill="#006478"/>
  <path id="Path_50" data-name="Path 50" d="M685.369,742.212a14.481,14.481,0,0,0,5.141-.006l.093-2.128a14.753,14.753,0,0,1-5.329,0Zm2.575.788a11.216,11.216,0,0,1-2.929-.308l-.186-.058-.144-3.239.349.072a14.288,14.288,0,0,0,5.807,0l.351-.072-.141,3.223-.178.063A10.432,10.432,0,0,1,687.944,743Z" transform="translate(-671 -709.122)" fill="#006478"/>
  <path id="Path_51" data-name="Path 51" d="M687.933,723.653a2.445,2.445,0,0,0-2.4,2.374,2.4,2.4,0,0,0,.7,1.707,2.421,2.421,0,0,0,1.707.736h0a2.409,2.409,0,0,0,.024-4.817Zm.006,5.375h-.005a3.006,3.006,0,0,1-2.962-3.011,2.967,2.967,0,1,1,2.967,3.011Zm0-7.166a4.2,4.2,0,1,0,0,8.4h0a4.2,4.2,0,1,0,.005-8.4Zm0,8.957h0a4.757,4.757,0,1,1,0-9.515h0a4.757,4.757,0,0,1-.005,9.515Z" transform="translate(-671 -709.122)" fill="#006478"/>
</svg>
