<svg id="Group_39" data-name="Group 39" xmlns="http://www.w3.org/2000/svg" width="40.396" height="28.87" viewBox="0 0 40.396 28.87">
  <path id="Path_42" data-name="Path 42" d="M412,735.17a1.093,1.093,0,0,1,.914.431c.807.988,1.671,2.04,2.57,3.076a.745.745,0,0,0,.429.247c2.456.024,4.977.028,7.705.011a1.358,1.358,0,0,0,1.4-1.444c0-.955,0-1.911,0-2.866l0-1.982h3.649V734.2c0,.608,0,1.216,0,1.824,0,.333.054.384.39.385.282,0,.564,0,.846,0,.573,0,1.166-.01,1.751.015.328.014.462-.079.6-.413a18.109,18.109,0,0,0,1.39-5.468,17.767,17.767,0,0,0-1.441-8.79c-.117-.266-.23-.316-.4-.317h-.677c-.7,0-1.4-.005-2.107.005-.268,0-.357.06-.361.391,0,.552,0,1.1,0,1.658,0,.322,0,.643,0,.965,0,.106-.006.211-.011.32l-.022.461h-3.612v-2.023c0-.962,0-1.924,0-2.886a1.328,1.328,0,0,0-1.377-1.374c-.715-.006-1.431,0-2.146,0h-1.727v-2.559c0-.431-.032-.462-.475-.462h-5.865c-.1,0-.209-.007-.309-.012l-.447-.022V711.9h1.83q1.318,0,2.635,0c.254,0,.386-.077.391-.227a.179.179,0,0,0-.051-.144.482.482,0,0,0-.345-.106q-4.715-.006-9.432,0a.521.521,0,0,0-.345.088.2.2,0,0,0-.048.159c0,.113,0,.229.4.23q1.311,0,2.622,0h1.807v4.025h-6.258a2.213,2.213,0,0,0-.776.074,2.166,2.166,0,0,0-.073.763v2.07l-.327.083a.535.535,0,0,1-.153.026c-.316,0-.633.005-.95.01-.728.011-1.482.022-2.226-.017a1.487,1.487,0,0,0-1.143.391,1.635,1.635,0,0,0-.464,1.216c.027,1.373.021,2.767.016,4.116,0,.571-.005,1.144-.005,1.716v.781h-4.634v-1.822q0-1.317,0-2.633a.488.488,0,0,0-.1-.333.188.188,0,0,0-.158-.048c-.092,0-.219.008-.219.385q0,4.718,0,9.434a.51.51,0,0,0,.094.365c.012.013.035.036.136.044.2,0,.245-.223.245-.409q0-1.316,0-2.632v-1.815h4.634v2.28q0,1.8,0,3.61a1.413,1.413,0,0,0,1.589,1.6h1.567q4.527,0,9.055-.007Zm8.308,4.448c-1.508,0-2.966-.008-4.4-.022a1.39,1.39,0,0,1-.931-.479c-.9-1.043-1.772-2.1-2.583-3.09a.428.428,0,0,0-.4-.184q-4.529.013-9.057.007h-1.567a2.082,2.082,0,0,1-2.261-2.268q0-1.8,0-3.61v-1.608h-3.288v1.143c0,.878,0,1.756,0,2.635a.956.956,0,0,1-.915,1.078h0a.842.842,0,0,1-.609-.24,1.148,1.148,0,0,1-.291-.84q0-4.719,0-9.436c0-.95.663-1.048.866-1.056a.87.87,0,0,1,.648.235,1.109,1.109,0,0,1,.3.816q0,1.317,0,2.635v1.15h3.288v-.109c0-.573,0-1.146.005-1.719.006-1.345.012-2.735-.016-4.1a2.314,2.314,0,0,1,.669-1.713,2.134,2.134,0,0,1,1.647-.579c.721.037,1.463.026,2.18.016.256,0,.512-.008.768-.01v-1.507c0-1.3.213-1.51,1.521-1.51h5.586v-2.68h-1.134q-1.314,0-2.625,0c-.965,0-1.073-.629-1.074-.9a.87.87,0,0,1,.244-.636,1.11,1.11,0,0,1,.821-.288q4.717,0,9.434,0a1.132,1.132,0,0,1,.828.312.861.861,0,0,1,.239.634.941.941,0,0,1-1.061.876c-.879,0-1.758,0-2.638,0h-1.157v2.678h.085l5.865,0c.812,0,1.145.329,1.146,1.133,0,.5,0,.994,0,1.509v.379H421.5c.717,0,1.434,0,2.152,0a2,2,0,0,1,2.044,2.044c0,.963,0,1.926,0,2.89v1.35h2.3c0-.037,0-.074,0-.11q0-.481,0-.964c0-.554,0-1.109,0-1.663a.952.952,0,0,1,1.023-1.058c.706-.01,1.412-.008,2.118-.006l.676,0a1.049,1.049,0,0,1,1.012.719,18.44,18.44,0,0,1,1.494,9.119,18.758,18.758,0,0,1-1.439,5.669,1.2,1.2,0,0,1-1.251.825c-.568-.024-1.152-.02-1.716-.014-.285,0-.569,0-.854,0a.935.935,0,0,1-1.061-1.05q-.008-.916,0-1.833v-.884h-2.3v1.31c0,.956,0,1.912,0,2.867a2.016,2.016,0,0,1-2.073,2.115C422.483,739.614,421.382,739.618,420.307,739.618Z" transform="translate(-394 -710.748)" fill="#007500"/>
  <path id="Path_43" data-name="Path 43" d="M415.888,721.084a.762.762,0,0,0-.339.113q-3.335,1.836-6.666,3.675c-.216.118-.3.225-.3.285s.057.174.245.322l2.467,1.938-.558,1.154c-.368.761-.73,1.508-1.094,2.254-.165.335-.128.394-.045.477s.146.122.487-.077q1.756-1.02,3.516-2.037l2.505-1.451c.309-.18.335-.288.336-.308s0-.137-.288-.386l-2.284-1.993.144-.241q.252-.42.5-.834c.492-.818.957-1.59,1.41-2.389a.656.656,0,0,0,.055-.437c-.017-.049-.034-.055-.04-.058A.147.147,0,0,0,415.888,721.084Zm-6.164,10.961a.833.833,0,0,1-.6-.264,1,1,0,0,1-.089-1.252c.365-.744.726-1.491,1.093-2.251l.323-.667-2.042-1.6a1.061,1.061,0,0,1-.5-.905,1.074,1.074,0,0,1,.648-.819q3.333-1.839,6.668-3.675a1.143,1.143,0,0,1,.953-.144.734.734,0,0,1,.434.465,1.3,1.3,0,0,1-.1.989c-.459.807-.948,1.618-1.421,2.4-.117.2-.237.394-.355.592l1.86,1.623a1.162,1.162,0,0,1,.515.957,1.135,1.135,0,0,1-.668.825l-2.505,1.452q-1.758,1.017-3.515,2.037A1.426,1.426,0,0,1,409.724,732.045Z" transform="translate(-394 -710.748)" fill="#007500"/>
</svg>
