<svg id="Group_44" data-name="Group 44" xmlns="http://www.w3.org/2000/svg" width="31.221" height="31.209" viewBox="0 0 31.221 31.209">
  <g id="Group_43" data-name="Group 43" transform="translate(9.831 10.285)">
    <path id="Path_71" data-name="Path 71" d="M687.368,887.962a1.2,1.2,0,0,1-.2.032q-2.346,0-4.693,0a1.311,1.311,0,0,1-.2-.032l0-.016h5.106Z" transform="translate(-678.831 -880.285)" fill="#700"/>
    <path id="Path_72" data-name="Path 72" d="M690.1,888.165l-2.142,0c-.084,0-.169-.01-.253-.015a.662.662,0,0,1,.185-.059q1.019-.006,2.036,0C689.986,888.088,690.043,888.138,690.1,888.165Z" transform="translate(-678.831 -880.285)" fill="#700"/>
    <path id="Path_74" data-name="Path 74" d="M681.757,888.145h-2.218c.047-.021.094-.06.141-.06.68,0,1.36.007,2.04.014C681.732,888.1,681.744,888.129,681.757,888.145Z" transform="translate(-678.831 -880.285)" fill="#700"/>
    <path id="Path_75" data-name="Path 75" d="M679.371,887.957l2.809.005a.807.807,0,0,1-.16.032q-1.234,0-2.47,0A.878.878,0,0,1,679.371,887.957Z" transform="translate(-678.831 -880.285)" fill="#700"/>
    <path id="Path_76" data-name="Path 76" d="M687.711,887.962l2.383,0a.6.6,0,0,1-.139.035q-1.051,0-2.1,0A.641.641,0,0,1,687.711,887.962Z" transform="translate(-678.831 -880.285)" fill="#700"/>
    <path id="Path_77" data-name="Path 77" d="M688.05,888.72h1.7c-.023.013-.047.037-.071.037q-.78,0-1.559,0C688.1,888.758,688.074,888.733,688.05,888.72Z" transform="translate(-678.831 -880.285)" fill="#700"/>
    <path id="Path_78" data-name="Path 78" d="M679.455,888.147l-.09.232C679.34,888.28,679.23,888.148,679.455,888.147Z" transform="translate(-678.831 -880.285)" fill="#700"/>
    <path id="Path_79" data-name="Path 79" d="M681.878,888.177l-.04-.033.02-.031Z" transform="translate(-678.831 -880.285)" fill="#700"/>
    <path id="Path_80" data-name="Path 80" d="M687.673,888.147h-.051l.034-.037Z" transform="translate(-678.831 -880.285)" fill="#700"/>
    <g id="Group_42" data-name="Group 42">
      <path id="Path_70" data-name="Path 70" d="M679.371,887.957a.878.878,0,0,0,.179.037q1.234,0,2.47,0a.807.807,0,0,0,.16-.032h.09a1.28,1.28,0,0,0,.2.032q2.346,0,4.693,0a1.187,1.187,0,0,0,.2-.032h.343a.641.641,0,0,0,.14.032q1.051,0,2.1,0a.538.538,0,0,0,.139-.036.508.508,0,0,0,.344-.546c-.014-.361,0-.723-.007-1.084a.421.421,0,0,0-.06-.26.6.6,0,0,1-.14-.51,1.96,1.96,0,0,0-.514-1.7c-.018-.017.019-.128.058-.166s.118-.042.175-.068c.351-.158.4-.507.071-.7a2.394,2.394,0,0,0-.677-.194c-.037-.008-.092.055-.137.089s-.067.058-.1.088a.57.57,0,0,1-.087-.126c-.1-.288-.168-.588-.294-.863a4.578,4.578,0,0,0-.505-.875,1.679,1.679,0,0,0-1.191-.572,1,1,0,0,0-.2-.038q-2.012,0-4.024,0a1.114,1.114,0,0,0-.2.036,1.9,1.9,0,0,0-1.863,1.428c-.106.3-.2.6-.3.905a.421.421,0,0,1-.084.108c-.032-.03-.063-.061-.1-.09s-.074-.086-.115-.09a.97.97,0,0,0-.769.234.355.355,0,0,0,.03.594.809.809,0,0,0,.248.113c.164.049.17.121.055.235a1.336,1.336,0,0,0-.424.767,8.728,8.728,0,0,0-.047.929.619.619,0,0,1-.128.453.463.463,0,0,0-.075.277c-.008.369,0,.737-.006,1.105A.5.5,0,0,0,679.371,887.957Zm10.73.208c-.058-.027-.115-.076-.174-.077q-1.017-.008-2.036,0a.662.662,0,0,0-.185.059.042.042,0,0,1-.033,0l-.017-.036-.033.037c-.071.351.018.615.428.572.023.013.047.038.071.038q.78,0,1.559,0c.024,0,.048-.024.072-.037.143,0,.268-.042.306-.191A2.32,2.32,0,0,0,690.1,888.165Zm-10.646-.018c-.225,0-.115.133-.09.232.039.166.066.337.3.336q.942-.008,1.884,0a.264.264,0,0,0,.286-.225c.023-.1.028-.209.041-.313l-.02-.064-.02.031h-.082c-.012-.016-.024-.045-.036-.045-.68-.007-1.36-.013-2.04-.014-.047,0-.094.039-.141.06Zm.015-4.31-.1-.072a.562.562,0,0,1,.008-1.035,1.7,1.7,0,0,1,.722-.2.277.277,0,0,0,.306-.229,6.452,6.452,0,0,1,.332-.872,1.859,1.859,0,0,1,1.75-1.137c1.531-.005,3.063-.02,4.593.006a1.881,1.881,0,0,1,1.744,1.309,7.632,7.632,0,0,1,.259.741.209.209,0,0,0,.257.176,1.108,1.108,0,0,1,.9.3.547.547,0,0,1-.1.914c-.046.03-.091.062-.156.107a2.239,2.239,0,0,1,.459,1.7,1.641,1.641,0,0,0,.1.395,1.837,1.837,0,0,1,.091.386c.012.375,0,.751,0,1.127a.7.7,0,0,1-.243.565.33.33,0,0,0-.078.179c-.022.11-.019.226-.048.335a.4.4,0,0,1-.457.349c-.616,0-1.234-.018-1.849.006a.464.464,0,0,1-.532-.492c-.016-.222-.1-.259-.3-.258q-2.393.012-4.785,0c-.189,0-.272.037-.291.248-.025.291-.113.519-.564.5-.573-.023-1.148-.006-1.722-.006-.4,0-.554-.126-.586-.525a.717.717,0,0,0-.176-.445.841.841,0,0,1-.154-.468c-.021-.375-.011-.751,0-1.127a.556.556,0,0,1,.065-.3,1.059,1.059,0,0,0,.129-.731,2.046,2.046,0,0,1,.231-1.129C679.326,884.058,679.393,883.959,679.47,883.837Z" transform="translate(-678.831 -880.285)" fill="#700"/>
      <path id="Path_73" data-name="Path 73" d="M687.03,880.464H682.6a1.089,1.089,0,0,1,.2-.036q2.011,0,4.024,0A1.067,1.067,0,0,1,687.03,880.464Z" transform="translate(-678.831 -880.285)" fill="#700"/>
      <path id="Path_81" data-name="Path 81" d="M684.731,882.905c-1.366,0-2.731,0-4.1,0a2.262,2.262,0,0,1-.509-.071c-.051-.012-.087-.092-.13-.142a.545.545,0,0,1,.179-.054c.241.018.481.07.721.07q3.826.008,7.654,0c.248,0,.495-.053.744-.071a.489.489,0,0,1,.175.058c-.036.045-.065.119-.109.129a2.31,2.31,0,0,1-.506.081C687.479,882.908,686.1,882.905,684.731,882.905Z" transform="translate(-678.831 -880.285)" fill="#700"/>
      <path id="Path_82" data-name="Path 82" d="M682.269,887.258a.53.53,0,0,1-.185-.633.426.426,0,0,1,.313-.149c1.047-.011,2.094-.006,3.141-.007H687c.179,0,.368-.021.406.229a.494.494,0,0,1-.29.584l-.09-.011c0-.013,0-.026,0-.039v-.122c.228-.074.235-.228.154-.417H682.27c-.033.355,0,.4.336.417v.034Z" transform="translate(-678.831 -880.285)" fill="#700"/>
      <path id="Path_83" data-name="Path 83" d="M687.6,885.261l.046.054c.572,0,1.143-.012,1.713.006.226.007.325-.076.346-.285a2.245,2.245,0,0,0,.019-.232.232.232,0,0,0-.246-.258,2.887,2.887,0,0,0-1.707.47C687.691,885.067,687.653,885.178,687.6,885.261Zm1.01.233h-.89a.265.265,0,0,1-.247-.427.865.865,0,0,1,.286-.275,3.3,3.3,0,0,1,1.658-.448.46.46,0,0,1,.5.577c0,.021-.005.042-.009.063-.086.5-.1.511-.6.51Z" transform="translate(-678.831 -880.285)" fill="#700"/>
      <path id="Path_84" data-name="Path 84" d="M681.825,885.314c.048-.231-.117-.307-.252-.383a3.053,3.053,0,0,0-1.419-.39c-.357-.011-.452.093-.4.441a.679.679,0,0,0,.062.224.2.2,0,0,0,.136.1C680.577,885.316,681.2,885.314,681.825,885.314Zm-.972.18c-.325,0-.651,0-.976,0a.191.191,0,0,1-.219-.151,2.681,2.681,0,0,1-.075-.262c-.1-.563.076-.778.642-.735a3.144,3.144,0,0,1,1.521.471.8.8,0,0,1,.285.372c.069.189-.042.3-.245.3C681.475,885.495,681.164,885.494,680.853,885.494Z" transform="translate(-678.831 -880.285)" fill="#700"/>
      <path id="Path_85" data-name="Path 85" d="M680.7,886.671v0a1.071,1.071,0,0,0-.316.008c-.076.024-.131.115-.2.176.061.058.117.16.182.166a3.357,3.357,0,0,0,.657,0,.235.235,0,0,0,.157-.173c0-.059-.1-.145-.166-.166A1.2,1.2,0,0,0,680.7,886.671Zm0-.2c.106,0,.212-.006.318,0a.38.38,0,0,1,.011.759c-.226.01-.453.01-.678,0a.364.364,0,0,1-.357-.374.368.368,0,0,1,.367-.385C680.477,886.461,680.59,886.467,680.7,886.467Z" transform="translate(-678.831 -880.285)" fill="#700"/>
      <path id="Path_86" data-name="Path 86" d="M688.76,887.025v0a1.572,1.572,0,0,0,.357-.007.234.234,0,0,0,.145-.166.223.223,0,0,0-.143-.168,4.229,4.229,0,0,0-.694,0c-.057,0-.155.108-.149.157a.256.256,0,0,0,.15.182A1.2,1.2,0,0,0,688.76,887.025Zm0,.2c-.113,0-.226.008-.338,0a.384.384,0,0,1-.357-.378.377.377,0,0,1,.357-.377,6.494,6.494,0,0,1,.7,0,.369.369,0,0,1,.352.379.375.375,0,0,1-.353.38c-.118.01-.239,0-.359,0Z" transform="translate(-678.831 -880.285)" fill="#700"/>
    </g>
    <path id="Path_87" data-name="Path 87" d="M687.03,887.145c0,.029,0,.058,0,.087h-4.222a1.169,1.169,0,0,0-.2.035l-.26.013-.078-.022.339-.114Z" transform="translate(-678.831 -880.285)" fill="#700"/>
    <path id="Path_88" data-name="Path 88" d="M682.606,887.11h4.425v.035h-4.423C682.606,887.132,682.606,887.121,682.606,887.11Z" transform="translate(-678.831 -880.285)" fill="#700"/>
    <path id="Path_89" data-name="Path 89" d="M687.03,887.271l-4.423,0a1.169,1.169,0,0,1,.2-.035h4.222C687.031,887.245,687.031,887.258,687.03,887.271Z" transform="translate(-678.831 -880.285)" fill="#700"/>
  </g>
  <path id="Path_90" data-name="Path 90" d="M684.354,873.93h-.019a2.327,2.327,0,0,0-2.285,2.289,2.227,2.227,0,0,0,.657,1.6,2.313,2.313,0,0,0,1.634.7h0a2.3,2.3,0,0,0,.01-4.59Zm-.01,5.1h0a2.834,2.834,0,0,1-2-.849,2.74,2.74,0,0,1-.8-1.972,2.845,2.845,0,0,1,2.8-2.795,2.808,2.808,0,1,1,.012,5.616Zm8.535-5.1h-.006a2.3,2.3,0,1,0,.02,4.59,2.309,2.309,0,0,0,2.279-2.291,2.319,2.319,0,0,0-2.293-2.3Zm-.006,5.1a2.766,2.766,0,0,1-1.958-.8,2.811,2.811,0,0,1,1.956-4.813h.008a2.832,2.832,0,0,1,2.806,2.814,2.824,2.824,0,0,1-2.788,2.8Zm5.121,1.729a2.281,2.281,0,0,0-1.635.683,2.228,2.228,0,0,0-.655,1.6,2.262,2.262,0,0,0,2.3,2.3,2.2,2.2,0,0,0,1.578-.641,2.346,2.346,0,0,0,.708-1.64,2.248,2.248,0,0,0-.662-1.611,2.285,2.285,0,0,0-1.629-.691Zm.042,5.1H698a2.792,2.792,0,0,1-2.807-2.8,2.742,2.742,0,0,1,.8-1.972,2.8,2.8,0,0,1,2-.835H698a2.8,2.8,0,0,1,1.994.843,2.757,2.757,0,0,1,.808,1.978,2.856,2.856,0,0,1-.861,2A2.719,2.719,0,0,1,698.036,885.858Zm-18.808-5.1a2.3,2.3,0,0,0,0,4.59h0a2.307,2.307,0,0,0,2.292-2.281,2.3,2.3,0,0,0-2.281-2.309Zm0,5.1a2.807,2.807,0,0,1,0-5.615h.014a2.808,2.808,0,0,1,2.791,2.826,2.822,2.822,0,0,1-2.8,2.789Zm-5.712.748q.027.2.051.4c.037.29.075.59.122.881a14.959,14.959,0,0,0,5.966,9.87,14.6,14.6,0,0,0,6.868,2.8,14.1,14.1,0,0,0,2.14.131,2.288,2.288,0,0,0,1.758-3.7,3.332,3.332,0,0,1-.764-1.58,2.8,2.8,0,0,1,2.771-3.228c.462-.006.929,0,1.383,0,.49,0,1,.005,1.494,0a8.336,8.336,0,0,0,8.358-9.337,12.33,12.33,0,0,0-2.623-6.547,14.845,14.845,0,0,0-6.993-4.894,15.813,15.813,0,0,0-4.111-.839,1.094,1.094,0,0,1-.226-.043l-.046-.011h-2.053l-.4.051c-.288.037-.586.075-.876.122a15.138,15.138,0,0,0-12.681,12.819c-.037.253-.067.507-.1.761l-.041.34Zm14.936,14.6a14.568,14.568,0,0,1-2-.137,15.1,15.1,0,0,1-7.106-2.9,15.453,15.453,0,0,1-6.164-10.2c-.049-.3-.087-.6-.125-.9-.017-.136-.035-.273-.053-.409l0-.035v-2.071l.044-.354c.031-.259.062-.517.1-.775a15.648,15.648,0,0,1,13.107-13.25c.3-.049.6-.087.893-.124l.411-.054.035,0,2.154.006.09.022a.756.756,0,0,0,.132.027,16.281,16.281,0,0,1,4.245.867,15.343,15.343,0,0,1,7.229,5.063,12.828,12.828,0,0,1,2.73,6.815,8.848,8.848,0,0,1-8.859,9.9c-.5.009-1.014.006-1.507,0-.451,0-.916-.005-1.373,0a2.283,2.283,0,0,0-2.269,2.647,2.8,2.8,0,0,0,.662,1.335,2.8,2.8,0,0,1-2.157,4.524Z" transform="translate(-673 -870)" fill="#700"/>
</svg>
