<svg id="Group_144" data-name="Group 144" xmlns="http://www.w3.org/2000/svg" width="52.998" height="47.673" viewBox="0 0 52.998 47.673">
  <g id="Group_47" data-name="Group 47">
    <path id="Path_66" data-name="Path 66" d="M162.978,914.805h9.807q19.61,0,39.222.005h0c.6,0,.914-.131,1.127-.478v-.4c-.192-.354-.487-.489-1.048-.489h-.008q-6.656.018-13.31.01h-5v-18.3h.432c.21,0,.417,0,.622-.005.441-.007.9-.012,1.347.01a3.253,3.253,0,0,1,3.073,3.115c.028.8.025,1.6.022,2.38l0,.689a5.425,5.425,0,0,0,5.725,5.551,5.319,5.319,0,0,0,4.976-4.915c.043-4.726.039-9.533.033-14.181l0-3.633a6.567,6.567,0,0,0-1.736-4.436q-2.043-2.322-4.079-4.65l-2.2-2.508c-.54-.617-1.084-1.232-1.636-1.858l-.383-.436-1,.881,6.788,7.747-.693.168A4.063,4.063,0,0,0,202.305,881a3.859,3.859,0,0,0-.331,3.318,3.649,3.649,0,0,0,1.769,2.125,4.06,4.06,0,0,0,4.284-.18l.649-.378v4.241q0,5.272,0,10.547c0,.412-.02.839-.06,1.305a3.979,3.979,0,0,1-3.864,3.565,3.887,3.887,0,0,1-4.036-3.329c-.071-.681-.073-1.371-.076-2.037,0-.571,0-1.161-.051-1.729a5.68,5.68,0,0,0-.481-1.993,4.534,4.534,0,0,0-4.36-2.658c-.353,0-.706,0-1.068,0h-.941v-5.033q0-7.616-.007-15.233a5.892,5.892,0,0,0-.132-1.452,4.086,4.086,0,0,0-4.2-3.209c-5.922-.009-12.4-.009-19.8,0a4.1,4.1,0,0,0-2.705.891,4.3,4.3,0,0,0-1.584,3.6q.014,14.913.008,29.823v10.267l-1.17,0c-.525,0-1.025-.005-1.522.005a.683.683,0,0,0-.757.623c-.024.367.235.638.674.708a2.415,2.415,0,0,0,.361.016Zm49.03.869h0q-19.612-.008-39.222-.007H162.9a3.021,3.021,0,0,1-.5-.026,1.527,1.527,0,0,1,.2-3.046c.505-.009,1.009-.008,1.542-.005h.3v-9.4q0-14.911-.008-29.822a5.178,5.178,0,0,1,1.9-4.273,4.983,4.983,0,0,1,3.251-1.085c7.4-.009,13.882-.01,19.805,0a4.954,4.954,0,0,1,5.033,3.853,6.606,6.606,0,0,1,.161,1.67q.012,7.618.007,15.234v4.169h.076c.365,0,.72,0,1.076,0a5.4,5.4,0,0,1,5.13,3.143,6.524,6.524,0,0,1,.565,2.3c.05.6.051,1.211.054,1.8a18.9,18.9,0,0,0,.072,1.949,3.126,3.126,0,0,0,6.181-.218c.038-.443.056-.848.056-1.233q0-5.274,0-10.547v-2.781a4.792,4.792,0,0,1-4.486-.146,4.548,4.548,0,0,1-2.173-2.613,4.825,4.825,0,0,1,3.033-6.148l-6.443-7.351,2.292-2.023.954,1.084c.554.627,1.1,1.242,1.639,1.859l2.2,2.508q2.037,2.326,4.078,4.65a7.406,7.406,0,0,1,1.951,5l0,3.633c.005,4.651.01,9.461-.033,14.19a6.215,6.215,0,0,1-5.794,5.767,6.288,6.288,0,0,1-6.635-6.411l0-.693c0-.771.005-1.568-.022-2.346a2.384,2.384,0,0,0-2.253-2.283c-.422-.021-.845-.016-1.294-.01l-.2,0V912.59h4.139q6.654,0,13.307-.01h.012a1.86,1.86,0,0,1,1.871,1.07l.039.087v.809l-.049.093A1.982,1.982,0,0,1,212.009,915.674Z" transform="translate(-161 -868)" fill="#006478"/>
    <path id="Path_67" data-name="Path 67" d="M195.7,878.306a1.757,1.757,0,0,0-1.258.53,1.705,1.705,0,0,0-.495,1.232,1.787,1.787,0,0,0,1.753,1.751,1.722,1.722,0,0,0,1.228-.5,1.766,1.766,0,0,0,.526-1.266,1.712,1.712,0,0,0-1.749-1.747Zm.018,4.377h-.029a2.656,2.656,0,0,1-2.606-2.6,2.56,2.56,0,0,1,.741-1.85,2.617,2.617,0,0,1,1.872-.79h.009a2.621,2.621,0,0,1,1.828,4.489A2.561,2.561,0,0,1,195.714,882.683Z" transform="translate(-150.993 -865.055)" fill="#006478"/>
    <path id="Path_68" data-name="Path 68" d="M177.924,887.068h2.554q3.4,0,6.812,0c.743,0,.947-.207.947-.966q0-6.083,0-12.166c0-.781-.194-.971-.989-.971H168.565c-.786,0-1,.207-1,.963q-.01,6.083,0,12.166c0,.765.215.974,1,.975Zm5.1.863H168.558a1.626,1.626,0,0,1-1.86-1.835q-.008-6.085,0-12.168c0-1.245.6-1.824,1.867-1.825h18.684c1.263,0,1.852.584,1.852,1.834q0,6.083,0,12.166a1.6,1.6,0,0,1-1.81,1.829Z" transform="translate(-159.224 -866.721)" fill="#006478"/>
  </g>
</svg>
