<svg id="Group_41" data-name="Group 41" xmlns="http://www.w3.org/2000/svg" width="31.221" height="31.209" viewBox="0 0 31.221 31.209">
  <path id="Path_65" data-name="Path 65" d="M684.354,795.851h-.019a2.327,2.327,0,0,0-2.285,2.289,2.227,2.227,0,0,0,.657,1.6,2.313,2.313,0,0,0,1.634.7h0a2.292,2.292,0,0,0,1.6-3.928A2.247,2.247,0,0,0,684.354,795.851Zm-.01,5.1h0a2.83,2.83,0,0,1-2-.849,2.741,2.741,0,0,1-.8-1.972,2.845,2.845,0,0,1,2.8-2.795,2.808,2.808,0,1,1,.012,5.616Zm8.535-5.1h-.006a2.3,2.3,0,0,0-2.284,2.306,2.281,2.281,0,1,0,2.29-2.306Zm-.006,5.1a2.766,2.766,0,0,1-1.958-.8,2.811,2.811,0,0,1,1.956-4.813h.008a2.832,2.832,0,0,1,2.806,2.814,2.824,2.824,0,0,1-2.788,2.8Zm5.121,1.729a2.286,2.286,0,0,0-1.635.683,2.228,2.228,0,0,0-.655,1.6,2.262,2.262,0,0,0,2.3,2.3,2.2,2.2,0,0,0,1.578-.641,2.344,2.344,0,0,0,.708-1.64,2.252,2.252,0,0,0-.662-1.611,2.285,2.285,0,0,0-1.629-.691Zm.042,5.1H698a2.792,2.792,0,0,1-2.807-2.8,2.741,2.741,0,0,1,.8-1.972,2.8,2.8,0,0,1,2-.835H698a2.8,2.8,0,0,1,1.994.843,2.757,2.757,0,0,1,.808,1.978,2.855,2.855,0,0,1-.861,2A2.719,2.719,0,0,1,698.036,807.779Zm-18.808-5.1a2.3,2.3,0,0,0,0,4.59h0a2.307,2.307,0,0,0,2.292-2.281,2.3,2.3,0,0,0-2.281-2.309Zm0,5.1a2.809,2.809,0,0,1,0-5.617h.014A2.812,2.812,0,0,1,682.033,805a2.824,2.824,0,0,1-2.8,2.79Zm-5.712.747q.027.2.051.4c.037.29.075.59.122.881a14.962,14.962,0,0,0,5.966,9.87,14.6,14.6,0,0,0,6.868,2.8,14.23,14.23,0,0,0,2.14.131,2.288,2.288,0,0,0,1.758-3.7,3.327,3.327,0,0,1-.764-1.58,2.8,2.8,0,0,1,2.771-3.227c.462-.007.929-.005,1.383,0,.49,0,1,.005,1.494-.005a8.334,8.334,0,0,0,8.358-9.336,12.333,12.333,0,0,0-2.623-6.547,14.844,14.844,0,0,0-6.993-4.894,15.813,15.813,0,0,0-4.111-.839,1.1,1.1,0,0,1-.226-.043l-.046-.011h-2.053c-.133.018-.266.034-.4.051-.288.037-.586.076-.876.122a15.138,15.138,0,0,0-12.681,12.819c-.037.253-.067.507-.1.761l-.041.34Zm14.936,14.6a14.723,14.723,0,0,1-2-.137,15.1,15.1,0,0,1-7.106-2.9,15.453,15.453,0,0,1-6.164-10.2c-.049-.3-.087-.6-.125-.9-.017-.137-.035-.273-.053-.41l0-.034V806.48l.044-.354c.031-.259.062-.517.1-.774A15.647,15.647,0,0,1,686.252,792.1c.3-.049.6-.087.893-.124l.411-.054.035,0,2.154.006.09.022a.877.877,0,0,0,.132.028,16.237,16.237,0,0,1,4.245.866,15.343,15.343,0,0,1,7.229,5.063,12.828,12.828,0,0,1,2.73,6.815,8.848,8.848,0,0,1-8.859,9.9c-.5.009-1.014.007-1.507,0-.451,0-.916-.005-1.373,0a2.285,2.285,0,0,0-2.269,2.647,2.8,2.8,0,0,0,.662,1.335,2.8,2.8,0,0,1-2.157,4.524Z" transform="translate(-673 -791.921)" fill="#f09"/>
</svg>
