<svg id="Group_48" data-name="Group 48" xmlns="http://www.w3.org/2000/svg" width="60" height="37.662" viewBox="0 0 60 37.662">
  <path id="Path_52" data-name="Path 52" d="M186.067,796.111a35.87,35.87,0,0,1,6.118.54,31.163,31.163,0,0,1,18.5,10.506,31.5,31.5,0,0,1,7.854,18.417c.046.532.064,1.07.08,1.59.013.382.025.763.049,1.146a.814.814,0,0,0,.815.806.78.78,0,0,0,.725-.84c.009-.253.006-.507,0-.8l0-.451-.039-.553c-.033-.468-.067-.975-.117-1.482-.068-.7-.141-1.429-.264-2.137a33.887,33.887,0,0,0-57.647-18.092,1.117,1.117,0,0,0-.364.771.686.686,0,0,0,.226.5c.392.376.894.16,1.234-.167l.434-.422c.475-.464.965-.944,1.485-1.386A31.566,31.566,0,0,1,186.067,796.111ZM219.451,829.9a1.609,1.609,0,0,1-1.561-1.541c-.025-.388-.037-.778-.049-1.168-.016-.51-.034-1.037-.079-1.549a30.739,30.739,0,0,0-7.664-17.97,30.406,30.406,0,0,0-18.047-10.25,30.946,30.946,0,0,0-26.381,7.231c-.5.424-.98.9-1.447,1.35l-.437.425a1.606,1.606,0,0,1-2.32.169,1.479,1.479,0,0,1-.466-1.048,1.879,1.879,0,0,1,.588-1.329,34.671,34.671,0,0,1,58.976,18.5c.129.738.2,1.478.273,2.193.052.516.086,1.033.119,1.509l.04.59v.459c0,.3,0,.563,0,.826a1.556,1.556,0,0,1-1.467,1.6Z" transform="translate(-161 -793.762)" fill="red"/>
  <path id="Path_53" data-name="Path 53" d="M179.247,815a3.22,3.22,0,0,1,.027,6.44,3.22,3.22,0,1,1-.027-6.44Z" transform="translate(-153.838 -783.78)" fill="red"/>
  <path id="Path_54" data-name="Path 54" d="M194.993,817.654l-14.278,1.694a4.016,4.016,0,0,0-.17-3.515l14.441,1.711Z" transform="translate(-151.973 -783.311)" fill="red"/>
  <path id="Path_55" data-name="Path 55" d="M188.014,809.73c1.633-2.518,3.269-5.038,4.857-7.488.9.89,1.8,1.78,2.737,2.712-2.446,1.588-4.984,3.233-7.519,4.88Z" transform="translate(-148.183 -789.805)" fill="red"/>
  <path id="Path_56" data-name="Path 56" d="M183.436,807.262c.548-2.969,1.1-5.939,1.66-8.991,1.219.5,2.387.985,3.626,1.5l-5.173,7.521Z" transform="translate(-150.274 -791.678)" fill="red"/>
  <path id="Path_57" data-name="Path 57" d="M198.581,808.287c.5,1.209.982,2.361,1.5,3.621l-8.961,1.664-.058-.108Z" transform="translate(-147.225 -786.89)" fill="red"/>
  <path id="Path_58" data-name="Path 58" d="M178.736,806.129c-.627-2.936-1.255-5.87-1.893-8.86h3.906c-.63,2.966-1.258,5.906-1.883,8.847Z" transform="translate(-153.394 -791.783)" fill="red"/>
  <path id="Path_59" data-name="Path 59" d="M169.367,799.769l3.626-1.5c.562,3.033,1.112,6,1.661,8.972l-.1.058C172.841,804.812,171.127,802.323,169.367,799.769Z" transform="translate(-157 -791.679)" fill="red"/>
  <path id="Path_60" data-name="Path 60" d="M170.82,809.826l-7.552-4.9,2.776-2.72c1.6,2.475,3.243,5,4.882,7.527Z" transform="translate(-159.72 -789.822)" fill="red"/>
  <path id="Path_61" data-name="Path 61" d="M192.17,817.653l8.836-1.888v3.893l-8.841-1.88Z" transform="translate(-146.606 -783.349)" fill="red"/>
</svg>
