<svg id="Group_46" data-name="Group 46" xmlns="http://www.w3.org/2000/svg" width="30.441" height="39.143" viewBox="0 0 30.441 39.143">
  <path id="Path_62" data-name="Path 62" d="M399.5,819.1v.357c0,.418,0,.827,0,1.237a5.31,5.31,0,0,0,5.352,5.364q8.045,0,16.089,0h2.706a2.791,2.791,0,0,0,.508-.024c4.011-.668,5.062-3.992,4.708-6.959h-2.643l.26-.477.091-.167a7.435,7.435,0,0,0,1.062-4.21c-.074-1.111-.23-2.24-.38-3.332q-.054-.39-.107-.78c-.117-.873-.243-1.745-.368-2.617-.209-1.451-.425-2.952-.6-4.434a8.344,8.344,0,0,0-3.808-6.394.628.628,0,0,1-.32-.453c-.012-.588-.011-1.164-.01-1.773v-.787h.84a1.607,1.607,0,0,0,1.65-1.638c0-.428,0-.854,0-1.281a2.831,2.831,0,0,0-2.8-2.8c-4.523-.006-9.45-.007-15.064,0a2.785,2.785,0,0,0-2.722,2.231,8.444,8.444,0,0,0-.082,1.58c0,.117,0,.234,0,.35a1.587,1.587,0,0,0,1.565,1.562c.137,0,.274,0,.426,0h.5v.251c0,.205,0,.406,0,.6,0,.476-.006.925.008,1.377a.916.916,0,0,1-.455.875,7.543,7.543,0,0,0-3.351,4.613,34.362,34.362,0,0,0-.568,3.391c-.046.344-.092.689-.141,1.032-.138.967-.267,1.936-.4,2.9-.181,1.358-.369,2.764-.579,4.143a8.393,8.393,0,0,0,.972,5.616,1.144,1.144,0,0,1,.085.2c.011.031.022.063.036.1l.135.343Zm12.806,7.463-7.454,0A5.809,5.809,0,0,1,399,820.7v-2.1h2.346a8.878,8.878,0,0,1-.971-5.831c.209-1.374.4-2.777.577-4.134.13-.97.26-1.94.4-2.909.048-.342.094-.685.14-1.027a34.744,34.744,0,0,1,.577-3.441,8.029,8.029,0,0,1,3.562-4.916.421.421,0,0,0,.23-.442c-.014-.46-.011-.914-.008-1.394l0-.349c-.154,0-.291,0-.428,0a2.094,2.094,0,0,1-2.059-2.064c0-.115,0-.231,0-.346a8.8,8.8,0,0,1,.09-1.675,3.251,3.251,0,0,1,3.217-2.643c5.613-.007,10.541-.006,15.064,0a3.335,3.335,0,0,1,3.306,3.3c0,.43,0,.86,0,1.289a2.094,2.094,0,0,1-2.148,2.138h-.342v.285c0,.594,0,1.155.009,1.726a.544.544,0,0,0,.094.08A8.819,8.819,0,0,1,426.686,803c.17,1.476.386,2.973.594,4.42.126.874.251,1.748.368,2.622.035.26.071.519.107.779.151,1.1.308,2.237.384,3.366a7.868,7.868,0,0,1-1.067,4.385H429.3l.031.216c.594,4.153-1.358,7.12-5.1,7.742a3.319,3.319,0,0,1-.594.031h-2.7Z" transform="translate(-399 -787.422)"/>
  <path id="Path_63" data-name="Path 63" d="M403.979,818.566h20.447a4.116,4.116,0,0,0-4.082-3.217c-4.384-.011-8.334-.018-12.291.015a4.607,4.607,0,0,0-1.743.369A3.919,3.919,0,0,0,403.979,818.566Zm21.016.5h-21.63l.056-.3a4.456,4.456,0,0,1,2.691-3.5,5.123,5.123,0,0,1,1.938-.41c3.958-.033,7.909-.026,12.3-.015a4.612,4.612,0,0,1,4.585,3.669,1.464,1.464,0,0,1,.025.189c0,.027.005.055.008.085Z" transform="translate(-399 -787.422)"/>
  <path id="Path_64" data-name="Path 64" d="M407.626,794.169v1.18a10.608,10.608,0,0,1,3.637-.452c1.448.014,2.921.011,4.346.009q1.23,0,2.46,0a5.618,5.618,0,0,1,.974.062c.491.089.982.2,1.458.3l.278.06v-1.156Zm-.5,1.918v-2.42h14.158v2.278l-.3-.063-.583-.126c-.472-.1-.959-.207-1.442-.294a5.226,5.226,0,0,0-.884-.054c-.82,0-1.64,0-2.459,0-1.426,0-2.9,0-4.352-.009a9.583,9.583,0,0,0-3.788.545Z" transform="translate(-399 -787.422)"/>
</svg>
