<svg xmlns="http://www.w3.org/2000/svg" width="37.704" height="28.446" viewBox="0 0 37.704 28.446">
  <path id="Path_69" data-name="Path 69" d="M410.088,887.179h8.162v.314c0,.911-.011,1.8-.021,2.658-.027,2.155-.052,4.19.1,6.2a3.263,3.263,0,0,0,.964,1.544c.138.157.279.317.412.48.137-.158.283-.314.425-.466a3.1,3.1,0,0,0,.987-1.489c.153-2.1.129-4.234.1-6.494-.01-.9-.021-1.833-.021-2.8v-.314h.314c.91,0,1.777.024,2.614.047a30.075,30.075,0,0,0,5.408-.163c1.029-.16,2.563-1.471,2.647-2.262a62.711,62.711,0,0,0,.058-10.218c-.027-.467-.509-.986-.974-1.487-.144-.155-.29-.313-.428-.473-.135.16-.277.318-.418.472a3.151,3.151,0,0,0-.969,1.51c-.152,2.112-.128,4.213-.1,6.438.01.854.021,1.718.021,2.6v.314h-8.164v-.314c0-.882.013-1.752.025-2.592a60.225,60.225,0,0,0-.109-6.088,3.848,3.848,0,0,0-1.028-1.772c-.137-.167-.277-.339-.41-.512-.126.183-.259.365-.389.543a4.181,4.181,0,0,0-.976,1.879c-.165,1.981-.135,3.948-.1,6.03.012.812.025,1.651.025,2.488v.314h-8.147v-.314c0-.811.02-1.6.04-2.367a33.073,33.073,0,0,0-.121-5.048,7.746,7.746,0,0,0-1.125-2.685c-.127-.224-.256-.452-.38-.683-.108.212-.218.422-.327.628a7.414,7.414,0,0,0-.99,2.56,42.425,42.425,0,0,0-.107,5.327c.016.769.033,1.565.033,2.366v.314h-8.152v-.314c0-.95.007-1.868.015-2.761.021-2.283.04-4.439-.085-6.564a2.892,2.892,0,0,0-.83-1.368c-.12-.14-.242-.282-.358-.427-.161.154-.334.3-.5.453-.519.453-1.056.922-1.085,1.335-.136,1.95-.127,3.949-.117,5.881.006,1.3.013,2.639-.025,3.958a2.456,2.456,0,0,0,2.988,2.982c1.736-.064,3.468-.049,5.3-.034.825.007,1.669.013,2.542.013h.314v.315c0,1.005-.011,1.954-.022,2.873-.027,2.274-.05,4.238.1,6.227a3.565,3.565,0,0,0,.916,1.638c.123.157.249.317.368.478.145-.177.3-.352.451-.523A3.616,3.616,0,0,0,410,896.119c.175-2.091.143-4.215.112-6.269-.012-.777-.025-1.581-.025-2.357Zm-1.634,12.267-.251-.4a9.448,9.448,0,0,0-.582-.79,3.957,3.957,0,0,1-1.048-1.982c-.149-2.016-.125-4.087-.1-6.28.009-.821.019-1.666.021-2.552-.763,0-1.505-.008-2.233-.014-1.826-.015-3.552-.028-5.273.034a3.06,3.06,0,0,1-3.64-3.627c.037-1.31.031-2.646.024-3.938-.009-1.944-.019-3.955.12-5.928.047-.671.683-1.227,1.3-1.765a8.874,8.874,0,0,0,.717-.672l.267-.3.225.33a8.4,8.4,0,0,0,.541.678,3.241,3.241,0,0,1,.981,1.74c.127,2.147.108,4.313.087,6.606-.007.793-.014,1.6-.016,2.442h6.894c0-.689-.017-1.374-.031-2.039a43,43,0,0,1,.11-5.406,7.977,7.977,0,0,1,1.059-2.788c.2-.385.414-.783.585-1.172l.277-.63.294.621c.193.407.427.82.654,1.22a8.327,8.327,0,0,1,1.2,2.915,33.25,33.25,0,0,1,.126,5.144c-.017.662-.034,1.343-.039,2.037h6.889c0-.728-.014-1.457-.024-2.164-.032-2.1-.062-4.08.106-6.092a4.652,4.652,0,0,1,1.094-2.2c.215-.294.438-.6.612-.892l.256-.433.277.42a10.451,10.451,0,0,0,.649.847,4.23,4.23,0,0,1,1.167,2.117,60.648,60.648,0,0,1,.112,6.15c-.011.738-.023,1.5-.025,2.268h6.906c0-.766-.011-1.523-.02-2.272-.026-2.239-.051-4.354.1-6.491a3.508,3.508,0,0,1,1.131-1.887,9.275,9.275,0,0,0,.626-.739l.252-.349.256.346a8.555,8.555,0,0,0,.638.737,3.4,3.4,0,0,1,1.141,1.879,63.2,63.2,0,0,1-.062,10.321c-.124,1.171-1.952,2.626-3.174,2.816a30.679,30.679,0,0,1-5.522.17c-.736-.02-1.495-.041-2.282-.045,0,.848.012,1.67.021,2.472.026,2.275.051,4.423-.105,6.548a3.453,3.453,0,0,1-1.155,1.873,9.083,9.083,0,0,0-.639.731l-.26.347-.249-.354a9.279,9.279,0,0,0-.619-.752,3.624,3.624,0,0,1-1.12-1.912c-.155-2.038-.13-4.087-.1-6.256.009-.761.019-1.538.021-2.336h-6.9c0,.673.012,1.363.023,2.034.032,2.069.064,4.208-.114,6.331a3.979,3.979,0,0,1-1.223,2.07,10.494,10.494,0,0,0-.679.821Z" transform="translate(-395.346 -871)" fill="#f06424"/>
</svg>
