<?xml version="1.0" encoding="utf-8"?>
<!-- Generator: Adobe Illustrator 17.1.0, SVG Export Plug-In . SVG Version: 6.00 Build 0)  -->
<!DOCTYPE svg PUBLIC "-//W3C//DTD SVG 1.1//EN" "http://www.w3.org/Graphics/SVG/1.1/DTD/svg11.dtd">
<svg version="1.1" id="Layer_1" xmlns="http://www.w3.org/2000/svg" xmlns:xlink="http://www.w3.org/1999/xlink" x="0px" y="0px"
	 viewBox="0 0 16 16" enable-background="new 0 0 16 16" xml:space="preserve">
<path fill="#959595" d="M7.5,0c0.4,0,0.7,0,1.1,0c0,0,0.1,0,0.1,0c1,0.1,2,0.3,2.9,0.7c1.9,0.9,3.2,2.4,3.7,4.5
	c0.2,1.1,0.2,2.1,0,3.2c-0.5,2.2-1.5,4.2-3.1,5.8c-0.8,0.8-1.7,1.4-2.7,1.7c-0.3,0.1-0.7,0.1-1,0.2c-0.3,0-0.5,0-0.8,0
	c0,0,0,0-0.1,0c-1-0.1-1.9-0.5-2.8-1.1c-1-0.7-1.8-1.7-2.5-2.7c-1-1.6-1.6-3.3-1.7-5.1C0.6,5.9,0.9,4.7,1.4,3.7
	c1.1-2,2.9-3.1,5.1-3.5C6.8,0.1,7.2,0.1,7.5,0z M12.7,4.7c-0.4,0-0.9,0-1.3,0c0,0.9,0,1.8,0,2.7c-0.5,0-0.9,0-1.3,0
	c0-0.9,0-1.8,0-2.7c-0.4,0-0.9,0-1.3,0c0,0.9,0,1.8,0,2.6c-0.5,0-0.9,0-1.3,0c0-0.9,0-1.8,0-2.6c-0.5,0-0.9,0-1.3,0
	c0,0.9,0,1.8,0,2.6c-0.4,0-0.9,0-1.3,0c0-0.9,0-1.8,0-2.7c-0.4,0-0.9,0-1.3,0c0,0.1,0,0.1,0,0.1c0,1,0,2.1,0,3.1
	c0,0.5,0.3,0.7,0.7,0.7c0.6,0,1.2,0,1.7,0c0.1,0,0.1,0,0.2,0c0,0.9,0,1.8,0,2.7c0.5,0,0.9,0,1.3,0c0-0.9,0-1.8,0-2.6
	c0.4,0,0.9,0,1.3,0c0,0.9,0,1.8,0,2.6c0.5,0,0.9,0,1.3,0c0-0.9,0-1.8,0-2.7c0.4,0,0.9,0,1.3,0c0,0.9,0,1.8,0,2.6c0.5,0,0.9,0,1.3,0
	C12.7,9.1,12.7,6.9,12.7,4.7z"/>
</svg>
