<svg version="1.2" baseProfile="tiny-ps" xmlns="http://www.w3.org/2000/svg" viewBox="0 0 11 14" width="11" height="14">
	<title>Grid View</title>
	<style>
		tspan { white-space:pre }
		.shp0 { fill: #000000 } 
	</style>
	<g id="Grid View">
		<g id="Group 1618">
			<g id="Group 716">
				<path id="taka" class="shp0" d="M9.83 7.27C9.46 6.09 8.59 5.45 7.44 5.51C6.75 5.55 6.25 5.96 6.1 6.63C6.05 6.85 6.04 7.09 6.06 7.32C6.13 8.25 6.67 8.75 7.6 8.77C7.73 8.77 7.86 8.77 8 8.77C7.98 8.93 7.97 9.06 7.93 9.18C7.61 10.31 6.85 11.07 5.87 11.63C5.56 11.81 5.21 11.86 4.85 11.84C4.1 11.79 3.71 11.39 3.7 10.63C3.7 9.6 3.7 8.57 3.7 7.54L3.7 7.28L5.64 7.28C5.36 6.98 5.1 6.75 4.88 6.48C4.6 6.14 4.29 5.94 3.83 6.03C3.8 6.04 3.77 6.03 3.7 6.02L3.7 5.74C3.7 4.89 3.72 4.04 3.69 3.18C3.69 3.04 3.68 2.9 3.66 2.77C3.58 2.31 3.41 1.88 3.09 1.5C2.88 1.24 2.6 1.07 2.26 1.02C2.17 1.01 2.08 1 1.99 1L0.75 1C0.69 1.29 0.66 1.59 0.66 1.89C0.66 2.19 0.69 2.49 0.75 2.77L1.63 2.8L1.78 2.82C1.81 2.83 1.9 2.84 1.91 2.85C1.92 2.85 2.02 2.88 2.09 2.94C2.29 3.12 2.41 3.37 2.41 3.71C2.41 4.24 2.41 4.77 2.41 5.31L2.41 6.04L0 6.04C0.38 6.44 0.71 6.8 1.06 7.15C1.14 7.22 1.26 7.27 1.37 7.27C1.71 7.29 2.05 7.28 2.41 7.28L2.41 7.56C2.41 8.7 2.43 9.83 2.41 10.96C2.4 11.4 2.55 11.75 2.82 12.07C3.75 13.18 4.91 13.54 6.29 13.09C7.99 12.55 9.07 11.35 9.73 9.74C10.06 8.94 10.08 8.1 9.83 7.27Z" />
			</g>
		</g>
	</g>
</svg>