<svg xmlns="http://www.w3.org/2000/svg" width="16" height="16" viewBox="0 0 6.672 8">
  <path id="Path_34" data-name="Path 34" d="M-470.955,56.3h3.531s.007.009.012.01a.7.7,0,0,1,.554.733c-.009,1.385,0,2.771,0,4.156v.1c.042,0,.074,0,.1,0a.516.516,0,0,1,.566.565c0,.091,0,.182,0,.273a.164.164,0,0,0,.153.159.162.162,0,0,0,.164-.127.459.459,0,0,0,.011-.108q0-1.336,0-2.672v-.087l-.074-.008a.651.651,0,0,1-.583-.588c-.015-.147,0-.3-.014-.444a.385.385,0,0,1,.137-.337c.159-.145.307-.3.464-.46-.135-.135-.266-.265-.4-.4a1.677,1.677,0,0,1-.165-.176.159.159,0,0,1,.12-.257.263.263,0,0,1,.161.076c.2.187.382.384.578.571a.342.342,0,0,1,.11.269q0,2.246,0,4.492c0,.044,0,.088-.006.132a.492.492,0,0,1-.481.453.487.487,0,0,1-.5-.418c-.016-.134-.009-.27-.014-.405a.158.158,0,0,0-.157-.17c-.056-.005-.113,0-.168,0v1.326c.02,0,.035.006.051.008a.647.647,0,0,1,.6.577c.016.178.012.359.013.538,0,.151-.063.213-.213.213h-5.578c-.15,0-.211-.057-.213-.2s0-.292,0-.437a.67.67,0,0,1,.62-.688c.016,0,.037-.028.044-.047a.211.211,0,0,0,0-.07q0-2.914,0-5.828a.726.726,0,0,1,.169-.5A.761.761,0,0,1-470.955,56.3Zm1.763.67h-1.453c-.157,0-.216.06-.216.217q0,.949,0,1.9c0,.155.062.215.219.216h2.9c.157,0,.213-.055.213-.211q0-.953,0-1.906c0-.161-.054-.214-.216-.215Z" transform="translate(472.196 -56.302)" fill="#555"/>
</svg>
