<svg id="Group_286" data-name="Group 286" xmlns="http://www.w3.org/2000/svg" width="16" height="16" viewBox="0 0 12.158 8">
  <path id="Path_47" data-name="Path 47" d="M-486.074,203.531a.617.617,0,0,1-.208.086c-1.232.005-2.464,0-3.7,0a.312.312,0,0,1-.071-.009c.057-.583.14-1.155.158-1.729a8.634,8.634,0,0,0-.1-1.249c-.019-.163.011-.241.184-.288q1.474-.408,2.94-.841c.186-.055.251,0,.3.172a10.99,10.99,0,0,1,.459,2.4,1.051,1.051,0,0,0,.035.159Z" transform="translate(498.232 -195.625)" fill="#555"/>
  <path id="Path_48" data-name="Path 48" d="M-641.625,204.487q.074-.51.149-1.019c.009-.061.027-.12.035-.181.018-.145.086-.188.229-.141a3.919,3.919,0,0,0,.463.121c.167.033.206.112.151.274a8.642,8.642,0,0,0-.433,2.793c0,.092,0,.185.01.277.02.283-.01.311-.286.3a.164.164,0,0,1-.181-.162c-.03-.244-.065-.487-.1-.73-.011-.078-.025-.156-.038-.234Z" transform="translate(641.625 -198.911)" fill="#555"/>
  <path id="Path_49" data-name="Path 49" d="M-572.151,122.077a1.729,1.729,0,0,1,.2-.413q2.4-3.153,4.813-6.3a.316.316,0,0,1,.358-.126c.168.047.175.135.138.238q-1.233,3.419-2.463,6.838a1.752,1.752,0,0,1-2.115.716C-571.8,122.864-572.1,122.568-572.151,122.077Zm2.33.035c0-.262-.328-.475-.735-.477s-.742.21-.75.47.331.48.749.48S-569.822,122.376-569.821,122.112Z" transform="translate(575.543 -115.224)" fill="#555"/>
  <path id="Path_50" data-name="Path 50" d="M-508.257,149.17c.058.021.108.035.151.056a8.094,8.094,0,0,1,3.007,2.343c.06.079.024.118-.1.149q-1.412.35-2.82.7c-.176.045-.215-.016-.257-.1a4.334,4.334,0,0,0-1.294-1.44c-.131-.1-.268-.19-.411-.279-.086-.054-.1-.1-.016-.158.539-.4,1.076-.806,1.614-1.209A1.219,1.219,0,0,1-508.257,149.17Z" transform="translate(516.26 -146.965)" fill="#555"/>
  <path id="Path_51" data-name="Path 51" d="M-599.573,132.022c.014.5.014.5-.377.513a7.087,7.087,0,0,0-3.183.885c-.163.09-.245.066-.341-.085-.212-.331-.435-.656-.662-.977-.092-.13-.075-.209.054-.3A8.98,8.98,0,0,1-600,130.418c.043-.006.084-.017.127-.024.129-.023.2.021.2.161C-599.641,131.076-599.6,131.6-599.573,132.022Z" transform="translate(606.139 -128.891)" fill="#555"/>
  <path id="Path_52" data-name="Path 52" d="M-637.032,158.613c.108-.278.194-.522.3-.758a9.3,9.3,0,0,1,2.041-2.98c.177-.174.2-.172.358.019.231.272.46.546.7.814.1.109.09.183-.027.271a7.942,7.942,0,0,0-2.37,2.9c-.057.118-.125.154-.247.1-.2-.082-.4-.151-.6-.238C-636.943,158.724-636.985,158.658-637.032,158.613Z" transform="translate(637.485 -152.969)" fill="#555"/>
  <path id="Path_53" data-name="Path 53" d="M-520.553,135.765c.48.243.928.467,1.373.7.125.065.077.159.018.249q-.5.755-.992,1.511c-.108.164-.217.328-.323.494a.151.151,0,0,1-.257.044c-.139-.11-.35-.185-.409-.326s.047-.328.085-.495C-520.9,137.234-520.731,136.53-520.553,135.765Z" transform="translate(528.274 -134.267)" fill="#555"/>
  <path id="Path_54" data-name="Path 54" d="M-548.735,129.927l-1.1,2.245c-.155-.025-.293-.052-.432-.069a.146.146,0,0,1-.143-.175c.032-.652.062-1.3.1-1.955,0-.051.086-.14.129-.138C-549.709,129.857-549.239,129.893-548.735,129.927Z" transform="translate(555.878 -128.394)" fill="#555"/>
</svg>
