<svg xmlns="http://www.w3.org/2000/svg" width="20" height="20" viewBox="0 0 9.999 10">
  <g id="Group_2105" data-name="Group 2105" transform="translate(0)">
    <path id="Path_35" data-name="Path 35" d="M-419.041,149.094v-.7c.022-.157.038-.315.066-.472a4.935,4.935,0,0,1,1.382-2.687,4.893,4.893,0,0,1,2.681-1.411c.172-.03.346-.052.519-.078h.7c.031.007.062.015.094.02.17.024.342.039.511.073a4.869,4.869,0,0,1,2.844,1.67,4.846,4.846,0,0,1,1.129,4.053,4.8,4.8,0,0,1-1.841,3.1,4.857,4.857,0,0,1-4.121.969,4.812,4.812,0,0,1-2.471-1.332,4.911,4.911,0,0,1-1.417-2.678C-418.994,149.447-419.015,149.27-419.041,149.094Zm8.749-.937a3.787,3.787,0,0,0-4.12-3.2,3.757,3.757,0,0,0-3.372,3.2c.319,0,.638.005.956,0a3.1,3.1,0,0,0,.5-.048,2.273,2.273,0,0,0,1.227-.672A1.419,1.419,0,0,1-413.82,147a1.465,1.465,0,0,1,.861.456,2.171,2.171,0,0,0,1.438.678c.343.025.689.014,1.034.019ZM-413,152.4a3.816,3.816,0,0,0,2.486-2.261,1.779,1.779,0,0,0-2.139.3A1.722,1.722,0,0,0-413,152.4Zm-4.587-2.253a3.852,3.852,0,0,0,2.5,2.262,1.736,1.736,0,0,0-.35-1.974A1.8,1.8,0,0,0-417.586,150.142Zm4.422-1.109a.886.886,0,0,0-.875-.877.887.887,0,0,0-.882.88.887.887,0,0,0,.875.877A.887.887,0,0,0-413.164,149.034Z" transform="translate(419.041 -143.744)" fill="#555"/>
    <path id="Path_36" data-name="Path 36" d="M-333.839,233.767a.454.454,0,0,1,.464.461.455.455,0,0,1-.453.456.455.455,0,0,1-.464-.461A.454.454,0,0,1-333.839,233.767Z" transform="translate(338.832 -228.944)" fill="#555"/>
  </g>
</svg>
