<svg id="car" xmlns="http://www.w3.org/2000/svg" width="14.037" height="14.037" viewBox="0 0 14.037 14.037">
  <g id="Group_387" data-name="Group 387">
    <g id="Group_386" data-name="Group 386">
      <path id="Path_106" data-name="Path 106" d="M7.019,0a7.019,7.019,0,1,0,7.019,7.019A7.019,7.019,0,0,0,7.019,0Zm6.3,8.819-.44-.143-.145.445.441.143a6.549,6.549,0,0,1-.722,1.412l-.374-.271-.275.379.372.27a6.614,6.614,0,0,1-1.12,1.121l-.27-.372-.379.275.271.374a6.547,6.547,0,0,1-1.411.721l-.143-.441-.445.145.143.44a6.516,6.516,0,0,1-1.567.248V13.1H6.785v.462a6.514,6.514,0,0,1-1.566-.248l.143-.44-.445-.145-.144.441a6.549,6.549,0,0,1-1.412-.722l.271-.374L3.254,11.8l-.27.372a6.614,6.614,0,0,1-1.121-1.121l.372-.27L1.96,10.4l-.374.271a6.547,6.547,0,0,1-.72-1.411l.441-.143-.145-.445-.44.143A6.515,6.515,0,0,1,.474,7.253H.936V6.785H.474A6.514,6.514,0,0,1,.722,5.219l.44.143.145-.445-.44-.144a6.549,6.549,0,0,1,.722-1.412l.374.271.275-.379-.374-.27A6.614,6.614,0,0,1,2.984,1.863l.27.372.379-.275-.271-.374A6.547,6.547,0,0,1,4.773.866l.143.441.445-.145L5.218.723A6.516,6.516,0,0,1,6.785.474V.936h.468V.474A6.514,6.514,0,0,1,8.819.722l-.143.44.445.145.144-.44a6.549,6.549,0,0,1,1.412.722l-.271.374.379.275.27-.372a6.614,6.614,0,0,1,1.121,1.121l-.372.27.275.379.374-.271a6.547,6.547,0,0,1,.721,1.409l-.441.143.145.445.44-.143a6.516,6.516,0,0,1,.248,1.567H13.1v.468h.462A6.514,6.514,0,0,1,13.316,8.819Z" fill="#ef4123"/>
    </g>
  </g>
  <g id="Group_389" data-name="Group 389" transform="translate(2.042 2.042)">
    <g id="Group_388" data-name="Group 388">
      <path id="Path_107" data-name="Path 107" d="M68.977,64a4.977,4.977,0,1,0,4.977,4.977A4.977,4.977,0,0,0,68.977,64Zm0,9.5A4.524,4.524,0,1,1,73.5,68.977,4.524,4.524,0,0,1,68.977,73.5Z" transform="translate(-64 -64)" fill="#ef4123"/>
    </g>
  </g>
  <g id="Group_391" data-name="Group 391" transform="translate(2.68 2.68)">
    <g id="Group_390" data-name="Group 390">
      <path id="Path_108" data-name="Path 108" d="M108.339,104a4.339,4.339,0,1,0,4.339,4.339A4.339,4.339,0,0,0,108.339,104Zm3.282,2.378A3.8,3.8,0,0,1,112.15,108l-1.6-.129a.255.255,0,0,1-.145-.448Zm-2.43-1.768-.617,1.48a.255.255,0,0,1-.471,0l-.617-1.48A3.716,3.716,0,0,1,109.191,104.609Zm-4.134,1.768,1.215,1.042a.255.255,0,0,1-.145.448l-1.6.129A3.8,3.8,0,0,1,105.057,106.378Zm2.149,3.92-.371,1.561a3.846,3.846,0,0,1-1.376-1.005h0l1.366-.833a.255.255,0,0,1,.381.277Zm2.636,1.561h0l-.371-1.561a.255.255,0,0,1,.381-.277l1.366.833A3.846,3.846,0,0,1,109.842,111.859Zm.276-2.274a.766.766,0,0,0-1.144.831l.383,1.61a3.731,3.731,0,0,1-2.037,0h0l.383-1.61a.766.766,0,0,0-1.144-.831l-1.412.862a3.8,3.8,0,0,1-.627-1.937l1.648-.133a.766.766,0,0,0,.436-1.344l-1.256-1.077a3.841,3.841,0,0,1,1.648-1.2l.636,1.527a.766.766,0,0,0,1.414,0l.636-1.527a3.843,3.843,0,0,1,1.647,1.2l-1.254,1.077a.766.766,0,0,0,.437,1.344l1.648.133a3.8,3.8,0,0,1-.627,1.937Z" transform="translate(-104 -104)" fill="#ef4123"/>
    </g>
  </g>
  <g id="Group_393" data-name="Group 393" transform="translate(5.998 5.998)">
    <g id="Group_392" data-name="Group 392">
      <path id="Path_109" data-name="Path 109" d="M209.021,208a1.021,1.021,0,1,0,1.021,1.021A1.021,1.021,0,0,0,209.021,208Zm0,1.531a.51.51,0,1,1,.51-.51A.51.51,0,0,1,209.021,209.531Z" transform="translate(-208 -208)" fill="#ef4123"/>
    </g>
  </g>
</svg>
