<svg xmlns="http://www.w3.org/2000/svg" width="58.806" height="59.539" viewBox="0 0 58.806 59.539">
  <g id="complain" transform="translate(-1.106)">
    <g id="Group_1682" data-name="Group 1682" transform="translate(1.106 0)">
      <g id="Group_1681" data-name="Group 1681" transform="translate(0)">
        <path id="Path_1173" data-name="Path 1173" d="M18.544,34.422a17.251,17.251,0,0,0,7.816-1.99.038.038,0,0,1,.033,0,11.17,11.17,0,0,0,5.653,1.24,1.419,1.419,0,0,0,.917-2.3,14.06,14.06,0,0,1-1.736-2.747.043.043,0,0,1,.012-.04A17.195,17.195,0,0,0,31.67,6.363a.872.872,0,1,0-1.353,1.1,15.45,15.45,0,0,1-.387,19.964,1.779,1.779,0,0,0-.275,1.95,16.023,16.023,0,0,0,1.569,2.6,10.975,10.975,0,0,1-4.086-1.122,1.79,1.79,0,0,0-1.595.037A15.341,15.341,0,0,1,7.567,28.246,15.431,15.431,0,0,1,27.527,4.793a.872.872,0,0,0,1.041-1.4A17.207,17.207,0,0,0,1.108,17.437,17.06,17.06,0,0,0,6.351,29.5a17.083,17.083,0,0,0,11.973,4.928Z" transform="translate(-1.106 0)" fill="#ef4123"/>
        <path id="Path_1174" data-name="Path 1174" d="M69.26,45.692a3.083,3.083,0,1,0,3.083-3.083A3.087,3.087,0,0,0,69.26,45.692Zm4.421,0a1.338,1.338,0,1,1-1.338-1.338A1.34,1.34,0,0,1,73.682,45.692Z" transform="translate(-46.674 -28.488)" fill="#ef4123"/>
        <path id="Path_1175" data-name="Path 1175" d="M43.738,45.692a3.083,3.083,0,1,0,3.083-3.083A3.087,3.087,0,0,0,43.738,45.692Zm4.421,0a1.338,1.338,0,1,1-1.338-1.338A1.34,1.34,0,0,1,48.16,45.692Z" transform="translate(-29.61 -28.488)" fill="#ef4123"/>
        <path id="Path_1176" data-name="Path 1176" d="M18.216,45.692A3.083,3.083,0,1,0,21.3,42.609,3.087,3.087,0,0,0,18.216,45.692Zm4.421,0A1.338,1.338,0,1,1,21.3,44.354,1.34,1.34,0,0,1,22.638,45.692Z" transform="translate(-12.546 -28.488)" fill="#ef4123"/>
        <path id="Path_1177" data-name="Path 1177" d="M87.114,25.661a.873.873,0,0,0-.959.776,33.317,33.317,0,0,1-1.262,6.015,51.7,51.7,0,0,1-11.608,20.9,44.973,44.973,0,0,1-4.71,4.325q-.864.686-1.76,1.329Q64.967,60.33,63,61.476c-3.369,1.962-7.153,2.813-10.12,2.276q-.726-.131-1.4-.325c1.946-1.454,3.663-2.934,5.546-4.633,2.144-1.936,4.022-3.73,5.739-5.484l.007-.008.008-.008,1.013-1.086a55.761,55.761,0,0,0,14.023-21.69l.548-1.565c1.583-4.578,3.037-9.436,4.329-14.46a12.8,12.8,0,0,1,2.575,3.964,13,13,0,0,1,.86,3.224.872.872,0,0,0,1.728-.241,14.744,14.744,0,0,0-.979-3.657q-.173-.414-.37-.818a15.645,15.645,0,0,0-5.049-5.756c-2.1-1.548-4.875-2.737-7.438-1.614A5.181,5.181,0,0,0,71.9,11.333a6.662,6.662,0,0,0-.875,1.66c-.051.139-1.77,5.58-2.415,8.265-.5,2.095-.087,3.625,1.308,4.815a7.361,7.361,0,0,0,1.469.953c1.234.626,2.523,1.156,3.81,1.675l.53.214.71.269-.264.754a54.028,54.028,0,0,1-13.6,21.029L62.53,51l-.429.46-.912-.9a37.323,37.323,0,0,0-2.882-2.813c-2.333-1.834-4.307-1.877-6.6-.144a65.047,65.047,0,0,0-6.839,5.808c-2.578,2.59-2.543,5.31.1,8.083a12.988,12.988,0,0,0,3.115,2.4l0,0a13.253,13.253,0,0,0,1.2.588c.017.007.034.013.051.019a15.055,15.055,0,0,0,3.235.957,12.309,12.309,0,0,0,2.191.19,18.53,18.53,0,0,0,9.118-2.674q2.055-1.2,3.989-2.587.972-.7,1.908-1.447a47.933,47.933,0,0,0,10.7-12.173q.891-1.439,1.682-2.937a60.477,60.477,0,0,0,4.415-10.886A35.053,35.053,0,0,0,87.89,26.62a.872.872,0,0,0-.776-.959ZM76.367,27.289c-1.134-.443-2.237-.893-3.337-1.4a8.512,8.512,0,0,1-1.985-1.139c-.874-.746-1.09-1.639-.744-3.08.61-2.537,2.263-7.79,2.36-8.079a4.93,4.93,0,0,1,.643-1.224,3.465,3.465,0,0,1,1.413-1.168c2.249-.986,4.757.639,6.482,1.959l.026.02c-1.258,4.982-2.677,9.805-4.224,14.36-.208-.079-.424-.162-.635-.244ZM48.874,62.345v.007a11.255,11.255,0,0,1-2.641-2.059c-2-2.095-2.036-3.731-.128-5.648A62.435,62.435,0,0,1,52.759,49c1.645-1.243,2.773-1.212,4.471.123.875.688,3.663,3.6,3.663,3.6-1.523,1.529-3.178,3.1-5.039,4.78a69.858,69.858,0,0,1-6.324,5.191C49.306,62.583,49.088,62.466,48.874,62.345Z" transform="translate(-29.089 -6.12)" fill="#ef4123"/>
      </g>
    </g>
  </g>
</svg>
