<svg xmlns="http://www.w3.org/2000/svg" width="66.707" height="61.682" viewBox="0 0 66.707 61.682">
  <g id="consent" transform="translate(0 -7.045)">
    <path id="Path_1172" data-name="Path 1172" d="M46.867,60a.976.976,0,0,1-1.4-1.359l3.4-3.5a.982.982,0,0,1,.7-.3H63.295L38.96,31.65V65.343l3.424-3.527a.976.976,0,0,1,1.4,1.359l-5.052,5.2a.967.967,0,0,1-.746.351.978.978,0,0,1-.979-.979V46.186a22.457,22.457,0,0,1-5.758,3.653A22.27,22.27,0,0,1,8.262,46.7a.973.973,0,1,1,1.226-1.511,20.358,20.358,0,0,0,27.518-1.7V29.371a.985.985,0,0,1,.27-.672.974.974,0,0,1,1.377-.033l3.834,3.653a20.7,20.7,0,0,0,.211-2.947,20.265,20.265,0,0,0-4.55-12.838.973.973,0,1,1,1.511-1.226,22.2,22.2,0,0,1,4.993,14.064,22.584,22.584,0,0,1-.469,4.565l22.17,21.133a.976.976,0,0,1-.62,1.728H49.973ZM18.2,35.026l-7.08-7.08a.922.922,0,0,0-1.3,1.3l8.424,8.421a.871.871,0,0,0,.694.266.913.913,0,0,0,.606-.266L34.835,22.376a.919.919,0,0,0-1.3-1.3L19.582,35.026a.972.972,0,0,1-1.381,0Zm-5.7-8.461,6.389,6.389L32.15,19.691a2.875,2.875,0,1,1,4.066,4.066L20.922,39.051a2.881,2.881,0,0,1-4.063,0L8.435,30.631A2.875,2.875,0,0,1,12.5,26.564Zm-6,15.645a.974.974,0,1,1-1.511,1.23,22.321,22.321,0,0,1,31.4-31.4.974.974,0,0,1-1.23,1.511A20.374,20.374,0,0,0,6.5,42.209Z" transform="translate(0)" fill="#ef4123"/>
  </g>
</svg>
