<svg xmlns="http://www.w3.org/2000/svg" width="46.633" height="46.627" viewBox="0 0 46.633 46.627">
  <g id="Group_1719" data-name="Group 1719" transform="translate(-3843 -12122)">
    <path id="Path_1149" data-name="Path 1149" d="M58.6,40.338A3.447,3.447,0,0,1,56.077,41.5c-.207-1.635-1.671-3.81-1.294-5.23.314-1.177,2.121-2.192,3.253-3.3a2.357,2.357,0,0,0-.557.943c-.485,1.8,2.031,4.852,1.123,6.425Z" transform="translate(3827.519 12116.409)" fill="#d1d1d1"/>
    <path id="Path_1150" data-name="Path 1150" d="M59.539,25.868c0,1.411-2.094,2.543-3.343,3.756a2.192,2.192,0,0,0,.647-1.4c0-1.887-3.729-3.262-4.187-5-.485-1.806,2.04-4.852,1.123-6.434-.926-1.6-4.834-.934-6.137-2.228s-.629-5.212-2.228-6.137c-1.581-.908-4.628,1.608-6.434,1.123-1.743-.458-3.118-4.187-5-4.187a1.745,1.745,0,0,0-.216.018C34.668,4.231,35.584,3,36.671,3c1.887,0,3.262,3.72,5,4.187,1.806.485,4.852-2.04,6.434-1.123,1.6.926.934,4.834,2.228,6.128s5.212.638,6.137,2.237c.917,1.581-1.608,4.628-1.123,6.425.458,1.743,4.187,3.118,4.187,5.014Z" transform="translate(3829.645 12119.449)" fill="#d1d1d1"/>
    <path id="Path_1151" data-name="Path 1151" d="M50.868,26.748a15.075,15.075,0,0,1-6.694,12.535A15.084,15.084,0,0,0,25.08,16.127,15.084,15.084,0,0,1,50.868,26.748Z" transform="translate(3830.526 12118.569)" fill="#d1d1d1"/>
    <path id="Path_1152" data-name="Path 1152" d="M36.667,33.772a.449.449,0,0,1-.449-.449V21.372L33.2,23.958a.449.449,0,1,1-.584-.682l3.759-3.222a.449.449,0,0,1,.742.341V33.323a.449.449,0,0,1-.449.449Z" transform="translate(3829.779 12117.73)" fill="#ef4123"/>
    <path id="Path_1153" data-name="Path 1153" d="M40.2,35.232h-7a.449.449,0,0,1,0-.9h7a.449.449,0,0,1,0,.9Z" transform="translate(3829.748 12116.271)" fill="#ef4123"/>
    <path id="Path_1154" data-name="Path 1154" d="M34.367,49.127c-1.236,0-2.184-1.182-3.1-2.326-.669-.836-1.363-1.7-2.021-1.876a5.469,5.469,0,0,0-2.794.622c-1.337.518-2.721,1.052-3.745.459-1.043-.6-1.271-2.083-1.49-3.513a5.416,5.416,0,0,0-.837-2.7,5.421,5.421,0,0,0-2.7-.837c-1.43-.22-2.91-.449-3.513-1.491-.593-1.026-.058-2.408.459-3.744a5.476,5.476,0,0,0,.621-2.793c-.18-.659-1.04-1.348-1.875-2.022-1.144-.917-2.325-1.864-2.325-3.1s1.182-2.184,2.326-3.1c.835-.669,1.7-1.362,1.874-2.021a5.481,5.481,0,0,0-.621-2.794c-.518-1.337-1.052-2.719-.459-3.745.6-1.042,2.084-1.27,3.513-1.49a5.428,5.428,0,0,0,2.7-.837,5.421,5.421,0,0,0,.836-2.691c.22-1.43.449-2.91,1.491-3.513,1.026-.594,2.408-.059,3.744.458a5.465,5.465,0,0,0,2.794.622c.658-.18,1.348-1.04,2.021-1.875.917-1.14,1.865-2.323,3.1-2.323s2.184,1.182,3.1,2.326c.669.836,1.363,1.7,2.021,1.875a5.52,5.52,0,0,0,2.794-.621c1.336-.518,2.719-1.053,3.745-.459,1.043.6,1.271,2.083,1.49,3.513a5.412,5.412,0,0,0,.837,2.691,5.412,5.412,0,0,0,2.7.837c1.43.219,2.91.449,3.513,1.49s.058,2.408-.459,3.745a5.474,5.474,0,0,0-.621,2.793c.18.659,1.04,1.348,1.875,2.022,1.144.917,2.325,1.864,2.325,3.1S56.5,28,55.354,28.917c-.835.67-1.7,1.363-1.874,2.022a5.476,5.476,0,0,0,.621,2.793c.518,1.337,1.052,2.72.459,3.745-.6,1.043-2.084,1.271-3.513,1.491a5.419,5.419,0,0,0-2.7.837,5.421,5.421,0,0,0-.836,2.691c-.22,1.43-.449,2.91-1.491,3.513-1.023.594-2.407.059-3.744-.459a5.481,5.481,0,0,0-2.794-.622c-.658.18-1.348,1.041-2.021,1.876C36.552,47.944,35.6,49.127,34.367,49.127Zm-5.51-5.147a2.359,2.359,0,0,1,.62.077,5.767,5.767,0,0,1,2.49,2.181c.783.979,1.591,1.99,2.4,1.99s1.617-1.012,2.4-1.99a5.767,5.767,0,0,1,2.49-2.181,5.928,5.928,0,0,1,3.35.651c1.139.441,2.316.9,2.971.519.67-.388.864-1.652,1.051-2.875a5.837,5.837,0,0,1,1.089-3.189,5.89,5.89,0,0,1,3.191-1.09c1.22-.191,2.485-.382,2.875-1.052.377-.652-.077-1.831-.519-2.965a5.932,5.932,0,0,1-.651-3.35A5.762,5.762,0,0,1,54.8,28.216c.978-.784,1.989-1.595,1.989-2.4s-1.011-1.617-1.989-2.4a5.794,5.794,0,0,1-2.187-2.5,5.915,5.915,0,0,1,.651-3.349c.442-1.139.9-2.317.519-2.971-.387-.67-1.651-.864-2.875-1.052a5.837,5.837,0,0,1-3.19-1.09,5.889,5.889,0,0,1-1.09-3.19c-.191-1.22-.381-2.484-1.05-2.875s-1.833.08-2.972.519a5.941,5.941,0,0,1-3.35.651,5.764,5.764,0,0,1-2.49-2.182C35.985,4.409,35.176,3.4,34.367,3.4s-1.617,1.011-2.4,1.989a5.764,5.764,0,0,1-2.49,2.182,5.934,5.934,0,0,1-3.35-.651c-1.139-.441-2.316-.9-2.971-.519-.67.388-.864,1.651-1.051,2.875a5.847,5.847,0,0,1-1.089,3.19,5.875,5.875,0,0,1-3.191,1.089c-1.22.19-2.485.382-2.875,1.052-.377.653.077,1.831.519,2.971a5.932,5.932,0,0,1,.651,3.35,5.766,5.766,0,0,1-2.182,2.49c-.978.784-1.989,1.595-1.989,2.4s1.011,1.617,1.989,2.4a5.766,5.766,0,0,1,2.182,2.49,5.919,5.919,0,0,1-.651,3.35c-.442,1.139-.9,2.317-.519,2.97.387.671,1.651.865,2.875,1.053a5.844,5.844,0,0,1,3.19,1.089,5.89,5.89,0,0,1,1.09,3.191c.191,1.22.381,2.484,1.05,2.875s1.833-.078,2.972-.518a8.191,8.191,0,0,1,2.73-.735Z" transform="translate(3831.949 12119.5)" fill="#ef4123"/>
    <path id="Path_1155" data-name="Path 1155" d="M35.247,42.218A15.526,15.526,0,1,1,50.772,26.692,15.526,15.526,0,0,1,35.247,42.218Zm0-30.153A14.628,14.628,0,1,0,49.874,26.692,14.628,14.628,0,0,0,35.247,12.065Z" transform="translate(3831.07 12118.621)" fill="#ef4123"/>
    <path id="Path_1156" data-name="Path 1156" d="M27.054,37.158a.58.58,0,0,1-.425-.18A12.389,12.389,0,0,1,23.3,29.547a.584.584,0,0,1,1.164-.1,11.232,11.232,0,0,0,3.017,6.725.583.583,0,0,1-.424.988Z" transform="translate(3830.707 12116.818)" fill="#fff"/>
    <path id="Path_1157" data-name="Path 1157" d="M23.964,27.042a.622.622,0,0,1-.081-.005.583.583,0,0,1-.5-.659c.044-.319.106-.629.174-.943a.584.584,0,0,1,1.141.25c-.062.281-.119.565-.159.854a.583.583,0,0,1-.578.5Z" transform="translate(3830.698 12117.22)" fill="#fff"/>
  </g>
</svg>
