<svg xmlns="http://www.w3.org/2000/svg" width="58.198" height="50.309" viewBox="0 0 58.198 50.309">
  <g id="Group_1718" data-name="Group 1718" transform="translate(-5600.919 -12084.6)">
    <path id="Path_1272" data-name="Path 1272" d="M565.5,506.3V483.7c0-.5-.1-1.1.1-1.4.3-.5.8-1,1.3-1,.4,0,.9.6,1.2,1,.2.3.1.8.1,1.3v45.7a4.034,4.034,0,0,1,0,1.1,2.5,2.5,0,0,1-1.3,1.2c-.3.1-.9-.7-1.2-1.2-.2-.3-.1-.8-.1-1.3C565.5,521.5,565.5,513.9,565.5,506.3Z" transform="translate(5063.4 11603.3)" fill="#717171"/>
    <g id="Group_1707" data-name="Group 1707" transform="translate(5063.4 11603.3)">
      <path id="Path_1273" data-name="Path 1273" d="M550.8,523.6v3.3a1.9,1.9,0,0,1-1.9,2.1q-3.45.15-6.9,0c-1.2,0-1.8-.7-1.8-2,0-6.2-.1-12.4.1-18.7.1-1.7,1.2-3.4,1.9-5.4-.7-.4-1.8-1-2.9-1.6-1.8-1-2.1-2.1-1.5-4.5.6-2.3.9-2.5,3.1-2.5,1.8,0,3.6-.1,5.4,0a1.812,1.812,0,0,0,2.2-1.6c.2-.9.6-1.8.9-2.7a5.13,5.13,0,0,1,4.9-3.6,46.842,46.842,0,0,1,5.3,0c.6.1,1.5.7,1.6,1.3.2,1.1-.7,1.4-1.7,1.4h-4c-2.7,0-3.1.3-4,2.8-.4,1-.8,2-1.1,3a2.938,2.938,0,0,1-3.1,2.2h-5.9c-.5,0-1.3.5-1.3.7a1.723,1.723,0,0,0,.8,1.4c.9.6,1.9,1,2.8,1.6a2.569,2.569,0,0,1,.7,4.1,7.3,7.3,0,0,0-1.8,5.3c.1,4.8,0,9.6,0,14.4v1.7h5.3v-2.4a2.52,2.52,0,0,1,2.7-2.7c3-.1,6,0,8.9,0,.9,0,1.8.3,1.5,1.3a2.376,2.376,0,0,1-1.6,1.3C556.8,523.7,553.9,523.6,550.8,523.6Z"/>
      <path id="Path_1274" data-name="Path 1274" d="M555.7,513.7c-2,0-3.9.1-5.8,0a1.924,1.924,0,0,1-1.6-2.8.951.951,0,0,1,1-.4c1.5.1,3.1.3,4.6.5C555.7,511.2,556,511.7,555.7,513.7Z"/>
    </g>
    <g id="Group_1708" data-name="Group 1708" transform="translate(5063.4 11603.3)">
      <path id="Path_1275" data-name="Path 1275" d="M582.7,523.6h-8.6c-1,0-1.9,0-2-1.3,0-1.4,1-1.4,2-1.4h7.8c2.5,0,3.3.8,3.3,3.4v1.8a7.605,7.605,0,0,0,1.4.1h3.9c0-.6.1-1,.1-1.4V509.3a5.973,5.973,0,0,0-1.6-4.2c-1.5-1.8-1.2-3.4.8-4.6a22.007,22.007,0,0,0,2.6-1.5,1.457,1.457,0,0,0,.5-1.2,1.548,1.548,0,0,0-1.1-.8,58.051,58.051,0,0,0-5.9,0,3.073,3.073,0,0,1-3.3-2.3c-.4-1.2-.9-2.4-1.3-3.6a2.633,2.633,0,0,0-2.9-2h-4.8c-.9,0-1.8-.2-1.8-1.4,0-1.1.9-1.3,1.8-1.3,1.7,0,3.4-.1,5.1,0a5.252,5.252,0,0,1,5,3.6c.1.1.1.3.2.4,1.4,3.9,1.4,3.9,5.5,3.9h3.7a1.963,1.963,0,0,1,2.1,1.6,14.187,14.187,0,0,1,.5,2.2,2.889,2.889,0,0,1-1.6,3.2c-1.1.6-2.2,1.2-3.6,1.9,3.2,2.8,2.5,6.4,2.5,9.9v13.4c0,1.9-.5,2.5-2.4,2.5H585c-2,0-2.6-.5-2.6-2.5A8.928,8.928,0,0,0,582.7,523.6Z" fill="#ef4323"/>
      <path id="Path_1276" data-name="Path 1276" d="M577.8,513.7c-.1-2.2.2-2.6,2.1-2.8,1.3-.2,2.5-.3,3.8-.4.6,0,1.5-.7,1.7.6.2,1.4-.3,2.4-1.5,2.5s-2.3.1-3.5.1A22.557,22.557,0,0,1,577.8,513.7Z" fill="#ef4323"/>
    </g>
  </g>
</svg>
