<svg xmlns="http://www.w3.org/2000/svg" width="74.995" height="55.22" viewBox="0 0 74.995 55.22">
  <g id="Group_1727" data-name="Group 1727" transform="translate(-5253.5 -8742.375)">
    <path id="Path_1223" data-name="Path 1223" d="M184.691,276.035h-1.045a.045.045,0,0,1-.045-.045c-.318-.364-.682-.682-1-1.045V274.9h2.136v-2.136a.874.874,0,0,0-.182-.545.561.561,0,0,0-.364-.182.929.929,0,0,0-.5,0c-.045,0-.091.045-.182.091-.045-.045-.045-.091-.091-.182-.091-.227-.182-.409-.273-.636a.4.4,0,0,1,.045-.318.925.925,0,0,1,.318-.273,1.509,1.509,0,0,1,.727-.227,1.213,1.213,0,0,1,1.182.5,2.5,2.5,0,0,1,.455,1.136,2.591,2.591,0,0,1,.045.591V274.9h.636c.364.364.682.682,1,1.045h-1.682v3.045a.893.893,0,0,0,.409.773.768.768,0,0,0,.454.136,1.706,1.706,0,0,0,1.318-.318,4.4,4.4,0,0,0,1.273-1.318,1.992,1.992,0,0,0,.318-.864v-.182h-.182a1.729,1.729,0,0,1-.818-.136,1.026,1.026,0,0,1-.591-.636,1.954,1.954,0,0,1-.091-1.136,1.527,1.527,0,0,1,.454-.727,1.4,1.4,0,0,1,.545-.227,2.472,2.472,0,0,1,.818,0,2.527,2.527,0,0,1,.773.409,2.66,2.66,0,0,1,.773,1.5,3.493,3.493,0,0,1-.318,2.045,5.245,5.245,0,0,1-.909,1.318,3.134,3.134,0,0,1-.818.727,3.567,3.567,0,0,1-1.409.636,5.57,5.57,0,0,1-.864.091,2.655,2.655,0,0,1-.818-.182,2.925,2.925,0,0,1-1.227-1,1.422,1.422,0,0,1-.227-.455V275.9C184.691,276.08,184.691,276.035,184.691,276.035Z" transform="translate(5104.125 8480.998)" fill="#ef4323"/>
    <path id="Path_1220" data-name="Path 1220" d="M156.005,277.368c2.591,1.773,5.227,3.591,7.863,5.272a4.743,4.743,0,0,0,2.136.454,37.6,37.6,0,0,1,15.726,4.681c1.954,1.091,3.136,2.454,2.818,4.909-.182,1.318,0,2.727-.091,4.091a3.043,3.043,0,0,1-3.182,3.136,22.921,22.921,0,0,1-2.5,0c-2.727-.136-4.909-.136-6.772,3-2.636,4.454-9.454,3.5-11.681-1.318a2.6,2.6,0,0,0-2.863-1.727c-6.909.045-13.772.045-20.68,0a2.414,2.414,0,0,0-2.727,1.682,6.491,6.491,0,0,1-6.5,4.091,6.418,6.418,0,0,1-6.227-4.136c-.591-1.454-1.409-1.636-2.727-1.636-7.636,0-8-.409-8-8.09V287.64c.773-.182,1.454-.318,2.318-.5v-8.363h7.408a6,6,0,0,0,2.227-.227c2.136-.954,4.091-2.273,6.272-3.091a54,54,0,0,1,6.727-1.727c-3.636-9.454-1.909-16.317,5.09-20.316a14.235,14.235,0,0,1,18.18,3.682C163.6,263.187,162.6,270.414,156.005,277.368Zm25.543,19.726c-4.227-1.318-6.09-4.136-6.363-8.363a2.26,2.26,0,0,0-1.545-1.454,68.59,68.59,0,0,0-10.045-1.454c-8.454-.227-16.953-.227-25.407,0a25.315,25.315,0,0,1-13.5-3.272c-2.227-1.227-4.363-1.182-7.136-1.045,2.682,2.909,5.09,5.545,7.863,8.545H113.282v5.09c0,1.454.773,2.045,2.136,2.045h5.136a2.125,2.125,0,0,1,.227-.273c1.182-3.182,3.272-5.363,6.818-5.409,3.363-.091,5.681,1.682,6.954,4.818a1.776,1.776,0,0,0,1.318.864c7.954.045,15.862.045,23.816.045,1.045-3.454,3.227-5.59,6.727-5.727,3.909-.182,6.227,2.182,7.408,5.545C176.5,297.094,179.049,297.094,181.549,297.094ZM136.1,265.733a11.5,11.5,0,1,0,11.544-11.545A11.474,11.474,0,0,0,136.1,265.733Zm5.863,17.226a17.008,17.008,0,0,0-1.545-4.363c-.591-.954-1.909-2.136-2.863-2.091a24.205,24.205,0,0,0-12,3.363C130.644,283.231,136.1,283.367,141.961,282.958Zm24.771,11.181a4.455,4.455,0,1,0,4.409,4.545A4.5,4.5,0,0,0,166.732,294.139Zm-34.543,4.5a4.471,4.471,0,0,0-4.454-4.5,4.425,4.425,0,0,0-4.318,4.409,4.377,4.377,0,0,0,4.409,4.5A4.527,4.527,0,0,0,132.189,298.639ZM143.461,280.1c.818.954,1.591,2.773,2.5,2.818,4.318.318,8.681.136,13,.136a10.309,10.309,0,0,0-3.454-2.591,8.992,8.992,0,0,0-3.5-1.227C149.37,279.322,146.733,279.777,143.461,280.1Zm34.77,9.09c-.091,2.773.818,3.954,3.409,4.409C182.23,290.912,181.912,290.458,178.231,289.185Zm-59.086-1.954c-.773-.864-1.227-1.364-1.682-1.863-.455-.454-.909-.864-1.591-1.545v3.363C116.918,287.231,117.827,287.231,119.145,287.231Z" transform="translate(5143.4 8491.3)" fill="none" stroke="#000" stroke-miterlimit="10" stroke-width="1"/>
  </g>
</svg>
