<svg xmlns="http://www.w3.org/2000/svg" width="75.184" height="55.358" viewBox="0 0 75.184 55.358">
  <g id="Group_1728" data-name="Group 1728" transform="translate(-5461.5 -8742.375)">
    <path id="Path_1221" data-name="Path 1221" d="M364.122,277.434c2.6,1.777,5.24,3.6,7.883,5.286a4.757,4.757,0,0,0,2.142.456,37.691,37.691,0,0,1,15.766,4.693c1.959,1.094,3.144,2.461,2.825,4.921-.182,1.321,0,2.734-.091,4.1a3.051,3.051,0,0,1-3.19,3.144,22.977,22.977,0,0,1-2.506,0c-2.734-.137-4.921-.137-6.79,3.007-2.643,4.466-9.478,3.509-11.711-1.321a2.609,2.609,0,0,0-2.871-1.732c-6.926.046-13.807.046-20.733,0a2.421,2.421,0,0,0-2.734,1.686,6.508,6.508,0,0,1-6.516,4.1,6.434,6.434,0,0,1-6.243-4.147c-.592-1.458-1.413-1.64-2.734-1.64-7.655,0-8.02-.41-8.02-8.111v-4.147c.775-.182,1.458-.319,2.324-.5v-8.384h7.427a6.021,6.021,0,0,0,2.233-.228c2.142-.957,4.1-2.278,6.288-3.1a54.14,54.14,0,0,1,6.744-1.732c-3.645-9.478-1.914-16.359,5.1-20.369a14.271,14.271,0,0,1,18.227,3.691C371.732,263.217,370.729,270.462,364.122,277.434Zm25.609,19.776c-4.238-1.321-6.106-4.147-6.379-8.384a2.266,2.266,0,0,0-1.549-1.458,68.767,68.767,0,0,0-10.07-1.458c-8.476-.228-17-.228-25.472,0a25.379,25.379,0,0,1-13.534-3.281c-2.233-1.23-4.374-1.185-7.154-1.048,2.688,2.916,5.1,5.559,7.883,8.567H321.288v5.1c0,1.458.775,2.051,2.142,2.051h5.149a2.124,2.124,0,0,1,.228-.273c1.185-3.19,3.281-5.377,6.835-5.423,3.372-.091,5.7,1.686,6.972,4.83a1.78,1.78,0,0,0,1.321.866c7.974.046,15.9.046,23.877.046,1.048-3.463,3.235-5.6,6.744-5.741,3.919-.182,6.243,2.187,7.427,5.559C384.673,297.21,387.224,297.21,389.731,297.21Zm-45.567-31.441a11.529,11.529,0,1,0,11.574-11.574A11.5,11.5,0,0,0,344.163,265.769Zm5.878,17.27a17.05,17.05,0,0,0-1.549-4.374c-.592-.957-1.914-2.142-2.871-2.1a24.268,24.268,0,0,0-12.03,3.372C338.7,283.312,344.163,283.449,350.042,283.039Zm24.834,11.21a4.466,4.466,0,1,0,4.42,4.557A4.512,4.512,0,0,0,374.876,294.248Zm-34.631,4.511a4.483,4.483,0,0,0-4.466-4.511,4.436,4.436,0,0,0-4.329,4.42,4.388,4.388,0,0,0,4.42,4.511A4.539,4.539,0,0,0,340.245,298.76Zm11.3-18.591c.82.957,1.595,2.78,2.506,2.825,4.329.319,8.7.137,13.032.137a10.336,10.336,0,0,0-3.463-2.6,9.015,9.015,0,0,0-3.509-1.23C357.469,279.393,354.826,279.849,351.545,280.168Zm34.859,9.113c-.091,2.78.82,3.964,3.418,4.42C390.414,291.013,390.1,290.557,386.4,289.282Zm-59.238-1.959c-.775-.866-1.23-1.367-1.686-1.868-.456-.456-.911-.866-1.595-1.549v3.372C324.934,287.322,325.845,287.322,327.167,287.322Z" transform="translate(5143.4 8491.3)" fill="none" stroke="#000" stroke-miterlimit="10" stroke-width="1"/>
    <g id="Group_1693" data-name="Group 1693" transform="translate(5493.271 8751.053)">
      <path id="Path_1224" data-name="Path 1224" d="M390.9,281.118c.41-.729.82-1.458,1.276-2.187,1.686-2.825,3.418-5.65,5.149-8.521.592-1,.638-1,1.914-.82-.592.957-1.139,1.914-1.686,2.825-1.549,2.6-3.144,5.149-4.6,7.746C392.449,281.027,391.948,281.482,390.9,281.118Z" transform="translate(-389.225 -269.497)" fill="#ef4323"/>
      <path id="Path_1225" data-name="Path 1225" d="M391.315,272.525v1a2.045,2.045,0,0,1-2,1.959,2.015,2.015,0,0,1-2.051-1.914,12.789,12.789,0,0,1,0-1.868,2.028,2.028,0,0,1,4.056.046v.775Zm-1.139.091V271.7a.89.89,0,0,0-.82-.866.936.936,0,0,0-.911.866c0,.592-.046,1.23,0,1.823a.827.827,0,0,0,.866.82.865.865,0,0,0,.866-.866Z" transform="translate(-387.225 -269.607)" fill="#ef4323"/>
      <path id="Path_1226" data-name="Path 1226" d="M408.077,285.46a10.974,10.974,0,0,1-.319,1.686,1.932,1.932,0,0,1-2.051,1.139,1.994,1.994,0,0,1-1.732-1.914c-.046-.638,0-1.276,0-1.914a2.071,2.071,0,0,1,1.959-1.959,2,2,0,0,1,2.051,1.823,9.5,9.5,0,0,1,0,1.139C407.986,285.414,408.031,285.414,408.077,285.46Zm-1.276-.091h0a6.081,6.081,0,0,0,0-.911.9.9,0,0,0-.866-.866.828.828,0,0,0-.82.866v1.823a.857.857,0,0,0,.866.82.881.881,0,0,0,.866-.775C406.847,286.052,406.8,285.688,406.8,285.369Z" transform="translate(-396.332 -276.573)" fill="#ef4323"/>
    </g>
  </g>
</svg>
