<svg xmlns="http://www.w3.org/2000/svg" width="67.9" height="48.4" viewBox="0 0 67.9 48.4">
  <g id="Group_1706" data-name="Group 1706" transform="translate(-331.7 -481.6)">
    <g id="Group_1701" data-name="Group 1701">
      <path id="Path_1261" data-name="Path 1261" d="M387.1,515.5a5.2,5.2,0,0,1,0-10.4,5.228,5.228,0,0,1,5.2,5.2A5.164,5.164,0,0,1,387.1,515.5Zm0-8.8a3.6,3.6,0,1,0,3.6,3.6A3.524,3.524,0,0,0,387.1,506.7Z" fill="#ef4323"/>
      <path id="Path_1262" data-name="Path 1262" d="M387.1,515.8a5.4,5.4,0,1,1,5.4-5.4A5.378,5.378,0,0,1,387.1,515.8Zm0-10.4a4.9,4.9,0,1,0,4.9,4.9A4.908,4.908,0,0,0,387.1,505.4Zm0,8.8a3.9,3.9,0,1,1,3.9-3.9A3.842,3.842,0,0,1,387.1,514.2Zm0-7.2a3.4,3.4,0,1,0,3.4,3.4A3.372,3.372,0,0,0,387.1,507Z" fill="#ef4323"/>
    </g>
    <path id="Path_1263" data-name="Path 1263" d="M378.3,512.5H352.7a1.9,1.9,0,1,1,0-3.8h25.6a1.9,1.9,0,0,1,0,3.8Zm-25.5-2.2a.3.3,0,0,0,0,.6h25.6a.3.3,0,0,0,0-.6Z" fill="#ef4323"/>
    <g id="Group_1702" data-name="Group 1702">
      <path id="Path_1264" data-name="Path 1264" d="M343.9,515.5a5.123,5.123,0,1,1,3.7-1.5A5.164,5.164,0,0,1,343.9,515.5Zm0-8.8a3.6,3.6,0,1,0,0,7.2,3.6,3.6,0,1,0,0-7.2Z" fill="#ef4323"/>
      <path id="Path_1265" data-name="Path 1265" d="M343.9,515.8a5.4,5.4,0,1,1,5.4-5.4,5.464,5.464,0,0,1-5.4,5.4Zm0-10.4a4.9,4.9,0,0,0,0,9.8,5.178,5.178,0,0,0,3.5-1.4,5,5,0,0,0,1.4-3.5A4.908,4.908,0,0,0,343.9,505.4Zm0,8.8a3.9,3.9,0,1,1,3.9-3.9,4.3,4.3,0,0,1-1.1,2.8A4.106,4.106,0,0,1,343.9,514.2Zm0-7.2a3.4,3.4,0,0,0,0,6.8,3.414,3.414,0,0,0,3.4-3.4A3.372,3.372,0,0,0,343.9,507Z" fill="#ef4323"/>
    </g>
    <g id="Group_1703" data-name="Group 1703">
      <path id="Path_1266" data-name="Path 1266" d="M383.3,496.9h-7.1a.645.645,0,0,1-.6-.6,4.225,4.225,0,0,1,4.2-4.2,4.14,4.14,0,0,1,4.1,4.2A.645.645,0,0,1,383.3,496.9Zm-6.5-1.2h5.8a2.952,2.952,0,0,0-5.8,0Z" fill="#ef4323"/>
      <path id="Path_1267" data-name="Path 1267" d="M383.3,497.1h-7.1a.86.86,0,0,1-.8-.8,4.439,4.439,0,0,1,4.4-4.4,4.354,4.354,0,0,1,4.3,4.4A.86.86,0,0,1,383.3,497.1Zm-3.6-4.8a4.012,4.012,0,0,0-4,4,.43.43,0,0,0,.4.4h7.1a.43.43,0,0,0,.4-.4A3.866,3.866,0,0,0,379.7,492.3Zm3.1,3.6h-6.3v-.2a3.112,3.112,0,0,1,3.1-2.5,3.214,3.214,0,0,1,3.1,2.5Zm-5.7-.4h5.3a2.672,2.672,0,0,0-2.6-2A2.7,2.7,0,0,0,377.1,495.5Z" fill="#ef4323"/>
    </g>
    <g id="Group_1704" data-name="Group 1704">
      <path id="Path_1268" data-name="Path 1268" d="M388.4,497.8h-.1a8.969,8.969,0,0,0-1.8-.2.773.773,0,0,1-.7-.8v-.1a6,6,0,0,0-12,0,.789.789,0,0,1-.8.8H345.6a24.518,24.518,0,0,0-2.7.2.844.844,0,0,1-.7-.2.618.618,0,0,1-.2-.7c1.4-7,5.2-11.6,9.5-11.6h28.3c4.2,0,8,4.7,9.4,11.6a.663.663,0,0,1-.2.7A.864.864,0,0,1,388.4,497.8Zm-1.2-1.7h.2c-1.4-5.6-4.5-9.4-7.7-9.4H351.4c-3.2,0-6.3,3.8-7.7,9.3a10.868,10.868,0,0,1,1.8-.1h26.7a7.582,7.582,0,0,1,7.5-6.8A7.688,7.688,0,0,1,387.2,496.1Z" fill="#ef4323"/>
      <path id="Path_1269" data-name="Path 1269" d="M388.4,498.1h-.2a8.969,8.969,0,0,0-1.8-.2,1.075,1.075,0,0,1-1-1v-.1a5.8,5.8,0,0,0-11.6.1,1,1,0,0,1-1,1H345.4a24.518,24.518,0,0,0-2.7.2,1.008,1.008,0,0,1-.9-.3,1.4,1.4,0,0,1-.3-.9c1.5-7.1,5.3-11.8,9.7-11.8h28.3c4.4,0,8.2,4.8,9.7,11.8a.806.806,0,0,1-.3.9C388.9,498,388.7,498.1,388.4,498.1Zm-8.7-7.6a6.318,6.318,0,0,1,6.3,6.2v.1a.472.472,0,0,0,.5.5,8.968,8.968,0,0,1,1.8.2.9.9,0,0,0,.5-.1.44.44,0,0,0,.1-.5c-1.4-6.8-5.1-11.4-9.2-11.4H351.4c-4.1,0-7.8,4.6-9.2,11.4a.9.9,0,0,0,.1.5.44.44,0,0,0,.5.1,12.287,12.287,0,0,1,2.7-.2h27.4a.472.472,0,0,0,.5-.5A6.274,6.274,0,0,1,379.7,490.5Zm8,5.9-.7-.1v-.2a7.381,7.381,0,0,0-7.3-6.7,7.287,7.287,0,0,0-7.3,6.6v.2H345.5a10.868,10.868,0,0,0-1.8.1h-.4l.1-.4c1.4-5.7,4.6-9.5,8-9.5h28.3c3.3,0,6.5,3.8,7.9,9.6ZM351.4,487c-3,0-5.9,3.5-7.4,8.8.5,0,1-.1,1.5-.1h26.4a7.794,7.794,0,0,1,7.8-6.8,7.877,7.877,0,0,1,5.5,2.3c-1.5-2.7-3.5-4.3-5.5-4.3H351.4Z" fill="#ef4323"/>
    </g>
    <g id="Group_1705" data-name="Group 1705">
      <path id="Path_1270" data-name="Path 1270" d="M394.9,529.8H383.8a.789.789,0,0,1-.8-.8v-4.4H348V529a.789.789,0,0,1-.8.8H336.1a.789.789,0,0,1-.8-.8v-8.5a15.09,15.09,0,0,1-3.6-10.2c0-5.7,2.4-10.2,6.6-12.6,1.4-9.4,6.7-15.9,13-15.9h28.3c6.3,0,11.6,6.5,13,15.9,4.2,2.3,6.6,6.9,6.6,12.6a14.908,14.908,0,0,1-3.6,10.2V529A.709.709,0,0,1,394.9,529.8Zm-10.4-1.5h9.6v-8a.764.764,0,0,1,.2-.5,13.368,13.368,0,0,0,3.4-9.4c0-5.2-2.2-9.4-6.1-11.4a.675.675,0,0,1-.4-.6c-1.2-8.8-5.9-14.9-11.5-14.9H351.4c-5.6,0-10.4,6.1-11.5,14.9a.822.822,0,0,1-.4.6c-3.9,2-6.1,6.2-6.1,11.4a13.368,13.368,0,0,0,3.4,9.4.764.764,0,0,1,.2.5v8h9.6v-4.4a.789.789,0,0,1,.8-.8h36.5a.789.789,0,0,1,.8.8v4.4Z" fill="#ef4323"/>
      <path id="Path_1271" data-name="Path 1271" d="M394.9,530H383.8a1,1,0,0,1-1-1v-4.1H348.4V529a1,1,0,0,1-1,1H336.3a1,1,0,0,1-1-1v-8.4a15.356,15.356,0,0,1-3.6-10.3c0-5.7,2.4-10.3,6.6-12.7,1.4-9.4,6.8-16,13.2-16h28.3c6.4,0,11.8,6.6,13.2,16,4.2,2.4,6.6,7,6.6,12.7a15.356,15.356,0,0,1-3.6,10.3V529A1.09,1.09,0,0,1,394.9,530Zm-47.1-5.6h35.5V529a.472.472,0,0,0,.5.5h11.1a.472.472,0,0,0,.5-.5v-8.6l.1-.1a14.748,14.748,0,0,0,3.6-10c0-5.5-2.4-10-6.5-12.3l-.1-.1v-.1c-1.3-9.2-6.6-15.6-12.7-15.6H351.5c-6.2,0-11.4,6.4-12.8,15.6v.1l-.1.1c-4.1,2.3-6.5,6.8-6.5,12.3a14.566,14.566,0,0,0,3.6,10l.1.1V529a.472.472,0,0,0,.5.5h11.1a.472.472,0,0,0,.5-.5v-4.6Zm46.6,4.1H384.3v-4.6a.472.472,0,0,0-.5-.5H347.3a.472.472,0,0,0-.5.5v4.6H336.7v-8.3c0-.1-.1-.3-.1-.4a13.762,13.762,0,0,1-3.5-9.6c0-5.3,2.3-9.6,6.3-11.6a1.38,1.38,0,0,0,.3-.4c1.2-8.9,6-15.1,11.8-15.1h28.3c5.8,0,10.6,6.2,11.8,15.1,0,.2.1.3.3.4,4,2.1,6.3,6.3,6.3,11.6a13.658,13.658,0,0,1-3.5,9.6c-.1.1-.1.2-.1.4v8.3Zm-9.6-.5h9.1v-7.7a.908.908,0,0,1,.3-.7,12.809,12.809,0,0,0,3.3-9.2c0-5.1-2.2-9.2-6-11.2a.891.891,0,0,1-.5-.8c-1.1-8.7-5.8-14.7-11.3-14.7H351.4c-5.5,0-10.1,6-11.3,14.7a1.02,1.02,0,0,1-.5.8c-3.8,2-6,6-6,11.2a13.255,13.255,0,0,0,3.3,9.2.908.908,0,0,1,.3.7V528h9.1v-4.1a1,1,0,0,1,1-1h36.5a1,1,0,0,1,1,1Z" fill="#ef4323"/>
    </g>
  </g>
</svg>
