<svg xmlns="http://www.w3.org/2000/svg" width="75.546" height="55.624" viewBox="0 0 75.546 55.624">
  <g id="Group_1730" data-name="Group 1730" transform="translate(-5663.5 -8742.375)">
    <path id="Path_1222" data-name="Path 1222" d="M566.344,277.56c2.61,1.786,5.266,3.617,7.922,5.312a4.779,4.779,0,0,0,2.152.458,37.875,37.875,0,0,1,15.843,4.716c1.969,1.1,3.159,2.473,2.839,4.945-.183,1.328,0,2.747-.092,4.121a3.066,3.066,0,0,1-3.205,3.159,23.094,23.094,0,0,1-2.518,0c-2.747-.137-4.945-.137-6.823,3.022-2.656,4.487-9.524,3.526-11.768-1.328a2.621,2.621,0,0,0-2.885-1.74c-6.96.046-13.874.046-20.834,0a2.432,2.432,0,0,0-2.747,1.694,6.54,6.54,0,0,1-6.548,4.121,6.466,6.466,0,0,1-6.273-4.167c-.6-1.465-1.419-1.648-2.747-1.648-7.693,0-8.059-.412-8.059-8.151v-4.167c.778-.183,1.465-.321,2.335-.5V278.98H530.4a6.05,6.05,0,0,0,2.244-.229c2.152-.962,4.121-2.289,6.319-3.114a54.4,54.4,0,0,1,6.777-1.74c-3.663-9.524-1.923-16.438,5.128-20.468a14.341,14.341,0,0,1,18.316,3.709C573.991,263.274,572.983,270.554,566.344,277.56Zm25.734,19.873c-4.258-1.328-6.136-4.167-6.411-8.425a2.277,2.277,0,0,0-1.557-1.465,69.1,69.1,0,0,0-10.12-1.465c-8.517-.229-17.08-.229-25.6,0a25.5,25.5,0,0,1-13.6-3.3c-2.244-1.236-4.4-1.191-7.189-1.053,2.7,2.931,5.128,5.586,7.922,8.608H523.3v5.128c0,1.465.778,2.061,2.152,2.061h5.174a2.148,2.148,0,0,1,.229-.275c1.19-3.205,3.3-5.4,6.868-5.449,3.388-.092,5.724,1.694,7.006,4.854a1.789,1.789,0,0,0,1.328.87c8.013.046,15.981.046,23.994.046,1.053-3.48,3.251-5.632,6.777-5.77,3.938-.183,6.273,2.2,7.464,5.586C586.995,297.433,589.559,297.433,592.078,297.433Zm-45.744-31.595a11.585,11.585,0,1,0,11.631-11.631A11.56,11.56,0,0,0,546.334,265.838Zm5.861,17.354a17.137,17.137,0,0,0-1.557-4.4c-.6-.962-1.923-2.152-2.885-2.106a24.387,24.387,0,0,0-12.089,3.388C540.793,283.467,546.288,283.6,552.195,283.192Zm24.955,11.264a4.488,4.488,0,1,0,4.442,4.579A4.534,4.534,0,0,0,577.15,294.457Zm-34.8,4.533a4.5,4.5,0,0,0-4.487-4.533,4.458,4.458,0,0,0-4.35,4.442,4.41,4.41,0,0,0,4.442,4.533A4.561,4.561,0,0,0,542.35,298.99Zm11.356-18.682c.824.962,1.6,2.793,2.518,2.839,4.35.321,8.746.137,13.1.137a10.386,10.386,0,0,0-3.48-2.61,9.059,9.059,0,0,0-3.526-1.236C559.659,279.529,557,279.987,553.706,280.308Zm35.029,9.158c-.092,2.793.824,3.984,3.434,4.442C592.764,291.205,592.444,290.748,588.735,289.465ZM529.208,287.5c-.778-.87-1.236-1.374-1.694-1.877-.458-.458-.916-.87-1.6-1.557v3.388C526.965,287.5,527.88,287.5,529.208,287.5Z" transform="translate(5143.4 8491.3)" fill="none" stroke="#000" stroke-miterlimit="10" stroke-width="1"/>
    <g id="Group_1694" data-name="Group 1694" transform="translate(5694.602 8750.734)">
      <path id="Path_1227" data-name="Path 1227" d="M599.46,272.463a6.288,6.288,0,1,1-11.585.183,6.16,6.16,0,0,1,6.136-3.892c-.229.549-.366,1.053-1.19,1.191a5.108,5.108,0,0,0-4.259,4.671,5.184,5.184,0,0,0,3.846,5.357,5.123,5.123,0,0,0,6.319-6.044C598.544,273.15,599.139,272.967,599.46,272.463Z" transform="translate(-587.431 -268.715)" fill="#ef4323"/>
      <path id="Path_1228" data-name="Path 1228" d="M597.4,278.286c-.916-1.42-1.786-2.793-2.7-4.213a9.467,9.467,0,0,1,1.145,0,.61.61,0,0,1,.412.275c.366.5.687,1.053,1.053,1.648.137-.183.229-.321.321-.458.962-1.6,1.923-3.159,2.93-4.762.5-.824.687-.916,1.832-.641C600.744,272.837,599.1,275.538,597.4,278.286Z" transform="translate(-591.372 -269.409)" fill="#ef4323"/>
    </g>
  </g>
</svg>
