<svg xmlns="http://www.w3.org/2000/svg" width="65.484" height="68.35" viewBox="0 0 65.484 68.35">
  <g id="Group_1472" data-name="Group 1472" transform="translate(-683 -11408.674)">
    <path id="Path_1160" data-name="Path 1160" d="M41.425,40.831a.789.789,0,0,0,.789-.789V21.1a4.312,4.312,0,0,0-1.034-2.713l-5.854-7.092a4.629,4.629,0,0,0-1.042-.934c.023-.241.037-.485.037-.731V.789a.789.789,0,0,0-1.579,0s0,8.915,0,8.953a3.908,3.908,0,0,0-.682-.06H21.851a4.053,4.053,0,0,0-2.054.572.8.8,0,0,0-.081.034l-7.694,3.748a4.124,4.124,0,0,0-1.92,2.019l-.012.029L6.91,24.152a.789.789,0,1,0,1.469.579l3.175-8.053a2.537,2.537,0,0,1,1.169-1.228l4.065-1.98-4.057,4.916A4.2,4.2,0,0,0,11.8,21.1V48.356a5.641,5.641,0,0,0,.079.931l-8.133-3.6a3.66,3.66,0,0,1-1.856-4.82l.01-.024L7.045,28.055a.789.789,0,1,0-1.464-.589L.441,40.238a5.241,5.241,0,0,0,2.666,6.888l9.537,4.226.035.013a5.394,5.394,0,0,0,4.541,2.515H36.689a5.6,5.6,0,0,0,5.525-5.525v-4.63a.789.789,0,1,0-1.579,0v4.63A4,4,0,0,1,36.689,52.3H17.221a3.9,3.9,0,0,1-3.841-3.946V21.1a2.606,2.606,0,0,1,.568-1.709L19.8,12.3a2.7,2.7,0,0,1,2.05-1.039H32.059a2.325,2.325,0,0,1,.443.043,5.945,5.945,0,0,1-3.371,3.8,2.473,2.473,0,1,0,.33,1.568A7.521,7.521,0,0,0,33.91,12.08c.069.069.135.142.2.219l5.854,7.092a2.736,2.736,0,0,1,.673,1.709V40.042a.789.789,0,0,0,.789.789ZM27.007,17.259a.895.895,0,1,1,.895-.895A.9.9,0,0,1,27.007,17.259Z" transform="matrix(0.819, 0.574, -0.574, 0.819, 713.905, 11408.674)" fill="#ef4323"/>
    <path id="Path_1161" data-name="Path 1161" d="M.788,15.049a.786.786,0,0,0,.558-.231l13.47-13.47A.789.789,0,0,0,13.7.231L.23,13.7A.794.794,0,0,0,.788,15.049Z" transform="matrix(0.819, 0.574, -0.574, 0.819, 714.327, 11441.857)" fill="#ef4323"/>
    <path id="Path_1162" data-name="Path 1162" d="M3.525,6.84a3.42,3.42,0,0,0,0-6.84H3.42a3.42,3.42,0,1,0,0,6.84ZM1.579,3.42A1.844,1.844,0,0,1,3.42,1.579h.105a1.842,1.842,0,0,1,0,3.683H3.42A1.844,1.844,0,0,1,1.579,3.42Z" transform="matrix(0.819, 0.574, -0.574, 0.819, 713.524, 11441.167)" fill="#ef4323"/>
    <path id="Path_1163" data-name="Path 1163" d="M3.42,6.84h.105a3.42,3.42,0,0,0,0-6.84H3.42a3.42,3.42,0,0,0,0,6.84Zm0-5.262h.105a1.842,1.842,0,1,1,0,3.683H3.42a1.842,1.842,0,0,1,0-3.683Z" transform="matrix(0.819, 0.574, -0.574, 0.819, 717.204, 11453.893)" fill="#ef4323"/>
  </g>
</svg>
