<svg xmlns="http://www.w3.org/2000/svg" width="36.7" height="36.572" viewBox="0 0 36.7 36.572">
  <g id="Group_1715" data-name="Group 1715" transform="translate(-5978.65 -6963.55)">
    <path id="Path_1197" data-name="Path 1197" d="M489.258,136.616h-9.121c-.085,0-.128-.043-.213-.085l-1.961-1.62a.332.332,0,0,1-.085-.341c0-.085.128-.17.256-.17h13a.234.234,0,0,1,.256.17h.384l-2.387,2C489.386,136.616,489.3,136.616,489.258,136.616Zm-10.741-1.79,1.662,1.364h9.036l1.534-1.279h-.085l.128-.085Z" transform="translate(5512.217 6854.447)" fill="#ef4123" stroke="#ef4123" stroke-width="0.3"/>
    <path id="Path_1198" data-name="Path 1198" d="M516.077,136.559a.321.321,0,0,1-.3-.213.286.286,0,0,1,.128-.341l1.918-1.62a.325.325,0,0,1,.213-.085h2.984v2.216l-4.944.043v0Zm2-1.79-1.662,1.364h4.134v-1.364Z" transform="translate(5490.471 6854.504)" fill="#ef4123" stroke="#ef4123" stroke-width="0.3"/>
    <path id="Path_1199" data-name="Path 1199" d="M464.6,136.616h-4.9V134.4h2.984c.085,0,.128.043.213.085l1.961,1.62a.332.332,0,0,1,.085.341A.44.44,0,0,1,464.6,136.616Zm-4.518-.426h4.134l-1.662-1.364h-2.515v1.364Z" transform="translate(5522.638 6854.447)" fill="#ef4123" stroke="#ef4123" stroke-width="0.3"/>
    <path id="Path_1200" data-name="Path 1200" d="M529.1,116.22h-2v-.81a.809.809,0,0,1,.81-.81H529.1a.809.809,0,0,1,.81.81A.838.838,0,0,1,529.1,116.22Zm-1.577-.426H529.1a.384.384,0,0,0,0-.767H527.91a.382.382,0,0,0-.384.384Z" transform="translate(5483.965 6865.808)" fill="#ef4123" stroke="#ef4123" stroke-width="0.3"/>
    <path id="Path_1201" data-name="Path 1201" d="M522.287,153.913H518.11a.838.838,0,0,1-.81-.81v-2h5.8v2A.809.809,0,0,1,522.287,153.913Zm-4.6-2.387V153.1a.382.382,0,0,0,.384.384h4.177a.382.382,0,0,0,.384-.384v-1.577Z" transform="translate(5489.588 6844.865)" fill="#ef4123" stroke="#ef4123" stroke-width="0.3"/>
    <path id="Path_1202" data-name="Path 1202" d="M461.887,153.913H457.71a.809.809,0,0,1-.81-.81v-2h5.8v2A.809.809,0,0,1,461.887,153.913Zm-4.6-2.387V153.1a.382.382,0,0,0,.384.384h4.177a.382.382,0,0,0,.384-.384v-1.577Z" transform="translate(5524.244 6844.865)" fill="#ef4123" stroke="#ef4123" stroke-width="0.3"/>
    <path id="Path_1203" data-name="Path 1203" d="M456.813,116.22h-2a.81.81,0,0,1,0-1.62H456a.838.838,0,0,1,.81.81Zm-2-1.193a.384.384,0,1,0,0,.767h1.577v-.384a.382.382,0,0,0-.384-.384Z" transform="translate(5525.908 6865.808)" fill="#ef4123" stroke="#ef4123" stroke-width="0.3"/>
    <path id="Path_1204" data-name="Path 1204" d="M468.511,110.023H462.8l1.662-5.029a2.049,2.049,0,0,1,.767-1.023l.3-.17.043.341a10.314,10.314,0,0,0,2.6,5.541ZM463.4,109.6h4.177a11.156,11.156,0,0,1-2.344-5.03,1.5,1.5,0,0,0-.341.554Z" transform="translate(5520.859 6872.005)" fill="#ef4123" stroke="#ef4123" stroke-width="0.3"/>
    <path id="Path_1205" data-name="Path 1205" d="M480.7,97.607a9.8,9.8,0,1,1,9.8-9.8A9.8,9.8,0,0,1,480.7,97.607Zm0-19.18A9.377,9.377,0,1,0,490.08,87.8,9.4,9.4,0,0,0,480.7,78.426Z" transform="translate(5516.211 6886.808)" fill="#ef4123" stroke="#ef4123" stroke-width="0.3"/>
    <path id="Path_1206" data-name="Path 1206" d="M517.211,110.023H511.5l.341-.341a10.61,10.61,0,0,0,2.6-5.541l.043-.341.3.17a2.049,2.049,0,0,1,.767,1.023Zm-4.774-.426h4.177l-1.492-4.475a1.5,1.5,0,0,0-.341-.554A10.728,10.728,0,0,1,512.438,109.6Z" transform="translate(5492.916 6872.005)" fill="#ef4123" stroke="#ef4123" stroke-width="0.3"/>
    <path id="Path_1207" data-name="Path 1207" d="M484.475,111.672H480.3a2,2,0,0,1-2-2v-1.577H460.777v1.577a2,2,0,0,1-2,2H454.6a2,2,0,0,1-2-2v-1.748a1.965,1.965,0,0,1-1.193-1.833V98.2A1.933,1.933,0,0,1,452,96.8l1.833-1.833H453.4a2,2,0,1,1,0-4.007H454.6a2.056,2.056,0,0,1,1.279.469L456.9,88.4a3.294,3.294,0,0,1,1.7-1.918V86.4a11,11,0,1,1,21.993,0v.085a3.294,3.294,0,0,1,1.7,1.918l1.023,3.026a1.968,1.968,0,0,1,1.279-.469H485.8a2,2,0,0,1,2,2,1.933,1.933,0,0,1-.6,1.407,2.006,2.006,0,0,1-1.407.6h-.426L487.2,96.8a2.006,2.006,0,0,1,.6,1.407v7.885a2.009,2.009,0,0,1-1.193,1.833v1.748A2.205,2.205,0,0,1,484.475,111.672Zm-24.167-4.007h18.37v2a1.6,1.6,0,0,0,1.577,1.577h4.177a1.6,1.6,0,0,0,1.577-1.577v-2.046l.128-.043a1.562,1.562,0,0,0,1.066-1.492V98.2a1.548,1.548,0,0,0-.469-1.108l-2.6-2.6h1.449a1.6,1.6,0,0,0,1.577-1.577,1.6,1.6,0,0,0-1.577-1.577h-1.108a1.586,1.586,0,0,0-1.193.554l-.256.3-1.236-3.708a2.787,2.787,0,0,0-1.62-1.7l-.128-.043V86.4a10.57,10.57,0,0,0-21.141,0v.341l-.128.043a2.905,2.905,0,0,0-1.62,1.7l-1.236,3.708-.256-.3a1.586,1.586,0,0,0-1.193-.554h-1.193a1.577,1.577,0,1,0,0,3.154h1.449l-2.6,2.6a1.624,1.624,0,0,0-.469,1.108v7.885a1.562,1.562,0,0,0,1.066,1.492l.128.043v2.046a1.6,1.6,0,0,0,1.577,1.577H458.6a1.6,1.6,0,0,0,1.577-1.577v-2Z" transform="translate(5527.4 6888.3)" fill="#ef4123" stroke="#ef4123" stroke-width="0.3"/>
    <path id="Path_1208" data-name="Path 1208" d="M482.631,99.038l.171-.426a1.42,1.42,0,0,0-1.279-1.961,1.5,1.5,0,0,0-.6.128l-.426.17.128-.426a2.529,2.529,0,0,1,.6-.98,2.028,2.028,0,0,1,1.875-.511.435.435,0,0,0,.384-.085l4.22-4.22a.383.383,0,0,0,.085-.384,2.139,2.139,0,0,1,.9-2.216,2.6,2.6,0,0,1,.6-.3l.426-.128-.171.426a1.522,1.522,0,0,0,.3,1.577,1.439,1.439,0,0,0,1.577.3l.426-.17-.128.426a2.529,2.529,0,0,1-.6.98,2,2,0,0,1-1.875.511.435.435,0,0,0-.384.085l-4.22,4.22a.331.331,0,0,0-.085.341,2.168,2.168,0,0,1-.9,2.216,2.6,2.6,0,0,1-.6.3Zm-1.108-2.813a1.7,1.7,0,0,1,1.279.554,1.911,1.911,0,0,1,.554,1.577c.043,0,.043-.043.085-.043a1.734,1.734,0,0,0,.725-1.79.868.868,0,0,1,.213-.767l4.22-4.22a.762.762,0,0,1,.767-.213,1.513,1.513,0,0,0,1.449-.426,1.669,1.669,0,0,0,.341-.426,1.978,1.978,0,0,1-1.577-.511,1.84,1.84,0,0,1-.512-1.577c-.043,0-.043.043-.085.043a1.734,1.734,0,0,0-.725,1.79.762.762,0,0,1-.213.767l-4.22,4.22a.762.762,0,0,1-.767.213,1.6,1.6,0,0,0-1.492.384,1.669,1.669,0,0,0-.341.426Z" transform="translate(5510.703 6881.242)" fill="#ef4123" stroke="#ef4123" stroke-width="0.3"/>
  </g>
</svg>
