<svg xmlns="http://www.w3.org/2000/svg" width="11.925" height="12" viewBox="0 0 11.925 12">
  <path id="linkedin" d="M76.243,62.4H66.082a.872.872,0,0,0-.882.861V73.54a.87.87,0,0,0,.882.86H76.243a.87.87,0,0,0,.882-.86V63.26A.873.873,0,0,0,76.243,62.4ZM68.815,72.443h-1.8V67.027h1.8Zm-.9-6.156H67.9a1.028,1.028,0,1,1,.012,0Zm7.394,6.156h-1.8v-2.9c0-.728-.259-1.225-.911-1.225a.986.986,0,0,0-.926.658,1.262,1.262,0,0,0-.058.439v3.028h-1.8s.023-4.909,0-5.418h1.8v.767a1.787,1.787,0,0,1,1.622-.894c1.185,0,2.073.775,2.073,2.439Z" transform="translate(-65.2 -62.4)"/>
</svg>
