<svg xmlns="http://www.w3.org/2000/svg" width="36.586" height="36.627" viewBox="0 0 36.586 36.627">
  <g id="money-back" transform="translate(-0.291)">
    <g id="Group_1305" data-name="Group 1305" transform="translate(0.291 20.017)">
      <g id="Group_1304" data-name="Group 1304" transform="translate(0)">
        <path id="Path_867" data-name="Path 867" d="M36.4,281.075a3.073,3.073,0,0,0-2.231-1.258,2.214,2.214,0,0,0-1.8.671c-.1.105-.207.221-.321.345a3.058,3.058,0,0,0-1.825-.8,2.215,2.215,0,0,0-1.8.671c-.988,1.046-2.739,3.09-4.113,4.717a2.849,2.849,0,0,0-.574-.259c-.657-.283-9.714-4.151-13.728-4.151-6.485,0-9.464,3.486-9.588,3.634a.538.538,0,0,0,.825.69,8.383,8.383,0,0,1,2.124-1.626,13.4,13.4,0,0,1,6.638-1.622c3.857,0,13.233,4.033,13.327,4.073a3.063,3.063,0,0,1,.507.236,1.739,1.739,0,0,1,.393.361,1.755,1.755,0,0,1-.624,2.688,1.819,1.819,0,0,1-1.287.082l-5.866-1.616a.538.538,0,1,0-.286,1.036l5.858,1.613a2.833,2.833,0,0,0,3.663-2.578l1.573-.166a.538.538,0,0,0,.357-.191c.039-.047,3.9-4.678,5.524-6.4.676-.716,1.884-.209,2.372.474.751,1.049-.182,2.195-.486,2.521-1.493,1.6-4.232,4.9-4.724,5.5l-11.146,5.573-5.735-2.415a.538.538,0,0,0-.417.991l5.963,2.51a.542.542,0,0,0,.449-.015l11.469-5.734a.537.537,0,0,0,.174-.139c.031-.038,3.166-3.834,4.754-5.538A2.987,2.987,0,0,0,36.4,281.075Zm-9.456,5.7-1.4.148a2.871,2.871,0,0,0-.423-.783c1.171-1.386,3.073-3.617,4.091-4.694a1.152,1.152,0,0,1,.942-.337,1.987,1.987,0,0,1,1.179.528C29.715,283.454,27.519,286.076,26.939,286.771Z" transform="translate(-0.297 -279.811)" fill="#ef4123"/>
      </g>
    </g>
    <g id="Group_1307" data-name="Group 1307" transform="translate(0.291 30.965)">
      <g id="Group_1306" data-name="Group 1306">
        <path id="Path_868" data-name="Path 868" d="M10.785,433.857l-2.294-.966a.537.537,0,0,0-.209-.042H.829a.538.538,0,0,0,0,1.075H8.175l2.193.924a.538.538,0,0,0,.417-.991Z" transform="translate(-0.291 -432.849)" fill="#ef4123"/>
      </g>
    </g>
    <g id="Group_1309" data-name="Group 1309" transform="translate(7.746)">
      <g id="Group_1308" data-name="Group 1308">
        <path id="Path_869" data-name="Path 869" d="M125.6,17.925l-2.289.327a10.86,10.86,0,1,0-16.593-.809,10.938,10.938,0,0,0,5.62,3.851.538.538,0,0,0,.3-1.033,9.785,9.785,0,1,1,12.5-9.4,9.713,9.713,0,0,1-2.939,6.992V15.017a.538.538,0,0,0-1.075,0v4.014a.544.544,0,0,0,.614.532l4.014-.573a.538.538,0,1,0-.152-1.064Z" transform="translate(-104.498)" fill="#ef4123"/>
      </g>
    </g>
    <g id="Group_1311" data-name="Group 1311" transform="translate(15.774 5.734)">
      <g id="Group_1310" data-name="Group 1310">
        <path id="Path_870" data-name="Path 870" d="M219.548,84.743h-.573a1.183,1.183,0,0,1,0-2.365h2.294a.538.538,0,1,0,0-1.075h-1.183v-.609a.538.538,0,1,0-1.075,0V81.3h-.036a2.258,2.258,0,0,0,0,4.516h.573a1.183,1.183,0,1,1,0,2.365h-2.294a.538.538,0,1,0,0,1.075h1.756v.609a.538.538,0,1,0,1.075,0v-.674a2.258,2.258,0,0,0-.538-4.451Z" transform="translate(-216.717 -80.155)" fill="#ef4123"/>
      </g>
    </g>
  </g>
</svg>
