<svg id="Page-1" xmlns="http://www.w3.org/2000/svg" width="60" height="60.003" viewBox="0 0 60 60.003">
  <g id="_038---Confirm-Message" data-name="038---Confirm-Message">
    <path id="Shape" d="M51,5H40.226A12.957,12.957,0,0,0,19.774,5H9a9.01,9.01,0,0,0-9,9V42a9.01,9.01,0,0,0,9,9H22.461l5.007,7.621a3.01,3.01,0,0,0,5.058.008L37.539,51H51a9.01,9.01,0,0,0,9-9V14a9.01,9.01,0,0,0-9-9ZM30,2A11,11,0,1,1,19,13,11,11,0,0,1,30,2ZM58,42a7.008,7.008,0,0,1-7,7H37a1,1,0,0,0-.836.451L30.849,57.54a1.034,1.034,0,0,1-1.7-.009l-5.31-8.08A1,1,0,0,0,23,49H9a7.008,7.008,0,0,1-7-7V14A7.008,7.008,0,0,1,9,7h9.479A13,13,0,1,0,41.521,7H51a7.008,7.008,0,0,1,7,7Z" fill="#ef4123"/>
    <path id="Path" d="M9,9a5.006,5.006,0,0,0-5,5,1,1,0,0,0,2,0,3,3,0,0,1,3-3A1,1,0,0,0,9,9Z" fill="#ef4123" fill-rule="evenodd"/>
    <path id="Path-2" data-name="Path" d="M55,41a1,1,0,0,0-1,1,3,3,0,0,1-3,3,1,1,0,0,0,0,2,5.006,5.006,0,0,0,5-5A1,1,0,0,0,55,41Z" fill="#ef4123" fill-rule="evenodd"/>
    <path id="Path-3" data-name="Path" d="M22.293,15.707l4,4a1,1,0,0,0,1.414,0l10-10a1,1,0,0,0-1.414-1.414L27,17.586l-3.293-3.293a1,1,0,0,0-1.414,1.414Z" fill="#ef4123" fill-rule="evenodd"/>
    <path id="Path-4" data-name="Path" d="M14,32h6a1,1,0,0,0,0-2H14a1,1,0,0,0,0,2Z" fill="#ef4123" fill-rule="evenodd"/>
    <path id="Path-5" data-name="Path" d="M46,30H24a1,1,0,0,0,0,2H46a1,1,0,0,0,0-2Z" fill="#ef4123" fill-rule="evenodd"/>
    <path id="Path-6" data-name="Path" d="M46,38H14a1,1,0,0,0,0,2H46a1,1,0,0,0,0-2Z" fill="#ef4123" fill-rule="evenodd"/>
  </g>
</svg>
