<svg xmlns="http://www.w3.org/2000/svg" width="10" height="12.281" viewBox="0 0 10 12.281">
  <path id="taka" d="M153.828,68.774a2.27,2.27,0,0,0-2.388-1.76,1.375,1.375,0,0,0-1.341,1.119,2.4,2.4,0,0,0-.041.688,1.423,1.423,0,0,0,1.54,1.446c.131,0,.26,0,.406,0a3.854,3.854,0,0,1-.072.411,4.086,4.086,0,0,1-2.065,2.457,1.773,1.773,0,0,1-1.016.208,1.094,1.094,0,0,1-1.147-1.216q0-1.546,0-3.09v-.26h1.935c-.284-.292-.543-.525-.762-.793a1.008,1.008,0,0,0-1.043-.449.515.515,0,0,1-.129-.013v-.277c0-.854.013-1.708-.011-2.562a3.068,3.068,0,0,0-.038-.413A2.576,2.576,0,0,0,147.093,63a1.3,1.3,0,0,0-.828-.484,2.068,2.068,0,0,0-.278-.018h-1.24a4.567,4.567,0,0,0-.086.894,4.463,4.463,0,0,0,.086.879l.887.028.145.015c.034.01.119.024.135.029a.559.559,0,0,1,.174.1.966.966,0,0,1,.324.762c0,.533,0,1.07,0,1.6v.734H144c.379.4.713.758,1.063,1.1a.5.5,0,0,0,.307.126c.34.014.681.006,1.043.006v.285c0,1.133.014,2.267-.007,3.4a1.6,1.6,0,0,0,.413,1.109,3.007,3.007,0,0,0,3.473,1.021,5.456,5.456,0,0,0,3.437-3.355A3.58,3.58,0,0,0,153.828,68.774Z" transform="translate(-144 -62.5)"/>
</svg>
