<svg xmlns="http://www.w3.org/2000/svg" width="26.383" height="35.633" viewBox="0 0 26.383 35.633">
  <g id="waranty" transform="translate(-66.457 0)">
    <path id="Path_871" data-name="Path 871" d="M92.318,12.6a.522.522,0,0,0,.522-.522V6.218a.665.665,0,0,0-.4-.607L79.918.057a.665.665,0,0,0-.539,0L66.852,5.611a.665.665,0,0,0-.395.607V17.06A19.749,19.749,0,0,0,79.341,35.578a.884.884,0,0,0,.615,0A19.749,19.749,0,0,0,92.84,17.06V14.518a.522.522,0,1,0-1.044,0V17.06A18.782,18.782,0,0,1,79.649,34.578,18.78,18.78,0,0,1,67.5,17.06V6.465L79.648,1.079,91.8,6.465v5.617a.522.522,0,0,0,.522.522Z" transform="translate(0 0)" fill="#ef4123"/>
    <path id="Path_872" data-name="Path 872" d="M180.551,189.951a.522.522,0,0,0,.738,0l1.745-1.745a.829.829,0,0,0,0-1.172l-1.412-1.413a.829.829,0,0,0-1.172,0l-3.866,3.866-1.711-1.711a.829.829,0,0,0-1.172,0l-1.413,1.413a.83.83,0,0,0,0,1.172L176,194.07a.829.829,0,0,0,1.172,0l2.366-2.366a.522.522,0,1,0-.738-.738l-2.214,2.214-3.4-3.4,1.108-1.108L176,190.378a.83.83,0,0,0,1.172,0l3.866-3.866,1.108,1.108-1.593,1.593A.522.522,0,0,0,180.551,189.951Z" transform="translate(-98.241 -172.478)" fill="#ef4123"/>
    <path id="Path_873" data-name="Path 873" d="M144,61.6a.522.522,0,0,0,.522-.522V53.56a8.378,8.378,0,0,0,0-16.724V30.7a.522.522,0,1,0-1.044,0v6.14a8.394,8.394,0,0,0-3.341.926.522.522,0,1,0,.482.926,7.228,7.228,0,0,1,2.859-.806v2.511a.522.522,0,1,0,1.044,0v-2.51a7.334,7.334,0,0,1,0,14.631V51.265a.522.522,0,1,0-1.044,0v1.249a7.334,7.334,0,0,1-4.712-12.453.522.522,0,0,0-.745-.731,8.378,8.378,0,0,0,5.457,14.231v7.515A.522.522,0,0,0,144,61.6Z" transform="translate(-64.35 -28.075)" fill="#ef4123"/>
  </g>
</svg>
