<svg id="website" xmlns="http://www.w3.org/2000/svg" width="59.076" height="59.076" viewBox="0 0 59.076 59.076">
  <path id="Path_1178" data-name="Path 1178" d="M54.312,13.34h-.953V0H5.717V13.34H4.764A4.77,4.77,0,0,0,0,18.1V48.595a4.77,4.77,0,0,0,4.764,4.764H17.151V57.17H13.34v1.906h32.4V57.17H41.925V53.359H54.312a4.77,4.77,0,0,0,4.764-4.764V18.1A4.77,4.77,0,0,0,54.312,13.34ZM7.623,9.528H51.453V40.019H7.623ZM51.453,1.906V7.623H7.623V1.906ZM4.764,15.245h.953v26.68H53.359V15.245h.953A2.862,2.862,0,0,1,57.17,18.1V43.831H1.906V18.1A2.862,2.862,0,0,1,4.764,15.245ZM40.019,57.17H19.057V53.359H40.019Zm14.293-5.717H4.764a2.862,2.862,0,0,1-2.859-2.859V45.736H57.17v2.859A2.862,2.862,0,0,1,54.312,51.453Zm0,0" fill="#ef4123"/>
  <path id="Path_1179" data-name="Path 1179" d="M48,400h1.906v1.906H48Zm0,0" transform="translate(-42.283 -352.358)" fill="#ef4123"/>
  <path id="Path_1180" data-name="Path 1180" d="M80,400h1.906v1.906H80Zm0,0" transform="translate(-70.472 -352.358)" fill="#ef4123"/>
  <path id="Path_1181" data-name="Path 1181" d="M112,400h1.906v1.906H112Zm0,0" transform="translate(-98.66 -352.358)" fill="#ef4123"/>
  <path id="Path_1182" data-name="Path 1182" d="M80,32h1.906v1.906H80Zm0,0" transform="translate(-70.472 -28.189)" fill="#ef4123"/>
  <path id="Path_1183" data-name="Path 1183" d="M112,32h1.906v1.906H112Zm0,0" transform="translate(-98.66 -28.189)" fill="#ef4123"/>
  <path id="Path_1184" data-name="Path 1184" d="M144,32h1.906v1.906H144Zm0,0" transform="translate(-126.849 -28.189)" fill="#ef4123"/>
  <path id="Path_1185" data-name="Path 1185" d="M95.6,107.65l-3.215-.917v-.254a4.769,4.769,0,0,0,1.906-3.791V100.98a4.9,4.9,0,0,0-4.341-4.943,4.764,4.764,0,0,0-5.187,4.744v1.906a4.768,4.768,0,0,0,1.906,3.791v.254l-3.215.918A4.786,4.786,0,0,0,80,112.231v2.842H99.057v-2.842A4.786,4.786,0,0,0,95.6,107.65Zm1.549,5.518H81.905v-.937a2.871,2.871,0,0,1,2.073-2.749l4.6-1.313v-2.748l-.474-.275a2.828,2.828,0,0,1-1.432-2.459v-1.906a2.866,2.866,0,0,1,.928-2.108,2.822,2.822,0,0,1,2.189-.739,2.986,2.986,0,0,1,2.6,3.045v1.707a2.828,2.828,0,0,1-1.432,2.459l-.474.275v2.748l4.6,1.313a2.873,2.873,0,0,1,2.073,2.749Zm0,0" transform="translate(-70.471 -84.582)" fill="#ef4123"/>
  <path id="Path_1186" data-name="Path 1186" d="M80,272H99.057v1.906H80Zm0,0" transform="translate(-70.472 -239.603)" fill="#ef4123"/>
  <path id="Path_1187" data-name="Path 1187" d="M80,304H99.057v1.906H80Zm0,0" transform="translate(-70.472 -267.792)" fill="#ef4123"/>
  <path id="Path_1188" data-name="Path 1188" d="M256,207.245h19.057V192H256Zm1.906-13.34h15.245V205.34H257.906Zm0,0" transform="translate(-225.509 -169.132)" fill="#ef4123"/>
  <path id="Path_1189" data-name="Path 1189" d="M256,96h19.057v1.906H256Zm0,0" transform="translate(-225.509 -84.566)" fill="#ef4123"/>
  <path id="Path_1190" data-name="Path 1190" d="M256,128h19.057v1.906H256Zm0,0" transform="translate(-225.509 -112.755)" fill="#ef4123"/>
  <path id="Path_1191" data-name="Path 1191" d="M256,160h13.34v1.906H256Zm0,0" transform="translate(-225.509 -140.943)" fill="#ef4123"/>
</svg>
