<svg xmlns="http://www.w3.org/2000/svg" width="15.8" height="14.045" viewBox="0 0 15.8 14.045">
  <path id="ic_directions_car_24px" d="M16.974,5.887A1.312,1.312,0,0,0,15.728,5H6.072a1.32,1.32,0,0,0-1.246.887L3,11.145v7.022a.88.88,0,0,0,.878.878h.878a.88.88,0,0,0,.878-.878v-.878H16.167v.878a.88.88,0,0,0,.878.878h.878a.88.88,0,0,0,.878-.878V11.145Zm-10.9,8.769a1.317,1.317,0,1,1,1.317-1.317A1.315,1.315,0,0,1,6.072,14.656Zm9.656,0a1.317,1.317,0,1,1,1.317-1.317A1.315,1.315,0,0,1,15.728,14.656ZM4.756,10.267l1.317-3.95h9.656l1.317,3.95Z" transform="translate(-3 -5)"/>
</svg>
