<?xml version="1.0" encoding="iso-8859-1"?>
<!-- Generator: Adobe Illustrator 19.0.0, SVG Export Plug-In . SVG Version: 6.00 Build 0)  -->
<svg xmlns="http://www.w3.org/2000/svg" xmlns:xlink="http://www.w3.org/1999/xlink" version="1.1" id="Layer_1" x="0px" y="0px" viewBox="0 0 512 512" style="enable-background:new 0 0 512 512;" xml:space="preserve" width="512" height="512">
<g>
	<g>
		<path style="fill:#ACAFB7;" d="M494.08,232h-17.337H456.5H17.92c-5.75,0-10.42,4.67-10.42,10.42v29.16    c0,5.75,4.67,10.42,10.42,10.42H456.5h13.374h24.206c5.75,0,10.42-4.67,10.42-10.42v-29.16C504.5,236.67,499.83,232,494.08,232z"/>
		<path style="fill:#999DA3;" d="M494.08,261.585h-24.206H456.5H17.92c-5.75,0-10.42-4.67-10.42-10.42v20.415    c0,5.75,4.67,10.42,10.42,10.42H456.5h13.374h24.206c5.75,0,10.42-4.67,10.42-10.42v-20.415    C504.5,256.915,499.83,261.585,494.08,261.585z"/>
		<path style="fill:#D1D5CD;" d="M391.43,196c-17.92,0-35.17-7.29-47.29-20.49C322.39,151.84,291.18,137,256.5,137    s-65.89,14.84-87.64,38.51c-12.12,13.2-29.37,20.49-47.29,20.49H76.5v3.5v115v1.5h45.07c17.92,0,35.17,7.29,47.29,20.49    C190.61,360.16,221.82,375,256.5,375s65.89-14.84,87.64-38.51c12.12-13.2,29.37-20.49,47.29-20.49h46.07v-1.5v-115V196H391.43z"/>
		<g>
			<path style="fill:#C7C9C3;" d="M293.995,351c-34.68,0-65.89-14.84-87.64-38.51c-12.12-13.2-29.37-20.49-47.29-20.49H134.31     c-11.22,0-20.315-9.095-20.315-20.315V196H76.5v3.5v115v1.5h45.07c17.92,0,35.17,7.29,47.29,20.49     C190.61,360.16,221.82,375,256.5,375c31.638,0,60.384-12.355,81.698-32.494C324.532,347.98,309.618,351,293.995,351z"/>
		</g>
		<path style="fill:#ACAFB7;" d="M256.5,167c-49.15,0-89,39.85-89,89s39.85,89,89,89s89-39.85,89-89S305.65,167,256.5,167z"/>
		<g>
			<g>
				<g>
					<path style="fill:#FCA51A;" d="M256.5,223c18.23,0,33,14.77,33,33s-14.77,33-33,33s-33-14.77-33-33S238.27,223,256.5,223z"/>
				</g>
			</g>
		</g>
		<path style="fill:#FF7503;" d="M243.911,256c0-14.667,9.564-27.087,22.795-31.385c-3.214-1.044-6.642-1.615-10.205-1.615    c-18.23,0-33,14.77-33,33s14.77,33,33,33c3.563,0,6.991-0.571,10.205-1.615C253.474,283.087,243.911,270.667,243.911,256z"/>
		<g id="XMLID_37_">
			<g>
				<g>
					<g>
						<g>
							<path style="fill:#70727F;" d="M456.5,282v32.5c0,8.01-6.49,14.5-14.5,14.5s-14.5-6.49-14.5-14.5v-115         c0-4,1.62-7.63,4.25-10.25C434.37,186.62,438,185,442,185c8.01,0,14.5,6.49,14.5,14.5V232V282z"/>
						</g>
					</g>
				</g>
				<g>
					<g>
						<g>
							<path style="fill:#70727F;" d="M85.5,199.5v115c0,8.01-6.49,14.5-14.5,14.5s-14.5-6.49-14.5-14.5V282v-50v-32.5         c0-8.01,6.49-14.5,14.5-14.5c4,0,7.63,1.62,10.25,4.25C83.88,191.87,85.5,195.5,85.5,199.5z"/>
						</g>
					</g>
				</g>
			</g>
		</g>
		<g id="XMLID_27_">
			<g>
				<path style="fill:#636570;" d="M442,285.31V185c-4,0-7.63,1.62-10.25,4.25c-2.63,2.62-4.25,6.25-4.25,10.25v115      c0,8.01,6.49,14.5,14.5,14.5s14.5-6.49,14.5-14.5v-14.69C448.49,299.81,442,293.32,442,285.31z"/>
				<path style="fill:#636570;" d="M71,285.31v-32.5v-50V185c-8.01,0-14.5,6.49-14.5,14.5V232v50v32.5c0,8.01,6.49,14.5,14.5,14.5      s14.5-6.49,14.5-14.5v-14.69C77.49,299.81,71,293.32,71,285.31z"/>
			</g>
		</g>
	</g>
	<g>
		<path d="M321.501,194.755c-3.241,2.579-3.777,7.298-1.198,10.539C331.881,219.84,338,237.374,338,256    c0,44.939-36.561,81.5-81.5,81.5S175,300.939,175,256s36.561-81.5,81.5-81.5c15.376,0,30.354,4.308,43.315,12.457    c3.507,2.203,8.137,1.149,10.341-2.357c2.205-3.507,1.149-8.137-2.357-10.342c-15.355-9.654-33.095-14.758-51.3-14.758    c-53.21,0-96.5,43.29-96.5,96.5s43.29,96.5,96.5,96.5S353,309.21,353,256c0-22.055-7.248-42.818-20.96-60.048    C329.46,192.711,324.741,192.175,321.501,194.755z"/>
		<path d="M297,256c0-22.332-18.168-40.5-40.5-40.5S216,233.668,216,256s18.168,40.5,40.5,40.5S297,278.332,297,256z M256.5,281.5    c-14.061,0-25.5-11.439-25.5-25.5s11.439-25.5,25.5-25.5S282,241.939,282,256S270.561,281.5,256.5,281.5z"/>
		<circle cx="256.5" cy="198" r="10"/>
		<circle cx="297.512" cy="214.988" r="10"/>
		<circle cx="314.5" cy="256" r="10"/>
		<circle cx="297.512" cy="297.012" r="10"/>
		<circle cx="256.5" cy="314" r="10"/>
		<circle cx="215.488" cy="297.012" r="10"/>
		<circle cx="198.5" cy="256" r="10"/>
		<circle cx="215.488" cy="214.988" r="10"/>
		<path d="M494.078,224.5H464v-25c0-12.131-9.869-22-22-22c-8.125,0-15.23,4.431-19.04,11h-31.53    c-15.996,0-31.218-6.583-41.764-18.063c-23.902-26.017-57.86-40.938-93.166-40.938s-69.264,14.921-93.166,40.938    c-10.546,11.479-25.768,18.063-41.764,18.063H90.04c-3.81-6.569-10.915-11-19.04-11c-12.131,0-22,9.869-22,22v25H17.922    C8.04,224.5,0,232.54,0,242.422v29.156C0,281.46,8.04,289.5,17.922,289.5H49v25c0,12.131,9.869,22,22,22    c8.925,0,16.62-5.345,20.067-13h30.503c15.996,0,31.218,6.583,41.764,18.063c23.902,26.017,57.86,40.938,93.166,40.938    s69.264-14.921,93.166-40.938c10.545-11.479,25.768-18.063,41.764-18.063h30.503c3.447,7.655,11.142,13,20.067,13    c12.131,0,22-9.869,22-22v-25h30.078c9.882,0,17.922-8.04,17.922-17.922v-29.156C512,232.54,503.96,224.5,494.078,224.5z     M17.922,274.5c-1.611,0-2.922-1.311-2.922-2.922v-29.156c0-1.611,1.311-2.922,2.922-2.922H49v35H17.922z M71,321.5    c-3.86,0-7-3.141-7-7l0,0v-115l0,0c0-3.859,3.14-7,7-7s7,3.141,7,7v115C78,318.359,74.86,321.5,71,321.5z M449,314.5    c0,3.859-3.14,7-7,7s-7-3.141-7-7v-21c0-4.143-3.358-7.5-7.5-7.5s-7.5,3.357-7.5,7.5v15h-28.57    c-20.184,0-39.432,8.352-52.81,22.914c-21.069,22.934-51.001,36.086-82.12,36.086s-61.051-13.152-82.12-36.086    c-13.377-14.563-32.626-22.914-52.81-22.914H93v-105h28.57c20.183,0,39.431-8.352,52.81-22.914    c21.069-22.934,51.001-36.086,82.12-36.086s61.051,13.152,82.12,36.086c13.378,14.563,32.626,22.914,52.81,22.914H420v60    c0,4.143,3.358,7.5,7.5,7.5s7.5-3.357,7.5-7.5v-64c0-3.859,3.14-7,7-7s7,3.141,7,7l0,0V314.5L449,314.5z M497,271.578    c0,1.611-1.311,2.922-2.922,2.922H464v-35h30.078c1.611,0,2.922,1.311,2.922,2.922V271.578z"/>
	</g>
</g>















</svg>
