<svg xmlns="http://www.w3.org/2000/svg" width="60.001" height="62.695" viewBox="0 0 60.001 62.695">
  <g id="Group_2434" data-name="Group 2434" transform="translate(1955.892 -126.731)">
    <path id="Path_1502" data-name="Path 1502" d="M-1918.116,140.675a1.969,1.969,0,0,1,.521-.1,23.8,23.8,0,0,1,6.736,1.576,24.046,24.046,0,0,1,12.606,11.258,23.625,23.625,0,0,1,2.575,8.146,23.778,23.778,0,0,1-1.274,11.455,23.362,23.362,0,0,1-4.026,7,24.09,24.09,0,0,1-8.236,6.467,24.321,24.321,0,0,1-8.077,2.244,24.142,24.142,0,0,1-9.522-.966,23.133,23.133,0,0,1-4.514-1.961,23.95,23.95,0,0,1-8.5-7.829,23.858,23.858,0,0,1-3.046-6.644,4.586,4.586,0,0,1-.147-.624.65.65,0,0,1,.506-.79.678.678,0,0,1,.837.5c.216.675.4,1.359.639,2.027a21.548,21.548,0,0,0,5.768,8.769,24.268,24.268,0,0,0,3.319,2.632,22.59,22.59,0,0,0,9.655,3.457,22.573,22.573,0,0,0,8.6-.634,22.208,22.208,0,0,0,9.641-5.391,22.8,22.8,0,0,0,6.594-11.415,21.775,21.775,0,0,0,.511-7.379,23.113,23.113,0,0,0-2.052-7.465,22.426,22.426,0,0,0-8.334-9.49,22.421,22.421,0,0,0-8.941-3.377,4.666,4.666,0,0,1-.537-.148Z" transform="translate(-7.391 -7.958)" fill="#4b4b4b"/>
    <path id="Path_1503" data-name="Path 1503" d="M-1952.724,211.043c.388,1.153.738,2.32,1.17,3.456a27.634,27.634,0,0,0,6.023,9.4,26.649,26.649,0,0,0,5.136,4.226,28.812,28.812,0,0,0,7.915,3.458,31.035,31.035,0,0,0,5.816.916c.279.019.56,0,.912,0-.062-1.106-.124-2.206-.192-3.411l7,3.514-6.545,4.314-.164-2.613c-1.08-.09-2.122-.151-3.158-.267a28.98,28.98,0,0,1-9.826-2.941,29.755,29.755,0,0,1-10-8.1,29.834,29.834,0,0,1-5.966-12.662c-.067-.319-.254-.678.076-.98l.115,0Z" transform="translate(-0.675 -47.493)" fill="#4b4b4b"/>
    <path id="Path_1504" data-name="Path 1504" d="M-1901.169,188.158l-3.166,3.305c-.128-.424-.257-.8-.348-1.176-.06-.25-.155-.305-.416-.257a17.619,17.619,0,0,1-7.994-.294,17.5,17.5,0,0,1-7.82-4.555,17.248,17.248,0,0,1-4.86-9.279,17.22,17.22,0,0,1,1.047-9.882,17.258,17.258,0,0,1,2.236-3.871,17.572,17.572,0,0,1,5.507-4.818,17.147,17.147,0,0,1,10.3-2.125,17.417,17.417,0,0,1,10.76,5.134,16.9,16.9,0,0,1,3.036,4.16,32.458,32.458,0,0,1,1.458,3.681c.142.379-.016.67-.321.736-.327.071-.553-.107-.663-.531a15.583,15.583,0,0,0-2.551-5.4,16.862,16.862,0,0,0-5.552-4.835,16.166,16.166,0,0,0-8.289-2.014,16.442,16.442,0,0,0-10.41,3.965,14.852,14.852,0,0,0-2.967,3.287,16.345,16.345,0,0,0-2.659,11.859,16.216,16.216,0,0,0,9.224,12.447,16.035,16.035,0,0,0,7.976,1.645c.849-.037,1.694-.187,2.595-.291l-.563-1.973Z" transform="translate(-17.139 -16.31)" fill="#4b4b4b"/>
    <path id="Path_1505" data-name="Path 1505" d="M-1869.884,139.19c-.327-.343-.667-.674-.979-1.029a28.064,28.064,0,0,0-12.988-8.445,27.762,27.762,0,0,0-11.621-1.051,2.375,2.375,0,0,1-.387-.017l-1.348-1.348c.068-.056.131-.151.207-.163a29.343,29.343,0,0,1,6.119-.373,30.879,30.879,0,0,1,7.062,1.15,28.825,28.825,0,0,1,11.135,6.024c1.322,1.161,2.485,2.5,3.714,3.767a1.471,1.471,0,0,1,.193.37Z" transform="translate(-33.731 0)" fill="#4b4b4b"/>
    <path id="Path_1506" data-name="Path 1506" d="M-1955.088,176.983l-.115,0c-.514-.441-.42-1.076-.484-1.641a29.793,29.793,0,0,1,1.514-13.51,29.875,29.875,0,0,1,4.71-8.525,3.061,3.061,0,0,1,.277-.275l1.177,1.174c-.321.457-.64.915-.961,1.37a28.083,28.083,0,0,0-4.965,12.691,27.6,27.6,0,0,0-.021,7.09,2.587,2.587,0,0,1-.017.431Z" transform="translate(0 -15.116)" fill="#4b4b4b"/>
    <path id="Path_1507" data-name="Path 1507" d="M-1899.023,188.955a2.509,2.509,0,0,1,.51.114,11.541,11.541,0,0,0,5.82,1.04,11.535,11.535,0,0,0,7.7-3.7,11.318,11.318,0,0,0,3.193-8.17,11.434,11.434,0,0,0-5.508-9.868,11.567,11.567,0,0,0-8.265-1.678,3.707,3.707,0,0,0-.412.115l.376,1.35-3.148-.771,2.226-2.321a3.971,3.971,0,0,1,.236.672c.048.306.193.339.47.309a16.7,16.7,0,0,1,2.553-.209,12.3,12.3,0,0,1,9.939,5.354,11.762,11.762,0,0,1,2.248,7.277,12.228,12.228,0,0,1-6.01,10.551,12.125,12.125,0,0,1-8.392,1.694,12.046,12.046,0,0,1-3.8-1.232.654.654,0,0,1-.138-.133Z" transform="translate(-32.458 -22.036)" fill="#4b4b4b"/>
    <path id="Path_1508" data-name="Path 1508" d="M-1938.944,139.789l-1.177-1.174c.469-.56.909-1.148,1.411-1.677a29.639,29.639,0,0,1,13.846-8.383c.835-.231,1.686-.408,2.533-.593a1.556,1.556,0,0,1,.457.04l1.348,1.348c-.489.1-.975.217-1.466.311a28.124,28.124,0,0,0-16.149,9.253C-1938.4,139.21-1938.677,139.5-1938.944,139.789Z" transform="translate(-9.065 -0.702)" fill="#4b4b4b"/>
    <path id="Path_1509" data-name="Path 1509" d="M-1832.948,154.524l1.106-1.116a2.012,2.012,0,0,1,.318.268,29.051,29.051,0,0,1,5.862,13.261c.235,1.394.307,2.817.434,4.228a.771.771,0,0,1-.54.846.814.814,0,0,1-1-.292,1.235,1.235,0,0,1-.159-.564,30.572,30.572,0,0,0-1.079-6.8,28.69,28.69,0,0,0-4.046-8.474C-1832.358,155.434-1832.649,154.976-1832.948,154.524Z" transform="translate(-70.667 -15.334)" fill="#4b4b4b"/>
    <path id="Path_1510" data-name="Path 1510" d="M-1900,138.512l1.3,1.321c-.379-.011-.759-.008-1.137-.037a22.725,22.725,0,0,0-6.189.378c-.023,0-.041.032-.108.087l.736,2.6-6.117-1.493,4.363-4.55.6,2.03c.672-.1,1.325-.253,1.985-.295,1.4-.088,2.8-.122,4.2-.166A1.1,1.1,0,0,1-1900,138.512Z" transform="translate(-25.504 -5.796)" fill="#4b4b4b"/>
    <path id="Path_1511" data-name="Path 1511" d="M-1907.5,210.571l-.4.4a20.643,20.643,0,0,1-1.955-1.23,12.063,12.063,0,0,1-4.282-6.519c-.063-.237-.068-.439.191-.521.282-.09.4.082.473.341a11.716,11.716,0,0,0,4.1,6.175c.514.4,1.087.729,1.627,1.1A1.688,1.688,0,0,1-1907.5,210.571Z" transform="translate(-23.978 -43.651)" fill="#4b4b4b"/>
    <path id="Path_1512" data-name="Path 1512" d="M-1954,207.744l1.114-1.2c.07.274.153.545.206.822.13.685.247,1.372.37,2.058Z" transform="translate(-1.087 -45.877)" fill="#4b4b4b"/>
  </g>
</svg>
