<svg xmlns="http://www.w3.org/2000/svg" width="104.173" height="42.062" viewBox="0 0 104.173 42.062">
  <g id="Group_2432" data-name="Group 2432" transform="translate(1820.815 92.772)">
    <path id="Path_1493" data-name="Path 1493" d="M-1752.729-65.515h-43.581c-.218-1.722-.337-3.566-.7-5.361-.818-4.057-3.213-6.733-7.322-7.625-3.914-.848-7.032.693-9.471,3.649-2.038,2.47-2.216,5.453-1.885,8.5.036.346.1.689.152,1.053-3.169-.226-5.583-2.476-5.24-4.931,1.592.391,1.97-.7,2.25-1.912a9.084,9.084,0,0,1,.411-1.432c.466-1.127-.054-1.5-1.094-1.524-.442-.012-.886-.047-1.312-.071-.385-2.47.134-3.5,2.33-4.46a50.707,50.707,0,0,1,13.4-3.712c3.344-.469,6.742-.814,9.775-2.732a56.266,56.266,0,0,1,6.754-3.142,38.747,38.747,0,0,1,16.148-3.551,189.433,189.433,0,0,1,29.639,1.865,16.3,16.3,0,0,1,1.877.561l-2.059.564c1.973.72,3.61,1.277,5.215,1.913q3.464,1.372,6.882,2.855c.3.129.474.541.706.823-.3.2-.572.532-.892.584-1.518.238-3.061.334-4.568.618a11.1,11.1,0,0,0-2.159.881l.1.4h7.691c0,2.689-.018,5.221.007,7.751.014,1.232.06,2.468.178,3.693.176,1.819.027,2.07-1.792,2.476-.478.107-.96.2-1.5.319-.131-1.109-.206-2.137-.382-3.15a10.284,10.284,0,0,0-10.24-8.331,9.585,9.585,0,0,0-8.771,8.4C-1752.42-68.948-1752.536-67.328-1752.729-65.515Zm-16.085-25.608c-5.338-1.62-22.4,3.636-25.432,8.029,7.822-.28,15.406-.543,22.986-.856a1.255,1.255,0,0,0,.864-.772C-1769.823-86.846-1769.332-88.992-1768.815-91.124Zm.092,7.044c.441,0,.71.018.975,0,6.089-.489,12.179-.964,18.262-1.513.456-.042.862-.615,1.29-.94a4.777,4.777,0,0,0-.957-1.1c-5.3-3.172-11.167-3.708-17.153-3.605a1.344,1.344,0,0,0-.98.791C-1767.812-88.4-1768.231-86.318-1768.723-84.08Zm-51.387,7.74c3.141.43,6.214-.63,7.465-2.917l-7.465,1.4Z" transform="translate(0.003 0)" fill="#4b4b4b"/>
    <path id="Path_1494" data-name="Path 1494" d="M-1732.255-67.316l-2.283-2.205,1.061-1.184,4.681,4.192-4.235,4.678-1.184-1.1,1.79-2.008h-84.6l2.184,1.71-1.324,1.393-4.648-4.233,4.213-4.609,1.175,1.008-1.957,2.355Z" transform="translate(0 11.125)" fill="#4b4b4b"/>
    <path id="Path_1495" data-name="Path 1495" d="M-1808.45-82.67a7.945,7.945,0,0,1,8.019,7.989,8.041,8.041,0,0,1-8.16,8.028,8.1,8.1,0,0,1-7.9-8.032A7.983,7.983,0,0,1-1808.45-82.67Zm2.207,7.964a2.194,2.194,0,0,0-2.222-2.228,2.2,2.2,0,0,0-2.193,2.258,2.185,2.185,0,0,0,2.222,2.225A2.193,2.193,0,0,0-1806.244-74.706Z" transform="translate(2.179 5.093)" fill="#4b4b4b"/>
    <path id="Path_1496" data-name="Path 1496" d="M-1758.2-74.683a7.993,7.993,0,0,1-7.855,8.029,8.112,8.112,0,0,1-8.187-8.031,8,8,0,0,1,8.047-7.984A7.886,7.886,0,0,1-1758.2-74.683Zm-7.973-2.25a2.194,2.194,0,0,0-2.214,2.231,2.182,2.182,0,0,0,2.187,2.255,2.233,2.233,0,0,0,2.229-2.231A2.214,2.214,0,0,0-1766.172-76.934Z" transform="translate(23.481 5.093)" fill="#4b4b4b"/>
    <path id="Path_1497" data-name="Path 1497" d="M-1751.62-60.909l1.827-2.241,1.244,1.158-4.328,4.55-4.548-4.285,1.038-1.2,2.1,1.844v-26.7l-1.877,2.016-1.366-1.163,4.345-4.556,4.549,4.278-1.045,1.173-2.249-1.94v26.846Z" transform="translate(31.906 0.645)" fill="#4b4b4b"/>
  </g>
</svg>
