<svg xmlns="http://www.w3.org/2000/svg" width="68.187" height="50.385" viewBox="0 0 68.187 50.385">
  <g id="Group_2431" data-name="Group 2431" transform="translate(1907.187 89.538)">
    <path id="Path_1488" data-name="Path 1488" d="M-1863.323-65.667l-8.441,8.707c2.9,1.554,5.933,2.725,8.377,4.645,1.724,1.355,3.489,3.624,3.734,5.665a4.339,4.339,0,0,1-4.995,4.821c-2.01-.285-4.14-2.233-5.5-3.994-1.838-2.383-2.988-5.3-4.433-7.983l-1.851-.153c-1.541,2.716-2.813,5.643-4.713,8.078-1.378,1.764-3.625,4.008-5.422,3.956-1.776-.054-4.253-2.407-5.024-4.317-1.109-2.746.783-4.888,3.508-6.176,2.86-1.351,5.6-2.946,8.578-4.53l-8.777-8.416-5.582,5.108-8.569-9.665,15.281-15.174,9.089,9.124-5.552,5.853,7.83,7.582,7.946-7.642c-1.756-1.9-3.524-3.807-5.418-5.855l9.175-9.052,15.5,15.63-9.116,8.971Zm-23.249,13.349c-1.577,2.381-3.34,3.873-3.212,5.18s2.144,2.431,3.333,3.636c1.246-1.308,3.245-2.49,3.5-3.967C-1882.765-48.587-1884.807-50.083-1886.572-52.318Zm26.8,5.352c-2.308-1.826-3.835-3.885-4.9-3.669-1.5.306-2.658,2.3-3.962,3.566,1.23,1.18,2.362,3.133,3.721,3.309C-1863.67-43.6-1862.18-45.367-1859.772-46.967Z" transform="translate(2.814 2.63)" fill="#4b4b4b"/>
    <path id="Path_1489" data-name="Path 1489" d="M-1903.943-70.834l15.656-15.685-.853-.895L-1905.3-72.23Z" transform="translate(1.115 1.257)" fill="#4b4b4b"/>
    <path id="Path_1490" data-name="Path 1490" d="M-1860.038-71.66q-7.791-7.877-15.585-15.75l-1.124,1.127L-1861-70.7Z" transform="translate(18.013 1.259)" fill="#4b4b4b"/>
    <path id="Path_1491" data-name="Path 1491" d="M-1906.234-73.058l15.628-15.448-1-1.031-15.582,15.6Z" transform="translate(0 0)" fill="#4b4b4b"/>
    <path id="Path_1492" data-name="Path 1492" d="M-1874.7-88.289q7.76,7.848,15.517,15.7l.963-.963-15.51-15.708Z" transform="translate(19.223 0.163)" fill="#4b4b4b"/>
  </g>
</svg>
