<svg xmlns="http://www.w3.org/2000/svg" width="60" height="34.278" viewBox="0 0 60 34.278">
  <g id="Group_2433" data-name="Group 2433" transform="translate(1704.205 96.69)">
    <path id="Path_1498" data-name="Path 1498" d="M-1656.577-90.518l-5.377,4.441c-8.657-6.444-17.918-7.7-27.517-2.834-9.528,4.826-14.008,13.082-14.565,23.528a3.827,3.827,0,0,1-.095-.524,27.444,27.444,0,0,1,4.006-16.725,28.542,28.542,0,0,1,20.518-13.652,29.784,29.784,0,0,1,22.526,5.378C-1656.93-90.8-1656.789-90.682-1656.577-90.518Z" fill="#4b4b4b"/>
    <path id="Path_1499" data-name="Path 1499" d="M-1677.645-75.124a2.788,2.788,0,0,1,.865.056c.8.318,1.318-.038,1.915-.534q10.385-8.64,20.812-17.232c.111-.093.215-.225.343-.26a.624.624,0,0,1,.49.023c.082.074.054.329,0,.477a1.454,1.454,0,0,1-.306.387q-8.872,10.395-17.753,20.783a1.3,1.3,0,0,0-.345,1.264,6.159,6.159,0,0,1-4.7,7.247,6.208,6.208,0,0,1-7.385-4.77A6.157,6.157,0,0,1-1677.645-75.124Z" transform="translate(2.111 0.369)" fill="#4b4b4b"/>
    <path id="Path_1500" data-name="Path 1500" d="M-1662.417-82.639c1.655-1.939,3.282-3.845,4.931-5.774a31.334,31.334,0,0,1,5.535,7.587,32.945,32.945,0,0,1,3.363,10.545,4.687,4.687,0,0,1-4.145,5.424,4.648,4.648,0,0,1-5.176-4.629A23.384,23.384,0,0,0-1662.417-82.639Z" transform="translate(4.332 0.858)" fill="#4b4b4b"/>
  </g>
</svg>
