<svg xmlns="http://www.w3.org/2000/svg" width="60.805" height="49.971" viewBox="0 0 60.805 49.971">
  <g id="Group_2436" data-name="Group 2436" transform="translate(2694.64 -610.145)">
    <path id="Path_1516" data-name="Path 1516" d="M-2625.179,731.053c.876,0,1.721-.013,2.566.008a.479.479,0,0,0,.527-.334,10.489,10.489,0,0,1,3.469-4.43,5.739,5.739,0,0,1,3.451-1.093c.793.013,1.588,0,2.417,0v-8.581h24.677v8.581h.358c.991,0,1.983.024,2.974-.005a6.32,6.32,0,0,1,4.82,2.085,11.643,11.643,0,0,1,2.307,3.457.44.44,0,0,0,.475.316c1.218-.015,2.437-.007,3.656-.007h.354v15.033h-.362c-1.239,0-2.479,0-3.718,0a.344.344,0,0,0-.371.237,11.541,11.541,0,0,1-2.791,3.972.524.524,0,0,0-.126.352q-.014,1.394,0,2.788a6.409,6.409,0,0,1-6.331,6.541q-7.776.062-15.552,0a6.393,6.393,0,0,1-6.055-5.326c-.11-.762-.082-1.543-.116-2.315-.005-.12,0-.241,0-.4h-.372c-2.044,0-4.09-.022-6.134.008a6.059,6.059,0,0,1-4.018-1.437,10.849,10.849,0,0,1-3-4.074.5.5,0,0,0-.547-.348c-.732.022-1.466.007-2.2.007h-.353Zm14.9-1.841c-.411.033-.825.043-1.233.1a8.607,8.607,0,0,0-7.41,9.21,8.364,8.364,0,0,0,5.156,7.267,25.573,25.573,0,0,1,2.821,1.163c.2.125.422.215.634.321q3.968,1.991,7.933,3.987a.7.7,0,0,1,.309.311,6.449,6.449,0,0,0,7.347,3.745,6.256,6.256,0,0,0,4.972-5.94,6.271,6.271,0,0,0-5.44-6.2.758.758,0,0,1-.438-.227q-2.82-3.211-5.618-6.443a2.711,2.711,0,0,1-.688-1.008A8.692,8.692,0,0,0-2610.28,729.212Zm15.3-2.768c-3.356-.005-5.806,2.231-5.954,5.042a5.2,5.2,0,0,0,2.873,5.185,5.282,5.282,0,0,0,5.912-.466,1.079,1.079,0,0,1,.348-.191q2.718-.656,5.442-1.29a.531.531,0,0,1,.388.094,3.8,3.8,0,0,0,2.055.764,3.565,3.565,0,0,0,3.6-4.886,3.72,3.72,0,0,0-5.3-1.661.722.722,0,0,1-.479.08q-2.756-.63-5.5-1.294a1.642,1.642,0,0,1-.574-.271A5.306,5.306,0,0,0-2594.982,726.443Z" transform="translate(-65.156 -99.883)" fill="#4b4b4b"/>
    <path id="Path_1517" data-name="Path 1517" d="M-2470.075,610.145h13.168a2.916,2.916,0,0,1,2.988,2.9,2.933,2.933,0,0,1-2.991,2.908q-13.184,0-26.367,0a2.928,2.928,0,0,1-2.96-2.648,2.911,2.911,0,0,1,2.44-3.127,3.154,3.154,0,0,1,.555-.035Q-2476.659,610.143-2470.075,610.145Z" transform="translate(-195.475)" fill="#4b4b4b"/>
    <path id="Path_1518" data-name="Path 1518" d="M-1770.582,921.868q0-3.964,0-7.928a1.784,1.784,0,0,1,1.248-1.823,1.781,1.781,0,0,1,2.291,1.638c0,.062,0,.124,0,.186q0,7.928,0,15.855a1.783,1.783,0,0,1-1.361,1.864,1.76,1.76,0,0,1-2.169-1.555c-.019-.257-.013-.516-.013-.774Q-1770.583,925.6-1770.582,921.868Z" transform="translate(-866.795 -283.189)" fill="#4b4b4b"/>
    <path id="Path_1519" data-name="Path 1519" d="M-2694.639,921.924q0-3.995,0-7.99a1.744,1.744,0,0,1,1.838-1.817,1.753,1.753,0,0,1,1.658,1.447,2.924,2.924,0,0,1,.035.462q0,7.928,0,15.856a1.768,1.768,0,0,1-1.311,1.836,1.756,1.756,0,0,1-2.2-1.464,3.933,3.933,0,0,1-.018-.433Q-2694.64,925.872-2694.639,921.924Z" transform="translate(0 -283.259)" fill="#4b4b4b"/>
    <path id="Path_1520" data-name="Path 1520" d="M-2457.245,995.744a4.5,4.5,0,0,1,4.428-4.485,4.5,4.5,0,0,1,4.567,4.474,4.473,4.473,0,0,1-4.524,4.5A4.469,4.469,0,0,1-2457.245,995.744Z" transform="translate(-222.684 -357.497)" fill="#4b4b4b"/>
    <path id="Path_1521" data-name="Path 1521" d="M-2368.636,1066.773l-7.278-3.651a8.731,8.731,0,0,0,5.894-2.847,8.686,8.686,0,0,0,2.261-6.142l4.866,5.592a6.442,6.442,0,0,0-4.388,2.29A6,6,0,0,0-2368.636,1066.773Z" transform="translate(-298.975 -416.477)" fill="#4b4b4b"/>
    <path id="Path_1522" data-name="Path 1522" d="M-2206.545,1201.542a3.236,3.236,0,0,1-3.3-3.194,3.251,3.251,0,0,1,3.3-3.2,3.242,3.242,0,0,1,3.309,3.217A3.229,3.229,0,0,1-2206.545,1201.542Z" transform="translate(-454.756 -548.755)" fill="#4b4b4b"/>
    <path id="Path_1523" data-name="Path 1523" d="M-2191.645,922.934a2.805,2.805,0,0,1,2.758-2.835,2.816,2.816,0,0,1,2.907,2.787,2.842,2.842,0,0,1-2.781,2.86A2.814,2.814,0,0,1-2191.645,922.934Z" transform="translate(-471.825 -290.747)" fill="#4b4b4b"/>
    <path id="Path_1524" data-name="Path 1524" d="M-2074.685,910.925l4.547,1.078a3.526,3.526,0,0,0-.2,4.352l-4.368,1.037A5.54,5.54,0,0,0-2074.685,910.925Z" transform="translate(-581.515 -282.142)" fill="#4b4b4b"/>
    <path id="Path_1525" data-name="Path 1525" d="M-1982.486,939.519a1.87,1.87,0,0,1-1.945,1.819,1.865,1.865,0,0,1-1.842-1.861,1.861,1.861,0,0,1,1.916-1.815A1.857,1.857,0,0,1-1982.486,939.519Z" transform="translate(-664.471 -307.221)" fill="#4b4b4b"/>
  </g>
</svg>
