<svg version="1.2" baseProfile="tiny-ps" xmlns="http://www.w3.org/2000/svg" viewBox="0 0 13 14" width="13" height="14">
	<title></title>
	<g id="Car Services – 1">
		<g id="Group 2571">
			<g id="Group 2489">
				<g id="Group 2478">
					<g id="insurance">
						<g id="Group 2472">
							<path id="Path 1540" fill-rule="evenodd" class="shp0" d="M5.96 13.21C5.36 13.21 4.87 12.73 4.87 12.13C4.87 11.53 5.36 11.05 5.96 11.05C6.56 11.05 7.04 11.53 7.04 12.13C7.04 12.73 6.56 13.21 5.96 13.21ZM5.96 11.59C5.66 11.59 5.42 11.83 5.42 12.13C5.42 12.43 5.66 12.67 5.96 12.67C6.26 12.67 6.5 12.43 6.5 12.13C6.5 11.83 6.26 11.59 5.96 11.59Z" />
						</g>
						<g id="Group 2473">
							<path id="Path 1541" fill-rule="evenodd" class="shp0" d="M9.75 13.21C9.15 13.21 8.67 12.73 8.67 12.13C8.67 11.53 9.15 11.05 9.75 11.05C10.35 11.05 10.83 11.53 10.83 12.13C10.83 12.73 10.35 13.21 9.75 13.21ZM9.75 11.59C9.45 11.59 9.21 11.83 9.21 12.13C9.21 12.43 9.45 12.67 9.75 12.67C10.05 12.67 10.29 12.43 10.29 12.13C10.29 11.83 10.05 11.59 9.75 11.59Z" />
						</g>
						<g id="Group 2474">
							<path id="Path 1542" class="shp0" d="M5.15 5.09L3.11 5.09C2.96 5.09 2.84 4.97 2.84 4.82C2.84 4.67 2.96 4.55 3.11 4.55L5.15 4.55C5.3 4.55 5.42 4.67 5.42 4.82C5.42 4.97 5.3 5.09 5.15 5.09Z" />
						</g>
						<g id="Group 2475">
							<path id="Path 1543" class="shp0" d="M10.35 10.51L5.42 10.51C4.82 10.51 4.28 10.1 4.12 9.52L2.4 3.51C2.3 3.16 1.98 2.92 1.62 2.92L0.27 2.92C0.12 2.92 0 2.8 0 2.65C0 2.5 0.12 2.38 0.27 2.38L1.62 2.38C2.22 2.38 2.76 2.79 2.92 3.36L4.64 9.37C4.74 9.72 5.06 9.96 5.42 9.96L10.35 9.96C10.68 9.96 10.99 9.75 11.11 9.43L11.6 8.08C11.65 7.94 11.81 7.87 11.95 7.92C12.09 7.97 12.16 8.12 12.11 8.26L11.62 9.61C11.42 10.15 10.91 10.51 10.35 10.51L10.35 10.51Z" />
						</g>
						<g id="Group 2476">
							<path id="Path 1544" fill-rule="evenodd" class="shp0" d="M9.75 7.8C9.71 7.8 9.68 7.79 9.64 7.78C9.52 7.72 6.5 6.42 6.5 3.75L6.5 1.49C6.5 1.37 6.57 1.27 6.68 1.23L9.66 0.23C9.72 0.21 9.78 0.21 9.84 0.23L12.82 1.23C12.93 1.27 13 1.37 13 1.49L13 3.75C13 6.42 9.98 7.72 9.85 7.78C9.82 7.79 9.79 7.8 9.75 7.8ZM7.04 1.69L7.04 3.75C7.04 5.8 9.24 6.98 9.75 7.23C10.26 6.98 12.46 5.8 12.46 3.75L12.46 1.69L9.75 0.77L7.04 1.69Z" />
						</g>
						<g id="Group 2477">
							<path id="Path 1545" class="shp0" d="M9.48 5.09C9.47 5.09 9.47 5.09 9.46 5.09C9.39 5.08 9.32 5.05 9.27 4.99L8.18 3.63C8.09 3.52 8.11 3.35 8.23 3.25C8.34 3.16 8.51 3.18 8.61 3.29L9.5 4.41L11.18 2.73C11.29 2.62 11.46 2.62 11.57 2.73C11.67 2.84 11.67 3.01 11.57 3.11L9.67 5.01C9.62 5.06 9.55 5.09 9.48 5.09Z" />
						</g>
					</g>
				</g>
			</g>
		</g>
	</g>
</svg>