<svg xmlns="http://www.w3.org/2000/svg" width="54.245" height="54.264" viewBox="0 0 54.245 54.264">
  <path id="Path_1455" data-name="Path 1455" d="M-1357.91,605.082a27.1,27.1,0,0,1,27.154,27.138,27.193,27.193,0,0,1-27.471,27.125A27.182,27.182,0,0,1-1385,632,27.11,27.11,0,0,1-1357.91,605.082Zm-5.532,19.312a8.434,8.434,0,0,0-.213-1c-.974-2.674-1.948-5.349-2.949-8.014a1.585,1.585,0,0,0-2.061-.992,13.192,13.192,0,0,0-5.881,3.393,3.437,3.437,0,0,0-.782,2.093,13.034,13.034,0,0,0,.354,2.979c2.53,13.547,9.856,23.563,22.082,29.97a2.589,2.589,0,0,0,2.514.021,15.176,15.176,0,0,0,4.888-3.914c.91-1.1.839-1.859-.248-2.826-1.946-1.731-3.908-3.444-5.831-5.2a2.75,2.75,0,0,0-2.852-.662c-.809.241-1.652.375-2.445.654a1.114,1.114,0,0,1-1.313-.342,36.685,36.685,0,0,1-7.091-9.9c-.7-1.39-.872-2.521.342-3.664a5.347,5.347,0,0,0,.933-1.293A11.074,11.074,0,0,0-1363.442,624.394Zm22.136,6.835-.181-.21a3.066,3.066,0,0,0-.021-.375,18.414,18.414,0,0,0-9.193-13.3,1.016,1.016,0,0,0-1.551.306c-.381.653-.131,1.133.486,1.576a30.616,30.616,0,0,1,3.693,2.885,15.843,15.843,0,0,1,4.483,9.114c.1.667.521,1.1,1.146.937C-1342.013,632.046-1341.682,631.552-1341.306,631.229Zm-7.717,1.184c.046-3.11-2.935-7.462-5.58-8.541a.983.983,0,0,0-1.352.462.989.989,0,0,0,.4,1.451,8.884,8.884,0,0,1,4.442,6.5c.115.677.58,1.039,1.2.855C-1349.5,633.018-1349.195,632.562-1349.023,632.413Z" transform="translate(1385.001 -605.082)" fill="#f06424"/>
</svg>
