<svg xmlns="http://www.w3.org/2000/svg" width="16" height="16" viewBox="0 0 16 16">
  <g id="Group_1502" data-name="Group 1502" transform="translate(-1068 -5072)">
    <ellipse id="Ellipse_30" data-name="Ellipse 30" cx="7.954" cy="7.999" rx="7.954" ry="7.999" transform="translate(1068 5072)" fill="#ed1c24"/>
    <path id="Path_1169" data-name="Path 1169" d="M152.4,120.01v6.912a.848.848,0,0,0,1.268.737l6.07-3.456a.848.848,0,0,0,0-1.474l-6.07-3.456A.848.848,0,0,0,152.4,120.01Z" transform="translate(920.365 4956.563)" fill="#f1da18"/>
    <path id="Path_1170" data-name="Path 1170" d="M239.027,0c-.184,0-.367.007-.548.019a8,8,0,0,1,0,15.962c.181.012.363.019.548.019a8,8,0,1,0,0-16Z" transform="translate(836.974 5072)" fill="#f2545a"/>
  </g>
</svg>
