<svg version="1.2" baseProfile="tiny-ps" xmlns="http://www.w3.org/2000/svg" viewBox="0 0 14 15" width="14" height="15">
	<title></title>
	<g id="Car Services – 1">
		<g id="Group 2566">
			<g id="Group 2480">
				<g id="Group 2479">
					<g id="shopping-cart (2)">
						<g id="Group 1996">
							<g id="Group 1995">
								<path id="Ellipse 31" class="shp0" d="M6.16 14.21C5.3 14.21 4.6 13.52 4.6 12.66C4.6 11.8 5.3 11.11 6.16 11.11C7.02 11.11 7.71 11.8 7.71 12.66C7.71 13.52 7.02 14.21 6.16 14.21Z" />
								<path id="Path 1288" class="shp0" d="M10.87 11.11L10.87 11.11C10.01 11.11 9.32 11.8 9.32 12.66C9.32 13.52 10.01 14.21 10.87 14.21C11.73 14.21 12.42 13.52 12.42 12.66C12.42 11.8 11.73 11.11 10.87 11.11Z" />
								<path id="Path 1289" class="shp0" d="M13.5 9.5L5.23 9.5L5.07 8.55L11.87 8.55C12.07 8.55 12.25 8.42 12.32 8.24L13.94 4.12C14.04 3.87 13.92 3.58 13.67 3.48C13.61 3.46 13.55 3.45 13.49 3.45L4.22 3.45L3.83 1.19C3.79 0.96 3.59 0.78 3.35 0.79L1.49 0.79C1.22 0.79 1 1.01 1 1.28C1 1.55 1.22 1.77 1.49 1.77L2.94 1.77L4.34 10.07C4.38 10.31 4.58 10.48 4.82 10.48L13.5 10.48C13.77 10.48 13.99 10.26 13.99 9.99C13.99 9.71 13.77 9.5 13.5 9.5Z" />
							</g>
						</g>
					</g>
				</g>
			</g>
		</g>
	</g>
</svg>