<svg version="1.2" baseProfile="tiny-ps" xmlns="http://www.w3.org/2000/svg" viewBox="0 0 10 13" width="10" height="13">
	<title>Car Services – 1</title>
	<style>
		tspan { white-space:pre }
		.shp0 { fill: #f06424 } 
	</style>
	<g id="Car Services – 1">
		<g id="Group 2571">
			<g id="Group 2565">
				<g id="Group 2563">
					<g id="Grid View">
						<g id="Group 1618">
							<g id="Group 716">
								<path id="taka" class="shp0" d="M9.77 6.27C9.4 5.1 8.54 4.47 7.41 4.53C6.73 4.57 6.23 4.98 6.09 5.64C6.04 5.85 6.03 6.09 6.05 6.32C6.12 7.24 6.65 7.73 7.57 7.75C7.69 7.75 7.82 7.75 7.96 7.75C7.94 7.91 7.93 8.04 7.89 8.15C7.58 9.27 6.83 10.02 5.86 10.57C5.55 10.75 5.21 10.8 4.85 10.78C4.11 10.73 3.73 10.34 3.72 9.59C3.72 8.57 3.72 7.55 3.72 6.53L3.72 6.28L5.63 6.28C5.36 5.98 5.1 5.75 4.88 5.49C4.61 5.15 4.3 4.96 3.84 5.04C3.82 5.05 3.79 5.04 3.72 5.03L3.72 4.76C3.72 3.92 3.74 3.08 3.71 2.23C3.71 2.09 3.7 1.95 3.68 1.83C3.6 1.37 3.43 0.95 3.11 0.57C2.91 0.32 2.63 0.15 2.29 0.1C2.21 0.09 2.12 0.08 2.03 0.08L0.8 0.08C0.75 0.36 0.72 0.66 0.72 0.96C0.72 1.25 0.75 1.55 0.8 1.83L1.67 1.86L1.82 1.88C1.85 1.89 1.94 1.89 1.95 1.9C1.96 1.9 2.06 1.93 2.13 1.99C2.32 2.17 2.44 2.42 2.44 2.75C2.44 3.28 2.44 3.8 2.44 4.33L2.44 5.05L0.06 5.05C0.44 5.45 0.76 5.8 1.11 6.15C1.19 6.22 1.31 6.27 1.42 6.27C1.75 6.29 2.09 6.28 2.44 6.28L2.44 6.55C2.44 7.68 2.46 8.8 2.44 9.91C2.43 10.35 2.58 10.69 2.85 11.01C3.77 12.1 4.91 12.46 6.27 12.01C7.95 11.48 9.02 10.3 9.67 8.71C9.99 7.92 10.01 7.09 9.77 6.27Z" />
							</g>
						</g>
					</g>
				</g>
			</g>
		</g>
	</g>
</svg>