<svg id="Layer_1" enable-background="new 0 0 512 512" height="512" viewBox="0 0 512 512" width="512" xmlns="http://www.w3.org/2000/svg"><g><path d="m64.267 424.7c0 8.284 6.716 15 15 15h64.267c8.284 0 15-6.716 15-15v-143.533h-94.267z"/><path d="m0 312.234v96.399c0 8.284 6.716 15 15 15h19.267v-126.399h-19.267c-8.284 0-15 6.715-15 15z"/><path d="m497 281.167c-8.284 0-15 6.716-15 15v1.066h-293.467v126.399h293.467v1.067c0 8.284 6.716 15 15 15s15-6.716 15-15v-128.532c0-8.284-6.716-15-15-15z"/><path d="m310.909 197.117c46.882-23.444 128.532-64.267 128.532-64.267 1.442-.722 2.759-1.67 3.898-2.811l32.133-32.134c5.858-5.858 5.858-15.355 0-21.213-5.857-5.859-15.355-5.857-21.213 0l-30.412 30.412c-13.258 6.629-83.998 41.997-126.355 63.179-15.92 7.96-34.931 7.96-50.851 0l-58.108-29.054v84.94l51.782-25.891c31.811 12.602 59.841 2.215 70.594-3.161z"/><path d="m143.533 120.5h-128.533c-8.284 0-15 6.716-15 15v48.2c0 8.284 6.716 15 15 15 27.166 0 49.267 22.101 49.267 49.267v3.2h94.267v-115.667c-.001-8.284-6.717-15-15.001-15z"/></g></svg>