<svg id="Bold" height="512" viewBox="0 0 24 24" width="512" xmlns="http://www.w3.org/2000/svg"><path d="m16.935 12.257c-.403.461-3.935 4.582-3.935 7.175 0 2.519 2.019 4.568 4.5 4.568s4.5-2.049 4.5-4.568c0-2.593-3.532-6.713-3.935-7.175-.285-.326-.845-.326-1.13 0z"/><path d="m15.428 10.941c.407-.465.964-.766 1.572-.876v-6.565h.25c.414 0 .75-.336.75-.75s-.336-.75-.75-.75h-1-7.25v-.25c0-.965-.785-1.75-1.75-1.75h-.5c-.965 0-1.75.785-1.75 1.75v.25h-1.25-1c-.414 0-.75.336-.75.75s.336.75.75.75h.25v7.25h-.25c-.414 0-.75.336-.75.75s.336.75.75.75h.25v7.25h-.25c-.414 0-.75.336-.75.75s.336.75.75.75h1 7.445c-.123-.504-.195-1.027-.195-1.568 0-3.171 3.39-7.301 4.428-8.491zm-7.928-8.941h-1v-.25c0-.138.112-.25.25-.25h.5c.138 0 .25.112.25.25z"/></svg>