<svg height="456pt" viewBox="-156 0 456 456" width="456pt" xmlns="http://www.w3.org/2000/svg"><path d="m40 400c0 4.417969 3.582031 8 8 8h16v16c0 4.417969 3.582031 8 8 8s8-3.582031 8-8v-16h8v24c0 4.417969-3.582031 8-8 8h-8c-4.417969 0-8 3.582031-8 8s3.582031 8 8 8h8c13.253906 0 24-10.746094 24-24v-24c-.035156-1.417969-.460938-2.800781-1.222656-4 .761718-1.199219 1.183594-2.582031 1.222656-4v-8h-64zm0 0"/><path d="m40 360h64v16h-64zm0 0"/><path d="m24 280h96v32h-96zm0 0"/><path d="m40 328h64v16h-64zm0 0"/><path d="m104 56c0-4.417969-3.582031-8-8-8h-48c-4.417969 0-8 3.582031-8 8v160h64zm0 0"/><path d="m64 0h16v32h-16zm0 0"/><path d="m0 232h144v32h-144zm0 0"/></svg>