<?xml version="1.0" encoding="utf-8"?>
<!-- Generator: Adobe Illustrator 17.1.0, SVG Export Plug-In . SVG Version: 6.00 Build 0)  -->
<!DOCTYPE svg PUBLIC "-//W3C//DTD SVG 1.1//EN" "http://www.w3.org/Graphics/SVG/1.1/DTD/svg11.dtd">
<svg version="1.1" id="Layer_1" xmlns="http://www.w3.org/2000/svg" xmlns:xlink="http://www.w3.org/1999/xlink" x="0px" y="0px"
	 viewBox="0 261 595.3 319.9" enable-background="new 0 261 595.3 319.9" xml:space="preserve">
<g>
	<path fill="current" d="M493.6,510l-14.1-7.4c1.7-3.3,1.2-7,1.2-7v-1.2c0-16.1-16.9-29.4-33.5-29.4c-16.1,0-31,19-31.4,35.1
		c0.4,3.7,0.8,7.9,1.2,9.1l-16.1,0.4c-1.2-4.1-2.1-11.6-2.5-14.5v-0.8c0-26.9,21.9-48.8,48.8-48.8s48.4,21.5,48.8,48.4
		C496.1,496,496.5,502.6,493.6,510z"/>
	<path fill="current" d="M447.3,539.4c-24.8,0-45.1-20.3-45.1-45.1c0-24.8,20.3-45.1,45.1-45.1s45.1,20.3,45.1,45.1
		C492.3,519.1,472.1,539.4,447.3,539.4z M447.3,460.8c-18.6,0-33.5,14.9-33.5,33.5c0,18.2,14.9,33.5,33.5,33.5
		c18.2,0,33.5-14.9,33.5-33.5C480.8,475.7,465.5,460.8,447.3,460.8z"/>
	<circle fill="current" cx="447.3" cy="498" r="10.7"/>
</g>
<g>
	<path fill="current" d="M195.9,510l-14.1-7.4c1.7-3.3,1.2-7,1.2-7v-1.2c0-16.1-16.9-29.4-33.5-29.4c-16.1,0-31,19-31.4,35.1
		c0.4,3.7,0.8,7.9,1.2,9.1l-16.1,0.4c-1.2-4.1-2.1-11.6-2.5-14.5v-0.8c0-26.9,21.9-48.8,48.8-48.8s48.4,21.5,48.8,48.4
		C198.8,496,198.8,502.6,195.9,510z"/>
	<path fill="current" d="M149.6,539.4c-24.8,0-45.1-20.3-45.1-45.1c0-24.8,20.3-45.1,45.1-45.1s45.1,20.3,45.1,45.1
		C194.7,519.1,174.5,539.4,149.6,539.4z M149.6,460.8c-18.6,0-33.5,14.9-33.5,33.5c0,18.2,14.9,33.5,33.5,33.5
		c18.2,0,33.5-14.9,33.5-33.5C183.1,475.7,168.2,460.8,149.6,460.8z"/>
	<circle fill="current" cx="149.6" cy="498" r="10.7"/>
</g>
<path fill="current" d="M529.1,487.3c0-2.1-1.7-5.8-4.1-6.6c-2.1-0.8-2.1-1.7-2.1-4.5v-0.4c0-2.1,0-3.7,0-5.8
	c-2.1-37.6-20.3-64.1-54.6-78.5c-7.4-3.3-15.7-5-23.6-6.6c-4.1-0.8-8.7-2.1-12.8-2.9c-3.7-0.8-6.6-2.5-8.7-4.1
	c-25.6-21.9-50.4-43-69-58.7c-9.9-8.3-21.1-12.4-33.9-12.4h-25.6h-70.3c-22.7,0-45.9,0-68.6,0c-15.7,0-27.7,7.4-35.1,21.5
	c-6.2,11.6-12,23.1-17.8,34.7c-6.2,12-12,24-18.2,36c-9.1,17.4-13.2,34.3-12.8,52.5c0,5,0,10.3,0,15.3c0,3.3,0,7,0,10.3
	c0,2.1,0,2.1-1.2,2.1c-2.5,0.4-4.5,3.3-4.5,5.4c0,4.5,0,9.5,0.8,14.5c1.7,9.1,6.6,13.2,16.1,13.2h14.1c2.9,0,5.8,0,8.7,0
	c1.2,0,1.7,0,2.5,1.7c8.3,17.8,22.7,27.3,41.8,27.3h0.4c19,0,33.1-9.5,41.8-27.3c0.8-1.7,1.2-1.7,2.9-1.7l0,0c9.9,0,20.3,0,30.2,0
	h76.5c33.5,0,67,0,100.5,0c2.1,0,2.5,0,3.3,1.7c8.3,17.8,22.7,27.3,41.8,27.3c19,0,33.5-9.5,41.8-27.3c0.8-1.7,1.2-1.7,2.1-1.7
	c2.1,0,3.7,0,5.8,0h7.9h2.1c0.8,0,1.7,0,2.9,0c3.7,0,7.4,0,11.2,0c5.8-0.4,8.3-3.3,8.7-9.1C529.6,496.8,529.6,491.8,529.1,487.3z
	 M73.2,488.9c2.5,0,4.1,0.4,5.4,2.1c0.4,0.4,0.4,1.2,0,1.7c-1.2,1.7-2.9,2.1-5.4,2.5V488.9z M79,460c0,2.9,0,6.2,0,9.1
	c0,0.8,0,1.2-0.4,1.2v-11.6C79,458.8,79,459.2,79,460z M78.5,451.7v-6.2c0.4,0,1.2,0,1.7,0c2.1,0,4.1,0.4,4.1,5.4c0,1.2,0,2.9,0,4.1
	C83.5,453.4,81.9,452.6,78.5,451.7z M95.1,505.1h-0.4c-4.5,0-9.1,0-13.6,0c-4.1,0-6.2-1.2-7-5h0.4c3.7-0.4,9.1-1.7,9.5-7.9
	c0-3.3-0.8-5.4-2.5-6.6h13.6V505.1z M198,501.3c0,1.2,0,3.3-0.4,3.7c0,0-0.8,0-2.9,0c2.9-18.6-2.5-33.9-16.1-45.5
	c-8.7-7.4-19-10.7-31-10.3c-13.2,0.4-26,7-34.3,17.8c-3.7,4.5-6.2,9.9-7.9,15.7c0.4-0.4,0.8-0.8,1.7-1.2c0.8-2.1,1.7-3.7,3.7-5.8
	c11.2-11.2,28.1-28.9,45.9-22.3c14.9,5.4,23.6,16.9,28.1,31.8c5,15.7,2.1,31.8-12.8,41.3c-12.4,7.9-32.2,7.4-46.3,2.9
	c-9.9-3.3-12-13.6-8.7-21.1c-0.4,0-0.8,0-1.7,0c-5,0-8.3-2.1-10.7-4.5c0,0.4,0,0.4,0,0.8c-1.2,0.4-2.1,0-2.1,0l0,0
	c-0.4-0.4-0.8-2.9-0.8-3.7c0-1.2-0.4-2.9-0.4-4.1c-0.4-2.5-0.4-5.4,0.4-7.9c2.5-21.5,18.6-38.9,41.8-42.6c2.5-0.4,4.5-0.4,7-0.4
	c22.3,0,42.2,16.9,46.7,39.3C198.4,491,198.4,496.4,198,501.3z M211.2,504.2c0,0.8,0,1.2,0,1.2s-0.4,0-0.8,0c-0.8,0-2.1,0-2.9,0H205
	v-19.4h5.8l0.8,2.9h-0.4v6.2C211.2,497.6,211.2,500.9,211.2,504.2z M392.3,505.1H215.8v-14.5l-0.4-2.1h0.8l-0.4-2.5h176.5V505.1z
	 M405.1,495.1L405.1,495.1c0-2.1,0-4.1,0.4-6.2l0.4,1.2l2.1-0.4c0,1.2-0.4,2.5-0.4,3.7l-0.8-0.4l-0.8,1.2
	C405.5,494.7,405.1,495.1,405.1,495.1z M407.6,510c-0.4-0.4-0.8-0.8-1.2-1.2h0.4l-0.4-2.5c0-0.4,0-0.4,0-0.8l2.5-0.4
	c0.4,1.2,0.8,2.9,1.2,4.1L407.6,510z M410.5,479.4l-1.2-2.1c0.8-1.7,1.7-3.3,2.5-4.5c0,0.4,0,0.4,0,0.8v2.1h1.2
	C412.1,476.5,411.3,478.2,410.5,479.4L410.5,479.4z M417.9,522.8c-0.4,0.8-0.4,1.7-0.4,2.5c-1.7-1.7-3.3-3.7-4.5-5.8h0.4l2.1,0.8
	l0.4-1.2c0.8,0.8,1.2,1.7,2.1,2.5V522.8z M446.9,530.7c-6.2,0-12-1.7-16.9-4.5l2.1-4.1l-4.5,2.9c-2.1-1.2-4.1-2.9-5.8-5
	c-6.6-6.6-10.3-15.7-9.9-24.8c0-19.4,15.7-34.7,36-34.7v-1.2l0,0l0.4,1.2c19,0,34.3,16.1,33.9,35.1
	C481.6,515,465.9,530.7,446.9,530.7z M422.9,464.1c-0.8,0.8-1.7,1.2-2.5,2.1c-0.8-0.4-1.7-0.8-2.5-0.8c1.7-1.7,3.7-3.3,5.4-4.5
	c0,0,0,0,0,0.4c0,0.4,0,0.4-0.4,0.8l-0.8,2.1H422.9z M495.2,502.6c-0.4,2.1-0.4,2.9-0.8,2.9c0,0-1.2,0-2.9,0
	c2.9-17.8-1.7-32.7-14.5-44.2c-9.1-8.3-20.3-12-33.1-11.6c-12.8,0.8-25.6,7.4-33.5,17.8c-7.9,10.3-10.7,23.6-8.7,37.2h-2.1
	c-2.1-7.9-1.7-16.1,1.7-25.2c6.6-19.8,25.2-33.1,45.9-33.1c3.7,0,7.4,0.4,11.2,1.2C482.8,453.8,498.5,477.4,495.2,502.6z M499.4,477
	c-7-18.2-19.8-30.2-38.9-35.1c-10.7-2.9-22.3-2.1-33.5,2.1c-0.4,0-0.8,0.4-1.2,0.4v-1.2c0-0.4,0-1.2,0-2.1h-4.1v2.1
	c0,2.5-1.7,4.1-4.5,6.2c-10.3,6.2-17.8,15.7-21.9,27.7c-0.8,2.1-1.2,2.1-2.9,2.1c-37.2,0-74.8,0-112,0h-62.8c-0.4,0-1.2,0-1.7,0
	V323.2h-5v155.4c-0.4,0-0.4,0-0.8,0c-2.1,0-4.5,0-6.6,0c-0.4-0.4-0.8-1.2-0.8-2.1c-6.2-16.5-18.2-28.1-34.7-33.9
	c-5.8-2.1-11.6-2.9-17.4-2.9c-23.1,0-44.2,14.5-52.1,36.4c-0.8,2.5-1.2,2.5-3.3,2.5c-4.1,0-8.7,0-12.8,0c-1.2,0-2.1,0-3.3,0v-1.2
	c0.4,0,0.8,0,1.7-0.4c7.4-2.1,9.5-4.5,9.5-12.4v-12.8c0-8.3-2.9-11.2-10.7-11.6c0,0,0,0-0.4,0c0.4-1.7,0.4-2.9,0.8-4.5
	c0.8-4.5,1.2-9.1,2.9-13.2c4.5-11.2,9.9-23.6,17.4-38.4c5-10.3,10.3-21.1,15.7-31c3.7-7,7-13.6,10.7-20.7
	c6.6-12.8,16.9-19.4,30.6-19.4c55,0,110,0,165.4,0c9.9,0,19.4,3.7,27.3,10.3c11.6,9.9,23.6,19.8,35.1,29.8
	c11.6,9.9,23.1,19.4,34.7,29.4c2.9,2.5,6.2,4.1,10.3,5c3.7,0.8,7,1.7,10.7,2.5c9.5,2.1,19,4.1,27.7,7.9
	c30.6,13.2,46.7,37.6,48.4,72.3c0,2.1,0,4.1,0,6.2v2.1h-7.4c-2.9,0-5.8,0-8.3,0C500.2,478.6,499.8,477.4,499.4,477z M520.5,505.1
	c-3.3,0-6.6,0-9.9,0h-8.7v-19.4c1.2,0,2.5,0,3.7,0c5,0,9.9,0,14.9,0c0.4,0,1.7,0,2.1,2.1c-0.4,0-0.4,0-0.8,0
	c-1.7,0.4-3.3,0.4-4.5,1.2c-2.9,0.8-7.9,2.5-7,7.4c0.4,2.9,3.3,4.5,6.6,6.2c1.2,0.4,2.1,0.8,3.3,1.2c0.4,0,0.8,0,0.8,0.4
	S520.9,505.1,520.5,505.1z M522.1,497.6l-1.7,0.8c-0.8,0-2.1-0.4-2.9-0.8c-0.4,0-1.2-0.8-1.7-1.2c0.4-0.4,0.8-1.2,1.7-1.7
	c1.2-0.4,2.9-0.8,5-1.2l0,0c0,0.4,0,1.2,0,1.7C522.9,497.2,522.9,497.2,522.1,497.6z"/>
<path fill="current" d="M370,390.1c0-6.2,0-12,0-17.8c0-2.5,1.2-3.3,3.3-3.3c1.2,0,2.5-0.8,3.7-1.2c-0.8-1.2-1.2-2.9-2.5-3.7
	c-14.1-12-28.1-23.6-42.6-35.1c-2.9-2.5-7.4-4.1-11.6-4.1c-30.2-0.4-59.9,0-90.1,0c-5.4,0-6.6,1.2-6.6,6.6c0,16.9,0,34.3,0,51.3
	c0,6.6,0.8,7.4,7.4,7.4c37.6,0,75.7,0,113.3,0C353,390.1,361.3,390.1,370,390.1z"/>
<path fill="current" d="M378.7,391c0,0.4,0,1.2,0,1.7c10.7,0.4,21.9,0.4,32.7-0.8c-4.1-4.1-8.3-7.4-12.4-10.7
	c-5.8-4.5-11.2-9.1-16.9-13.6c-1.7-1.7-3.3-2.1-3.3,0.4c2.1,1.7,4.1,3.3,4.1,5c0.4,5.4,0,11.2,0,16.5
	C381.6,390.1,379.9,390.6,378.7,391z"/>
<path fill="current" d="M371.2,379.8c0,10.3,0,10.3,7.9,9.5h0.4c0.8-0.8,2.5-1.7,2.5-2.9c0.4-4.5,0-9.1,0-13.6
	c0-0.8-0.4-2.5-0.8-2.5c-2.9-0.4-5.8-0.4-8.7,0c-0.8,0-0.8,3.3-1.2,5S371.2,378.2,371.2,379.8z"/>
<path fill="current" d="M157.1,390.1L157.1,390.1c13.2,0,26.5,0,40.1,0c5.4,0,6.6-1.2,6.6-6.6c0-17.8,0-35.1,0-52.9
	c0-4.5-1.7-5.8-6.2-5.8c-15.3,0-30.6,0-45.9,0c-4.1,0-7,1.7-9.1,5.4c-9.5,18.6-19,36.8-28.1,55.4c-2.1,4.1-1.7,4.5,2.9,4.5
	C130.6,390.1,143.9,390.1,157.1,390.1z"/>
<path fill="current" d="M503.1,448c0.8-11.6-16.1-36-24.8-39.3c-0.8-0.4-1.2-0.4-2.1-0.4c-4.1-1.2-7.4,0.8-9.9,3.7
	c-2.5,2.9-0.4,5.4,0.4,7.9c0.4,0.8,0.8,2.1,1.7,2.9c7,13.2,20.3,19,32.2,26.5C501,449.3,502.7,448.4,503.1,448z"/>
<path fill="current" d="M103.3,429.4c-3.7-0.4-9.1,0.4-11.2-1.7c-2.1-2.1-0.4-7-0.8-10.7c-0.4-4.1,0.8-5.8,5-5.4
	c5,0.4,9.9,0.4,14.9,0c3.3,0,4.1,1.2,4.1,4.1c0,3.3,0,6.6,0,9.5c0,2.5-0.8,3.3-3.3,3.3C109.5,429,106.7,429,103.3,429.4
	C103.3,429,103.3,429.4,103.3,429.4z"/>
<path fill="current" d="M230.7,403c0,7,0,13.6,0,20.7c0,1.2,0.8,2.5,1.2,3.7c-0.4,0-1.7,0-3.3,0c-2.1,0-3.7-1.2-3.7-3.7
	c0-5.8,0-11.2,0-16.9C225.3,403.4,227,402.1,230.7,403z"/>
</svg>
