<?xml version="1.0" encoding="utf-8"?>
<!-- Generator: Adobe Illustrator 17.1.0, SVG Export Plug-In . SVG Version: 6.00 Build 0)  -->
<!DOCTYPE svg PUBLIC "-//W3C//DTD SVG 1.1//EN" "http://www.w3.org/Graphics/SVG/1.1/DTD/svg11.dtd">
<svg version="1.1" id="Layer_1" xmlns="http://www.w3.org/2000/svg" xmlns:xlink="http://www.w3.org/1999/xlink" x="0px" y="0px"
	 viewBox="0 483.9 595.3 358" enable-background="new 0 483.9 595.3 358" xml:space="preserve">
<polygon fill="#F26522" points="372.2,675.1 245.6,669.9 245.9,678.4 "/>
<path fill="#F26522" d="M229.7,698l-11.1-5.9c1.1-3,1.1-5.5,1.1-5.5v-1.1c0-12.9-13.7-23.3-26.2-23.3c-12.9,0-24.7,15.1-24.7,27.7
	c0.4,3,0.7,6.3,1.1,7l-12.9,0.4c-1.1-3-1.8-8.9-1.8-11.4v-0.7c0-21.4,17.4-38.8,38.8-38.8c21,0,38.4,17,38.8,38.4
	C231.5,687.3,231.9,692.5,229.7,698z"/>
<path fill="#F26522" d="M192.8,721.3c-19.6,0-35.5-15.9-35.5-35.5c0-19.6,15.9-35.5,35.5-35.5s35.5,15.9,35.5,35.5
	C228.6,705.4,212.7,721.3,192.8,721.3z M192.8,659.2c-14.4,0-26.2,11.8-26.2,26.2s11.8,26.2,26.2,26.2c14.4,0,26.2-11.8,26.2-26.2
	C219.4,671,207.5,659.2,192.8,659.2z"/>
<circle fill="#F26522" cx="192.8" cy="688.8" r="8.5"/>
<path fill="#F26522" d="M470.1,698l-11.1-5.9c1.1-3,1.1-5.5,1.1-5.5v-1.1c0-12.9-13.7-23.3-26.2-23.3c-12.9,0-24.7,15.1-24.7,27.7
	c0.4,3,0.7,6.3,1.1,7l-12.9,0.4c-1.1-3-1.8-8.9-1.8-11.4v-0.7c0-21.4,17.4-38.8,38.8-38.8c21,0,38.4,17,38.8,38.4
	C472.3,687.3,472.3,692.5,470.1,698z"/>
<path fill="#F26522" d="M433.5,721.3c-19.6,0-35.5-15.9-35.5-35.5c0-19.6,15.9-35.5,35.5-35.5c19.6,0,35.5,15.9,35.5,35.5
	C469,705.4,453.1,721.3,433.5,721.3z M433.5,659.2c-14.4,0-26.2,11.8-26.2,26.2s11.8,26.2,26.2,26.2c14.4,0,26.2-11.8,26.2-26.2
	C459.8,671,447.9,659.2,433.5,659.2z"/>
<circle fill="#F26522" cx="433.5" cy="688.8" r="8.5"/>
<rect x="481.5" y="673.2" fill="#F26522" width="19.6" height="7.4"/>
<path fill="#F26522" d="M501.5,657.7h-23.3l-5.5-8.5l20.3-3.7C493,645.6,504.1,649.2,501.5,657.7z"/>
<path fill="#F26522" d="M404.7,698c-1.1-1.8-1.5-4.1-1.5-6.3H227.1c-0.4,3-1.8,5.5-3.7,7.4h182.4C405.1,698.4,405.1,698.4,404.7,698
	z"/>
<path fill="#F26522" d="M432.8,615.3l-5.2-1.1c-7-1.5-15.5-2.2-25.1-2.2c-15.5,0-28.8,1.8-31,2.2h-120c-20.7,0-57.6-10-58-10H106v79
	l1.8,1.1c4.8,2.6,5.2,5.5,5.2,7.8c0.4,0.7,0.7,1.5,1.1,2.2c2.2-0.7,4.4-1.5,6.6-2.6c0-4.1-1.5-8.9-7-12.6v-67.9h78.7
	c4.8,1.1,39.1,10.3,59.5,10.3h120.8h0.4c0,0,14.4-2.2,30.3-2.2c9.2,0,17.4,0.7,23.6,1.8l5.2,1.1c21.4,4.4,66.1,13.3,66.1,30.7v38
	h-31.4c-0.4,0.7-0.7,1.8-1.5,2.2c0,1.8-0.4,3.7-1.5,5.2h41.7v-45.1C504.8,629.7,459.8,620.8,432.8,615.3z"/>
<path fill="#F26522" d="M109.3,646.3c0,0,27,3.3,27-16.6c-18.1,0-27,0-27,0V646.3z"/>
<rect x="254.4" y="634.1" fill="#F26522" width="21.4" height="3.7"/>
<path fill="#F26522" d="M394.8,616c0,0-31.4-28.8-78.7-43.6c-4.8-1.1-9.6,7.8-4.1,9.2c5.5,1.1,46.2,21,55.8,36.2
	C380.4,617.1,394.8,616,394.8,616z"/>
<path fill="#F26522" d="M341.2,617.9c0,0,2.6,12.2,12.9,12.6c3,0,11.4-7.4,7.8-12.6C353.8,617.9,341.2,617.9,341.2,617.9z"/>
<path fill="#F26522" d="M185.7,607.5c0,0-3-20.7,7.8-21.8c3,0,9.2-1.1,9.2,24.4C196.1,608.6,192,607.5,185.7,607.5z"/>
<path fill="#F26522" d="M265.1,589.4v28.5h-19.6C245.6,617.9,241.5,586.5,265.1,589.4z"/>
<path fill="#F26522" d="M140.3,699.8c-12.2,0-23.3-1.1-26.2-4.4c-1.1-1.5-1.5-3-1.1-4.8l7,1.8c0.4-1.1-0.4-1.8-0.7-2.2
	c3.3,2.2,24.7,2.6,42.8,1.1l0.4,7.4C156.6,699.5,148.5,699.8,140.3,699.8z"/>
</svg>
