<?xml version="1.0" encoding="utf-8"?>
<!-- Generator: Adobe Illustrator 17.1.0, SVG Export Plug-In . SVG Version: 6.00 Build 0)  -->
<!DOCTYPE svg PUBLIC "-//W3C//DTD SVG 1.1//EN" "http://www.w3.org/Graphics/SVG/1.1/DTD/svg11.dtd">
<svg version="1.1" id="Layer_1" xmlns="http://www.w3.org/2000/svg" xmlns:xlink="http://www.w3.org/1999/xlink" x="0px" y="0px"
	 viewBox="0 225.9 595.3 390.1" enable-background="new 0 225.9 595.3 390.1" xml:space="preserve">
<polygon fill="current" points="372.2,449.2 245.6,444 245.9,452.5 "/>
<path fill="current" d="M229.7,472.1l-11.1-5.9c1.1-3,1.1-5.5,1.1-5.5v-1.1c0-12.9-13.7-23.3-26.2-23.3c-12.9,0-24.7,15.1-24.7,27.7
	c0.4,3,0.7,6.3,1.1,7l-12.9,0.4c-1.1-3-1.8-8.9-1.8-11.4v-0.7c0-21.4,17.4-38.8,38.8-38.8c21,0,38.4,17,38.8,38.4
	C231.5,461.4,231.9,466.6,229.7,472.1z"/>
<path fill="current" d="M192.8,495.4c-19.6,0-35.5-15.9-35.5-35.5c0-19.6,15.9-35.5,35.5-35.5s35.5,15.9,35.5,35.5
	C228.6,479.5,212.7,495.4,192.8,495.4z M192.8,433.3c-14.4,0-26.2,11.8-26.2,26.2c0,14.4,11.8,26.2,26.2,26.2
	c14.4,0,26.2-11.8,26.2-26.2C219.4,445.1,207.5,433.3,192.8,433.3z"/>
<circle fill="current" cx="192.8" cy="462.9" r="8.5"/>
<path fill="current" d="M470.1,472.1l-11.1-5.9c1.1-3,1.1-5.5,1.1-5.5v-1.1c0-12.9-13.7-23.3-26.2-23.3c-12.9,0-24.7,15.1-24.7,27.7
	c0.4,3,0.7,6.3,1.1,7l-12.9,0.4c-1.1-3-1.8-8.9-1.8-11.4v-0.7c0-21.4,17.4-38.8,38.8-38.8c21,0,38.4,17,38.8,38.4
	C472.3,461.4,472.3,466.6,470.1,472.1z"/>
<path fill="current" d="M433.5,495.4c-19.6,0-35.5-15.9-35.5-35.5c0-19.6,15.9-35.5,35.5-35.5s35.5,15.9,35.5,35.5
	C469,479.5,453.1,495.4,433.5,495.4z M433.5,433.3c-14.4,0-26.2,11.8-26.2,26.2c0,14.4,11.8,26.2,26.2,26.2
	c14.4,0,26.2-11.8,26.2-26.2C459.8,445.1,447.9,433.3,433.5,433.3z"/>
<circle fill="current" cx="433.5" cy="462.9" r="8.5"/>
<rect x="481.5" y="447.3" fill="current" width="19.6" height="7.4"/>
<path fill="current" d="M501.5,431.8h-23.3l-5.5-8.5l20.3-3.7C493,419.7,504.1,423.3,501.5,431.8z"/>
<path fill="current" d="M404.7,472.1c-1.1-1.8-1.5-4.1-1.5-6.3H227.1c-0.4,3-1.8,5.5-3.7,7.4h182.4
	C405.1,472.5,405.1,472.5,404.7,472.1z"/>
<path fill="current" d="M432.8,389.4l-5.2-1.1c-7-1.5-15.5-2.2-25.1-2.2c-15.5,0-28.8,1.8-31,2.2h-120c-20.7,0-57.6-10-58-10H106v79
	l1.8,1.1c4.8,2.6,5.2,5.5,5.2,7.8c0.4,0.7,0.7,1.5,1.1,2.2c2.2-0.7,4.4-1.5,6.6-2.6c0-4.1-1.5-8.9-7-12.6v-67.9h78.7
	c4.8,1.1,39.1,10.3,59.5,10.3h120.8h0.4c0,0,14.4-2.2,30.3-2.2c9.2,0,17.4,0.7,23.6,1.8l5.2,1.1c21.4,4.4,66.1,13.3,66.1,30.7v38
	h-31.4c-0.4,0.7-0.7,1.8-1.5,2.2c0,1.8-0.4,3.7-1.5,5.2h41.7v-45.1C504.8,403.8,459.8,394.9,432.8,389.4z"/>
<path fill="current" d="M109.3,420.4c0,0,27,3.3,27-16.6c-18.1,0-27,0-27,0S109.3,420.4,109.3,420.4z"/>
<rect x="254.4" y="408.2" fill="current" width="21.4" height="3.7"/>
<path fill="current" d="M394.8,390.1c0,0-31.4-28.8-78.7-43.6c-4.8-1.1-9.6,7.8-4.1,9.2c5.5,1.1,46.2,21,55.8,36.2
	C380.4,391.2,394.8,390.1,394.8,390.1z"/>
<path fill="current" d="M341.2,392c0,0,2.6,12.2,12.9,12.6c3,0,11.4-7.4,7.8-12.6C353.8,392,341.2,392,341.2,392z"/>
<path fill="current" d="M185.7,381.6c0,0-3-20.7,7.8-21.8c3,0,9.2-1.1,9.2,24.4C196.1,382.7,192,381.6,185.7,381.6z"/>
<path fill="current" d="M265.1,363.5V392h-19.6C245.6,392,241.5,360.6,265.1,363.5z"/>
<path fill="current" d="M140.3,473.9c-12.2,0-23.3-1.1-26.2-4.4c-1.1-1.5-1.5-3-1.1-4.8l7,1.8c0.4-1.1-0.4-1.8-0.7-2.2
	c3.3,2.2,24.7,2.6,42.8,1.1l0.4,7.4C156.6,473.6,148.5,473.9,140.3,473.9z"/>
</svg>
