<?xml version="1.0" encoding="utf-8"?>
<!-- Generator: Adobe Illustrator 17.1.0, SVG Export Plug-In . SVG Version: 6.00 Build 0)  -->
<!DOCTYPE svg PUBLIC "-//W3C//DTD SVG 1.1//EN" "http://www.w3.org/Graphics/SVG/1.1/DTD/svg11.dtd">
<svg version="1.1" id="Layer_1" xmlns="http://www.w3.org/2000/svg" xmlns:xlink="http://www.w3.org/1999/xlink" x="0px" y="0px"
	 viewBox="0 504.9 595.3 337" enable-background="new 0 504.9 595.3 337" xml:space="preserve">
<path fill="#F26522" d="M502.2,675.9c-0.7-3.7-10.7-36.6-122.2-35.5l-1.5-1.1c-14.8-11.4-45.4-35.5-78.7-38.4c-1.8,0-4.8,0-8.1-0.4
	c-6.3-0.4-15.1-1.1-25.5-1.1c-45.4,0-86.4,10.7-121.1,32.5h-34V660c-4.8,4.4-7.8,10.3-7.8,18.1v27v3.3l3.3,0.4
	c1.1,0,6.6,1.1,6.6,8.5v3.7h40.3c-0.7-2.2-1.1-4.8-1.1-7.4h-32.1c-1.1-6.6-5.5-10-9.6-11.4v-24c0-13.7,11.1-17.4,19.9-17.7h5.2
	l0.4-7.4c0,0-1.1,0-3,0c-0.7,0-1.8,0-3,0h-12.6v-13.7h28.8l0.7-0.7c33.6-21,73.5-31.8,118.2-31.8c10.3,0,18.8,0.4,25.1,1.1
	c3.7,0.4,6.6,0.4,8.5,0.4c31,2.6,60.2,25.8,74.6,36.9l3.3,2.6h1.5c101.9-1.5,114.8,26.6,116,29.2v36.6h-29.5c0.4,0.7,0.4,1.8,0.4,3
	c0,1.8-0.4,3.3-1.1,4.4h38v-44.3v-0.9H502.2z"/>
<path fill="#F26522" d="M393.7,721.3c0-0.4-0.4-1.1-0.4-1.5l-0.7-1.1c-0.7-1.5-1.1-3.3-0.7-4.8H219c1.1,2.6,0.7,5.5-1.5,7.4H393.7z"
	/>
<polygon fill="#F26522" points="369.6,701.4 243,696.2 243,704.7 "/>
<rect x="250.4" y="654.1" fill="#F26522" width="19.6" height="7.4"/>
<rect x="479" y="696.2" fill="#F26522" width="19.6" height="7.4"/>
<ellipse transform="matrix(-0.7372 0.6756 -0.6756 -0.7372 1060.5763 886.59)" fill="#F26522" cx="357.9" cy="649.5" rx="5.9" ry="8.9"/>
<path fill="#F26522" d="M200.1,644.5h142.2c0,0-2.6-30.3-72.4-28.8C259.2,615.4,200.1,613.1,200.1,644.5z"/>
<path fill="#F26522" d="M230.4,721l-13.3-7c1.5-3.3,1.1-6.6,1.1-6.6v-1.1c0-15.5-16.2-28.1-31.8-28.1s-29.9,18.1-29.9,33.6
	c0.4,3.3,0.7,7.4,1.1,8.5l-15.5,0.7c-1.5-3.7-2.2-11.1-2.2-13.7v-0.7c0-25.8,21-46.5,46.5-46.5s46.5,20.7,46.5,46.2
	C233,708,233.4,714.3,230.4,721z"/>
<path fill="#F26522" d="M186.1,749c-23.6,0-42.8-19.2-42.8-42.8c0-23.6,19.2-42.8,42.8-42.8s42.8,19.2,42.8,42.8
	C229.3,729.8,209.8,749,186.1,749z M186.1,674.4c-17.7,0-31.8,14.4-31.8,31.8c0,17.7,14.4,31.8,31.8,31.8
	c17.7,0,31.8-14.4,31.8-31.8C218.2,688.5,203.8,674.4,186.1,674.4z"/>
<circle fill="#F26522" cx="186.1" cy="709.9" r="10.3"/>
<path fill="#F26522" d="M470.5,721l-13.3-7c1.5-3.3,1.1-6.6,1.1-6.6v-1.1c0-15.5-16.2-28.1-31.8-28.1s-29.9,18.1-29.9,33.6
	c0.4,3.3,0.7,7.4,1.1,8.5l-15.5,0.7c-1.5-3.7-2.2-11.1-2.2-13.7v-0.7c0-25.8,21-46.5,46.5-46.5s46.5,20.7,46.5,46.2
	C473.4,708,473.4,714.3,470.5,721z"/>
<path fill="#F26522" d="M426.5,749c-23.6,0-42.8-19.2-42.8-42.8c0-23.6,19.2-42.8,42.8-42.8c23.6,0,42.8,19.2,42.8,42.8
	C469.4,729.8,450.2,749,426.5,749z M426.5,674.4c-17.7,0-31.8,14.4-31.8,31.8c0,17.7,14.4,31.8,31.8,31.8
	c17.7,0,31.8-14.4,31.8-31.8C458.3,688.5,443.9,674.4,426.5,674.4z"/>
<circle fill="#F26522" cx="426.5" cy="709.9" r="10.3"/>
<path fill="#F26522" d="M494.8,677h-23.3l-5.5-8.5l20.3-3.7C486.7,665.2,497.8,668.9,494.8,677z"/>
</svg>
