<?xml version="1.0" encoding="utf-8"?>
<!-- Generator: Adobe Illustrator 17.1.0, SVG Export Plug-In . SVG Version: 6.00 Build 0)  -->
<!DOCTYPE svg PUBLIC "-//W3C//DTD SVG 1.1//EN" "http://www.w3.org/Graphics/SVG/1.1/DTD/svg11.dtd">
<svg version="1.1" id="Layer_1" xmlns="http://www.w3.org/2000/svg" xmlns:xlink="http://www.w3.org/1999/xlink" x="0px" y="0px"
	 viewBox="28.2 255.9 538.9 330.1" enable-background="new 28.2 255.9 538.9 330.1" xml:space="preserve">
<path fill="#F26522" d="M490.8,489.9l-12.9-7c1.5-3.3,1.1-6.6,1.1-6.6v-1.1c0-15.1-15.9-27.7-31.4-27.7c-15.1,0-29.2,17.7-29.5,32.9
	c0.4,3.3,0.7,7.4,1.1,8.5l-15.1,0.7c-1.5-3.7-1.8-10.7-2.2-13.7v-0.7c0-25.1,20.3-45.8,45.8-45.8c25.1,0,45.4,20.3,45.8,45.1
	C493.4,476.9,493.7,483.2,490.8,489.9z"/>
<path fill="#F26522" d="M447.6,517.2c-23.3,0-42.1-18.8-42.1-42.1c0-23.3,18.8-42.1,42.1-42.1s42.1,18.8,42.1,42.1
	C489.7,498.4,470.8,517.2,447.6,517.2z M447.6,444.1c-17.4,0-31.4,14-31.4,31.4s14,31.4,31.4,31.4s31.4-14,31.4-31.4
	S464.9,444.1,447.6,444.1z"/>
<circle fill="#F26522" cx="447.6" cy="478.8" r="10"/>
<path fill="#F26522" d="M207.9,489.9l-12.9-7c1.5-3.3,1.1-6.6,1.1-6.6v-1.1c0-15.1-15.9-27.7-31.4-27.7c-15.1,0-29.2,17.7-29.5,32.9
	c0.4,3.3,0.7,7.4,1.1,8.5l-15.1,0.7c-1.5-3.7-1.8-10.7-2.2-13.7v-0.7c0-25.1,20.3-45.8,45.8-45.8c25.1,0,45.4,20.3,45.8,45.1
	C210.5,476.9,210.5,483.2,207.9,489.9z"/>
<path fill="#F26522" d="M164.7,517.2c-23.3,0-42.1-18.8-42.1-42.1c0-23.3,18.8-42.1,42.1-42.1s42.1,18.8,42.1,42.1
	C206.4,498.4,187.6,517.2,164.7,517.2z M164.7,444.1c-17.4,0-31.4,14-31.4,31.4s14,31.4,31.4,31.4s31.4-14,31.4-31.4
	C195.7,458.1,181.7,444.1,164.7,444.1z"/>
<circle fill="#F26522" cx="164.7" cy="478.8" r="10"/>
<path fill="#F26522" d="M402.5,467.3c0.4,1.8,0.4,4.1,0.7,5.9H210.1v-8.1l0.7,2.2H402.5z"/>
<path fill="#F26522" d="M76.4,415.3c0.7-9.2,1.1-18.5,4.4-27c1.5-4.4,6.3-7,11.1-9.2c2.2-1.1,4.8-2.6,6.6-3.7
	c2.2-1.5,3.7-4.4,5.5-7.4c0.7-1.5,1.8-3,2.6-4.4c3-4.8,5.9-10,7.8-15.1c4.1-12.2,12.2-17.4,25.8-17.4h1.1c20.3,0.4,41,0.7,61.3,0.7
	c37.7,0.4,76.4,0.7,114.5,2.2c14.4,0.4,30.3,6.3,40.6,14.8c35.8,28.8,69.8,43.6,107.1,46.2c7.8,0.7,15.5,2.6,23.3,4.4
	c2.2,0.7,4.4,1.1,7,1.8c23.6,5.5,27.7,21,27,48c-0.7,19.6-13.7,19.9-24.4,19.9c-1.5,0-2.6,0-4.1,0c0,0,0,0-0.4,0l0,0l-1.8,0.4v-6.3
	c0.7,0,1.1-0.4,1.8-0.4c1.5,0,3,0,4.1,0c10.7-0.4,18.1-0.4,18.5-14.4c0.7-28.4-4.1-37.7-22.2-42.1c-2.2-0.4-4.8-1.1-7-1.8
	c-7.4-1.8-14.8-3.7-22.2-4.4c-38.8-2.6-73.9-17.7-110.8-47.6c-9.2-7.8-24-12.9-36.9-13.3c-38-1.5-76.8-1.8-114.5-2.2
	c-19.9-0.4-41-0.4-61.3-0.7H140c-11.4,0-17,3.7-20.3,13.3c-1.8,5.9-5.2,11.1-8.1,16.2c-0.7,1.5-1.8,3-2.6,4.4c-1.8,3.3-4.1,7-7,9.2
	c-2.2,1.8-4.8,3-7.4,4.4c-3.7,1.8-7.4,3.7-8.1,5.9c-2.6,7.8-3.3,16.6-4.1,25.5c0,2.6-0.4,5.2-0.7,7.4c0,1.1,0.4,2.2,1.1,3.7
	c0.4,1.5,1.1,2.6,1.1,4.1c1.5,10,2.6,15.9,5.2,18.5c2.6,2.6,7.4,3.3,17.4,5.2l1.5,0.4c4.4,0.7,8.1,3,11.4,5.5v7.4
	c-0.7-0.4-1.1-0.7-1.8-1.1c-3-1.8-6.6-4.4-10.3-5.2l-1.5-0.4c-22.5-4.1-23.6-5.2-27.3-28.8c0-1.1-0.4-1.8-1.1-3
	c-0.7-1.8-1.5-4.1-1.1-6.3C76.1,420.1,76.4,417.9,76.4,415.3z"/>
<path fill="#F26522" d="M268.1,386.5c0-14,0-27.7,0-43.6c-16.2,0-32.9-0.7-49.1,0.4c-4.4,0.4-10.3,4.8-12.6,8.9
	c-5.5,10-9.6,20.7-15.9,34.3C219,386.5,243,386.5,268.1,386.5z"/>
<path fill="#F26522" d="M285.8,382c0.4,2.2,3.7,5.9,5.5,5.9c24.4,0.4,48.7,0.4,73.5,0.4c-15.5-32.9-45.1-48-83.8-42.8
	C282.1,357.3,283.6,369.8,285.8,382z"/>
<path fill="#F26522" d="M158.1,384.2c4.1-0.4,9.6-3.7,11.8-7c6.3-10,11.4-21,18.8-34.7c-19.2,0-35.5-0.4-51.7,0.4
	c-2.2,0-5.5,2.6-6.6,5.2c-5.5,11.1-10.7,22.5-17.4,36.9C130,384.6,144,385,158.1,384.2z"/>
</svg>
