<?xml version="1.0" encoding="utf-8"?>
<!-- Generator: Adobe Illustrator 17.1.0, SVG Export Plug-In . SVG Version: 6.00 Build 0)  -->
<!DOCTYPE svg PUBLIC "-//W3C//DTD SVG 1.1//EN" "http://www.w3.org/Graphics/SVG/1.1/DTD/svg11.dtd">
<svg version="1.1" id="Layer_1" xmlns="http://www.w3.org/2000/svg" xmlns:xlink="http://www.w3.org/1999/xlink" x="0px" y="0px"
	 viewBox="0 252.9 595.3 336.1" enable-background="new 0 252.9 595.3 336.1" xml:space="preserve">
<path fill="#F26522" d="M456.1,496.4l-11.1-5.9c1.1-2.6,1.1-5.5,0.7-5.5v-1.1c0-12.9-13.3-23.3-26.2-23.3
	c-12.6,0-24.4,14.8-24.7,27.3c0.4,3,0.7,6.3,1.1,7l-12.9,0.4c-1.1-3-1.8-8.9-1.8-11.4v-0.7c0-21,17.4-38.4,38.4-38.4s38,17,38.4,38
	C458.3,485.6,458.3,490.8,456.1,496.4z"/>
<path fill="#F26522" d="M419.9,519.6c-19.6,0-35.1-15.9-35.1-35.1c0-19.6,15.9-35.1,35.1-35.1c19.6,0,35.1,15.9,35.1,35.1
	S439.1,519.6,419.9,519.6z M419.9,457.9c-14.4,0-26.2,11.8-26.2,26.2c0,14.4,11.8,26.2,26.2,26.2c14.4,0,26.2-11.8,26.2-26.2
	C446.2,469.8,434.3,457.9,419.9,457.9z"/>
<circle fill="#F26522" cx="419.9" cy="487.5" r="8.5"/>
<path fill="#F26522" d="M213.1,496.4l-11.1-5.9c1.1-2.6,0.7-5.2,0.7-5.2v-1.1c0-12.9-13.3-23.3-26.2-23.3
	c-12.6,0-24.4,14.8-24.7,27.3c0.4,3,0.7,6.3,1.1,7l-12.6,1.1c-1.1-3-1.8-8.9-1.8-11.4v-0.7c0-21,17.4-38.4,38.4-38.4s38,17,38.4,38
	C215.4,485.6,215.4,490.8,213.1,496.4z"/>
<path fill="#F26522" d="M176.6,519.6c-19.6,0-35.1-15.9-35.1-35.1c0-19.6,15.9-35.1,35.1-35.1s35.1,15.9,35.1,35.1
	C212,503.7,196.1,519.6,176.6,519.6z M176.6,457.9c-14.4,0-26.2,11.8-26.2,26.2c0,14.4,11.8,26.2,26.2,26.2
	c14.4,0,26.2-11.8,26.2-26.2C202.8,469.8,191.3,457.9,176.6,457.9z"/>
<circle fill="#F26522" cx="176.6" cy="487.5" r="8.5"/>
<path fill="#F26522" d="M252.3,332h-2.2c-29.5,0.4-58,1.5-85.3,3.7c-6.3,0.4-14.8,5.2-16.2,8.9c-12.2,35.1-23.3,70.9-32.9,105.6
	c-1.1,4.1,0,8.9,2.2,14c0,0,0,0,0,0.4c-1.5,4.4-1.8,8.9-1.8,12.9c-5.5-10.3-10-20.3-7.8-29.5c9.6-35.1,20.7-70.9,32.9-106.4
	c2.6-7.8,15.1-13.3,22.9-13.7c27.3-2.2,56.1-3.3,85.7-3.7h2.2c40.6,0,73.5,7.8,103.8,24.7c22.2,12.6,46.5,22.2,69.8,31.8
	c5.9,2.2,11.8,4.8,17.7,7c26.2,10.7,49.5,56.5,42.1,82.7c-1.5,4.8-17,11.4-21.8,15.1c-2.2,1.8-4.8,3.7-7,5.9l0,0c0-0.4,0-0.7,0-1.1
	c-0.4,0.7-0.4,0.7,0-0.7c0.7-3,1.1-5.9,0.7-8.5c0.7-0.4,1.1-1.1,1.8-1.5c3.7-3,18.5-9.2,18.8-11.4c6.3-22.5-15.1-64.3-37.7-73.5
	c-5.9-2.6-11.8-4.8-17.4-7c-23.6-9.6-48-19.6-70.9-32.1C323.2,339.4,291.4,332,252.3,332z"/>
<path fill="#F26522" d="M213.5,478.3h172.1l0.7-1.8l0.4,0.4c-0.4,3-0.4,5.9-0.4,9.2H213.9C213.9,483.4,213.5,480.8,213.5,478.3z"/>
<path fill="#F26522" d="M295.5,342.4c-23.6-3.7-48-3-71.6-2.2c-22.5,0.7-14.8,21-18.1,33.6c-0.4,1.5,12.6,9.6,19.2,9.6
	c43.9,0.7,88.3,0.4,132.2,0.4c0.7-1.8,1.5-3.3,2.2-5.2C341.3,361.2,320.6,346.1,295.5,342.4z"/>
<path fill="#F26522" d="M118.2,464.2c0,0,9.6,10,23.3,15.1c0,9.2,0,11.1,0,11.1s-19.9-5.5-25.8-14.4
	C112.7,464.2,116.4,462.4,118.2,464.2z"/>
</svg>
