<?xml version="1.0" encoding="utf-8"?>
<!-- Generator: Adobe Illustrator 17.1.0, SVG Export Plug-In . SVG Version: 6.00 Build 0)  -->
<!DOCTYPE svg PUBLIC "-//W3C//DTD SVG 1.1//EN" "http://www.w3.org/Graphics/SVG/1.1/DTD/svg11.dtd">
<svg version="1.1" id="Layer_1" xmlns="http://www.w3.org/2000/svg" xmlns:xlink="http://www.w3.org/1999/xlink" x="0px" y="0px"
	 viewBox="58.2 267.9 478.9 306.1" enable-background="new 58.2 267.9 478.9 306.1" xml:space="preserve">
<path fill="current" d="M228.2,478l-10.3-5.5c1.1-2.6,0.7-4.8,0.7-5.2v-0.7c0-11.8-12.2-21-24-21c-11.4,0-22.5,13.7-22.5,25.1
	c0.4,2.6,0.7,5.5,0.7,6.3l-11.8,0.4c-1.1-3-1.5-8.1-1.8-10.3v-0.4c0-19.2,15.9-35.1,35.1-35.1s35.1,15.5,35.1,34.7
	C230,468.1,230,472.9,228.2,478z"/>
<path fill="current" d="M195,499.1c-17.7,0-32.5-14.4-32.5-32.5c0-17.7,14.4-32.5,32.5-32.5s32.5,14.4,32.5,32.5
	C227.1,484.7,212.7,499.1,195,499.1z M195,442.6c-13.3,0-24,10.7-24,24c0,13.3,10.7,24,24,24c13.3,0,24-10.7,24-24
	C219,453.7,207.9,442.6,195,442.6z"/>
<path fill="current" d="M456,478l-10-5.2c1.1-2.6,0.7-4.8,0.7-5.2V467c0-11.8-12.2-21-24-21c-11.4,0-22.5,13.7-22.5,25.1
	c0.4,2.6,0.7,5.5,0.7,6.3l-11.8,0.4c-1.1-3-1.5-8.1-1.8-10.3V467c0-19.2,15.9-35.1,35.1-35.1c19.2,0,35.1,15.5,35.1,34.7
	C457.9,468.1,458.2,472.9,456,478z"/>
<path fill="current" d="M422.8,499.1c-17.7,0-32.5-14.4-32.5-32.5c0-17.7,14.4-32.5,32.5-32.5s32.5,14.4,32.5,32.5
	C454.9,484.7,440.5,499.1,422.8,499.1z M422.8,442.6c-13.3,0-24,10.7-24,24c0,13.3,10.7,24,24,24s24-10.7,24-24
	C446.8,453.7,436.1,442.6,422.8,442.6z"/>
<path fill="current" d="M395.1,475.5c-54.3,0-123.3,0-173.6,0c0,1.1,0,2.6-0.7,3.7c50.2,0,120.8,0,175.4,0
	C395.5,478.4,395.1,476.9,395.1,475.5z"/>
<path fill="current" d="M163.9,481.7L163.9,481.7c-21.8,0-36.2-3.7-43.6-11.4c-5.9-6.3-5.5-13.7-5.5-17.7c0-0.7,0-1.1,0-1.5
	c0-4.1,1.5-10.7,3.3-20.3c1.5-7,3-15.1,4.4-23.6c3-19.2,35.5-35.8,47.6-41v-3.7h-8.5c-2.2,0-3.7-1.5-4.1-3.7c-0.4-2.2,1.1-4.1,3-4.4
	c14-3.7,40.6-5.5,80.5-5.5c15.5,0,30.7,0.4,42.5,0.4c8.5,0,15.1,0.4,20.3,0.4c28.4,0,104.5,44.3,115.2,51
	c57.6,2.6,64.6,35.8,65,36.9v0.4v39.5c0,1.1-0.4,2.2-1.1,3c-0.7,0.7-1.8,1.1-3,1.1h-34l1.1-3c0.4-0.7,0.4-1.8,0.4-2.6l-0.4-2.6H476
	v-35.1c-1.1-4.1-9.2-28.1-58.3-29.9c-0.7,0-1.5-0.4-1.8-0.7c-0.7-0.4-83.8-50.2-112.3-50.2c-4.8,0-11.8,0-19.9-0.4
	c-12.2-0.4-27.3-0.4-42.8-0.4c-27.7,0-48.4,0.7-63.1,2.2v9.2c0,1.5-1.1,3-2.6,3.7c-11.4,5.5-42.5,21.8-44.7,36.6
	c-1.5,8.9-3,16.6-4.4,24c-1.5,8.5-3,15.5-3,18.8c0,0.4,0,1.1,0,1.8c0,3.3-0.4,7.8,3.3,11.8c5.5,5.9,18.5,8.9,37.7,8.9h5.5v2.2
	c0,0.7,0.4,1.5,1.1,2.2l4.4,3.7H163.9z"/>
<path fill="current" d="M341.9,403.8c0-4.4,4.1-7.8,8.9-7.8c4.8,0,8.9,3.3,8.9,7.8c0,0.4,0,0.4,0,0.7h37.3c0,0-62.8-38-101.6-38
	s-76.1,0-76.1,0s-56.9,0.7-60.9,38h183.9C342.3,404.2,341.9,404.2,341.9,403.8z"/>
<ellipse fill="current" cx="350.8" cy="403.8" rx="5.5" ry="4.8"/>
</svg>
