<?xml version="1.0" encoding="utf-8"?>
<!-- Generator: Adobe Illustrator 17.1.0, SVG Export Plug-In . SVG Version: 6.00 Build 0)  -->
<!DOCTYPE svg PUBLIC "-//W3C//DTD SVG 1.1//EN" "http://www.w3.org/Graphics/SVG/1.1/DTD/svg11.dtd">
<svg version="1.1" id="Layer_1" xmlns="http://www.w3.org/2000/svg" xmlns:xlink="http://www.w3.org/1999/xlink" x="0px" y="0px"
	 viewBox="0 264.9 595.3 312.1" enable-background="new 0 264.9 595.3 312.1" xml:space="preserve">
<path fill="#F26522" d="M493.8,489.1l-8.9-4.8c1.1-2.2,0.7-4.4,0.7-4.4v-0.7c0-10.3-11.1-18.8-21.4-18.8
	c-10.3,0-19.9,12.2-19.9,22.5c0.4,2.2,0.7,5.2,0.7,5.9l-10.3,0.4c-0.7-2.6-1.5-7.4-1.5-9.2v-0.4c0-17.4,14-31,31-31
	c17,0,31,13.7,31,31C495.6,480.2,495.6,484.6,493.8,489.1z"/>
<path fill="#F26522" d="M464.2,507.9c-15.9,0-28.8-12.9-28.8-28.8s12.9-28.8,28.8-28.8c15.9,0,28.8,12.9,28.8,28.8
	S480.1,507.9,464.2,507.9z M464.2,457.7c-11.8,0-21.4,9.6-21.4,21.4c0,11.8,9.6,21.4,21.4,21.4s21.4-9.6,21.4-21.4
	C485.3,467.3,476,457.7,464.2,457.7z"/>
<circle fill="#F26522" cx="464.2" cy="481.7" r="6.6"/>
<path fill="#F26522" d="M138.9,489.1l-8.9-4.8c1.1-2.2,0.7-4.4,0.7-4.4v-0.7c0-10.3-11.1-18.8-21.4-18.8s-19.9,12.2-19.9,22.5
	c0.4,2.2,0.7,5.2,0.7,5.9l-10.3,0.4c-0.7-2.6-1.5-7.4-1.5-9.2v-0.4c0-17.4,14-31,31-31s31,13.7,31,31
	C140.7,480.2,141.1,484.6,138.9,489.1z"/>
<path fill="#F26522" d="M109.4,507.9c-15.9,0-28.8-12.9-28.8-28.8s12.9-28.8,28.8-28.8s28.8,12.9,28.8,28.8S125.2,507.9,109.4,507.9
	z M109.4,457.7c-11.8,0-21.4,9.6-21.4,21.4c0,11.8,9.6,21.4,21.4,21.4s21.4-9.6,21.4-21.4S121.2,457.7,109.4,457.7z"/>
<circle fill="#F26522" cx="109.4" cy="481.7" r="6.6"/>
<path fill="#F26522" d="M137,482.4c32.1,0,75.7,0,107.8,0H328c32.9,0,75,0,107.8,0c0.7,0,1.1,0,1.1,0.4c0-1.8,0.4-4.1,0.7-5.9
	c-0.7,0-1.1,0-1.8,0c-32.9,0-75,0-107.8,0h-83.1c-32.1,0-75.7,0-107.8,0"/>
<path fill="#F26522" d="M576.5,429.6c-1.5-1.1-3.3-1.8-5.2-2.6c-7-3-14-6.3-21-9.2c-14.8-6.6-30.3-13.3-45.4-19.9
	c-11.4-5.2-27-11.4-44.3-13.3c-6.3-0.7-13.3-1.5-19.2-3.7c-32.1-10.7-63.9-22.2-88.3-30.7c-13.3-4.8-24.7-7-35.8-6.6h-3.7
	c-2.6,0-5.2,0-7.8,0h-2.6c-3.7,0-7.4,0-11.1,0c-3.7,0-7.4,0-11.4,0c-7.4,0-13.3,0.4-18.5,0.7c-16.6,1.5-33.2,4.1-49.5,6.6
	c-5.9,0.7-12.2,1.8-18.1,2.6c-10.7,1.5-21.8,3-32.5,4.8c-8.9,1.1-17.7,2.6-26.2,3.7c-14.4,2.2-28.4,4.1-42.8,5.9l-12.6,2.2
	c-3.7,0.4-7,1.1-10.7,1.5l-1.5,0.4v-4.4l19.2-3l0.4-5.5l-1.8-0.7c-0.4,0-0.4-0.4-0.7-0.4c-0.7-0.4-1.5-0.7-2.2-1.1
	c-18.8-5.2-38-10-56.9-15.1c-1.1-0.4-2.2-0.4-3-0.4c-3.7,0-7.8,2.2-7.8,8.9c0,3,0,5.9,0,9.2v3.3c0,7.4,3,11.1,9.2,11.1
	c1.1,0,2.2,0,3.3-0.4c2.6-0.4,5.2-0.7,7.8-1.1h0.4v4.4c-15.9,5.2-22.5,14-20.3,27.3l-0.4,2.6h5.2c0.4,0,1.1,0,1.5,0
	c1.8,0,1.8,0.7,1.8,1.5c0,7.8,0,15.9,0,22.5c0,0.7,0,1.1-1.8,1.1c-0.4,0-1.1,0-1.5,0h-5.9v4.1c0,0.7,0,1.1,0,1.5
	c0.4,22.2,18.5,38,35.8,43.6c4.1,1.5,8.5,1.5,12.6,1.5c1.8,0,10,0,11.8,0c0.4,0,0.7,0,1.1,0c1.1,1.8,2.6,3.3,4.1,4.8
	c0-2.2,0.7-4.4,2.2-6.3c-0.7-0.7-1.1-1.5-1.8-2.6c-1.1-1.8-3.7-2.2-5.2-2.2c-2.2,0-10,0-12.2,0c-4.1,0-7.8,0-10.7-1.1
	c-15.1-4.8-31-18.5-31.8-37.3l0,0c0.7,0,1.1,0,1.8,0c4.4,0,7.4-3,7.4-7c0-6.6,0.4-14.8,0-22.9c0-4.1-3-6.6-7.4-7c-0.7,0-1.1,0-1.8,0
	l0,0c-0.4-9.2,5.2-15.1,18.5-19.2l2.2-0.7v-15.5l-7,1.1c-2.6,0.4-5.2,0.7-7.8,1.1c-1.1,0-1.8,0.4-2.6,0.4c-1.8,0-3.3,0-3.3-5.2v-3.3
	c0-3,0-5.9,0-8.9c0-3,1.1-3,1.8-3c0.4,0,1.1,0,1.5,0.4c16.6,4.4,33.2,8.9,49.5,13.3l-11.1,1.1v16.2l8.1-1.1c3.7-0.4,7-1.1,10.7-1.5
	l12.9-1.8c14.4-1.8,28.4-4.1,42.8-5.9c8.9-1.1,17.7-2.6,26.2-3.7c10.7-1.5,21.8-3.3,32.5-4.8c5.9-0.7,12.2-1.8,18.1-2.6
	c15.9-2.2,32.5-4.8,49.1-6.6c5.2-0.4,11.1-0.7,18.1-0.7c3.7,0,7.4,0,11.1,0c3.7,0,7.4,0,11.4,0h2.6c2.6,0,5.2,0,7.8,0h3.7
	c10.3-0.4,20.7,1.8,33.6,6.3c24.4,8.5,56.1,19.9,88.3,30.7c6.6,2.2,13.7,3.3,20.7,4.1c16.6,1.8,31.4,7.8,42.5,12.9
	c15.1,7,30.7,13.7,45.4,19.9c7,3,14,5.9,21,9.2c1.5,0.7,3,1.5,4.4,2.2c3.7,2.6,5.2,7,3.3,11.1c-1.8,4.4-3.7,8.9-5.9,12.9
	c-5.9,11.4-15.1,17.4-27.7,17.7c-4.8,0-10.3,0.4-16.6,0.4c-4.8,0-18.5,0-23.6,0h-6.6c-2.2,0-3.7,0.7-5.2,1.8
	c0.4,2.2,1.1,4.8,1.5,7.4c0.4-0.7,1.1-1.5,1.5-2.2c0.7-0.7,1.1-1.1,2.2-1.1h6.6c4.8,0,18.5,0,23.6,0c6.3,0,11.8,0,17-0.4
	c14.8-0.4,25.8-7.8,32.5-21c2.2-4.4,4.1-8.9,5.9-13.3C585,441.1,582.8,433.7,576.5,429.6z"/>
<path fill="#F26522" d="M294.7,353.2L294.7,353.2c-4.8,0.4-9.6-0.4-14.4,0.4c-13.7,1.5-27.3,3.7-41,5.5c-1.1,0-2.6,0.7-3.3,1.5
	c-1.8,1.5-3,3.7-2.6,6.3c0.7,3.3,2.6,4.8,5.5,5.5c18.8,5.5,37.3,11.4,56.1,17.4c11.1,3.3,22.2,7,34.3,6.6c21-0.4,41.7,0,62.8,0
	c3.3,0,6.6,0.7,10,0.7c3.7,0,7.4-0.4,11.4-0.4c8.5,0,17,0,25.5,0c0.7,0,1.5-0.7,2.2-0.7c-0.4-0.7-0.7-1.5-1.5-1.8
	c-1.8-1.1-4.1-2.2-6.3-3c-11.4-4.1-22.9-8.5-34-12.6c-21-7.4-41.7-15.1-62.8-22.5c-3.3-1.1-7.4-1.8-11.1-1.8
	C315.4,352.8,305.1,353.2,294.7,353.2z"/>
<path fill="#F26522" d="M565,440c3-1.1,6.3-1.8,9.2-3c2.6-1.1,2.6-3,0-4.1c-4.8-2.2-10-4.4-15.1-6.6c-10.7-4.8-21.4-9.6-32.1-14
	c-4.4-1.8-6.6,0-6.3,4.8c0.7,6.6,4.1,11.1,10.7,13.3c7.8,2.6,15.5,5.5,23.3,8.1C557.7,438.9,561.4,439.2,565,440z"/>
<path fill="#F26522" d="M257.4,399.3L257.4,399.3c3.3,0,6.3,0,9.6,0c3,0,3.3-2.6,3.3-4.4c0-2.2-0.7-3.7-3.3-3.7
	c-6.3,0-12.6,0-18.8,0c-3,0-3.3,1.8-3.3,4.1c0,2.2,0.4,4.4,3.3,4.4C251.5,399.3,254.5,399.3,257.4,399.3z"/>
<path fill="#F26522" d="M14.8,419.3c0-2.6,0-5.2,0-7.4c0-1.5-0.4-3,1.8-3c1.8,0,4.1,0,4.4,2.2c0.4,5.5,0.4,11.1,0,16.2
	c0,2.6-2.6,2.2-4.4,2.2c-2.2,0-1.8-1.5-1.8-3C14.8,424.5,14.8,421.9,14.8,419.3z"/>
</svg>
