<?xml version="1.0" encoding="utf-8"?>
<!-- Generator: Adobe Illustrator 17.1.0, SVG Export Plug-In . SVG Version: 6.00 Build 0)  -->
<!DOCTYPE svg PUBLIC "-//W3C//DTD SVG 1.1//EN" "http://www.w3.org/Graphics/SVG/1.1/DTD/svg11.dtd">
<svg version="1.1" id="Layer_1" xmlns="http://www.w3.org/2000/svg" xmlns:xlink="http://www.w3.org/1999/xlink" x="0px" y="0px"
	 viewBox="0 261.9 595.3 318.1" enable-background="new 0 261.9 595.3 318.1" xml:space="preserve">
<path fill="current" d="M487.1,487.2l-14-7.4c1.5-3.7,1.1-7,1.1-7v-1.1c0-16.6-17.4-29.9-34-29.9c-16.2,0-31.8,19.2-31.8,35.8
	c0.4,3.7,0.7,8.1,1.1,9.2l-16.6,0.7c-1.5-4.1-2.2-11.4-2.6-14.8v-0.7c0-27.3,22.2-49.5,49.5-49.5s49.5,22.2,49.5,49.1
	C489.7,473.2,490,479.8,487.1,487.2z"/>
<path fill="current" d="M439.8,517.1c-25.1,0-45.8-20.7-45.8-45.8s20.7-45.8,45.8-45.8s45.8,20.7,45.8,45.8S465.3,517.1,439.8,517.1
	z M439.8,437.4c-18.8,0-34,15.1-34,34c0,18.8,15.1,34,34,34c18.8,0,34-15.1,34-34C473.8,452.5,458.6,437.4,439.8,437.4z"/>
<circle fill="current" cx="439.8" cy="475" r="10.7"/>
<path fill="current" d="M196.5,487.2l-14-7.4c1.5-3.7,1.1-7,1.1-7v-1.1c0-16.6-17.4-29.9-34-29.9c-16.2,0-31.8,19.2-31.8,35.8
	c0.4,3.7,0.7,8.1,1.1,9.2l-16.6,0.7c-1.5-4.1-2.2-11.4-2.6-14.8v-0.7c0-27.3,22.2-49.5,49.5-49.5s49.5,22.2,49.5,49.1
	C199.4,473.2,199.8,479.8,196.5,487.2z"/>
<path fill="current" d="M149.6,517.1c-25.1,0-45.8-20.7-45.8-45.8s20.7-45.8,45.8-45.8s45.8,20.7,45.8,45.8S174.7,517.1,149.6,517.1
	z M149.6,437.4c-18.8,0-34,15.1-34,34c0,18.8,15.1,34,34,34s34-15.1,34-34C183.5,452.5,168.4,437.4,149.6,437.4z"/>
<circle fill="current" cx="149.6" cy="475" r="10.7"/>
<path fill="current" d="M148.8,516.8c-14.4,0-28.1-7.4-36.6-19.9c-1.8-2.6-3.3-3-7.8-3.7c-8.5-1.5-16.6-3-24-6.6
	c-11.4-5.9-17-15.5-15.5-27.7c0.4-2.6,0-5.5,0-8.5c0-3,0-5.9,0-8.9c0.4-3.3,1.1-6.3,1.8-9.2c0.4-1.8,0.7-3.3,1.1-5.2
	c0.4-3,1.1-6.3,1.5-9.2c0.7-4.8,1.5-10,2.6-15.1l0.4-2.6c1.1-6.3,2.6-12.9,5.2-19.2c2.6-6.6,6.3-12.9,9.6-18.8
	c1.1-1.8,2.2-4.1,3.3-5.9l0.4-0.7c3-5.5,5.9-10.7,4.4-16.6c-0.7-2.6-0.4-4.4,0.7-6.3c1.8-2.6,5.2-3.3,7.4-3.7
	c5.9-1.1,11.8-1.8,18.1-3c10.7-1.8,22.2-4.1,33.2-5.2c11.4-1.5,23.6-2.2,36.2-2.6c5.9-0.4,12.2-0.7,18.8-1.1c6.6,0,12.9,0,19.9,0
	c16.2,0,34,0,51.7,0h4.1c24.7,0.4,50.6,0.4,75.3,8.9c24.7,8.5,47.6,21.8,67.2,33.6c3,1.8,5.5,3.7,8.1,5.2c5.2,3.3,9.6,6.6,14.8,8.9
	c6.6,3,14,5.2,21.4,7.4c4.8,1.5,10,3,14.8,4.8l4.4,1.5c9.6,3.3,19.2,7,28.4,11.8c13.3,7,19.2,18.1,18.1,32.1
	c-1.1,13.3-1.1,27-0.7,40.3v7c0,8.9-5.2,11.1-9.6,11.4l-4.8,0.4c-12.9,1.1-26.2,1.8-39.5,2.6c-4.1,0-5.9,0.7-8.5,4.1
	c-8.5,12.2-21.4,19.2-36.2,19.2l0,0c-14.8,0-28.1-7-36.6-19.6c-1.8-3-3.3-3.7-7-3.7c-67.9,0-135.9,0-203.8,0c-3.7,0-5.2,0.7-7,3.7
	C176.9,509.4,163.6,516.8,148.8,516.8z M102.7,336.9v0.4c2.2,8.9-1.8,15.5-5.2,21.8l-0.4,0.7c-1.1,1.8-2.2,4.1-3.3,5.9
	c-3.3,5.9-6.6,11.8-9.2,18.1c-2.2,5.5-3.7,11.8-4.8,17.7l-0.4,2.6c-1.1,4.8-1.8,10-2.6,14.8c-0.4,3.3-1.1,6.3-1.5,9.6
	c-0.4,1.8-0.7,3.7-1.1,5.5c-0.7,3-1.1,5.5-1.5,8.1c-0.4,2.6,0,5.2,0,8.1c0,3,0,6.3,0,9.2c-0.7,9.2,3,16.2,11.8,20.7
	c6.3,3.3,13.7,4.4,21.8,5.9c4.8,0.7,8.9,1.5,12.6,7c7,10.7,18.1,16.6,30.3,16.6s23.3-5.9,30.3-16.6c3.3-4.8,7-7,13.3-7
	c67.9,0,135.9,0,203.8,0c5.9,0,9.6,1.8,12.9,7c7,10.3,18.1,16.6,30.3,16.6c12.2,0,22.9-5.9,29.9-16.2c4.1-5.9,8.5-7,14-7.4
	c12.9-0.4,26.2-1.5,39.1-2.6l4.8-0.4c1.8,0,3-0.4,2.6-4.1v-7c-0.4-13.3-0.7-27.3,0.7-41c1.1-11.1-3.3-19.2-14-24.7
	c-8.5-4.8-18.1-8.1-27.3-11.4l-4.4-1.5c-4.8-1.8-9.6-3.3-14.4-4.8c-7.4-2.2-14.8-4.4-22.2-7.8c-5.9-2.6-11.1-5.9-16.2-9.6
	c-2.6-1.8-5.2-3.7-7.8-5.2c-19.2-11.4-41.4-24.7-65.7-33.2c-23.6-8.1-48.7-8.5-73.1-8.5h-4.1c-17.7,0-35.5,0-51.7,0
	c-6.6,0-13.3,0-19.6,0c-6.3,0.4-12.6,0.7-18.8,1.1c-12.9,0.7-24.4,1.5-35.8,2.6c-11.1,1.1-22.2,3.3-32.9,5.2
	c-5.9,1.1-12.2,2.2-18.1,3C103.8,336.6,103,336.9,102.7,336.9z"/>
<path fill="current" d="M119.6,380.1c5.2-10.7,10-21,15.5-31.4c1.1-1.8,3.7-3.3,5.9-3.7c13.7-1.8,27.3-4.1,41-4.1
	c42.8-0.7,86-1.1,128.9-0.7c22.2,0,43.2,4.8,62.8,15.9c21,11.8,41.7,24,62.4,36.2c0,0.7,0,1.5,0,2.2c-7,1.8-14.4,4.4-21.4,5.2
	c-10,0.7-19.6-0.4-29.5-1.1c-2.2-0.4-4.8-2.2-6.3-4.1c-3.3-3.7-5.9-8.1-10-11.4c-10.3-8.5-21.4-5.5-25.1,7
	c-1.8,6.3-4.8,7.4-10.7,7.4c-43.6-1.5-86.8-3-130.4-4.1c-26.6-0.7-52.4-4.4-77.9-11.1C123.3,381.6,121.9,380.9,119.6,380.1z"/>
<path fill="current" d="M207.9,456.9c48,2.6,95.6,5.2,143.3,7.8l0,0c-46.5,0-92.7,0-139.2,0C206.8,464.7,206.4,462.1,207.9,456.9z"
	/>
<path fill="current" d="M363.7,406.4c-4.1-1.8-7.8-3.7-11.4-5.5c-4.4-2.2-4.1-5.9-2.6-9.6s3.3-8.5,8.5-6.6c3.7,1.5,7,4.1,10,7
	c2.6,3,3.3,6.3-0.7,9.6C366.3,402.7,365.2,404.9,363.7,406.4z"/>
<path fill="current" d="M287.7,412.3c-1.5,0-3,0.4-4.1,0c-1.1-0.7-2.2-2.2-3-3.3c2.2-0.7,4.1-2.6,6.3-2.2c3,0.4,6.3,1.8,9.2,2.6
	c-1.1,1.1-1.8,2.6-3,3C291.4,412.6,289.1,412.3,287.7,412.3L287.7,412.3z"/>
<path fill="current" d="M192.4,400.8c2.6,1.8,4.8,3.3,7,4.4c-2.6,1.1-5.2,3-7.8,3c-2.2,0-4.4-2.2-6.6-3.3
	C187.2,403.8,189.4,402.3,192.4,400.8z"/>
</svg>
