<?xml version="1.0" encoding="utf-8"?>
<!-- Generator: Adobe Illustrator 17.1.0, SVG Export Plug-In . SVG Version: 6.00 Build 0)  -->
<!DOCTYPE svg PUBLIC "-//W3C//DTD SVG 1.1//EN" "http://www.w3.org/Graphics/SVG/1.1/DTD/svg11.dtd">
<svg version="1.1" id="Layer_1" xmlns="http://www.w3.org/2000/svg" xmlns:xlink="http://www.w3.org/1999/xlink" x="0px" y="0px"
	 viewBox="0 252 595.3 337.9" enable-background="new 0 252 595.3 337.9" xml:space="preserve">
<path fill="current" d="M476.4,493.9l-11.1-5.9c1.1-3,1.1-5.5,1.1-5.5v-1.1c0-12.9-13.7-23.6-26.6-23.6s-25.1,15.1-25.1,28.1
	c0.4,3,0.7,6.3,1.1,7l-12.9,0.4c-1.1-3.3-1.8-9.2-1.8-11.4V481c0-21.4,17.7-39.1,39.1-39.1c21.4,0,38.8,17.4,39.1,38.8
	C478.6,482.8,478.6,488,476.4,493.9z"/>
<path fill="current" d="M439.4,517.1c-19.9,0-36.2-16.2-36.2-36.2c0-19.9,16.2-36.2,36.2-36.2c19.9,0,36.2,16.2,36.2,36.2
	C475.3,500.9,459,517.1,439.4,517.1z M439.4,454.4c-14.8,0-26.6,11.8-26.6,26.6s11.8,26.6,26.6,26.6c14.8,0,26.6-11.8,26.6-26.6
	C466,466.6,454.2,454.4,439.4,454.4z"/>
<circle fill="current" cx="439.4" cy="484.3" r="8.5"/>
<path fill="current" d="M205.3,493.9l-11.1-5.9c1.1-3,1.1-5.5,1.1-5.5v-1.1c0-12.9-13.7-23.6-26.6-23.6c-12.9,0-25.1,15.1-25.1,28.1
	c0.4,3,0.7,6.3,1.1,7l-12.9,0.4c-1.1-3.3-1.8-9.2-1.8-11.4V481c0-21.4,17.7-39.1,39.1-39.1s38.8,17.4,39.1,38.8
	C207.5,482.8,207.5,488,205.3,493.9z"/>
<path fill="current" d="M168,517.1c-19.9,0-36.2-16.2-36.2-36.2c0-19.9,16.2-36.2,36.2-36.2s36.2,16.2,36.2,36.2
	S188,517.1,168,517.1z M168,454.4c-14.8,0-26.6,11.8-26.6,26.6s11.8,26.6,26.6,26.6c14.8,0,26.6-11.8,26.6-26.6
	C195,466.6,182.8,454.4,168,454.4z"/>
<circle fill="current" cx="168" cy="484.3" r="8.5"/>
<path fill="current" d="M206.4,486.9h197.9c0-2.2-0.4-4.4-0.7-7H206.4V486.9z"/>
<path fill="current" d="M500,400.8c-6.6-3.3-12.9-7-19.6-10.3c-24.4-12.9-49.5-26.2-72.4-41.7c-24-16.2-50.2-24.4-79.8-24.4h-0.7
	c-44.3,0.4-89.7,0.7-133.3,1.5c-25.8,0.4-51.7,0.7-77.5,0.7c-13.7,0-21.4,6.6-23.3,19.6c-3,21.8-5.9,43.6-8.9,65.4
	c-1.5,11.4-3.3,23.3-4.8,34.7c-0.4,1.5-0.4,3-0.4,4.4c0,1.8,0,4.4-0.7,5.2c-3.3,4.1-7.4,10-5.2,15.5c2.2,5.5,9.2,7,16.6,7.8
	c5.9,1.1,28.1,1.5,32.1,1.5c3.7,0,7.4-0.4,10.3-0.7c0-1.5,0-3,0-4.4c0-0.7,0-1.5,0-2.2c-3,0.7-6.3,1.1-10,1.1
	c-4.1,0-25.5-0.4-31-1.1c-8.1-1.1-10.7-2.6-11.1-3.7c-0.4-0.7-0.7-3,4.1-8.9c2.2-2.6,2.2-6.3,2.2-9.2c0-1.5,0-2.6,0-3.7
	c1.5-11.4,3.3-23.3,4.8-34.7c3-21.8,5.9-43.6,8.9-65.4c1.1-9.6,5.9-13.7,16.6-13.7c25.8-0.4,51.7-0.7,77.5-0.7
	c43.6-0.4,89-1.1,133.3-1.5h0.7c28.4,0,53.2,7.4,76.1,22.9c23.3,15.9,48.4,29.2,72.7,42.1c6.6,3.3,12.9,7,19.6,10.3
	c16.6,8.9,29.2,46.2,20.7,63.1c-0.7,1.5-2.6,3.3-3.7,3.7c-7,1.5-27.7,2.2-35.1,3.3c-1.1,0-2.2,0.4-3,0.4c0,2.2,0,4.8,0,7
	c1.5-0.4,3-0.4,4.1-0.7c7-1.1,28.4-1.8,35.5-3.3c3.7-0.7,7-4.1,8.5-7.4C533.6,452.9,519.9,411.5,500,400.8z"/>
<path fill="current" d="M189.1,388.3c38,0,75.3,0.4,113-0.4c3,0,5.5-5.5,8.5-8.1c0.4-0.4,0-1.1,0-1.8c4.8-35.5,2.6-37.7-32.5-37.7
	c-29.2,0-58,0-89,0C189.1,356.5,189.1,370.2,189.1,388.3z"/>
<path fill="current" d="M328.7,342.5c1.1,13.3,1.8,26.6,3.3,39.9c0.4,2.2,3.3,5.9,5.2,5.9c27.3,0.4,55,0.4,82.3,0.4
	C399.6,353.9,367.8,337.7,328.7,342.5z"/>
<path fill="current" d="M180.6,341c-17,0-33.2,0-51.3,0c-1.8,13.7-3.7,27.3-5.9,42.8c19.9,0,37.7,0,57.6,0
	C180.6,369.4,180.6,355.8,180.6,341z"/>
</svg>
