<?xml version="1.0" encoding="utf-8"?>
<!-- Generator: Adobe Illustrator 17.1.0, SVG Export Plug-In . SVG Version: 6.00 Build 0)  -->
<!DOCTYPE svg PUBLIC "-//W3C//DTD SVG 1.1//EN" "http://www.w3.org/Graphics/SVG/1.1/DTD/svg11.dtd">
<svg version="1.1" id="Layer_1" xmlns="http://www.w3.org/2000/svg" xmlns:xlink="http://www.w3.org/1999/xlink" x="0px" y="0px"
	 viewBox="0 259.6 595.3 322.6" enable-background="new 0 259.6 595.3 322.6" xml:space="preserve">
<path fill="current" d="M214.3,492l-10.9-5.9c1.3-3,0.8-5.5,0.8-5.5v-0.8c0-12.6-13.4-23.1-26-23.1s-24.3,14.7-24.3,27.3
	c0.5,3,0.8,6.3,0.8,7.2l-12.6,0.5c-1.3-3-1.7-8.9-1.7-11.4v-0.5c0-21,17.2-38.2,38.2-38.2s37.7,16.8,38.2,37.7
	C216.4,481.1,216.4,486.6,214.3,492z"/>
<path fill="current" d="M178.2,514.6c-19.3,0-34.9-15.6-34.9-34.9c0-19.3,15.6-34.9,34.9-34.9s34.9,15.6,34.9,34.9
	C213.4,499.2,197.5,514.6,178.2,514.6z M178.2,453.8c-14.3,0-26,11.7-26,26c0,14.3,11.7,26,26,26c14.3,0,26-11.7,26-26
	C204.2,465.5,192.5,453.8,178.2,453.8z"/>
<circle fill="current" cx="178.2" cy="482.8" r="8.4"/>
<path fill="current" d="M453.2,492l-10.9-5.9c1.3-3,0.8-5.5,0.8-5.5v-0.8c0-12.6-13.4-23.1-26-23.1c-12.6,0-24.3,14.7-24.3,27.3
	c0.5,3,0.8,6.3,0.8,7.2l-12.6,0.5c-1.3-3-1.7-8.9-1.7-11.4v-0.5c0-21,17.2-38.2,38.2-38.2s37.7,16.8,38.2,37.7
	C455.2,481.1,455.2,486.6,453.2,492z"/>
<path fill="current" d="M417,514.6c-19.3,0-34.9-15.6-34.9-34.9c0-19.3,15.6-34.9,34.9-34.9c19.3,0,34.9,15.6,34.9,34.9
	C452.3,499.2,436.3,514.6,417,514.6z M417,453.8c-14.3,0-26,11.7-26,26c0,14.3,11.7,26,26,26c14.3,0,26-11.7,26-26
	C443,465.5,431.3,453.8,417,453.8z"/>
<circle fill="current" cx="417" cy="482.8" r="8.4"/>
<path fill="current" d="M362,469.5L362,469.5c-21.1-0.2-42.6-0.3-63.8-0.3c-21.3,0-42.6,0.1-63.8,0.3c-9.9,0-15.8-3.4-21-11.9
	c-7.7-12.6-20.7-20.1-34.8-20.1c-14.1,0-27.1,7.6-34.3,20.5c-4.8,7.8-10.2,11.5-17.3,11.5c-2.7,0-5.8-0.6-9.5-1.7l-2.7-0.9v-68
	l3.3-0.6c3.9-0.7,6.9-1,9.7-1.4c0.8-3.1,1.6-6.3,2.4-9.2c2-8,4-15.6,6.6-23.3c4.9-15,15.5-22.5,31.6-22.1c4.8,0.2,10,0.3,15.9,0.3
	c5.3,0,10.8-0.1,16.1-0.2c4.1-0.1,8.2-0.1,12.4-0.2c0.1-4.5,1.4-8,3.6-10.5c3.8-4.2,9.7-4.7,14.2-4.7c0.9,0,1.8,0,2.7,0.1
	c5.2,0.1,10.9,0.1,17.7,0.1c5.3,0,10.6,0,15.9,0c5.3,0,10.6,0,15.9,0c11.7,0,20.7,0.1,29.3,0.3c7.7,0.5,16.4,3.9,22.9,8.8l0.1,0.1
	c15.9,13.2,32.9,28.3,50.1,44.7c7.7,7.4,16.1,11.1,26.5,11.9c6.6,0.5,13.1,0.9,19.7,1.4c13,0.9,26.3,1.8,39.3,2.4
	c13.6,0.5,24.2,5.9,31.3,16c9.1,13.5,13,29.3,12.5,51.5l-0.1,3.8l-3.8,0.1c-6.7,0.2-13.2,0.3-19.3,0.5c-6.7,0.1-13,0.2-19.2,0.5
	c-0.6,0-1.1,0-1.8,0c-7.6,0-12.7-3.1-17.3-10.3c-7.8-13.3-21.1-21.3-35.5-21.3c-14.6,0-27.4,7.7-35.5,21.1
	C376.8,467.8,370.6,469.5,362,469.5z M178.6,429.5c16.8,0,32.4,9,41.5,23.9c3.9,6.3,7.2,8.2,14.2,8.2c21-0.2,42.5-0.3,63.8-0.3
	c21.3,0,42.7,0.1,63.8,0.3c6.8,0,9.8-1,13.4-6.9c9.3-15.7,25.1-25,42.3-25s33,9.4,42.3,25.1c3.4,5.5,6.3,6.5,10.5,6.5
	c0.5,0,0.9,0,1.5,0c6.5-0.2,12.7-0.3,19.6-0.5c5-0.1,10.1-0.1,15.5-0.3c0-18.4-3.5-31.7-11.1-43c-5.6-8.1-13.8-12.2-25-12.5
	c-13.2-0.6-26.6-1.5-39.6-2.4c-6.6-0.5-13.2-0.9-19.7-1.4c-12.3-0.9-22.3-5.3-31.5-14.1c-17.2-16.3-33.9-31.2-49.7-44.2
	c-5.2-4-12.4-6.8-18.3-7.2c-8.4-0.2-17.3-0.3-29-0.3c-5.3,0-10.6,0-15.9,0s-10.6,0-15.9,0c-6.8,0-12.6,0-18-0.1c-0.9,0-1.7,0-2.5,0
	c-4.4,0-7,0.7-8.4,2c-1.4,1.5-1.8,4.4-1.5,8.8l0.3,4.3h-4.3c-5.5,0-11,0.1-16.4,0.2c-5.3,0.1-10.9,0.2-16.3,0.2
	c-6.1,0-11.5-0.1-16.3-0.3c-0.3,0-0.7,0-1,0c-11.8,0-19,5.2-22.6,16.6c-2.5,7.5-4.4,14.9-6.5,22.7c-1,3.9-2,7.8-3.2,11.9l-0.7,2.6
	l-4.3,0.6c-2,0.2-4.3,0.6-7,0.9v55.3c1.7,0.5,3.1,0.6,4.4,0.6c3,0,6.5-0.9,10.5-7.6C146.2,438.7,161.6,429.5,178.6,429.5z"/>
<path fill="current" d="M204.6,403.9c2.5,0,6.7-3.4,7.2-5.5c2.5-12.6,4.2-25.6,6.3-39.9c-18.4,0-35.2-0.8-52.1,0.5
	c-4.7,0.5-10.5,5-12.2,9.7c-4.7,10.5-7.2,22.3-11.4,35.7C165.1,403.9,184.9,404.2,204.6,403.9z"/>
<path fill="current" d="M328,353.1c-6.3-4.7-17.2-3.4-26.8-5c0,16.8,0,31,0,45.8c23.1,0,45.8,0,71.4,0
	C356.5,379.1,343.1,364.3,328,353.1z"/>
<path fill="current" d="M289.5,358.1c-0.5-3-5-8-8-8.4c-9.7-1.3-19.8-0.5-31-0.5c0,15.6,0,29.8,0,44.9c12.6,0,25.2,0,39.5,0
	C289.8,381.2,290.7,369.5,289.5,358.1z"/>
<path fill="current" d="M371.7,484.8c0-4.7,0-8.4,0-13.4c-49.1,0-97.4,0-147.3,0c-0.5,4.2-0.5,8.4-0.8,13.4
	C273.4,484.8,322.2,484.8,371.7,484.8z"/>
<path fill="current" d="M111,432.4c0-9.2,0.8-18.4-0.5-27.7c-0.5-3.8-5.5-6.7-8.4-10.1c-3,3.4-8,6.3-8.4,9.7
	c-0.8,18.4-0.8,36.9,0,55c0,3,5.9,5.9,8.9,8.9c2.5-3,7.2-5.9,7.5-8.9C111.8,450.9,111,441.6,111,432.4z"/>
<path fill="current" d="M463.2,471.9c0,4.7,0,8.4,0,14.3c11.7,0,23.1,0.8,34.4-0.5c4.2-0.5,7.5-6.7,10.9-10.5
	c-0.8-1.3-1.7-2-2.5-3.4C492.2,471.9,478,471.9,463.2,471.9z"/>
<path fill="current" d="M132.8,484.8c0-4.7,0-8.9,0-13.4c-5.9,0-11.4,0-18.1,0c-0.5,4.2-0.5,8.4-0.8,13.4
	C120.6,484.8,126.5,484.8,132.8,484.8z"/>
</svg>
