<?xml version="1.0" encoding="utf-8"?>
<!-- Generator: Adobe Illustrator 17.1.0, SVG Export Plug-In . SVG Version: 6.00 Build 0)  -->
<!DOCTYPE svg PUBLIC "-//W3C//DTD SVG 1.1//EN" "http://www.w3.org/Graphics/SVG/1.1/DTD/svg11.dtd">
<svg version="1.1" id="Layer_1" xmlns="http://www.w3.org/2000/svg" xmlns:xlink="http://www.w3.org/1999/xlink" x="0px" y="0px"
	 viewBox="0 239 595.3 363.9" enable-background="new 0 239 595.3 363.9" xml:space="preserve">
<path fill="current" d="M545.8,493.1l-14-7.4c1.5-3.7,1.1-7,1.1-7v-1.1c0-16.6-17.4-29.9-34-29.9c-16.2,0-31.8,19.2-31.8,35.8
	c0.4,3.7,0.7,8.1,1.1,9.2l-16.6,0.7c-1.5-4.1-2.2-11.4-2.6-14.8V478c0-27.3,22.2-49.5,49.5-49.5c27.3,0,49.5,22.2,49.5,49.1
	C548.8,479.1,548.8,485.8,545.8,493.1z"/>
<path fill="current" d="M498.9,523.1c-25.1,0-45.8-20.7-45.8-45.8c0-25.1,20.7-45.8,45.8-45.8s45.8,20.7,45.8,45.8
	C544.7,502.4,524,523.1,498.9,523.1z M498.9,443.3c-18.8,0-34,15.1-34,34s15.1,34,34,34c18.8,0,34-15.1,34-34
	S517.7,443.3,498.9,443.3z"/>
<circle fill="current" cx="498.9" cy="481" r="10.7"/>
<path fill="current" d="M178,493.1l-14-7.4c1.5-3.7,1.1-7,1.1-7v-1.1c0-16.6-17.4-29.9-34-29.9c-16.2,0-31.8,19.2-31.8,35.8
	c0.4,3.7,0.7,8.1,1.1,9.2l-16.6,0.7c-1.5-4.1-2.2-11.4-2.6-14.8V478c0-27.3,22.2-49.5,49.5-49.5s49.5,22.2,49.5,49.1
	C180.9,479.1,180.9,485.8,178,493.1z"/>
<path fill="current" d="M131.1,523.1c-25.1,0-45.8-20.7-45.8-45.8c0-25.1,20.7-45.8,45.8-45.8s45.8,20.7,45.8,45.8
	C176.5,502.4,156.2,523.1,131.1,523.1z M131.1,443.3c-18.8,0-34,15.1-34,34s15.1,34,34,34s34-15.1,34-34
	C164.7,458.4,149.6,443.3,131.1,443.3z"/>
<circle fill="current" cx="131.1" cy="481" r="10.7"/>
<path fill="current" d="M366.7,476.2c-60.6,0-125.2,0-189.8-0.4c0,2.6,0,5.2-0.4,7.8c64.6,0.4,129.6,0.4,190.2,0.4h87.9
	c-1.5-2.2-2.2-5.2-2.2-7.8H366.7z"/>
<path fill="current" d="M578.3,445.5c-1.1-4.1-1.5-8.5-1.8-13.3c-0.4-6.6-1.1-13.7-4.1-19.6c-4.4-9.2-13.7-21-24.7-24.7
	c-16.6-5.5-35.5-8.9-54.7-9.2c-26.2-0.4-46.2-7-62.4-20.7c-31-26.2-68.3-30.3-97.1-30.7c-5.9,0-11.8-0.4-17.4-0.4
	c-11.1-0.4-22.2-0.4-33.2-0.4h-1.1c-30.7,0-35.8,2.2-45.4,33.2c-3.3,10.7-7.4,12.6-17,12.6h-1.1c-41.7-0.7-84.2-1.1-124.8-1.1
	c-13.7,0-27.3-0.4-41-0.4c-3,0-5.9,0-8.9,0H21.8l3.7,75c-4.8,3.7-6.6,7-5.9,10c0.7,5.2,6.3,13.7,12.9,15.1c9.2,1.8,39.5,3,52.4,3
	c0-2.6,0-5.2,0-7.8c-12.2,0-41.7-1.1-50.6-3c-2.6-0.4-6.3-5.2-7.8-9.2c0.7-0.7,1.8-2.2,4.4-3.7l1.8-1.8l-3.7-70.5h13.7
	c3,0,5.9,0,8.9,0c13.7,0,27.3,0.4,41,0.4c41,0.4,83.5,0.7,124.8,1.1h1.5c11.8,0,19.9-3,24.4-18.1c8.5-26.6,10-27.7,38-27.7h1.1
	c11.1,0,22.2,0.4,33.2,0.4c5.9,0,11.8,0.4,17.4,0.4c41,0.7,69.4,9.6,92,28.8c17.7,14.8,39.1,22.2,67.2,22.5
	c18.5,0.4,36.6,3.3,52.4,8.5c8.1,3,16.2,12.9,20.3,20.7c2.2,4.8,2.6,10.3,3.3,16.6c0.4,4.8,0.7,10,2.2,14.8c5.9,21-5.2,23.6-24,29.2
	c0,3,0,5.5-0.4,8.1C571.3,477.3,585.7,471.7,578.3,445.5z"/>
<path fill="current" d="M433.2,388.6c-30.3-32.9-62.8-46.5-104.9-45.1c2.2,15.5,4.4,29.5,6.6,45.1
	C367.8,388.6,397.7,388.6,433.2,388.6z"/>
<path fill="current" d="M273.6,342.8c-3,11.1-5.9,21.8-9.6,35.8c16.6,3,31,5.9,46.2,8.5c0-16.2,0-30.3,0-44.7
	C296.2,342.8,285.8,342.8,273.6,342.8z"/>
</svg>
