<?xml version="1.0" encoding="utf-8"?>
<!-- Generator: Adobe Illustrator 17.1.0, SVG Export Plug-In . SVG Version: 6.00 Build 0)  -->
<!DOCTYPE svg PUBLIC "-//W3C//DTD SVG 1.1//EN" "http://www.w3.org/Graphics/SVG/1.1/DTD/svg11.dtd">
<svg version="1.1" id="Layer_1" xmlns="http://www.w3.org/2000/svg" xmlns:xlink="http://www.w3.org/1999/xlink" x="0px" y="0px"
	 viewBox="0 259 595.3 323.9" enable-background="new 0 259 595.3 323.9" xml:space="preserve">
<path fill="#F26522" d="M209.4,481l-11.1-6.3c1.1-3,1.1-5.9,1.1-5.9v-1.1c0-13.7-13.7-24.7-27-24.7c-12.9,0-25.1,15.9-25.1,29.5
	c0.4,3,0.7,6.6,1.1,7.4l-13.7,0.7c-1.1-3.3-1.8-9.6-1.8-12.2v-0.7c0-22.5,17.7-41,39.1-41s39.1,18.1,39.1,40.6
	C211.6,469.5,212,475,209.4,481z"/>
<path fill="#F26522" d="M172.5,505.7c-19.9,0-36.2-17-36.2-37.7c0-20.7,16.2-37.7,36.2-37.7s36.2,17,36.2,37.7
	C208.3,488.7,192.4,505.7,172.5,505.7z M172.5,440c-14.8,0-27,12.6-27,28.1s12.2,28.1,27,28.1c14.8,0,27-12.6,27-28.1
	C199,452.5,187.2,440,172.5,440z"/>
<path fill="#F26522" d="M471.2,481l-11.1-6.3c1.1-3,1.1-5.9,1.1-5.9v-1.1c0-13.7-13.7-24.7-27-24.7c-12.9,0-25.1,15.9-25.1,29.5
	c0.4,3,0.7,6.6,1.1,7.4l-12.9,0.7c-1.1-3.3-1.8-9.6-1.8-12.2v-0.7c0-22.5,17.7-41,39.1-41c21.4,0,39.1,18.1,39.1,40.6
	C473.4,469.5,473.4,475,471.2,481z"/>
<path fill="#F26522" d="M433.9,505.7c-19.9,0-36.2-17-36.2-37.7c0-20.7,16.2-37.7,36.2-37.7s36.2,17,36.2,37.7
	S453.8,505.7,433.9,505.7z M433.9,440c-14.8,0-27,12.6-27,28.1s12.2,28.1,27,28.1s27-12.6,27-28.1S448.7,440,433.9,440z"/>
<path fill="#F26522" d="M511.1,429.6c-1.5-1.5-33.2-36.2-116.7-36.2h-1.5c-7.8-6.3-52.4-41.7-102.3-41.7h-62c0,0-0.7,0-1.8,0
	c-8.9,0-41,2.6-88.6,34.3H91.2v42.1c-2.2,4.8-11.1,26.2,0.4,46.5l0.4,0.7l0.7,0.4c0.7,0.4,14.4,10.7,49.5,10.7h3.7
	c-1.8-1.8-2.6-4.4-2.2-7c-0.4-0.4-0.4-0.4-0.7-0.7h-1.1c-28.8,0-41.7-7-44.3-8.9c-10-18.5,0.4-38.4,0.4-38.8l0.4-0.7v-36.2h41.4
	l1.1-0.7c47.6-32.1,79.4-33.6,85.3-33.6c0.7,0,1.1,0,1.5,0h62.4c51,0,98.2,40.3,98.6,41l1.1,0.7h4.4c72,0,104.5,27.3,110.4,32.9
	v44.3h-36.2c-1.5,3.7-3.3,6.3-6.3,7.8h49.9v-55.4L511.1,429.6z"/>
<path fill="#F26522" d="M409.9,478.4H206.1c-1.8,4.1-0.7,6.3-4.1,7.8h209C409.2,484.3,408.8,481,409.9,478.4z"/>
<path fill="#F26522" d="M122.6,389.4l-11.8-20.3H83.1c0,0,0.7,14,12.6,20.7C113.4,389.4,122.6,389.4,122.6,389.4z"/>
<path fill="#F26522" d="M172.5,395.3l174.3,7.4c0,0,0-9.2,7.4-12.9c-3.3-2.6-29.2-23.6-63.1-23.6s-57.2,0-57.2,0
	S193.1,366.5,172.5,395.3z"/>
<path fill="#F26522" d="M373.7,409.3v-11.1c0,0-1.8-6.6-13.7-6.6c0,0-11.1,1.1-8.5,17C359.3,408.6,373.7,409.3,373.7,409.3z"/>
</svg>
