<?xml version="1.0" encoding="utf-8"?>
<!-- Generator: Adobe Illustrator 17.1.0, SVG Export Plug-In . SVG Version: 6.00 Build 0)  -->
<!DOCTYPE svg PUBLIC "-//W3C//DTD SVG 1.1//EN" "http://www.w3.org/Graphics/SVG/1.1/DTD/svg11.dtd">
<svg version="1.1" id="Layer_1" xmlns="http://www.w3.org/2000/svg" xmlns:xlink="http://www.w3.org/1999/xlink" x="0px" y="0px"
	 viewBox="0 259 595.3 323.9" enable-background="new 0 259 595.3 323.9" xml:space="preserve">
<g>
	<polygon fill="current" points="375.7,477.2 211.4,470.9 211.4,482 	"/>
	<path fill="current" d="M185.5,494.9l-14.9-8.2c1.4-3.8,1.4-7.2,1.4-7.7v-1.4c0-17.3-18.3-31.7-35.6-31.7s-33.2,20.2-33.6,37.5
		c0.5,3.8,1,8.2,1.4,9.6L87,493.5c-1.4-4.3-2.4-12-2.4-15.4v-1c0-28.8,23.5-52.4,52.4-52.4s51.9,23.1,52.4,51.9
		C188.3,480.5,188.3,487.7,185.5,494.9z"/>
	<path fill="current" d="M136,526.6c-26.4,0-48-21.6-48-48s21.6-48,48-48s48,21.6,48,48S162.4,526.6,136,526.6z M136,442.6
		c-19.7,0-35.6,15.9-35.6,35.6c0,19.7,15.9,35.6,35.6,35.6s35.6-15.9,35.6-35.6C171.5,458.9,155.7,442.6,136,442.6z"/>
	<circle fill="current" cx="136" cy="482.4" r="11.5"/>
	<path fill="current" d="M508.3,494.9l-14.9-8.2c1.4-3.8,1.4-7.2,1.4-7.7v-1.4c0-17.3-18.3-31.7-35.6-31.7s-33.2,20.2-33.6,37.5
		c0.5,3.8,1,8.2,1.4,9.6l-17.3,0.5c-1.4-4.3-2.4-12-2.4-15.4v-1c0-28.8,23.5-52.4,52.4-52.4s51.9,23.1,52.4,51.9
		C511.2,480.5,511.2,487.7,508.3,494.9z"/>
	<path fill="current" d="M458.8,526.6c-26.4,0-48-21.6-48-48s21.6-48,48-48s48,21.6,48,48S485.3,526.6,458.8,526.6z M458.8,442.6
		c-19.7,0-35.6,15.9-35.6,35.6c0,19.7,15.9,35.6,35.6,35.6c19.7,0,35.6-15.9,35.6-35.6C494.4,458.9,478.5,442.6,458.8,442.6z"/>
	<circle fill="current" cx="458.8" cy="482.4" r="11.5"/>
	<path fill="current" d="M79.3,380.6l-15.4-26.9H28.3c0,0,1,18.3,16.3,26.9C67.3,380.6,79.3,380.6,79.3,380.6z"/>
	<path fill="current" d="M138.9,391.2l215.7,9.6c0,0,0-12,9.1-16.8c-4.3-3.4-36-30.7-78.3-30.7s-71.1,0-71.1,0
		S164.8,353.7,138.9,391.2z"/>
	<path fill="current" d="M388.7,409.9v-14.4c0,0-2.4-8.6-16.8-8.6c0,0-13.5,1.4-10.6,22.1C370.4,408.5,388.7,409.9,388.7,409.9z"/>
	<path fill="current" d="M417,487.7H178.7c-0.5,3.8-2.4,7.2-4.8,9.6h246C418,494.5,417,491.1,417,487.7z"/>
	<path fill="current" d="M556.8,436.8c-0.5-1.4-15.4-32.7-62-40.4v-15.4h-86.5c-9.6-7.2-69.2-49.5-115.3-50.4
		c-14.4-0.5-30.3-0.5-47.1-0.5c-28.3,0-50.4,0.5-50,0.5c0,0-1,0-2.4,0c-9.6,0-58.6,2.4-108.6,45.6H38.9v32.7l-5.3,23.5v41.8l1,1.4
		c0.5,1,15.4,22.1,49.5,22.1H98c-3.4-2.4-5.3-5.8-6.2-9.6h-7.7c-25,0-37.5-13-40.4-16.8v-37l5.3-23.5v-24.5h40.4l1.4-1.4
		c47.6-42.3,94.6-44.2,103.3-44.2c1,0,1.9,0,2.4,0c0,0,22.1-0.5,50.4-0.5c16.8,0,32.2,0,46.6,0.5c46.6,1,110.5,49,111,49.5l1.4,1
		h79.3v13.9l4.3,0.5c40.4,5.3,55.3,29.8,58.1,34.6v48h-45.6c-0.5,1-1,1.9-1.9,3.4c-1.9,2.4-3.8,4.8-5.8,6.2h62.9v-60.1L556.8,436.8z
		"/>
	<path fill="current" d="M38.4,433.4c0,0,31.7-4.8,33.6-19.7c23.5,0,86.5-7.7,120.6,38.9c-1-5.8-21.1-52.4-65.8-52.4s-83.6,0-83.6,0
		v8.6L38.4,433.4z"/>
	<path fill="current" d="M234.9,334.9V321h58.1v14.4C293.1,335.4,254.6,334,234.9,334.9z"/>
	<rect x="171.5" y="404.6" fill="current" width="21.1" height="1"/>
	<rect x="265.7" y="411.3" fill="current" width="18.3" height="1"/>
</g>
</svg>
