<?xml version="1.0" encoding="utf-8"?>
<!-- Generator: Adobe Illustrator 17.1.0, SVG Export Plug-In . SVG Version: 6.00 Build 0)  -->
<!DOCTYPE svg PUBLIC "-//W3C//DTD SVG 1.1//EN" "http://www.w3.org/Graphics/SVG/1.1/DTD/svg11.dtd">
<svg version="1.1" id="Layer_1" xmlns="http://www.w3.org/2000/svg" xmlns:xlink="http://www.w3.org/1999/xlink" x="0px" y="0px"
	 viewBox="0 269 595.3 303.9" enable-background="new 0 269 595.3 303.9" xml:space="preserve">
<path fill="current" d="M489.3,476.2l-10.7-5.9c1.1-2.6,0.7-5.5,0.7-5.5v-1.1c0-12.6-13.3-22.9-25.8-22.9s-24.4,14.8-24.4,27.3
	c0.4,3,0.7,5.9,1.1,7l-12.6,0.4c-1.1-3-1.8-8.9-1.8-11.1v-0.7c0-21,17-38,38-38c20.7,0,37.7,17,38,37.7
	C491.5,465.4,491.5,470.6,489.3,476.2z"/>
<path fill="current" d="M453.5,499c-19.2,0-35.1-15.5-35.1-35.1c0-19.2,15.5-35.1,35.1-35.1c19.2,0,35.1,15.5,35.1,35.1
	C488.2,483.5,472.7,499,453.5,499z M453.5,438.1c-14.4,0-25.8,11.4-25.8,25.8s11.4,25.8,25.8,25.8s25.8-11.4,25.8-25.8
	C479.3,449.9,467.5,438.1,453.5,438.1z"/>
<circle fill="current" cx="453.5" cy="467.3" r="8.1"/>
<path fill="current" d="M168.8,476.2l-10.7-5.9c1.1-2.6,0.7-5.5,0.7-5.5v-1.1c0-12.6-13.3-22.9-25.8-22.9s-24.4,14.8-24.4,27.3
	c0.4,3,0.7,5.9,1.1,7l-12.6,0.4c-1.1-3-1.8-8.9-1.8-11.1v-0.7c0-21,17-38,38-38c20.7,0,37.7,17,38,37.7
	C171,465.4,171,470.6,168.8,476.2z"/>
<path fill="current" d="M132.9,499c-19.2,0-35.1-15.5-35.1-35.1c0-19.2,15.5-35.1,35.1-35.1S168,444.4,168,464
	C167.7,483.5,152.1,499,132.9,499z M132.9,438.1c-14.4,0-25.8,11.4-25.8,25.8s11.4,25.8,25.8,25.8c14.4,0,25.8-11.4,25.8-25.8
	C158.8,449.9,147,438.1,132.9,438.1z"/>
<circle fill="current" cx="132.9" cy="467.3" r="8.1"/>
<path fill="current" d="M419.9,465.1c-4.4-0.7-12.2-0.7-16.6-0.7h-6.6c-67.2,0-133.7-0.4-213.4-0.7c-3.3,0-10.3-0.4-13.3-0.7
	c0,2.6,0.4,4.8,0.4,7.4c2.6,0.4,9.6,0.7,12.9,0.7c79.8,0.4,146.2,0.7,213.8,0.7h6.3c4.4,0,11.8,0,15.9,0.7
	C419.1,469.9,419.5,467.3,419.9,465.1z"/>
<path fill="current" d="M574.2,437.4l-2.6-4.4c-0.4-0.4-0.4-1.1-0.7-1.5c-0.7-1.5-1.5-3.3-3.3-4.4l-9.2-5.2
	c-35.1-19.9-71.6-41-114.8-43.9c-5.5-0.4-10.3-1.8-14.4-3.7c-41-21.8-85.7-32.1-137.4-32.1c-31.4,0-66.1,4.1-108.9,12.2
	c-34,6.6-68.7,12.9-102.3,19.2c-15.1,2.6-30.7,5.5-45.8,8.5l-8.1,1.5l7,4.8c8.5,6.3,14.8,11.1,14.8,13.7c0,3.3-7.4,10-18.5,19.9
	l-2.6,2.2l8.5,12.2c6.6,8.9,13.3,18.1,19.9,27.3c0.4,0.7,5.2,6.6,9.6,6.6c0.4,0,1.1,0,1.5,0c2.6-0.7,4.8-1.1,7.4-1.1
	c7.4,0,17.7,3,24.7,6.6c0.7-2.6-1.5-4.8,0.7-6.3c-7.8-4.1-15.9-8.1-25.5-8.1c-3,0-5.9,0.4-8.9,1.1c-0.7-0.4-2.6-1.8-3.7-3.7
	c-6.6-8.9-13.3-18.1-19.9-27l-4.8-6.6c13.3-11.8,18.8-17,18.5-23.6c-0.4-4.8-4.1-8.9-11.1-14.4c12.6-2.2,25.1-4.4,37.3-6.6
	c33.6-5.9,68.3-12.6,102.3-19.2c42.5-8.1,76.4-12.2,107.5-12.2c50.2,0,94.2,10.3,134,31.8c4.8,2.6,10.7,4.1,17.4,4.4
	c41.7,3,77.2,23.3,111.9,42.8l7.4,4.4l-16.6,3.7l12.2,25.5h-69.8c0,0.7,0.4,1.8,0.4,2.6c0,1.5,0,3.3,0.4,4.8h80.9l-13.3-27.7
	L574.2,437.4z"/>
<path fill="current" d="M408.8,392.3c-32.1-35.8-130.4-49.9-172.1-25.5C292.1,394.5,349,389.4,408.8,392.3z"/>
</svg>
