<?xml version="1.0" encoding="utf-8"?>
<!-- Generator: Adobe Illustrator 17.1.0, SVG Export Plug-In . SVG Version: 6.00 Build 0)  -->
<!DOCTYPE svg PUBLIC "-//W3C//DTD SVG 1.1//EN" "http://www.w3.org/Graphics/SVG/1.1/DTD/svg11.dtd">
<svg version="1.1" id="Layer_1" xmlns="http://www.w3.org/2000/svg" xmlns:xlink="http://www.w3.org/1999/xlink" x="0px" y="0px"
	 viewBox="0 261 595.3 319.9" enable-background="new 0 261 595.3 319.9" xml:space="preserve">
<polygon fill="#F26522" points="369.6,461.4 243,456.6 243.4,465.1 "/>
<path fill="#F26522" d="M226.7,483.5l-13.3-7c1.5-3.3,1.1-6.6,1.1-6.6v-1.1c0-15.5-16.2-28.1-31.8-28.1s-29.9,18.1-29.9,33.6
	c0.4,3.3,0.7,7.4,1.1,8.5l-15.5,0.7c-1.5-3.7-2.2-11.1-2.2-13.7v-0.7c0-25.8,21-46.5,46.5-46.5c25.5,0,46.5,20.7,46.5,46.2
	C229.3,470.2,229.7,476.9,226.7,483.5z"/>
<path fill="#F26522" d="M182.4,511.6c-23.6,0-42.8-19.2-42.8-42.8c0-23.6,19.2-42.8,42.8-42.8s42.8,19.2,42.8,42.8
	C225.6,492.4,206.1,511.6,182.4,511.6z M182.4,436.6c-17.7,0-31.8,14.4-31.8,31.8c0,17.7,14.4,31.8,31.8,31.8
	c17.7,0,31.8-14.4,31.8-31.8C214.6,451,200.1,436.6,182.4,436.6z"/>
<circle fill="#F26522" cx="182.4" cy="472.5" r="10.3"/>
<path fill="#F26522" d="M474.9,483.5l-13.3-7c1.5-3.3,1.1-6.6,1.1-6.6v-1.1c0-15.5-16.2-28.1-31.8-28.1S401,458.8,401,474.3
	c0.4,3.3,0.7,7.4,1.1,8.5l-15.5,0.7c-1.5-3.7-2.2-11.1-2.2-13.7v-0.7c0-25.8,21-46.5,46.5-46.5c25.5,0,46.5,20.7,46.5,46.2
	C477.8,470.2,477.8,476.9,474.9,483.5z"/>
<path fill="#F26522" d="M431,511.6c-23.6,0-42.8-19.2-42.8-42.8c0-23.6,19.2-42.8,42.8-42.8s42.8,19.2,42.8,42.8
	C473.8,492.4,454.6,511.6,431,511.6z M431,436.6c-17.7,0-31.8,14.4-31.8,31.8c0,17.7,14.4,31.8,31.8,31.8
	c17.7,0,31.8-14.4,31.8-31.8C462.7,451,448.3,436.6,431,436.6z"/>
<circle fill="#F26522" cx="431" cy="472.5" r="10.3"/>
<path fill="#F26522" d="M394,476.9H222.7c-0.7,3.3-2.6,5.5-5.2,7.4h178.4c-0.4-0.4-0.4-0.7-0.7-1.5
	C393.7,481.3,393.3,478.7,394,476.9z"/>
<path fill="#F26522" d="M503,444.4v-35.5l-0.4-0.7c-0.7-2.2-9.6-19.9-60.2-19.9h-42.8h-0.7c-0.4,0-4.4,0.7-7.8-2.2
	c-2.2-1.8-57.2-49.5-83.5-49.5c-4.4,0-12.9,0-23.6-0.4c-19.2-0.4-45.4-0.7-71.3-0.7c-69.4,0-82.3,3.7-86,7.4l-1.1,1.1v10
	c-1.8,4.1-11.4,25.8-26.2,40.6l-1.1,1.1v30.3c-3.7,1.5-9.2,4.8-9.2,9.6v26.6l0.4,0.7c0.4,0.7,12.6,21,32.5,21h24.4
	c-1.8-1.8-2.6-4.8-1.5-7.4h-22.9c-14,0-23.6-13.3-25.8-16.6v-24c0.4-1.1,3.7-3,6.6-3.7l2.6-0.7V399c17-17.4,26.6-41.7,27-42.8
	l0.4-0.7v-7.8c4.1-1.8,20.3-4.8,79.8-4.8c25.8,0,52.1,0.4,71.3,0.7c10.7,0.4,19.2,0.4,23.6,0.4c19.6,0,63.5,34.3,78.7,47.6
	c4.1,3.3,8.9,4.1,11.4,4.1c0.7,0,1.5,0,1.8,0H442c41,0,51.3,12.2,53.2,14.8v34v1.1c5.2,17.7,0.7,27.3-1.5,30.7h-23.6
	c-1.8,2.6-4.1,5.5-6.6,7.4h33.6l1.1-1.1C499.6,482.4,510.3,470.2,503,444.4z"/>
<path fill="#F26522" d="M499.3,413.7h-19.6v27.7c0,0,19.6,0.7,20.7,8.1C499.3,428.1,499.3,413.7,499.3,413.7z"/>
<rect x="275.5" y="403.4" fill="#F26522" width="24.4" height="3.7"/>
<path fill="#F26522" d="M156.2,351.7c0,0-7.8,27.7-19.9,39.1c27.7,0,101.2,0,101.2,0v-42.5h-80.9L156.2,351.7z"/>
<path fill="#F26522" d="M258.1,348.4v43.9h82c0,0-5.2-13.3,7-19.9c-10-6.3-37.3-24-37.3-24L258.1,348.4L258.1,348.4z"/>
<path fill="#F26522" d="M347.1,398.2v-19.9c0,0,14.4,0,18.8,14v5.9H347.1L347.1,398.2z"/>
</svg>
