<?xml version="1.0" encoding="utf-8"?>
<!-- Generator: Adobe Illustrator 17.1.0, SVG Export Plug-In . SVG Version: 6.00 Build 0)  -->
<!DOCTYPE svg PUBLIC "-//W3C//DTD SVG 1.1//EN" "http://www.w3.org/Graphics/SVG/1.1/DTD/svg11.dtd">
<svg version="1.1" id="Layer_1" xmlns="http://www.w3.org/2000/svg" xmlns:xlink="http://www.w3.org/1999/xlink" x="0px" y="0px"
	 viewBox="0 247 595.3 347.9" enable-background="new 0 247 595.3 347.9" xml:space="preserve">
<path fill="current" d="M496.3,498.3l-11.8-6.3c1.1-3,1.1-5.9,1.1-5.9V485c0-13.7-14.4-24.7-27.7-24.7c-13.3,0-26.2,15.9-26.2,29.2
	c0.4,3,0.7,6.6,1.1,7.4l-13.7,0.7c-1.1-3.3-1.8-9.6-1.8-12.2v-0.7c0-22.5,18.5-40.6,40.6-40.6c22.5,0,40.6,18.1,40.6,40.3
	C498.5,486.9,498.5,492.4,496.3,498.3z"/>
<path fill="current" d="M457.5,523.1c-20.7,0-37.7-17-37.7-37.7c0-20.7,17-37.7,37.7-37.7c20.7,0,37.7,17,37.7,37.7
	C495.2,506.1,478.2,523.1,457.5,523.1z M457.5,457.7c-15.5,0-27.7,12.6-27.7,27.7c0,15.5,12.6,27.7,27.7,27.7
	c15.5,0,27.7-12.6,27.7-27.7C485.2,469.9,473,457.7,457.5,457.7z"/>
<circle fill="current" cx="457.5" cy="488.7" r="8.9"/>
<path fill="current" d="M206.1,498.3l-11.8-6.3c1.1-3,1.1-5.9,1.1-5.9V485c0-13.7-14.4-24.7-27.7-24.7c-13.3,0-26.2,15.9-26.2,29.2
	c0.4,3,0.7,6.6,1.1,7.4l-13.7,0.7c-1.1-3.3-1.8-9.6-1.8-12.2v-0.7c0-22.5,18.5-40.6,40.6-40.6c22.5,0,40.6,18.1,40.6,40.3
	C208.6,486.9,208.6,492.4,206.1,498.3z"/>
<path fill="current" d="M167.7,523.1c-20.7,0-37.7-17-37.7-37.7c0-20.7,17-37.7,37.7-37.7s37.7,17,37.7,37.7
	C205,506.1,188.3,523.1,167.7,523.1z M167.7,457.7c-15.5,0-27.7,12.6-27.7,27.7c0,15.5,12.6,27.7,27.7,27.7
	c15.5,0,27.7-12.6,27.7-27.7C195.3,469.9,182.8,457.7,167.7,457.7z"/>
<circle fill="current" cx="167.7" cy="488.7" r="8.9"/>
<path fill="current" d="M206.4,489.4h213.8c-0.4-2.6-0.4-5.2-0.7-7.8c0,0.4,0,0.7-0.4,1.1H206.8C206.8,485,206.4,487.2,206.4,489.4z
	"/>
<path fill="current" d="M506.3,404.1c-22.5-6.3-41-20.3-57.2-43.6c-20.3-29.5-50.2-33.6-74.2-34c-17.7,0-36.6-0.4-57.2-0.4
	c-32.9,0-66.5,0.4-99,0.4c-27.3,0-55,0.4-82.3,0.4c-16.2,0-25.1,6.6-29.9,22.2c-13.3,43.2-23.6,82.7-13.3,127.4l0.4,2.2l33.2,2.6
	c0-2.2,3.3-4.4,3.3-6.6l-31.4-2.2c-8.9-41.7,1.1-79.8,14-121.1c4.1-12.6,10.3-17.4,23.6-17.4c27.3,0,55-0.4,82.3-0.4
	c32.5-0.4,66.1-0.4,99-0.4c20.7,0,39.1,0,56.9,0.4c32.9,0.4,54.3,10,68.7,31c17,24.4,36.9,39.5,60.6,46.2c3.7,1.1,8.5,6.6,8.5,8.5
	c-0.7,15.5-3,32.5-6.3,53.2c-0.4,1.1-3.3,3.7-6.6,5.2c-0.7-0.7-2.2-2.6-3-3.7c0,0,0,0,0-0.4c0.4,3.7,0.7,7,1.5,10.7
	c0.4,0.4,1.1,0.4,1.5,0.4h1.1c4.4-1.1,11.4-5.5,12.6-10.7c3.7-21,5.5-38,6.3-53.9C519.9,413,511.5,405.6,506.3,404.1z"/>
<path fill="current" d="M438.7,385.7c-11.1-13.7-18.1-28.8-29.9-35.1c-11.4-6.3-28.1-3.3-42.5-3.7c-1.1,0-3.3,6.3-3.3,10
	c-0.4,9.2,0,18.5,0,29.2C388.9,385.7,411.7,385.7,438.7,385.7z"/>
</svg>
