<?xml version="1.0" encoding="utf-8"?>
<!-- Generator: Adobe Illustrator 17.1.0, SVG Export Plug-In . SVG Version: 6.00 Build 0)  -->
<!DOCTYPE svg PUBLIC "-//W3C//DTD SVG 1.1//EN" "http://www.w3.org/Graphics/SVG/1.1/DTD/svg11.dtd">
<svg version="1.1" id="Layer_1" xmlns="http://www.w3.org/2000/svg" xmlns:xlink="http://www.w3.org/1999/xlink" x="0px" y="0px"
	 viewBox="0 494.5 595.3 347.4" enable-background="new 0 494.5 595.3 347.4" xml:space="preserve">
<path fill="#F26522" d="M236,730.6l-11.1-5.9c1.1-3,1.1-5.5,1.1-5.5v-1.1c0-12.9-13.7-23.3-26.2-23.3c-12.9,0-24.7,15.1-24.7,27.7
	c0.4,3,0.7,6.3,1.1,7l-12.9,0.4c-1.1-3-1.8-8.9-1.8-11.4v-0.7c0-21.4,17.4-38.8,38.8-38.8c21,0,38.4,17,38.8,38.4
	C238.2,719.9,238.6,725.1,236,730.6z"/>
<path fill="#F26522" d="M199.4,753.9c-19.6,0-35.5-15.9-35.5-35.5c0-19.6,15.9-35.5,35.5-35.5s35.5,15.9,35.5,35.5
	C234.9,738,219,753.9,199.4,753.9z M199.4,691.9c-14.4,0-26.2,11.8-26.2,26.2s11.8,26.2,26.2,26.2c14.4,0,26.2-11.8,26.2-26.2
	C226,703.7,214.2,691.9,199.4,691.9z"/>
<path fill="#F26522" d="M457.9,730.6l-11.1-5.9c1.1-3,1.1-5.5,1.1-5.5v-1.1c0-12.9-13.7-23.3-26.2-23.3c-12.9,0-24.7,15.1-24.7,27.7
	c0.4,3,0.7,6.3,1.1,7l-12.9,0.4c-1.1-3-1.8-8.9-1.8-11.4v-0.7c0-21.4,17.4-38.8,38.8-38.8c21,0,38.4,17,38.8,38.4
	C460.1,719.9,460.5,725.1,457.9,730.6z"/>
<path fill="#F26522" d="M421.3,753.9c-19.6,0-35.5-15.9-35.5-35.5c0-19.6,15.9-35.5,35.5-35.5c19.6,0,35.5,15.9,35.5,35.5
	C456.8,738,440.9,753.9,421.3,753.9z M421.3,691.9c-14.4,0-26.2,11.8-26.2,26.2s11.8,26.2,26.2,26.2c14.4,0,26.2-11.8,26.2-26.2
	C447.9,703.7,436.1,691.9,421.3,691.9z"/>
<path fill="#F26522" d="M477.5,730.3c-3.7,0-8.5-0.4-14.8-1.5l-1.8-0.4l-0.4-1.8c-5.2-28.1-19.6-43.2-39.5-42.5
	c-26.2,1.1-35.1,24-37.7,42.8l-0.4,2.2H236.7v-2.6c-1.8-25.8-14.8-41.4-35.8-42.5s-35.5,14.4-39.1,42.1l-0.4,1.8l-1.8,0.4
	c-14,2.2-24.4-0.4-31-7.4c-5.5-5.9-8.1-14.4-7.8-25.8v-4.4c0.7-23.6,1.5-48.4,5.2-72c3.7-22.5,8.9-24.7,31.8-24.7
	c14.8,0,29.5,0,44.3,0c14.8,0,29.5,0,44.3,0c25.1,0,45.8-0.4,64.6-0.7c1.1,0,2.2,0,3,0c23.6,0,42.1,7.4,55,22.2
	c18.5,21,41.7,32.5,75.3,36.9c8.5,1.1,17,4.1,25.1,6.6c22.9,7.8,31.8,23.6,26.6,46.9C492.3,722.9,490.4,730.3,477.5,730.3z
	 M465.7,723.6c5.2,0.7,8.9,1.1,12.2,1.1c7.8,0,8.9-1.5,12.9-19.6c4.4-21-2.6-34-22.9-40.6c-8.1-2.6-15.9-5.5-24-6.6
	c-34.3-4.4-59.5-16.6-78.7-38.4c-11.8-13.3-28.8-20.3-51-20.3c-1.1,0-1.8,0-3,0c-18.8,0.4-39.5,0.7-65,0.7c-14.8,0-29.5,0-44.3,0
	c-14.8,0-29.5,0-44.3,0c-20.7,0-23.3,0.7-26.2,20.3c-3.7,23.3-4.4,47.6-5.2,71.3v4.4c-0.4,10,1.8,17,6.3,21.8
	c5.2,5.2,13.3,7.4,24.4,5.9c4.8-29.5,21-46.2,44.7-44.7c23.3,1.1,38.4,18.1,41,45.1h136.6c4.4-28.1,19.6-44.3,42.5-45.1
	C443.5,677.8,459.4,693.7,465.7,723.6z"/>
<path fill="#F26522" d="M202.4,649c27.3,0,52.8,0,77.9,0c0-14,0-27,0-40.3c-23.3,0-45.4,0-69.1,0C208.3,621.7,205.7,635,202.4,649z"
	/>
<path fill="#F26522" d="M287.7,648.3c31.4,0,62,0,94.2,0c-26.2-29.5-54.3-48.7-94.2-38C287.7,622.8,287.7,635.7,287.7,648.3z"/>
<path fill="#F26522" d="M205,608.4c-16.2,0-31-1.1-45.4,0.7c-4.8,0.7-11.1,8.1-12.9,13.7c-2.6,8.1-1.5,17-1.1,25.5
	c0,0.7,4.8,1.8,7.4,1.8c12.2,0.4,24,0.4,36.2,0c3,0,7.8-3.3,8.5-5.9C200.1,632.8,202.4,621,205,608.4z"/>
</svg>
