<svg xmlns="http://www.w3.org/2000/svg" width="34" height="34" viewBox="0 0 34 34">
  <g id="Group_1963" data-name="Group 1963" transform="translate(-248 -13029)">
    <circle id="Ellipse_15" data-name="Ellipse 15" cx="17" cy="17" r="17" transform="translate(248 13029)" fill="#f06424"/>
    <path id="instagram" d="M10.7,7.884A3.115,3.115,0,1,0,13.815,11,3.119,3.119,0,0,0,10.7,7.884Zm0,5.043A1.927,1.927,0,1,1,12.627,11,1.928,1.928,0,0,1,10.7,12.927ZM13.247,5H8.153A3.458,3.458,0,0,0,4.7,8.453v5.094A3.458,3.458,0,0,0,8.153,17h5.094A3.458,3.458,0,0,0,16.7,13.547V8.453A3.457,3.457,0,0,0,13.247,5Zm2.265,8.547a2.268,2.268,0,0,1-2.265,2.264H8.153a2.267,2.267,0,0,1-2.264-2.264V8.453A2.267,2.267,0,0,1,8.153,6.189h5.094a2.267,2.267,0,0,1,2.264,2.264v5.094ZM13.858,6.984a.815.815,0,1,0,.815.815A.816.816,0,0,0,13.858,6.984Z" transform="translate(254.3 13035)" fill="#f5f4f0"/>
  </g>
</svg>
