<svg xmlns="http://www.w3.org/2000/svg" width="50" height="27.912" viewBox="0 0 50 27.912">
  <g id="Group_2501" data-name="Group 2501" transform="translate(18048.344 1398.529)">
    <g id="Group_2500" data-name="Group 2500" transform="translate(1.123 12.921)">
      <g id="Group_2499" data-name="Group 2499" transform="translate(-16503.191 -2125.519)">
        <path id="Path_1577" data-name="Path 1577" d="M-1523.726,757.013a44.5,44.5,0,0,0-20.335-1.516c1.683-6.391,9.55-10.19,15.33-7.561C-1525.462,749.424-1523.51,752.863-1523.726,757.013Z" transform="translate(-1.547 -23.349)" fill="#f06424"/>
        <path id="Path_1578" data-name="Path 1578" d="M-1456.245,740.256c-2.905,0-5.533-.033-8.16.016a2.312,2.312,0,0,0-2.3,1.7c-1.331,3.482-3.793,5.227-7.821,5.119-4.005-.107-8.025.3-12.038.465-1.832.077-2.3-.331-2.608-2.366l3.874,1.06.511-1.589c3.5,0,7.008.03,10.513-.009,3.117-.034,4.034-.716,5.052-3.6a15.08,15.08,0,0,0-.843-12.524l2.545-.894c.615,2.684,1.153,5.382,1.884,8.029a4.987,4.987,0,0,0,1.544,2.465,2.158,2.158,0,0,0,2.882-.21,1.62,1.62,0,0,1,1.477-.12C-1458.529,738.519-1457.434,739.4-1456.245,740.256Z" transform="translate(-40.827 -9.478)" fill="#f06424"/>
        <path id="Path_1579" data-name="Path 1579" d="M-1407.166,776.893a6.546,6.546,0,0,1-5.813,6.4,6.4,6.4,0,0,1-6.964-4.668,1.965,1.965,0,0,1,.011-1.28c.7-1.373,1.478-2.709,2.285-4.023a1.388,1.388,0,0,1,.906-.657c2.525-.048,5.058-.117,7.576.032C-1408.079,772.764-1407.146,775-1407.166,776.893Zm-2.7-.045a3.918,3.918,0,0,0-3.809-3.872,4,4,0,0,0-3.9,3.808,4,4,0,0,0,3.913,3.948A3.928,3.928,0,0,0-1409.862,776.848Z" transform="translate(-89.11 -41.413)" fill="#f06424"/>
        <path id="Path_1580" data-name="Path 1580" d="M-1492.617,736.234c-2.981-.317-6.117-.622-9.247-.993-1.548-.184-2.417-1.11-2.283-2.259.146-1.253,1.184-1.85,2.828-1.667q4.549.506,9.1.974c1.584.161,2.4.884,2.33,2.158S-1490.809,736.3-1492.617,736.234Z" transform="translate(-29.742 -12.139)" fill="#f06424"/>
        <path id="Path_1581" data-name="Path 1581" d="M-1529.92,784.333l2.529.362a6.427,6.427,0,0,1-3.154,5.847,6.182,6.182,0,0,1-6.935-.11,6.11,6.11,0,0,1-2.876-5.949l2.435-.195c.611,3.181,1.855,4.6,3.993,4.6C-1531.752,788.891-1530.375,787.374-1529.92,784.333Z" transform="translate(-4.123 -49.572)" fill="#f06424"/>
        <path id="Path_1582" data-name="Path 1582" d="M-1525.16,777.027l-.375,2.064a40.488,40.488,0,0,0-20.713-1.436c-.129-1.5.148-2.241,1.813-2.462A42.753,42.753,0,0,1-1525.9,776.7,7.54,7.54,0,0,1-1525.16,777.027Z" transform="translate(0 -42.814)" fill="#f06424"/>
        <path id="Path_1583" data-name="Path 1583" d="M-1431.679,749.172l1.692-14.33C-1427.3,738.452-1428.482,748.265-1431.679,749.172Z" transform="translate(-80.725 -14.742)" fill="#f06424"/>
        <path id="Path_1584" data-name="Path 1584" d="M-1499.576,745.163l7.868,1.115v10.413l-.259.018c-.082-.932-.158-1.864-.247-2.8a9.063,9.063,0,0,0-6.39-8.23,7.389,7.389,0,0,1-.97-.521Z" transform="translate(-32.926 -22.01)" fill="#f06424"/>
        <path id="Path_1585" data-name="Path 1585" d="M-1521.691,741.091a19.1,19.1,0,0,0-3.882.245c-2,.531-3.918,1.372-5.667,2.008a5.261,5.261,0,0,1,2.866-2.842,14.209,14.209,0,0,1,2.528-.915c1.154-.313,2.323-.6,3.037.873.153.316.732.427,1.115.632Z" transform="translate(-10.503 -17.81)" fill="#f06424"/>
        <path id="Path_1586" data-name="Path 1586" d="M-1469.274,759.565h-1.78V748.819l2.159.327C-1470.941,752.6-1470.8,756.037-1469.274,759.565Z" transform="translate(-52.979 -24.583)" fill="#f06424"/>
        <path id="Path_1587" data-name="Path 1587" d="M-1406.755,746.823v4.716c-1.839.1-2.7-.656-2.7-2.334S-1408.59,746.754-1406.755,746.823Z" transform="translate(-96.506 -23.094)" fill="#f06424"/>
        <path id="Path_1588" data-name="Path 1588" d="M-1434.34,719.715c.048-.727.086-1.314.134-2.029a9.431,9.431,0,0,1,2.223.044c.5.125.906.659,1.354,1.01-.428.325-.816.827-1.293.933A11.93,11.93,0,0,1-1434.34,719.715Z" transform="translate(-78.857 -2.494)" fill="#f06424"/>
        <path id="Path_1589" data-name="Path 1589" d="M-1426.761,718.344c.714-.838,1.6-1.495,1.837-2.334.1-.368-1.12-1.109-1.794-1.941.718.27,1.744.342,2.074.859a3.029,3.029,0,0,1,.2,2.431A1.789,1.789,0,0,1-1426.761,718.344Z" transform="translate(-84.179)" fill="#f06424"/>
        <path id="Path_1590" data-name="Path 1590" d="M-1520.53,785c-.443.286-.96.873-1.31.787-.488-.121-.851-.746-1.268-1.156.423-.3.823-.778,1.275-.833.4-.049.862.375,1.3.59Z" transform="translate(-16.183 -49.122)" fill="#f06424"/>
        <path id="Path_1591" data-name="Path 1591" d="M-1398.019,748.477c1.157,1.217,1.2,2.22,0,3.975Z" transform="translate(-104.495 -24.256)" fill="#f06424"/>
        <path id="Path_1592" data-name="Path 1592" d="M-1401.716,780.728c.58.872,1.132,1.341,1.128,1.8,0,.4-.71,1.156-.986,1.105a1.772,1.772,0,0,1-1.246-1.063C-1402.892,782.16-1402.29,781.629-1401.716,780.728Z" transform="translate(-101.137 -46.974)" fill="#f06424"/>
      </g>
    </g>
  </g>
</svg>
