<svg xmlns="http://www.w3.org/2000/svg" width="50.4" height="36.559" viewBox="0 0 50.4 36.559">
  <g id="Group_2505" data-name="Group 2505" transform="translate(18261.861 1437.15)">
    <g id="Group_2504" data-name="Group 2504" transform="translate(-17146.115 -2130.085)">
      <path id="Path_1593" data-name="Path 1593" d="M-1111.284,716.159c-1.276,0-2.278-.006-3.28,0-.722.006-1.262-.2-1.172-1.056.08-.76.135-1.725,1.185-1.617,1.436.147,3.138-.8,4.231,1.117.379.664,1.075.15,1.389-.528.845-1.824,1.766-3.614,2.557-5.46a3.043,3.043,0,0,1,3.225-2.067c3.062.082,6.128.024,9.286.024l.086,1.692a50.922,50.922,0,0,1-6.917-.061c-3.124-.436-4.923.655-5.778,3.652a23.466,23.466,0,0,1-1.523,3.285h14.076v12.694c-1.914,0-3.867.08-5.808-.027-1.349-.075-1.729.4-1.679,1.707.09,2.356.018,2.357,2.35,2.361q2.377,0,4.753.02a2.641,2.641,0,0,1,.418.1l.091,1.622h-11.826l-.306,1.393h-7.429c0-1.924.079-3.787-.02-5.641-.13-2.451-.364-4.9-.622-7.34a4.739,4.739,0,0,1,1.354-4.053A17.856,17.856,0,0,0-1111.284,716.159Zm5.4,9.39v.01a19.013,19.013,0,0,0,3.15-.051,1.943,1.943,0,0,0,1.368-1.1,1.781,1.781,0,0,0-.8-1.542c-2.309-.876-4.677-1.6-7.043-2.318-.35-.106-1.1.031-1.154.207a10,10,0,0,0-.632,3.238c.056,1.08,1.04,1.526,2.1,1.552C-1107.9,725.569-1106.894,725.549-1105.889,725.549Z" transform="translate(0 -9.688)" fill="#f06424"/>
      <path id="Path_1594" data-name="Path 1594" d="M-998.86,716.24c.068.215.069.391.156.465,2.681,2.29,2.594,5.37,2.362,8.453-.245,3.257-.592,6.507-.905,9.881h-7.056l-.271-1.3h-11.807v-1.745c1.922,0,3.831-.075,5.731.025,1.4.073,1.967-.427,1.774-1.811a3.148,3.148,0,0,1,0-.863c.162-1.156-.354-1.5-1.469-1.459-1.961.073-3.926.02-5.995.02V715.356h14.123c-1.107-2.324-2.069-4.445-3.148-6.5-.166-.316-.868-.486-1.326-.493-2.737-.045-5.476-.022-8.213-.022h-1.487v-1.649c3.469,0,6.919-.092,10.356.079.675.034,1.507.964,1.908,1.681,1,1.793,1.787,3.705,2.678,5.56.606,1.262,1,1.28,1.88.191a1.513,1.513,0,0,1,.885-.586,8.773,8.773,0,0,1,3,.031c.488.138.851,1.054,1.043,1.688.053.176-.681.808-1.1.865A24.087,24.087,0,0,1-998.86,716.24Zm-5.641,9.427v-.007c.813,0,1.625.006,2.438,0,2.564-.023,3.673-1.764,2.669-4.126-.33-.777-.815-1.2-1.657-.934-2.356.736-4.726,1.438-7.028,2.32a1.935,1.935,0,0,0-.837,1.647c.059.423.867.957,1.411,1.053A17.637,17.637,0,0,0-1004.5,725.667Z" transform="translate(-70.708 -9.77)" fill="#f06424"/>
      <path id="Path_1595" data-name="Path 1595" d="M-1029.172,712.079v2.6h-1.357v-2.6Z" transform="translate(-60.647 -13.624)" fill="#f06424"/>
      <path id="Path_1596" data-name="Path 1596" d="M-1030.583,734.469v-2.6h1.361v2.6Z" transform="translate(-60.608 -27.706)" fill="#f06424"/>
      <path id="Path_1597" data-name="Path 1597" d="M-1030.528,773.782v-2.57h1.356v2.57Z" transform="translate(-60.648 -55.708)" fill="#f06424"/>
      <path id="Path_1598" data-name="Path 1598" d="M-1030.574,793.5v-2.6h1.363v2.6Z" transform="translate(-60.615 -69.717)" fill="#f06424"/>
      <path id="Path_1599" data-name="Path 1599" d="M-1029.127,692.935v2.438h-1.355v-2.438Z" transform="translate(-60.68)" fill="#f06424"/>
      <path id="Path_1600" data-name="Path 1600" d="M-1030.422,751.728h1.314v2.48l-1.314.127Z" transform="translate(-60.723 -41.842)" fill="#f06424"/>
      <path id="Path_1601" data-name="Path 1601" d="M-1030.595,813.142v-2.589l1.367-.081v2.556Z" transform="translate(-60.6 -83.648)" fill="#f06424"/>
    </g>
  </g>
</svg>
