<?xml version="1.0" encoding="utf-8"?>
<!-- Generator: Adobe Illustrator 24.2.3, SVG Export Plug-In . SVG Version: 6.00 Build 0)  -->
<svg version="1.1" id="Layer_1" xmlns="http://www.w3.org/2000/svg" xmlns:xlink="http://www.w3.org/1999/xlink" x="0px" y="0px"
	 viewBox="0 0 50 50" style="enable-background:new 0 0 50 50;" xml:space="preserve">
<style type="text/css">
	.st0{fill:#F6F5F5;}
	.st1{fill:#BF3561;}
	.st2{fill:none;stroke:#FFFFFF;stroke-width:3;stroke-miterlimit:10;}
	.st3{fill:#F26522;}
</style>
<g>
	<path class="st3" d="M9.4,37.6c-0.8,0-1.2-0.1-1.7-0.1c-4-0.2-6.8-2.7-6.8-6.8c-0.1-6.7-0.1-13.4,0-20.2c0-2.9,1.6-4.6,4.4-5.2
		C5.6,5.3,6.3,5,6.4,4.6C7,3.1,8,2.8,9.4,2.8c12.2,0,24.5,0,36.7,0c2.3,0,3.1,0.8,3.1,3.2c0,7.6,0,15.3,0,22.9
		c0,2.5-0.8,3.3-3.3,3.3c-1.7,0-3.4,0-5.3,0c0,3.7,0,7.3,0,11.5c-1-0.8-1.7-1.2-2.1-1.7c-2.7-3.8-6.3-4.7-10.9-4.7
		c-4.7,0-8.4,1-11.3,4.8c-1.3,1.7-2.9,3.1-4.5,4.5c-0.4,0.4-1.3,0.7-1.7,0.5c-0.4-0.2-0.8-1-0.8-1.6C9.3,43,9.4,40.4,9.4,37.6z
		 M31.1,34.8c-1.2-1.8-2.4-2.7-4.4-2.6c-5.6,0.2-11.3,0.1-16.9,0.1c-2.6,0-3.4-0.7-3.4-3.3c0-6.3,0-12.6,0-18.9c0-0.6,0-1.2,0-1.9
		c-2,0.2-2.8,1.3-2.8,2.9c0,6.5,0,12.9,0,19.4c0,2.1,1.5,3.8,3.6,4.2c0.9,0.2,1.8,0.2,2.7,0.1c1.6-0.1,2.2,0.5,2.2,2.1
		c-0.1,1.7,0,3.5,0,5.2c0.2,0.1,0.3,0.2,0.5,0.3c1.8-1.9,3.7-3.6,5.3-5.6c1.3-1.6,2.9-2.1,4.9-2C25.5,35,28.1,34.8,31.1,34.8z
		 M41.1,21.3c0.1-0.2,0.4-0.7,0.6-1.2c1.2-3.2,0-6.7-2.7-7.7c-2.2-0.8-4.8-0.2-6.2,1.4c-1.4,1.8-1.6,5-0.4,7
		c1.1,1.8,3.2,2.6,5.7,2.2c0.6-0.1,1.3-0.1,1.9,0c0.8,0.2,1.5,1.6,2.4,0.4C42.6,23.2,41.7,22.2,41.1,21.3z M31,22
		c-1.4-3.3-2.6-6.4-4-9.3c-0.5-1.1-2.1-0.8-2.7,0.6c-1.1,2.6-2.2,5.2-3.1,7.9c-0.2,0.5,0.3,1.2,0.4,1.8c0.5-0.4,1.3-0.7,1.5-1.2
		c0.4-1.2,1-1.6,2.2-1.5c1.5,0.1,3-0.2,3.4,1.9c0.1,0.3,0.8,0.8,1.2,0.7C30.3,23,30.6,22.4,31,22z M16,18.3c1.2,0,2.3,0.1,3.4,0
		c0.4,0,0.8-0.6,1.1-0.8c-0.4-0.3-0.8-0.7-1.2-0.8c-1.1-0.1-2.1,0-3.2,0c0-1,0-1.7,0-2.6c1.3,0,2.6,0.1,3.8,0c0.5,0,0.9-0.6,1.3-0.9
		c-0.4-0.3-0.8-0.7-1.2-0.7c-1.6-0.1-3.2-0.1-4.7,0c-0.5,0.1-1.4,0.7-1.4,1.2c-0.1,2.8-0.1,5.6,0,8.3c0,0.4,0.7,0.8,1,1.3
		c0.4-0.4,1-0.8,1.1-1.3C16.1,20.7,16,19.7,16,18.3z"/>
	<path class="st3" d="M39.1,20.1c-1-0.3-1.8-0.6-2.7-0.8c-0.1,0.2-0.2,0.4-0.2,0.6c0.4,0.4,0.8,0.8,1.5,1.4
		c-1.7,0.2-2.7-0.3-3.4-1.6c-0.8-1.7-0.4-4.3,0.8-5.2c1.2-0.8,2.4-0.8,3.5,0.1C40.1,15.7,40.2,18.1,39.1,20.1z"/>
	<path class="st3" d="M25.8,14.5c0.6,1.6,1,2.8,1.5,4.1c-1.1,0-1.9,0-2.9,0C24.8,17.4,25.2,16.2,25.8,14.5z"/>
</g>
</svg>
