<svg xmlns="http://www.w3.org/2000/svg" width="50" height="45.012" viewBox="0 0 50 45.012">
  <g id="Group_2503" data-name="Group 2503" transform="translate(18047 1738.549)">
    <g id="Group_2481" data-name="Group 2481" transform="translate(-24619 650.451)">
      <g id="Group_2480" data-name="Group 2480" transform="translate(6571.999 -2389)">
        <path id="Path_1549" data-name="Path 1549" d="M-1159.837,378.631q0,7.352,0,14.7a2.449,2.449,0,0,0,1.262,2.384,3.428,3.428,0,0,0,1.523.382q9.149.038,18.3.012a2.519,2.519,0,0,0,2.741-2.621c.013-1.582-.014-3.164.009-4.745a2.617,2.617,0,0,1,3.44-2.5,2.268,2.268,0,0,1,1.815,2.083,44.254,44.254,0,0,1-.1,6.373,7.561,7.561,0,0,1-7.642,6.406c-3.639.048-7.279.013-10.918.014-2.543,0-5.086.01-7.63,0a7.787,7.787,0,0,1-7.987-6.424,8.2,8.2,0,0,1-.079-1.4q-.007-14.675,0-29.35a7.546,7.546,0,0,1,6.233-7.632,9.193,9.193,0,0,1,1.906-.179q9.056-.019,18.113-.005c4.69.007,8.128,3.265,8.146,7.7q.009,2.314,0,4.628a2.575,2.575,0,0,1-2.592,2.665,2.582,2.582,0,0,1-2.7-2.625c-.019-1.562,0-3.125-.007-4.687a2.537,2.537,0,0,0-2.811-2.675q-9.087-.01-18.175,0a2.564,2.564,0,0,0-2.835,2.726Q-1159.844,371.25-1159.837,378.631Z" transform="translate(1165.11 -356.127)" fill="#f06424"/>
        <path id="Path_1550" data-name="Path 1550" d="M-1087.833,424.385h-.942c-9.819,0-19.638-.02-29.457.017a2.739,2.739,0,0,1-2.926-2.747,2.644,2.644,0,0,1,2.433-2.528c.267-.019.537-.013.806-.013h30.008c-.178-.214-.276-.353-.395-.472-.948-.953-1.9-1.9-2.848-2.853a2.669,2.669,0,0,1-.128-3.829,2.661,2.661,0,0,1,3.873.092q3.871,3.846,7.718,7.718a2.631,2.631,0,0,1,0,3.962q-3.847,3.871-7.718,7.717a2.661,2.661,0,0,1-3.873.09,2.669,2.669,0,0,1,.13-3.829C-1090.1,426.64-1089.029,425.582-1087.833,424.385Z" transform="translate(1128.793 -399.247)" fill="#f06424"/>
      </g>
    </g>
  </g>
</svg>
