<svg xmlns="http://www.w3.org/2000/svg" width="49.291" height="45.012" viewBox="0 0 49.291 45.012">
  <g id="Group_2502" data-name="Group 2502" transform="translate(18125.291 1738.549)">
    <path id="Path_1549" data-name="Path 1549" d="M-1135.958,378.631q0,7.352,0,14.7a2.449,2.449,0,0,1-1.262,2.384,3.428,3.428,0,0,1-1.523.382q-9.149.038-18.3.012a2.519,2.519,0,0,1-2.741-2.621c-.013-1.582.014-3.164-.009-4.745a2.617,2.617,0,0,0-3.44-2.5,2.268,2.268,0,0,0-1.815,2.083,44.254,44.254,0,0,0,.1,6.373,7.561,7.561,0,0,0,7.642,6.406c3.639.048,7.279.013,10.918.014,2.543,0,5.086.01,7.63,0a7.787,7.787,0,0,0,7.987-6.424,8.2,8.2,0,0,0,.079-1.4q.007-14.675,0-29.35a7.546,7.546,0,0,0-6.233-7.632,9.193,9.193,0,0,0-1.906-.179q-9.056-.019-18.113-.005c-4.69.007-8.128,3.265-8.145,7.7q-.009,2.314,0,4.628a2.575,2.575,0,0,0,2.592,2.665,2.582,2.582,0,0,0,2.7-2.625c.019-1.562,0-3.125.007-4.687a2.537,2.537,0,0,1,2.811-2.675q9.087-.01,18.175,0a2.564,2.564,0,0,1,2.835,2.726Q-1135.951,371.25-1135.958,378.631Z" transform="translate(-16945.314 -2094.676)" fill="#f06424"/>
    <path id="Path_1550" data-name="Path 1550" d="M-1088.948,424.385h-.91c-9.49,0-18.981-.02-28.471.017a2.693,2.693,0,0,1-2.828-2.747,2.6,2.6,0,0,1,2.351-2.528c.258-.019.519-.013.779-.013h29c-.172-.214-.267-.353-.382-.472-.916-.953-1.841-1.9-2.753-2.853a2.734,2.734,0,0,1-.123-3.829,2.513,2.513,0,0,1,3.743.092q3.742,3.846,7.459,7.718a2.692,2.692,0,0,1,0,3.962q-3.718,3.871-7.459,7.717a2.513,2.513,0,0,1-3.743.09,2.733,2.733,0,0,1,.126-3.829C-1091.137,426.64-1090.1,425.582-1088.948,424.385Z" transform="translate(-17004.131 -2137.796)" fill="#f06424"/>
  </g>
</svg>
