<svg xmlns="http://www.w3.org/2000/svg" width="50.281" height="47.059" viewBox="0 0 50.281 47.059">
  <g id="Group_2498" data-name="Group 2498" transform="translate(17935.199 1611.848)">
    <path id="Path_1570" data-name="Path 1570" d="M-718.559,392.786c-1.107-.065-2.22-.015-3.392-.015,0-.845-.02-1.678.009-2.508a.747.747,0,0,0-.454-.774c-1.21-.672-2.392-1.4-3.608-2.058a2.427,2.427,0,0,0-1.107-.3q-9.075-.028-18.151-.013c-.214,0-.427.019-.651.03v15.064c.154.013.262.031.369.031q9.307,0,18.613,0a1.593,1.593,0,0,0,.741-.207c1.283-.721,2.548-1.475,3.832-2.195a.709.709,0,0,0,.414-.724c-.015-1.314.008-2.628.017-3.943,1.134-.051,2.272-.066,3.4-.165.995-.087,1.547-.5,1.562-1.04C-716.948,393.379-717.583,392.843-718.559,392.786Zm-21.171,5.023h-1.106l-2.2-3.558v3.558h-1.024v-5.457h1.072l2.234,3.644v-3.644h1.024Zm5.316,0h-4.151v-5.457h4.046v.923h-2.945v1.21h2.74v.919h-2.74v1.485h3.049Zm6.243,0h-1.169l-1.087-4.08-1.083,4.08h-1.2l-1.3-5.457h1.128l.822,3.749,1-3.749h1.31l.957,3.812.838-3.812h1.109Zm9.808-3.352c-1.021.115-2.054.136-3.082.192-.129.006-.259,0-.438,0l-.059.507a5.076,5.076,0,0,0-.9-.068,1.434,1.434,0,0,0-.735.249.987.987,0,0,1-1.461-.029.956.956,0,0,1,.1-1.354c.457-.4.935-.257,1.45.154a4.492,4.492,0,0,0,1.375.5,1.6,1.6,0,0,0,.145-.284c.051-.985.047-1.041,1.053-1.1a13.57,13.57,0,0,1,2.554.115c.3.041.567.392.848.6C-717.8,394.124-718.066,394.424-718.364,394.457Z" transform="translate(-17167.955 -1998.966)" fill="#f06424"/>
    <path id="Path_1540" data-name="Path 1540" d="M-744.865,408.182c1.376-.088,1.376-.088,1.788,1.113a21.445,21.445,0,0,1-16.57,27.91,21.239,21.239,0,0,1-23.825-14.143,21.356,21.356,0,0,1,16.464-28c.323-.056.648-.1.963-.151.312,1.1.225,1.2-.9,1.447-8.289,1.835-13.706,6.839-15.8,15.082a20,20,0,0,0,15.128,24.326,20.085,20.085,0,0,0,24.073-16.106,20.166,20.166,0,0,0-1.054-10.8Z" transform="translate(-17150.555 -2002.3)" fill="#f06424"/>
    <path id="Path_1576" data-name="Path 1576" d="M-1815.758-265.455H-1833.2c0,.469,0,.924,0,1.38a.788.788,0,0,1-.907.9q-1.412,0-2.824,0a.746.746,0,0,1-.848-.845q0-4.27,0-8.541a3.389,3.389,0,0,1,.88-2.3c.389-.446.774-.894,1.2-1.382-.642-.18-1.242-.343-1.838-.516a.9.9,0,0,1-.7-.837.9.9,0,0,1,.878-.986,13.421,13.421,0,0,1,1.647.012,2.108,2.108,0,0,1,.754.317,2.323,2.323,0,0,1,.384.335c.4-.822.777-1.629,1.177-2.425.215-.429.48-.835.7-1.263a2.876,2.876,0,0,1,2.379-1.568,45.042,45.042,0,0,1,7.213-.283c1.5.037,2.994.18,4.489.295a2.7,2.7,0,0,1,2.359,1.53c.543,1.078,1.1,2.15,1.649,3.225.08.156.148.317.236.5a1.9,1.9,0,0,1,.368-.329,2.9,2.9,0,0,1,.881-.341,11.222,11.222,0,0,1,1.444-.014.923.923,0,0,1,.968.756.912.912,0,0,1-.723,1.081c-.578.168-1.16.324-1.777.5.061.088.1.16.154.221.336.391.671.783,1.012,1.169a3.409,3.409,0,0,1,.885,2.331q0,4.237,0,8.473c0,.614-.271.882-.88.883q-1.412,0-2.824,0a.777.777,0,0,1-.877-.862C-1815.762-264.5-1815.758-264.971-1815.758-265.455Zm-17.788-11.371a90.873,90.873,0,0,1,18.187-.046c-.771-1.545-1.57-3.054-2.393-4.55a.776.776,0,0,0-.478-.318,13.039,13.039,0,0,0-1.688-.266,64.558,64.558,0,0,0-8.261-.06,24.766,24.766,0,0,0-2.527.322.738.738,0,0,0-.487.3c-.8,1.507-1.582,3.029-2.367,4.547C-1833.564-276.886-1833.556-276.872-1833.546-276.825Zm-.225,6.1a8.22,8.22,0,0,0,1.025-.276,1.02,1.02,0,0,0,.66-1.035,2.171,2.171,0,0,0-2.343-2.18,1.7,1.7,0,0,0-1.51,1.195,1.584,1.584,0,0,0,.627,1.8A3.2,3.2,0,0,0-1833.771-270.727Zm18.569-.067.025.093a9.666,9.666,0,0,0,1.328-.408,1.54,1.54,0,0,0,.895-1.591,1.7,1.7,0,0,0-1.221-1.455,2.125,2.125,0,0,0-2.566,1.4,1.327,1.327,0,0,0,1.238,1.96A3,3,0,0,0-1815.2-270.794Zm-9.288,2.429c.919,0,1.837-.005,2.756,0,.286,0,.414-.121.412-.4,0-.3,0-.605,0-.907a.329.329,0,0,0-.373-.37q-2.772,0-5.545,0c-.263,0-.4.114-.391.383s0,.56,0,.84c0,.385.066.449.453.449C-1826.282-268.363-1825.385-268.365-1824.49-268.364Z" transform="translate(-16088.684 -1310.758)" fill="#f06424"/>
  </g>
</svg>
