<?xml version="1.0" encoding="utf-8"?>
<!-- Generator: Adobe Illustrator 24.2.3, SVG Export Plug-In . SVG Version: 6.00 Build 0)  -->
<svg version="1.1" id="Capa_1" xmlns="http://www.w3.org/2000/svg" xmlns:xlink="http://www.w3.org/1999/xlink" x="0px" y="0px"
	 viewBox="0 0 51.6 50.7" style="enable-background:new 0 0 51.6 50.7;" xml:space="preserve">
<style type="text/css">
	.st0{fill:#F26522;}
</style>
<g>
	<g>
		<path class="st0" d="M39.2,26.7H22.5c-0.4,0-0.7,0.3-0.7,0.7s0.3,0.7,0.7,0.7h16.8c0.4,0,0.7-0.3,0.7-0.7S39.6,26.7,39.2,26.7z"/>
		<path class="st0" d="M39.2,29.9H22.5c-0.4,0-0.7,0.3-0.7,0.7c0,0.4,0.3,0.7,0.7,0.7h16.8c0.4,0,0.7-0.3,0.7-0.7
			C40,30.2,39.6,29.9,39.2,29.9z"/>
		<path class="st0" d="M39.2,33H22.5c-0.4,0-0.7,0.3-0.7,0.7s0.3,0.7,0.7,0.7h16.8c0.4,0,0.7-0.3,0.7-0.7S39.6,33,39.2,33z"/>
		<path class="st0" d="M39.2,36.2H22.5c-0.4,0-0.7,0.3-0.7,0.7c0,0.4,0.3,0.7,0.7,0.7h16.8c0.4,0,0.7-0.3,0.7-0.7
			C40,36.5,39.6,36.2,39.2,36.2z"/>
		<path class="st0" d="M39.2,39.3H22.5c-0.4,0-0.7,0.3-0.7,0.7s0.3,0.7,0.7,0.7h16.8c0.4,0,0.7-0.3,0.7-0.7S39.6,39.3,39.2,39.3z"/>
		<path class="st0" d="M39.2,42.5H22.5c-0.4,0-0.7,0.3-0.7,0.7c0,0.4,0.3,0.7,0.7,0.7h16.8c0.4,0,0.7-0.3,0.7-0.7
			C40,42.8,39.6,42.5,39.2,42.5z"/>
		<path class="st0" d="M4.7,47.1h34.5c0.4,0,0.7-0.3,0.7-0.7c0-0.4-0.3-0.7-0.7-0.7H4.7C4.3,45.6,4,46,4,46.4
			C4,46.8,4.3,47.1,4.7,47.1L4.7,47.1z"/>
		<path class="st0" d="M4,43.2C4,43.6,4.3,44,4.7,44h13.8c0.4,0,0.7-0.3,0.7-0.7V27.4c0-0.4-0.3-0.7-0.7-0.7H4.7
			C4.3,26.7,4,27,4,27.4L4,43.2z M5.4,28.2h12.3v14.3H5.4L5.4,28.2z"/>
		<path class="st0" d="M40,10.3c0-0.4-0.3-0.7-0.7-0.7H4.7C4.3,9.5,4,9.9,4,10.3v13.2c0,0.4,0.3,0.7,0.7,0.7h34.5
			c0.4,0,0.7-0.3,0.7-0.7V10.3z M38.5,22.8H5.4V11h33.1V22.8z"/>
		<path class="st0" d="M7.6,21.1c0.4,0,0.7-0.3,0.7-0.7v-4.5l3.3,4.8c0.2,0.3,0.6,0.5,0.9,0.3c0.4-0.1,0.6-0.4,0.6-0.9l-0.1-6.7
			c0-0.4-0.3-0.7-0.7-0.7c0,0,0,0,0,0c-0.4,0-0.7,0.3-0.7,0.7l0,4.6l-3.5-5c-0.2-0.3-0.5-0.4-0.8-0.3c-0.3,0.1-0.5,0.4-0.5,0.7v6.9
			C6.9,20.7,7.2,21.1,7.6,21.1z"/>
		<path class="st0" d="M15.5,21.1h2.9c0.4,0,0.7-0.3,0.7-0.7s-0.3-0.7-0.7-0.7h-2.2v-2h2c0.4,0,0.7-0.3,0.7-0.7
			c0-0.4-0.3-0.7-0.7-0.7h-2v-2h2.2c0.4,0,0.7-0.3,0.7-0.7s-0.3-0.7-0.7-0.7h-2.9c-0.4,0-0.7,0.3-0.7,0.7v6.9
			C14.8,20.7,15.1,21.1,15.5,21.1L15.5,21.1z"/>
		<path class="st0" d="M34.3,21.1c1.4,0,2.6-0.9,2.8-2.1c0.2-0.9-0.3-2.1-1.9-2.7c-0.9-0.3-1.7-0.7-1.9-0.8
			c-0.2-0.1-0.3-0.4-0.2-0.6c0-0.1,0.1-0.5,0.6-0.7c1-0.3,2,0.4,2,0.5c0.3,0.3,0.8,0.2,1-0.1c0.3-0.3,0.2-0.8-0.1-1
			c-0.1-0.1-1.6-1.3-3.4-0.7c-0.9,0.3-1.5,1-1.7,1.9c-0.1,0.8,0.2,1.6,0.9,2c0,0,0.1,0,0.1,0.1c0,0,1,0.4,2.1,0.8
			c0.7,0.3,1.1,0.7,1,1.1c-0.1,0.4-0.6,0.9-1.3,0.9c-0.7,0-1.4-0.3-1.9-0.8c-0.3-0.3-0.7-0.3-1-0.1c-0.3,0.3-0.3,0.7-0.1,1
			C32,20.6,33.1,21.1,34.3,21.1L34.3,21.1z"/>
		<path class="st0" d="M22.2,20.4c0,0,0,0.1,0,0.1c0.1,0.4,0.5,0.6,0.8,0.6h0c0.4,0,0.7-0.2,0.8-0.6c0,0,0,0,0,0l1.4-4.5l1.4,4.5
			c0,0,0,0,0,0c0.1,0.4,0.5,0.6,0.8,0.6h0c0.4,0,0.7-0.2,0.8-0.6c0,0,0-0.1,0-0.1l1.4-6.8c0.1-0.4-0.2-0.8-0.6-0.9
			c-0.4-0.1-0.8,0.2-0.9,0.6l-0.9,4.5L26,13.2l0,0c-0.1-0.2-0.2-0.4-0.5-0.5c-0.4-0.1-0.8,0.1-0.9,0.5l-1.4,4.6l-0.9-4.5
			c-0.1-0.4-0.5-0.7-0.9-0.6c-0.4,0.1-0.7,0.5-0.6,0.9L22.2,20.4z"/>
		<path class="st0" d="M48.3,0.4C48.2,0.4,48.2,0.4,48.3,0.4l-13.6,0c-0.4,0-0.7,0.3-0.7,0.7s0.3,0.7,0.7,0.7h11.1
			c-0.2,0.4-0.3,0.8-0.3,1.2v16.6c0,0.4,0.3,0.7,0.7,0.7c0.4,0,0.7-0.3,0.7-0.7V3c0-0.6,0.6-1.2,1.2-1.2c0.6,0,1.2,0.6,1.2,1.2v42.9
			c0,1.6-1.4,3-3.1,3c0,0,0,0,0,0c0,0,0,0,0,0c-1.7,0-3.1-1.3-3.1-3v-5.5h1.1c1.5,0,2.7-1.2,2.7-2.7V23.1c0-0.4-0.3-0.7-0.7-0.7
			c-0.4,0-0.7,0.3-0.7,0.7v14.6c0,0.7-0.6,1.2-1.2,1.2h-1.1V9.2c0-1.5-1.2-2.7-2.7-2.7H6.3V3c0-0.7,0.5-1.2,1.2-1.2h23.7
			c0.4,0,0.7-0.3,0.7-0.7s-0.3-0.7-0.7-0.7H7.5C6,0.4,4.9,1.6,4.9,3v3.5H3.5C2,6.5,0.8,7.7,0.8,9.2v21.6c0,0.4,0.3,0.7,0.7,0.7
			s0.7-0.3,0.7-0.7V9.2c0-0.7,0.6-1.2,1.2-1.2h36.9c0.7,0,1.2,0.6,1.2,1.2v36.7c0,1.1,0.4,2.2,1.2,3H5.4c-1.7,0-3.1-1.3-3.1-3V34.2
			c0-0.4-0.3-0.7-0.7-0.7s-0.7,0.3-0.7,0.7v11.7c0,2.4,2.1,4.4,4.6,4.4h40.8h0c0,0,0,0,0,0c2.5,0,4.6-2,4.6-4.4V3.1
			C50.8,1.6,49.7,0.4,48.3,0.4L48.3,0.4z"/>
	</g>
</g>
</svg>
