<svg xmlns="http://www.w3.org/2000/svg" width="50.656" height="45.992" viewBox="0 0 50.656 45.992">
  <g id="Group_2497" data-name="Group 2497" transform="translate(17935.197 1679.849)">
    <g id="Group_2495" data-name="Group 2495">
      <g id="Group_2482" data-name="Group 2482" transform="translate(-17915.738 -1679.849)">
        <path id="Path_1559" data-name="Path 1559" d="M-772.539,390.853a.538.538,0,0,0,.084-.31.5.5,0,0,0-.112-.34.512.512,0,0,0-.314-.163c-.07-.009-.272-.014-.612-.014h-.654v1.054h.619a3.287,3.287,0,0,0,.754-.051A.461.461,0,0,0-772.539,390.853Z" transform="translate(776.128 -383.255)" fill="#f06424"/>
        <path id="Path_1560" data-name="Path 1560" d="M-767.8,390a1.062,1.062,0,0,0-.833.356,1.56,1.56,0,0,0-.317,1.071,1.557,1.557,0,0,0,.324,1.069,1.065,1.065,0,0,0,.827.363,1.056,1.056,0,0,0,.824-.361,1.584,1.584,0,0,0,.321-1.082,1.554,1.554,0,0,0-.314-1.064A1.052,1.052,0,0,0-767.8,390Z" transform="translate(783.027 -383.286)" fill="#f06424"/>
        <path id="Path_1561" data-name="Path 1561" d="M-745.522,393.227c-1.192-.07-2.393-.016-3.655-.016,0-.91-.021-1.809.009-2.7a.808.808,0,0,0-.489-.836c-1.3-.724-2.577-1.5-3.888-2.216a2.6,2.6,0,0,0-1.194-.321q-9.777-.031-19.559-.016c-.23,0-.461.021-.7.033v16.235c.165.014.279.033.4.033q10.028,0,20.06,0a1.7,1.7,0,0,0,.8-.224c1.383-.777,2.745-1.588,4.13-2.365a.763.763,0,0,0,.444-.78c-.016-1.415.009-2.831.019-4.249,1.222-.054,2.449-.07,3.666-.177,1.073-.1,1.667-.545,1.683-1.122C-743.785,393.865-744.469,393.287-745.522,393.227Zm-25.6,4.111-.605-.9a6.074,6.074,0,0,0-.442-.61.654.654,0,0,0-.251-.172,1.4,1.4,0,0,0-.421-.046h-.17v1.732h-.838V393.19h1.765a3.025,3.025,0,0,1,.966.112.956.956,0,0,1,.482.4,1.184,1.184,0,0,1,.182.654,1.105,1.105,0,0,1-.275.771,1.326,1.326,0,0,1-.822.384,1.951,1.951,0,0,1,.449.347,4.7,4.7,0,0,1,.477.675l.507.808Zm4.612,0h-3.157V393.19h3.078v.7h-2.239v.919h2.083v.7h-2.083v1.129h2.318Zm3.557-.258a1.763,1.763,0,0,1-1.1.331,1.781,1.781,0,0,1-1.357-.566,2.156,2.156,0,0,1-.533-1.543,2.268,2.268,0,0,1,.535-1.609,1.829,1.829,0,0,1,1.406-.575,1.733,1.733,0,0,1,1.239.452,1.637,1.637,0,0,1,.423.764l-.829.2a.883.883,0,0,0-.307-.51.887.887,0,0,0-.568-.186.947.947,0,0,0-.749.331,1.631,1.631,0,0,0-.286,1.073,1.748,1.748,0,0,0,.282,1.122.928.928,0,0,0,.738.333.831.831,0,0,0,.573-.212,1.239,1.239,0,0,0,.347-.668l.812.258A1.831,1.831,0,0,1-762.958,397.08Zm4.649-.237a1.929,1.929,0,0,1-1.46.568,1.957,1.957,0,0,1-1.474-.566,2.145,2.145,0,0,1-.545-1.555,2.646,2.646,0,0,1,.189-1.064,1.969,1.969,0,0,1,.387-.57,1.606,1.606,0,0,1,.538-.372,2.274,2.274,0,0,1,.894-.165,1.946,1.946,0,0,1,1.467.57,2.174,2.174,0,0,1,.552,1.581A2.172,2.172,0,0,1-758.309,396.842Zm4.5.5h-.84l-1.671-2.7v2.7h-.78V393.19h.815l1.7,2.77v-2.77h.778Zm8.5-2.312c-1.1.124-2.214.147-3.322.207-.14.007-.279,0-.47,0l-.065.547a5.471,5.471,0,0,0-.971-.074,1.555,1.555,0,0,0-.791.27,1.063,1.063,0,0,1-1.574-.033,1.028,1.028,0,0,1,.107-1.46c.491-.431,1.008-.277,1.562.168a4.852,4.852,0,0,0,1.481.542c.118-.226.153-.265.156-.307.056-1.062.051-1.12,1.136-1.183a14.723,14.723,0,0,1,2.752.123c.328.044.61.424.915.65C-744.7,394.668-744.989,394.991-745.31,395.026Z" transform="translate(774.998 -387.118)" fill="#f06424"/>
      </g>
      <path id="Path_1540" data-name="Path 1540" d="M-746.584,407.609c1.316-.085,1.316-.085,1.711,1.065a20.519,20.519,0,0,1-15.854,26.7,20.321,20.321,0,0,1-22.8-13.532,20.433,20.433,0,0,1,15.753-26.795c.309-.053.62-.1.921-.145.3,1.054.215,1.146-.865,1.385-7.931,1.756-13.114,6.543-15.121,14.43A19.14,19.14,0,0,0-768.36,434a19.217,19.217,0,0,0,23.033-15.411,19.3,19.3,0,0,0-1.008-10.335Z" transform="translate(-17150.555 -2069.527)" fill="#f06424"/>
      <path id="Path_1576" data-name="Path 1576" d="M-1816.729-266.234h-16.692c0,.448,0,.884,0,1.32a.754.754,0,0,1-.867.861q-1.351,0-2.7,0a.713.713,0,0,1-.811-.809q0-4.086,0-8.172a3.243,3.243,0,0,1,.842-2.2c.372-.426.741-.856,1.145-1.323-.614-.172-1.188-.328-1.759-.494a.858.858,0,0,1-.671-.8.865.865,0,0,1,.841-.943,12.836,12.836,0,0,1,1.575.012,2.019,2.019,0,0,1,.722.3,2.224,2.224,0,0,1,.367.321c.38-.787.744-1.559,1.126-2.321.206-.411.459-.8.667-1.208a2.751,2.751,0,0,1,2.276-1.5,43.092,43.092,0,0,1,6.9-.27c1.433.035,2.865.172,4.295.282a2.578,2.578,0,0,1,2.257,1.464c.52,1.032,1.052,2.057,1.578,3.086.076.149.142.3.225.483a1.813,1.813,0,0,1,.352-.315,2.778,2.778,0,0,1,.843-.327,10.743,10.743,0,0,1,1.382-.013.884.884,0,0,1,.927.723.873.873,0,0,1-.691,1.035c-.553.161-1.11.31-1.7.474.058.084.1.153.147.211.321.374.642.749.968,1.119a3.262,3.262,0,0,1,.847,2.23q0,4.054,0,8.107c0,.588-.259.844-.842.845q-1.351,0-2.7,0a.743.743,0,0,1-.839-.825C-1816.734-265.324-1816.729-265.771-1816.729-266.234Zm-17.02-10.879a86.948,86.948,0,0,1,17.4-.044c-.737-1.478-1.5-2.922-2.29-4.353a.742.742,0,0,0-.458-.3,12.473,12.473,0,0,0-1.615-.255,61.764,61.764,0,0,0-7.9-.058,23.7,23.7,0,0,0-2.417.308.706.706,0,0,0-.466.289c-.77,1.442-1.514,2.9-2.265,4.35C-1833.766-277.171-1833.759-277.158-1833.749-277.113Zm-.215,5.835a7.864,7.864,0,0,0,.981-.264.976.976,0,0,0,.632-.991,2.077,2.077,0,0,0-2.242-2.086,1.627,1.627,0,0,0-1.445,1.143,1.516,1.516,0,0,0,.6,1.727A3.062,3.062,0,0,0-1833.964-271.278Zm17.767-.064.024.089a9.253,9.253,0,0,0,1.27-.39,1.473,1.473,0,0,0,.856-1.523,1.63,1.63,0,0,0-1.168-1.392,2.033,2.033,0,0,0-2.455,1.339,1.27,1.27,0,0,0,1.184,1.876A2.864,2.864,0,0,0-1816.2-271.342Zm-8.886,2.324c.879,0,1.758,0,2.637,0,.273,0,.4-.116.394-.382,0-.289,0-.579,0-.868a.315.315,0,0,0-.357-.354q-2.652,0-5.306,0c-.252,0-.379.109-.374.367s0,.536,0,.8c0,.368.063.429.434.43C-1826.8-269.017-1825.941-269.018-1825.084-269.018Z" transform="translate(-16089.04 -1378.553)" fill="#f06424"/>
    </g>
  </g>
</svg>
