<svg xmlns="http://www.w3.org/2000/svg" width="50.002" height="47.735" viewBox="0 0 50.002 47.735">
  <g id="Group_2486" data-name="Group 2486" transform="translate(-6566 2228)">
    <g id="Group_2485" data-name="Group 2485" transform="translate(6566 -2228)">
      <path id="Path_1571" data-name="Path 1571" d="M-1467.407,437.673c-.464-.436-.882-.89-1.365-1.264a1.621,1.621,0,0,1-.63-1.472c.037-2.6.011-5.209.021-7.814,0-.263-.071-.38-.334-.451a2.707,2.707,0,0,1-1.766-1.84.787.787,0,0,1-.014-.279c0-1.178.024-2.355-.01-3.532a2.77,2.77,0,0,1,.4-1.662.455.455,0,0,0-.039-.614,5.238,5.238,0,0,1-1.087-2.424c-.042-.222-.143-.276-.356-.277-2.636-.01-5.271-.034-7.908-.039a.843.843,0,0,1-.65-.276q-3.75-3.764-7.507-7.521a.667.667,0,0,0-.547-.221c-.352.015-.7,0-1.088,0-.006-.136-.016-.246-.015-.357q.024-7.314.045-14.628a.349.349,0,0,1,.306-.4c1.679-.486,3.352-.991,5.031-1.479a1.669,1.669,0,0,1,.642-.064c2.108.25,4.213.533,6.324.771,2.812.318,5.607.807,8.447.846a27.109,27.109,0,0,0,11.223-2.206,6.611,6.611,0,0,1,1.438-.493,2.356,2.356,0,0,1,2.494,1.173,2.54,2.54,0,0,1-.175,2.849,3.982,3.982,0,0,1-.852.668,5.8,5.8,0,0,0-.611.4c.108.006.215.015.323.017,1.323.028,2.646.035,3.967.086a2.444,2.444,0,0,1,2.2,2.737,2.717,2.717,0,0,1-1.944,2.192.926.926,0,0,1-.31.021l-4.5.092c-.092,0-.184.014-.354.028.148.084.231.136.318.18,1.14.584,2.3,1.137,3.415,1.758A2.414,2.414,0,0,1-1451.6,405a2.514,2.514,0,0,1-2.566,1.867,2.012,2.012,0,0,1-.708-.218q-3.469-1.65-6.929-3.318c-.673-.323-1.344-.651-2.061-1-.015.209-.036.371-.037.532-.011,1.667,0,3.334-.033,5-.019.966-.111,1.93-.146,2.9a.545.545,0,0,0,.223.365,5.232,5.232,0,0,1,2.056,3.117,5.16,5.16,0,0,1-.621,3.969,1.175,1.175,0,0,1-.1.155.934.934,0,0,0-.123,1.351.912.912,0,0,1,.138.535c.007,1.489.044,2.979-.021,4.465a2.224,2.224,0,0,1-1.635,1.934c-.262.107-.34.206-.337.476.015,1.292,0,2.584.013,3.876a.515.515,0,0,1-.254.522,1.253,1.253,0,0,0-.648,1.339c.054.872.008,1.75.018,2.625a.622.622,0,0,1-.218.517C-1466.2,436.547-1466.79,437.1-1467.407,437.673Zm-1.522-30.526h-.07c0-1.021,0-2.042,0-3.063a.578.578,0,0,0-.118-.363,20.223,20.223,0,0,0-1.535-1.557,4.973,4.973,0,0,0-5.232-1.037,5.123,5.123,0,0,0-3.312,5.262,5.419,5.419,0,0,0,1.318,3.011.883.883,0,0,0,.765.35c1.635-.007,3.271.025,4.906.019a3.288,3.288,0,0,1,2.37.871c.24.226.421.09.64,0a.44.44,0,0,0,.278-.491C-1468.938,409.147-1468.929,408.147-1468.929,407.148Zm1.63,11.1v-.061c.926,0,1.853.009,2.779,0a.942.942,0,0,0,.854-.483,3.992,3.992,0,0,0-.829-5.328.954.954,0,0,0-1.115-.239,2.294,2.294,0,0,1-1.99-.151c-.12-.063-.24-.126-.364-.178a.666.666,0,0,0-.982.6c-.011.229-.034.458-.025.687a2.482,2.482,0,0,1-.717,1.812,5.756,5.756,0,0,1-.966.776.423.423,0,0,0-.22.513,4.895,4.895,0,0,0,.885,1.844.451.451,0,0,0,.409.211C-1468.821,418.243-1468.06,418.249-1467.3,418.249Zm.283,3.53c.546-.029,1.129-.039,1.708-.1a.7.7,0,0,0,.691-.83c-.013-.414-.13-.506-.524-.378a5.15,5.15,0,0,1-2.091.27,12.96,12.96,0,0,1-1.621-.29c-.281-.063-.408.016-.469.284a.758.758,0,0,0,.619.95C-1468.158,421.755-1467.6,421.752-1467.016,421.779Z" transform="translate(1499.479 -389.938)" fill="#f06424"/>
      <path id="Path_1572" data-name="Path 1572" d="M-1506.806,410.7h-5.839l-1.859-19.959h7.7Z" transform="translate(1514.505 -390.438)" fill="#f06424"/>
    </g>
  </g>
</svg>
