<svg xmlns="http://www.w3.org/2000/svg" width="50.4" height="39.842" viewBox="0 0 50.4 39.842">
  <g id="Group_2506" data-name="Group 2506" transform="translate(3338.254 555.814)">
    <path id="Path_1602" data-name="Path 1602" d="M-3332.622-541.123c-1.535,0-2.7-.012-3.87,0a1.515,1.515,0,0,1-1.744-1.752c0-.045,0-.091,0-.136.087-1.037-.4-2.364.964-2.852a3.329,3.329,0,0,1,3.643.86c.473.48.877,1.028,1.387,1.634.2-.642.366-1.232.573-1.807q.712-1.982,1.46-3.952c1.69-4.443,4.957-6.351,9.667-6.517a100.631,100.631,0,0,1,16.339.323c2.551.325,4.654,1.341,5.818,3.716,1.291,2.635,2.444,5.336,3.647,7.986.093-.125.338-.462.593-.791a3.6,3.6,0,0,1,3.68-1.561,1.97,1.97,0,0,1,1.357,1.046,5.334,5.334,0,0,1,0,2.685,2.044,2.044,0,0,1-1.471,1.063,28.341,28.341,0,0,1-3.7.049l3.11,4.424-2.695.492c-2.4-3.515-6.207-3.544-8.375-.052-3.384-1.37-7.359,2.614-5.942,5.971-3.5,2.246-3.508,6.3.027,8.435l-.451,2.039h-18.081c.084-.155.02-.083,0,0-.2,1.06.5,2.666-.863,3.025a14.778,14.778,0,0,1-4.828.075c-.328-.026-.737-.86-.847-1.377a15.161,15.161,0,0,1-.058-2.175c-.017-.287-.112-.744-.3-.819-1.556-.634-1.945-2.08-2.117-3.424a70.143,70.143,0,0,1-.754-9.48C-3336.424-536.725-3334.91-538.98-3332.622-541.123Zm34.663-.986.419-.324c-1.031-2.5-2.071-5-3.089-7.5a2.992,2.992,0,0,0-2.449-1.891,55.936,55.936,0,0,0-21.127.045,2.844,2.844,0,0,0-1.754.883,25.8,25.8,0,0,0-3.479,8.8A185.66,185.66,0,0,1-3297.959-542.109Zm-30.6,5.073a3.416,3.416,0,0,0-3.384,3.5,3.374,3.374,0,0,0,3.475,3.387,3.442,3.442,0,0,0,3.412-3.482A3.479,3.479,0,0,0-3328.563-537.036Z" fill="#f06424"/>
    <path id="Path_1603" data-name="Path 1603" d="M-3213.634-466.945c-.845.565-2.194.433-2.143,1.953.037,1.117-.717,1.307-1.66,1.243-.84-.058-1.711.2-1.885-1.143a1.864,1.864,0,0,0-3.161-1.375c-1.034.785-1.56.253-2.28-.419a1.377,1.377,0,0,1-.2-2.193,1.851,1.851,0,0,0-1.271-3.059c-1.122-.12-1.465-.653-1.429-1.7.033-.961-.012-1.762,1.33-1.908a1.891,1.891,0,0,0,1.274-3.158c-.777-1.006-.342-1.558.373-2.286s1.291-.951,2.192-.247a1.831,1.831,0,0,0,3.056-1.213c.18-1.393.967-1.466,2.078-1.495,1.19-.031,1.45.61,1.6,1.566a1.92,1.92,0,0,0,3.046,1.194c.923-.743,1.515-.6,2.293.216.734.768,1.058,1.334.281,2.3a1.843,1.843,0,0,0,1.25,3.041c1.484.176,1.353,1.1,1.411,2.128.065,1.166-.5,1.466-1.524,1.579a1.893,1.893,0,0,0-1.277,2.837,1.552,1.552,0,0,1-.143,2.511c-.9.877-1.563.885-2.417.1A4.178,4.178,0,0,0-3213.634-466.945Zm-4.05-2.05a4.956,4.956,0,0,0,4.9-4.839,4.961,4.961,0,0,0-4.839-4.9,4.97,4.97,0,0,0-4.9,4.842A4.962,4.962,0,0,0-3217.684-468.995Z" transform="translate(-80.382 -52.235)" fill="#f06424"/>
  </g>
</svg>
