<svg xmlns="http://www.w3.org/2000/svg" width="50.002" height="46.598" viewBox="0 0 50.002 46.598">
  <g id="Group_2496" data-name="Group 2496" transform="translate(18049 1671.412)">
    <g id="Group_2494" data-name="Group 2494" transform="translate(-317.072 -94.85)">
      <g id="Group_2493" data-name="Group 2493" transform="translate(-17731.928 -1576.562)">
        <g id="Group_2492" data-name="Group 2492" transform="translate(0)">
          <path id="Path_1539" data-name="Path 1539" d="M-720.664,395.581c-.009,1.389-.033,2.778-.017,4.167a.747.747,0,0,1-.436.762c-1.351.758-2.683,1.551-4.034,2.31a1.675,1.675,0,0,1-.78.217q-9.8.014-19.593,0c-.113,0-.226-.018-.388-.032V387.151c.235-.011.46-.032.685-.032q9.554,0,19.108.014a2.552,2.552,0,0,1,1.165.314c1.28.7,2.524,1.458,3.8,2.166a.785.785,0,0,1,.477.815c-.031.874-.01,1.751-.01,2.641,1.233,0,2.406-.053,3.571.016,1.028.06,1.7.624,1.68,1.245-.016.564-.6,1-1.644,1.095-1.2.1-2.4.121-3.6.175.021-.175.041-.349.064-.553.189,0,.325.006.461,0,1.082-.058,2.169-.081,3.244-.2.313-.035.6-.351.893-.537-.3-.221-.572-.591-.893-.634a14.273,14.273,0,0,0-2.688-.121c-1.058.06-1.054.118-1.108,1.155a1.68,1.68,0,0,1-.152.3,4.736,4.736,0,0,1-1.448-.529c-.542-.434-1.046-.585-1.526-.163a1.006,1.006,0,0,0-.1,1.426,1.04,1.04,0,0,0,1.538.03,1.5,1.5,0,0,1,.774-.262A5.563,5.563,0,0,1-720.664,395.581Zm-9.019-5.237c0,3.071-.007,6.1.021,9.131,0,.133.318.37.494.376a17.434,17.434,0,0,0,2.148-.057,1.948,1.948,0,0,0,2.026-2.038c.071-1.826.066-3.659,0-5.485a1.774,1.774,0,0,0-1.674-1.9A26.173,26.173,0,0,0-729.684,390.344Zm-11.546-.027v.815c0,2.016.015,4.032-.013,6.048-.006.436.178,1.144-.537,1.139-.678,0-.553-.688-.558-1.141-.019-2.039-.009-4.079-.009-6.118v-.722h-1.833c0,2.1-.009,4.133.006,6.169a11.944,11.944,0,0,0,.137,1.727,1.776,1.776,0,0,0,1.263,1.6c1.619.446,3.274.044,3.335-2.2.06-2.223.033-4.448.04-6.673,0-.2-.023-.4-.038-.641Zm6.719,2.593a9.752,9.752,0,0,0-.122-1.088c-.288-1.251-.8-1.687-1.919-1.681a2.02,2.02,0,0,0-2.155,1.759,3.342,3.342,0,0,0,.79,3.037,9.742,9.742,0,0,1,1.124,1.224,5.83,5.83,0,0,1,.609,1.569c.039.142-.2.361-.311.544-.184-.141-.462-.246-.532-.431a7.5,7.5,0,0,1-.257-1.225l-1.528.285a14.682,14.682,0,0,0,.217,1.476A2.04,2.04,0,0,0-736.461,400a2.127,2.127,0,0,0,2.033-1.765,3.523,3.523,0,0,0-.689-3.005c-.4-.508-.929-.922-1.276-1.459a4.813,4.813,0,0,1-.536-1.5c-.03-.123.242-.318.375-.479.127.142.316.264.369.429a5.39,5.39,0,0,1,.136.913Zm.759-2.591c-.042.08-.08.12-.08.16-.01,2.986-.024,5.972,0,8.958,0,.145.29.4.459.411.667.049,1.342.022,2.012.022,1.305,0,1.307,0,1.192-1.3a1.085,1.085,0,0,0-.112-.251h-1.74v-2.7l1.33-.075v-1.473l-1.288-.063v-2.233c.541,0,1.178.184,1.506-.055.289-.211.232-.895.336-1.407Z" transform="translate(765.439 -387.118)" fill="#f06424"/>
          <path id="Path_1540" data-name="Path 1540" d="M-745.254,408.053c1.362-.088,1.362-.088,1.771,1.1a21.235,21.235,0,0,1-16.408,27.637,21.031,21.031,0,0,1-23.592-14,21.147,21.147,0,0,1,16.3-27.731c.32-.055.641-.1.954-.15.309,1.091.222,1.186-.9,1.433-8.208,1.817-13.572,6.772-15.649,14.934a19.808,19.808,0,0,0,14.98,24.088,19.888,19.888,0,0,0,23.837-15.949,19.969,19.969,0,0,0-1.043-10.7Z" transform="translate(784.644 -390.496)" fill="#f06424"/>
          <path id="Path_1541" data-name="Path 1541" d="M-714.019,395.542c.833-.063,1.029.082,1.036.792.016,1.57.012,3.139,0,4.71a1.068,1.068,0,0,1-.179.645.961.961,0,0,1-.608.238c-.07.006-.235-.255-.236-.395C-714.025,399.549-714.019,397.566-714.019,395.542Z" transform="translate(752.138 -390.766)" fill="#f06424"/>
        </g>
        <path id="Path_1576" data-name="Path 1576" d="M-1815.978-265.631h-17.275c0,.464,0,.915,0,1.367a.78.78,0,0,1-.9.891q-1.4,0-2.8,0a.738.738,0,0,1-.84-.837q0-4.228,0-8.457a3.355,3.355,0,0,1,.871-2.275c.385-.441.767-.886,1.185-1.369-.635-.178-1.229-.34-1.82-.511a.888.888,0,0,1-.694-.829.9.9,0,0,1,.87-.976,13.284,13.284,0,0,1,1.63.012,2.089,2.089,0,0,1,.747.313,2.306,2.306,0,0,1,.38.332c.394-.814.77-1.613,1.166-2.4.213-.425.475-.826.69-1.251a2.847,2.847,0,0,1,2.355-1.553,44.6,44.6,0,0,1,7.143-.28c1.483.036,2.965.178,4.445.292a2.668,2.668,0,0,1,2.336,1.515c.538,1.068,1.089,2.129,1.633,3.194.079.154.147.314.233.5a1.876,1.876,0,0,1,.364-.326,2.875,2.875,0,0,1,.872-.338,11.118,11.118,0,0,1,1.43-.014.914.914,0,0,1,.959.748.9.9,0,0,1-.716,1.071c-.573.166-1.149.321-1.76.49.06.087.1.158.153.219.332.387.664.775,1,1.158a3.376,3.376,0,0,1,.876,2.308q0,4.2,0,8.39c0,.608-.268.873-.871.875q-1.4,0-2.8,0a.769.769,0,0,1-.869-.854C-1815.982-264.69-1815.978-265.153-1815.978-265.631Zm-17.614-11.259a89.985,89.985,0,0,1,18.009-.045c-.763-1.53-1.554-3.024-2.37-4.505a.768.768,0,0,0-.474-.315,12.917,12.917,0,0,0-1.671-.264,63.924,63.924,0,0,0-8.18-.06,24.527,24.527,0,0,0-2.5.318.731.731,0,0,0-.482.3c-.8,1.493-1.567,3-2.344,4.5C-1833.61-276.951-1833.6-276.937-1833.592-276.89Zm-.223,6.039a8.132,8.132,0,0,0,1.015-.273,1.01,1.01,0,0,0,.654-1.025,2.15,2.15,0,0,0-2.32-2.158,1.684,1.684,0,0,0-1.5,1.183,1.569,1.569,0,0,0,.621,1.787A3.169,3.169,0,0,0-1833.815-270.852Zm18.387-.066.024.092a9.574,9.574,0,0,0,1.315-.4,1.525,1.525,0,0,0,.886-1.576,1.687,1.687,0,0,0-1.209-1.441,2.1,2.1,0,0,0-2.541,1.386,1.314,1.314,0,0,0,1.226,1.941A2.966,2.966,0,0,0-1815.427-270.918Zm-9.2,2.405c.91,0,1.819,0,2.729,0,.283,0,.41-.12.408-.4,0-.3,0-.6,0-.9a.326.326,0,0,0-.37-.366q-2.745,0-5.491,0c-.26,0-.392.112-.387.38s0,.555,0,.832c0,.381.065.444.449.445C-1826.4-268.511-1825.511-268.513-1824.624-268.512Z" transform="translate(1846.436 300.918)" fill="#f06424"/>
      </g>
    </g>
  </g>
</svg>
